<svg width="50" height="50" viewBox="0 0 50 50" fill="none" xmlns="http://www.w3.org/2000/svg">
<path d="M7.36247 19.7223C6.74913 19.7219 6.25041 20.2188 6.25 20.832V31.9445C6.25 32.5581 6.7475 33.0556 7.36111 33.0556C7.97472 33.0556 8.47222 32.5581 8.47222 31.9445V20.8334C8.47263 20.2201 7.97567 19.7227 7.36247 19.7223ZM34.7914 9.49618L37.1767 5.89199C37.5159 5.38024 37.3759 4.69041 36.8642 4.35119C36.3524 4.01197 35.6626 4.15194 35.3234 4.66369L32.9673 8.22366C28.8231 5.77737 23.6768 5.77737 19.5327 8.22366L17.1767 4.66369C16.8374 4.15194 16.1476 4.01197 15.6359 4.35119C15.1241 4.69041 14.9841 5.38024 15.3234 5.89199L17.7086 9.49618C14.6723 12.0244 12.9167 15.7713 12.9167 19.7223V38.6112C12.9163 39.2245 13.4132 39.7219 14.0264 39.7223H20.6944V47.5001C20.6944 48.1137 21.1919 48.6112 21.8056 48.6112C22.4192 48.6112 22.9167 48.1137 22.9167 47.5001V39.7223H29.5833V47.5001C29.5833 48.1137 30.0808 48.6112 30.6944 48.6112C31.3081 48.6112 31.8056 48.1137 31.8056 47.5001V39.7223H38.4722C39.0856 39.7227 39.5829 39.2257 39.5833 38.6124V19.7223C39.5833 15.7713 37.8277 12.0244 34.7914 9.49618ZM37.3611 37.5001H15.1389V21.9445H37.3611V37.5001ZM15.1389 19.7223C15.1389 13.5858 20.1135 8.61117 26.25 8.61117C32.3865 8.61117 37.3611 13.5858 37.3611 19.7223H15.1389ZM45.1402 19.7223C44.5269 19.7219 44.0282 20.2188 44.0278 20.832V31.9445C44.0278 32.5581 44.5253 33.0556 45.1389 33.0556C45.7525 33.0556 46.25 32.5581 46.25 31.9445V20.8334C46.2504 20.2201 45.7534 19.7227 45.1402 19.7223Z" fill="black" stroke="black" stroke-width="0.5"/>
</svg>
