<svg width="50" height="50" viewBox="0 0 50 50" fill="none" xmlns="http://www.w3.org/2000/svg">
<path d="M28.0003 8.83346C28.9074 7.75206 30.2866 6.88885 31.5827 6.48846C31.4174 7.98747 30.7459 9.45157 29.8154 10.6005L29.8014 10.6177L29.8003 10.6192C28.8665 11.7613 27.5225 12.6313 26.1863 12.899C26.3426 11.4064 27.0973 9.89803 27.9958 8.83873L27.9959 8.83874L28.0003 8.83346ZM32.7361 15.9239C33.7366 15.9654 36.2586 16.2977 38.1962 18.3944C37.7799 18.7443 37.2905 19.2085 36.8058 19.7915C35.757 21.0532 34.7186 22.8893 34.5178 25.3127L34.4681 25.3277L34.4762 26.2644C34.5057 29.688 35.996 32.0078 37.491 33.4549C38.2048 34.1459 38.9172 34.6369 39.4693 34.9634C39.0896 35.9848 38.3796 37.64 37.2414 39.3321L37.2412 39.3323C36.4094 40.5696 35.6478 41.6696 34.7992 42.4777C33.9747 43.2628 33.165 43.678 32.2415 43.6953L32.2401 43.6953C31.2297 43.7154 30.5874 43.4327 29.6747 43.0308L29.6655 43.0268C28.7112 42.6067 27.5512 42.1073 25.7776 42.1073C24.0206 42.1073 22.8476 42.5698 21.8679 42.9921C21.8102 43.017 21.7536 43.0414 21.6981 43.0654C20.8289 43.4415 20.2044 43.7116 19.2898 43.7484C18.484 43.7781 17.6601 43.3776 16.75 42.5096C15.8386 41.6403 15.0024 40.4579 14.1707 39.2331L14.1698 39.2318C12.5826 36.9003 11.1599 33.5598 10.5561 30.0802C9.95044 26.5902 10.1935 23.1184 11.7328 20.4005L11.7331 20.3999C13.2524 17.7136 15.9384 16.0623 18.7948 16.0194L18.7948 16.0194L18.7993 16.0193C19.7937 16.0008 20.8199 16.3438 21.9272 16.7837C22.0586 16.8359 22.194 16.8906 22.3315 16.9461C22.7348 17.1091 23.1556 17.2791 23.5419 17.4127C24.0582 17.5913 24.6592 17.76 25.2612 17.76C25.8893 17.76 26.5442 17.5528 27.0909 17.3535C27.3905 17.2443 27.7592 17.0967 28.1248 16.9504C28.3967 16.8417 28.6669 16.7335 28.9057 16.6424C30.1809 16.1556 31.4394 15.793 32.6602 15.9185L32.6981 15.9224L32.7361 15.9239Z" stroke="black" stroke-width="2.5"/>
</svg>
