<svg width="50" height="50" viewBox="0 0 50 50" fill="none" xmlns="http://www.w3.org/2000/svg">
<path fill-rule="evenodd" clip-rule="evenodd" d="M35.7335 26.2514C35.6841 21.1877 39.7917 18.7577 39.9752 18.6374C37.6665 15.2005 34.0695 14.7281 32.7879 14.675C29.727 14.3605 26.8163 16.51 25.2612 16.51C23.7104 16.51 21.3139 14.7222 18.776 14.7695C15.4402 14.8197 12.3648 16.744 10.6451 19.7845C7.17939 25.9037 9.75862 34.9733 13.1366 39.9353C14.7867 42.3652 16.7545 45.095 19.3388 44.9975C21.8267 44.8978 22.7681 43.3573 25.7776 43.3573C28.7862 43.3573 29.6312 44.9975 32.2649 44.9451C34.9428 44.8949 36.6393 42.4679 38.2785 40.0298C40.1753 37.2099 40.9528 34.4832 41 34.343C40.9405 34.3157 35.7783 32.3035 35.7261 26.2536L35.7334 26.2514H35.7335ZM30.7867 11.3872C32.1576 9.69464 33.0838 7.3451 32.8307 5C30.8556 5.08193 28.4606 6.33973 27.0426 8.03012C25.7696 9.53077 24.6577 11.9224 24.9551 14.2195C27.1608 14.3945 29.4129 13.079 30.7845 11.3902L30.7867 11.3872Z" fill="black"/>
</svg>
