<svg width="50" height="50" viewBox="0 0 50 50" fill="none" xmlns="http://www.w3.org/2000/svg">
<path fill-rule="evenodd" clip-rule="evenodd" d="M37.3953 12.605C34.6604 9.87011 30.951 8.33366 27.0833 8.33366C26.5308 8.33366 26.0009 8.11417 25.6102 7.72346C25.2195 7.33276 25 6.80286 25 6.25033C25 5.69779 25.2195 5.16789 25.6102 4.77719C26.0009 4.38649 26.5308 4.16699 27.0833 4.16699C32.0561 4.16699 36.8252 6.14243 40.3415 9.65874C43.8579 13.175 45.8333 17.9442 45.8333 22.917C45.8333 23.4695 45.6138 23.9994 45.2231 24.3901C44.8324 24.7808 44.3025 25.0003 43.75 25.0003C43.1974 25.0003 42.6675 24.7808 42.2768 24.3901C41.8861 23.9994 41.6666 23.4695 41.6666 22.917C41.6666 19.0493 40.1302 15.3399 37.3953 12.605ZM44.7376 32.275C45.0001 32.5119 45.1979 32.8117 45.3125 33.1462C45.4883 33.6407 45.6207 34.1495 45.7083 34.667C45.7921 35.1906 45.8339 35.7201 45.8333 36.2503C45.8333 37.5088 45.5854 38.755 45.1038 39.9177C44.6222 41.0804 43.9163 42.1369 43.0264 43.0268C42.1365 43.9167 41.08 44.6226 39.9173 45.1042C38.7546 45.5858 37.5085 45.8337 36.25 45.8337C27.7443 45.8226 19.5902 42.4389 13.5758 36.4245C7.56139 30.4101 4.17765 22.256 4.16663 13.7503C4.16663 11.2087 5.1763 8.77111 6.97352 6.97389C8.77074 5.17666 11.2083 4.16699 13.75 4.16699C14.2902 4.18345 14.8276 4.25323 15.3541 4.37533C15.8652 4.45095 16.3676 4.57655 16.8541 4.75033C17.1886 4.86491 17.4884 5.06273 17.7253 5.32514C17.9622 5.58756 18.1284 5.90594 18.2083 6.25033L21.0625 18.6045C21.1394 18.9438 21.1301 19.297 21.0355 19.6318C20.9409 19.9665 20.7639 20.2723 20.5208 20.5212C20.2652 20.8161 20.2323 20.8327 18.0054 21.9544C17.8726 22.0212 17.7321 22.092 17.5833 22.167C19.6354 26.6688 23.2358 30.284 27.7291 32.3545C29.0833 29.7712 29.1041 29.7503 29.3958 29.4795C29.6446 29.2363 29.9504 29.0594 30.2852 28.9648C30.62 28.8702 30.9732 28.8609 31.3125 28.9378L43.8125 31.792C44.1568 31.8719 44.4752 32.0381 44.7376 32.275ZM31.5026 18.4977C30.3305 17.3256 28.7408 16.6672 27.0832 16.6672C26.5307 16.6672 26.0008 16.4477 25.6101 16.057C25.2194 15.6663 24.9999 15.1364 24.9999 14.5838C24.9999 14.0313 25.2194 13.5014 25.6101 13.1107C26.0008 12.72 26.5307 12.5005 27.0832 12.5005C29.8459 12.5005 32.4954 13.598 34.4489 15.5515C36.4024 17.505 37.4999 20.1545 37.4999 22.9172C37.4999 23.4697 37.2804 23.9996 36.8897 24.3903C36.499 24.781 35.9691 25.0005 35.4165 25.0005C34.864 25.0005 34.3341 24.781 33.9434 24.3903C33.5527 23.9996 33.3332 23.4697 33.3332 22.9172C33.3332 21.2596 32.6747 19.6698 31.5026 18.4977Z" fill="#67D178"/>
</svg>
