<svg width="31" height="42" viewBox="0 0 31 42" fill="none" xmlns="http://www.w3.org/2000/svg">
<path d="M8.18001 0.683574C8.00525 0.30803 7.55914 0.145261 7.1836 0.320019L1.06377 3.16786C0.688227 3.34261 0.525458 3.78872 0.700215 4.16426C0.874973 4.53981 1.32108 4.70258 1.69662 4.52782L7.13647 1.99641L9.66788 7.43626C9.84264 7.8118 10.2887 7.97457 10.6643 7.79981C11.0398 7.62505 11.2026 7.17895 11.0278 6.8034L8.18001 0.683574ZM6.79546 0.742928C3.39301 10.0681 2.60723 17.2977 3.53348 22.9035C4.46298 28.5291 7.10938 32.4708 10.4635 35.2062C17.1163 40.6318 26.4747 41.25 30.5 41.25V39.75C26.5252 39.75 17.6337 39.1182 11.4115 34.0438C8.32811 31.5292 5.88077 27.9084 5.01341 22.659C4.14279 17.3898 4.85703 10.4319 8.20459 1.25707L6.79546 0.742928Z" fill="black"/>
</svg>
