<svg width="167" height="128" viewBox="0 0 167 128" fill="none" xmlns="http://www.w3.org/2000/svg">
<path d="M159.704 2.06445H6.18498C3.90766 2.06445 2.06152 3.91308 2.06152 6.19349V99.5726C2.06152 101.853 3.90766 103.702 6.18498 103.702H159.704C161.981 103.702 163.827 101.853 163.827 99.5726V6.19349C163.827 3.91308 161.981 2.06445 159.704 2.06445Z" fill="white" stroke="black" stroke-width="2" stroke-linecap="round"/>
<path d="M92.8408 103.701H73.8096V125.934H92.8408V103.701Z" stroke="black" stroke-width="2" stroke-linecap="round"/>
<path d="M41.6475 125.935H124.116" stroke="black" stroke-width="2" stroke-linecap="round"/>
<path d="M65.7919 30.9678H52.5739C40.618 30.9678 30.9258 40.6731 30.9258 52.6452C30.9258 64.6173 40.618 74.3226 52.5739 74.3226H65.7919V30.9678Z" fill="#0075FF" stroke="black" stroke-width="2"/>
<path d="M99.6958 30.9678H112.914C124.87 30.9678 134.562 40.6731 134.562 52.6452C134.562 64.6173 124.87 74.3226 112.914 74.3226H99.6958V30.9678Z" fill="#FFB800" stroke="black" stroke-width="2"/>
<path d="M107.118 43.1484H83.9352C83.0622 43.1484 82.3545 43.8571 82.3545 44.7312C82.3545 45.6054 83.0622 46.314 83.9352 46.314H107.118C107.991 46.314 108.699 45.6054 108.699 44.7312C108.699 43.8571 107.991 43.1484 107.118 43.1484Z" stroke="black" stroke-width="1.53333"/>
<path d="M107.118 58.9753H83.9352C83.0622 58.9753 82.3545 59.684 82.3545 60.5581C82.3545 61.4323 83.0622 62.1409 83.9352 62.1409H107.118C107.991 62.1409 108.699 61.4323 108.699 60.5581C108.699 59.684 107.991 58.9753 107.118 58.9753Z" stroke="black" stroke-width="1.53333"/>
</svg>
