<svg width="100" height="126" viewBox="0 0 100 126" fill="none" xmlns="http://www.w3.org/2000/svg">
<g clip-path="url(#clip0_611_857)">
<path d="M71.3253 8.587L71.3899 8.58278L71.4541 8.57438C75.0085 8.10954 78.1867 9.93908 79.3383 13.3018L80.8091 17.9182L80.8263 17.9723L80.8465 18.0253C81.8979 20.775 83.7019 22.9118 86.5321 24.3082L90.3467 26.3228L90.4245 26.3638L90.5057 26.398C93.6961 27.7392 95.2967 31.0594 94.3723 34.4596L94.3681 34.475L94.3641 34.4904L93.1827 39.126L93.1761 39.152L93.1701 39.178C92.4421 42.3914 93.2085 45.1982 94.5203 47.7714L94.5775 47.8834L94.6481 47.9874L96.9893 51.432C98.7447 54.2604 98.1789 57.8438 95.5219 60.472L92.0111 63.6286L91.9217 63.7092L91.8423 63.7998C89.9287 65.9896 88.3945 68.4736 88.3945 71.7796V75.7692C88.1335 79.5056 85.8141 82.1624 82.3505 82.8506L77.3521 83.7158L77.3095 83.723L77.2673 83.7322C74.2359 84.393 71.6505 85.7854 69.8201 88.6418L67.4731 92.095C65.6551 94.7698 61.9517 95.9388 58.6777 94.5626L58.6359 94.545L58.5931 94.5292L53.8671 92.7908C51.0583 91.7578 48.2057 91.7578 45.3971 92.7908L45.3543 92.8066L45.3125 92.8242L41.1771 94.5626C37.9033 95.9388 34.1997 94.7698 32.3817 92.095L32.3635 92.0682L32.3445 92.042L29.3907 87.9858C27.6549 85.6024 25.1267 83.7824 21.8197 83.412L17.7697 82.8446C14.2335 82.1296 11.7176 79.4068 11.4603 75.7688V71.2002V71.0872L11.4476 70.975C11.1165 68.0524 10.0862 65.1914 7.51747 63.0218L4.58791 60.4358C1.76683 57.8944 1.31767 54.3012 2.92155 51.3412L5.55413 47.0376L5.56533 47.0194L5.57615 47.0008C6.93487 44.6684 7.76013 41.451 6.63305 38.408L5.49697 34.508C4.80781 30.9788 6.25145 27.6436 9.43215 26.0714L13.8372 24.055L13.8615 24.0438L13.8855 24.0322C16.8255 22.5902 18.588 20.0904 19.599 17.4459L19.6282 17.3695L19.6511 17.291L20.8131 13.3016C22.0271 10.0485 25.3251 7.8438 28.6961 8.28464L28.7111 8.28662L28.7261 8.28836L33.7335 8.86612L33.7411 8.86706C36.7531 9.23388 39.6039 8.11228 41.9183 6.4909L42.0143 6.42366L42.1017 6.34566L45.2767 3.51456C48.1095 1.48013 52.1207 1.49526 54.9361 3.55996L58.7255 6.41914C61.2159 8.49366 64.1021 9.20766 66.9485 8.8732L71.3253 8.587ZM81.4655 48.6016C81.4655 31.5258 67.2413 17.6289 49.9275 17.6289C32.5871 17.6289 18.6847 31.5518 18.6847 48.6016C18.6847 65.6772 32.6135 79.2844 49.9275 79.2844C67.2147 79.2844 81.4655 65.7032 81.4655 48.6016Z" stroke="black" stroke-width="4"/>
<path d="M75.9386 112.567L71.5604 121.739L59.3398 104.077C61.446 104.565 63.2782 104.708 64.897 104.549C67.9584 104.247 70.0552 102.884 71.6344 101.182C72.7122 100.021 73.626 98.5867 74.3994 97.3731C74.6642 96.9575 74.9126 96.5679 75.1456 96.2237C75.7416 95.3429 76.2956 94.6449 76.8902 94.1219L87.9152 110.139L77.495 111.444L76.4098 111.58L75.9386 112.567Z" stroke="black" stroke-width="4"/>
<path d="M24.9605 112.486L24.4677 111.564L23.4295 111.442L12.2197 110.129L23.9571 94.1758C24.6001 94.774 25.2003 95.544 25.8575 96.4848C26.0359 96.7404 26.2211 97.013 26.4141 97.2972C27.3119 98.6194 28.3789 100.191 29.7431 101.463C31.5123 103.113 33.8107 104.325 37.0633 104.515C38.8599 104.62 40.9103 104.411 43.2879 103.834L30.0277 121.966L24.9605 112.486Z" stroke="black" stroke-width="4"/>
<path fill-rule="evenodd" clip-rule="evenodd" d="M51.4004 35.0259L54.7612 44.0534L64.5638 44.3269C65.9642 44.3269 66.5244 45.9683 65.404 46.7891L57.562 52.8073L60.3628 62.1084C60.9228 63.2027 59.2424 64.5705 58.1222 63.7497L50 58.2785L41.8778 63.7497C40.7576 64.5705 39.0772 63.2027 39.6372 62.1084L42.438 52.8073L34.596 46.7891C33.4756 45.9683 34.0358 44.3269 35.4362 44.3269L45.2388 44.0534L48.5996 35.0259C49.1598 33.6581 51.1202 33.6581 51.4004 35.0259Z" fill="#0075FF"/>
</g>
<defs>
<clipPath id="clip0_611_857">
<rect width="100" height="126" fill="white"/>
</clipPath>
</defs>
</svg>
