<svg width="32" height="24" viewBox="0 0 32 24" fill="none" xmlns="http://www.w3.org/2000/svg">
<path d="M-3.79143e-06 15.0316C-3.79143e-06 13.0915 -3.79143e-06 11.1484 -3.79143e-06 9.22373C-0.00118848 8.0686 0.226708 6.92464 0.670567 5.8577C1.11443 4.79077 1.76548 3.82194 2.58625 3.00698C3.85788 1.6513 5.51961 0.722153 7.34262 0.347485C8.55 0.0886334 9.79821 0.0834381 11.0077 0.332231C12.2172 0.581023 13.3615 1.07835 14.3677 1.79253C14.4972 1.87862 17.8263 4.41205 18.4768 9.64802C18.6488 10.7393 18.5729 11.8551 18.2548 12.9132C17.9941 13.4524 17.5638 13.8919 17.0295 14.1646C16.4952 14.4373 15.8861 14.5284 15.2951 14.424C14.7041 14.3195 14.1635 14.0252 13.7557 13.586C13.3479 13.1467 13.0952 12.5866 13.0361 11.9908C13.0248 11.7189 13.0351 11.4464 13.0669 11.1761C13.0669 10.9947 13.1131 10.8164 13.1131 10.638C13.1302 10.0422 13.1147 9.44588 13.0669 8.85171C12.9636 8.04404 12.5973 7.29252 12.0243 6.71263C11.4512 6.13274 10.7032 5.75656 9.89496 5.64187C9.05867 5.50781 8.20132 5.64444 7.44855 6.03174C6.69578 6.41905 6.08718 7.03666 5.71195 7.79406C5.47608 8.27198 5.35673 8.79871 5.36362 9.33134V12.5473C5.36362 15.3923 5.36362 18.2363 5.36362 21.0792C5.37872 21.4722 5.30512 21.8635 5.14826 22.2243C4.9914 22.5851 4.75528 22.9062 4.45735 23.1638C4.11497 23.4726 3.69373 23.6811 3.24009 23.7663C2.78645 23.8514 2.31804 23.81 1.88651 23.6465C1.43079 23.5147 1.01988 23.2612 0.69823 22.9133C0.376581 22.5653 0.156447 22.1363 0.0616471 21.6726C0.0179304 21.4633 -0.00274246 21.2499 -3.79143e-06 21.0362C-3.79143e-06 19.0346 -3.79143e-06 17.0393 -3.79143e-06 15.0316Z" fill="#0075FF"/>
<path d="M20.0365 6.36758C19.8886 4.21539 18.9977 2.91178 17.478 1.61739L17.5705 1.53745C19.2209 0.491107 21.1711 0.016706 23.1191 0.187723C26.5808 0.495179 29.0499 2.27842 30.6497 5.30994C31.2701 6.51042 31.6064 7.83667 31.6331 9.18695C31.6516 9.75882 31.6577 10.3338 31.6577 10.9056C31.6577 14.2856 31.6577 17.6676 31.6577 21.0517C31.67 21.4776 31.5799 21.9002 31.3949 22.2843C31.2099 22.6684 30.9353 23.0026 30.5942 23.2592C30.1186 23.6229 29.5328 23.8138 28.9336 23.8004C28.3345 23.7869 27.7578 23.57 27.299 23.1854C26.9903 22.9504 26.7393 22.6482 26.5651 22.3019C26.391 21.9557 26.2983 21.5743 26.2941 21.187V20.9564C26.2941 17.1408 26.2694 13.3222 26.2941 9.50671C26.3032 8.54161 25.9514 7.60775 25.3074 6.88746C24.6633 6.16717 23.7732 5.71215 22.8108 5.61124C21.8915 5.51875 20.9688 5.75047 20.203 6.26612L20.0365 6.36758Z" fill="#FFB800"/>
</svg>
