<svg width="100" height="100" viewBox="0 0 100 100" fill="none" xmlns="http://www.w3.org/2000/svg">
<g clip-path="url(#clip0_611_390)">
<path d="M71.3292 8.7806L71.3958 8.77614L71.4618 8.76724C74.972 8.29468 78.1656 10.1468 79.3332 13.6586L80.8042 18.4116L80.8206 18.4646L80.84 18.5166C81.8826 21.3238 83.6758 23.5198 86.5112 24.9598L90.3256 27.0336L90.4042 27.0764L90.4866 27.112C93.6632 28.4866 95.312 31.9304 94.3686 35.5026L94.3646 35.5176L94.361 35.5326L93.1794 40.3046L93.1732 40.33L93.1676 40.3554C92.4472 43.6278 93.203 46.4898 94.51 49.129L94.565 49.24L94.6332 49.3434L96.9752 52.8904C98.761 55.8514 98.1706 59.5954 95.501 62.3134L91.99 65.5632L91.9016 65.645L91.8238 65.7368C89.9098 67.9914 88.3946 70.5278 88.3946 73.8908V78.0018C88.1308 81.9132 85.775 84.6442 82.3402 85.347L77.3424 86.2376L77.2988 86.2454L77.2554 86.2552C74.2086 86.9388 71.6268 88.3776 69.8058 91.3034L67.4582 94.859C65.6272 97.6322 61.938 98.8086 58.697 97.4062L58.6544 97.3878L58.611 97.3714L53.885 95.5818C51.0656 94.5144 48.1988 94.5144 45.3794 95.5818L45.336 95.5982L45.2932 95.6168L41.158 97.4062C37.917 98.8086 34.2278 97.6322 32.3968 94.859L32.379 94.8322L32.3606 94.806L29.4068 90.6306C27.6806 88.1906 25.1534 86.3082 21.827 85.9246L17.7795 85.3408C14.2739 84.6104 11.7205 81.8128 11.4604 78.0014V73.2942V73.1846L11.4484 73.0754C11.1199 70.0906 10.0994 67.1648 7.53908 64.9388L4.61594 62.2826L4.60958 62.2766C1.7722 59.6456 1.30491 55.8934 2.93398 52.8002L5.56752 48.3684L5.57834 48.3502L5.58876 48.3318C6.94138 45.9418 7.75228 42.6644 6.63842 39.5724L5.50006 35.5494C4.7973 31.8552 6.2753 28.3922 9.45274 26.7752L13.8575 24.6996L13.8821 24.688L13.9063 24.6758C16.8497 23.1898 18.6026 20.6216 19.6059 17.9201L19.6337 17.8452L19.6555 17.7683L20.8186 13.658C22.0482 10.2609 25.3606 8.02094 28.6886 8.469L28.704 8.47108L28.7196 8.47292L33.7266 9.06762L33.7344 9.06862C36.7668 9.44872 39.6284 8.28532 41.9406 6.61778L42.0362 6.54878L42.1232 6.46904L45.2988 3.55416C48.1222 1.46657 52.1076 1.48206 54.914 3.60064L58.7036 6.54408C61.1928 8.67868 64.0892 9.42126 66.954 9.07512L71.3292 8.7806Z" stroke="black" stroke-width="4"/>
<path fill-rule="evenodd" clip-rule="evenodd" d="M51.7504 33.2994L55.9516 44.7342L68.2048 45.0808C69.9552 45.0808 70.6554 47.1599 69.255 48.1995L59.4524 55.8227L62.9534 67.6038C63.6536 68.9898 61.553 70.7224 60.1526 69.683L50 62.7528L39.8474 69.683C38.447 70.7224 36.3464 68.9898 37.0466 67.6038L40.5476 55.8227L30.745 48.1995C29.3446 47.1599 30.0448 45.0808 31.7952 45.0808L44.0484 44.7342L48.2496 33.2994C48.9498 31.5668 51.4004 31.5668 51.7504 33.2994Z" fill="#0075FF"/>
</g>
<defs>
<clipPath id="clip0_611_390">
<rect width="100" height="100" fill="white"/>
</clipPath>
</defs>
</svg>
