<svg width="50" height="50" viewBox="0 0 50 50" fill="none" xmlns="http://www.w3.org/2000/svg">
<g clip-path="url(#clip0_333_1703)">
<path d="M31.0564 10.1099L42.1805 10.0977L23.5173 28.7513L18.6533 33.5881L13.1191 28.0471L31.0564 10.1099ZM30.9529 26.7654C31.0972 26.5747 31.3628 26.6687 31.5644 26.6442L42.1709 26.6469L32.5043 36.3041L26.9415 30.7754L30.9529 26.7654Z" fill="#44D1FD"/>
<path d="M21.3965 36.3136L26.9415 30.7754L32.5042 36.3041L32.5274 36.3286L26.9429 41.8614L21.3965 36.3136Z" fill="#1FBCFD"/>
<path d="M26.9434 41.8628L32.5279 36.3301L42.1755 45.9872C38.5415 45.9954 34.9088 45.9845 31.2761 45.9927C31.0691 46.039 30.9411 45.8497 30.8089 45.7325L26.9434 41.8628Z" fill="#08589C"/>
</g>
<defs>
<clipPath id="clip0_333_1703">
<rect width="30" height="36" fill="white" transform="translate(13 10)"/>
</clipPath>
</defs>
</svg>
