<svg width="100" height="100" viewBox="0 0 100 100" fill="none" xmlns="http://www.w3.org/2000/svg">
<g clip-path="url(#clip0_611_44)">
<path d="M21.2812 74.6872C21.2812 78.2702 18.2704 81.281 14.6875 81.281C10.972 81.281 8.09375 78.294 8.09375 74.6872C8.09375 71.1044 11.1046 68.0936 14.6875 68.0936C18.2704 68.0936 21.2812 71.1044 21.2812 74.6872Z" stroke="black" stroke-width="4"/>
<path d="M43.75 87.3127H56.4062C59.833 87.3127 62.6875 90.1673 62.6875 93.5939V98.0001H37.4688V93.5939C37.4688 90.1673 40.3234 87.3127 43.75 87.3127Z" stroke="black" stroke-width="4"/>
<path d="M50 81.281C46.417 81.281 43.4062 78.2702 43.4062 74.6872C43.4062 70.9718 46.3932 68.0936 50 68.0936C53.583 68.0936 56.5938 71.1044 56.5938 74.6872C56.5938 78.2702 53.583 81.281 50 81.281Z" stroke="black" stroke-width="4"/>
<path d="M85.3123 81.281C81.7295 81.281 78.7188 78.2702 78.7188 74.6872C78.7188 70.9718 81.7057 68.0936 85.3123 68.0936C88.8953 68.0936 91.9061 71.1044 91.9061 74.6872C91.9061 78.2702 88.8953 81.281 85.3123 81.281Z" stroke="black" stroke-width="4"/>
<path d="M8.28124 87.3127H20.9376C24.3642 87.3127 27.2188 90.1673 27.2188 93.5939V98.0001H2V93.5939C2 90.1673 4.85458 87.3127 8.28124 87.3127Z" stroke="black" stroke-width="4"/>
<path d="M79.0625 87.3127H91.7189C95.1455 87.3127 98.0001 90.1673 98.0001 93.5939V98.0001H72.7812V93.5939C72.7812 90.1673 75.6359 87.3127 79.0625 87.3127Z" stroke="black" stroke-width="4"/>
<path d="M51.5624 45.6562H51.5126L51.4626 45.6588L48.3876 45.8124H47.1866L46.3152 42.3274L46.0606 41.3086L45.0772 40.9398C43.8142 40.4662 42.661 40.032 41.5194 39.4612L40.5212 38.962L39.5722 39.5494L36.5764 41.4042L32.6584 37.4862L34.513 34.4902L35.1004 33.5412L34.6014 32.543C34.0306 31.4016 33.5964 30.2484 33.1226 28.9852L32.754 28.002L31.735 27.7472L28.25 26.876V20.9366L31.735 20.0652L32.754 19.8106L33.1226 18.8272C33.5964 17.5641 34.0306 16.411 34.6014 15.2694L35.1004 14.2712L34.513 13.3223L32.6584 10.3263L36.5166 6.46812L39.416 8.26304L40.365 8.85046L41.3632 8.35136C42.6588 7.70352 43.7066 7.18962 44.7038 6.94028L45.868 6.64924L46.159 5.48508L47.0304 2H52.8526L53.6848 5.32882L53.951 6.39394L54.9926 6.74112C56.377 7.20262 57.4696 7.621 58.3828 8.14274L59.375 8.70976L60.3672 8.14274L63.4282 6.39368L67.4892 10.184L65.6432 13.166L65.0558 14.115L65.5548 15.1132C66.1256 16.2547 66.56 17.4079 67.0336 18.671L67.4024 19.6543L68.4212 19.909L71.9062 20.7804V26.7196L68.4212 27.591L67.4024 27.8456L67.0336 28.829C66.56 30.0922 66.1256 31.2452 65.5548 32.3868L65.0558 33.385L65.6432 34.334L67.4978 37.33L63.58 41.2478L60.584 39.3932L59.635 38.8058L58.6368 39.3048C57.4952 39.8756 56.3422 40.31 55.079 40.7836L54.0956 41.1524L53.841 42.1712L52.9696 45.6562H51.5624Z" stroke="#0075FF" stroke-width="4"/>
<path d="M42.7812 23.9062C42.7812 19.8766 46.0824 16.6875 50 16.6875C53.9176 16.6875 57.2188 19.8766 57.2188 23.9062C57.2188 27.936 53.9176 31.125 50 31.125C46.1046 31.125 42.7812 27.8016 42.7812 23.9062Z" fill="black"/>
</g>
<defs>
<clipPath id="clip0_611_44">
<rect width="100" height="100" fill="white"/>
</clipPath>
</defs>
</svg>
