<svg width="100" height="100" viewBox="0 0 100 100" fill="none" xmlns="http://www.w3.org/2000/svg">
<g clip-path="url(#clip0_611_349)">
<path d="M37.2423 70.3545C36.8267 70.0357 33.5704 67.5716 24.5165 66.9628C24.0236 66.9241 23.5211 66.5666 23.0767 66.2672C22.5163 65.8903 21.9267 65.4941 21.5113 64.9916C20.8156 64.1703 20.0329 63.4745 19.3757 62.547C14.9696 56.4111 10.66 55.1839 10.0126 54.9326C9.15261 54.5172 5.85761 55.0293 7.4423 57.2228C7.53894 57.2324 12.4766 64.1703 12.7955 64.7307C13.3656 65.7066 13.9937 66.1126 14.6024 66.7889C15.1435 67.417 15.7716 67.987 16.3224 68.6151C16.3224 68.6151 13.1723 66.7407 12.409 65.9289C12.0708 65.5618 11.9162 65.0303 11.636 64.5955C11.3171 64.093 10.9885 63.6099 10.66 63.117C10.2445 62.5084 9.80968 61.9189 9.36518 61.3295C8.79509 60.5855 8.20567 59.8607 7.60657 59.1263C7.23938 58.6722 6.82388 58.2276 6.51469 57.7639C5.01695 55.4063 6.72726 53.9955 8.35061 53.8118C8.2733 53.5413 7.52926 46.4101 7.40365 45.2216C7.03647 41.7913 6.66928 39.2501 4.69807 38.5543C4.19561 38.3803 3.83809 38.4384 3.46124 38.8345C3.00709 39.3176 2.73653 41.8107 2.61092 43.3857C2.61092 43.3857 1.75093 51.8503 1.95384 55.8024C2.0698 57.9186 8.65015 72.4899 10.5344 74.7511C12.4186 77.0024 27.2123 85.5347 27.2123 85.5347C27.7052 85.9501 30.4494 88.0566 30.4494 90.8203V96.8209L46.3929 96.8305L46.4027 91.3226C46.4413 90.3082 46.6152 89.2936 46.7311 88.2693C47.0694 87.1097 46.7988 84.9162 46.6442 84.0659C44.8082 75.8139 37.9767 70.9343 37.2423 70.3545Z" stroke="black" stroke-width="4" stroke-miterlimit="10" stroke-linecap="round" stroke-linejoin="round"/>
<path d="M97.394 43.3859C97.2684 41.8011 96.9978 39.3082 96.5436 38.8444C96.1669 38.4386 95.8094 38.3902 95.3069 38.5642C93.3357 39.26 92.9684 41.8011 92.6013 45.2315C92.4757 46.4296 91.7317 53.5607 91.6349 53.8217C93.2584 53.9955 94.9686 55.4063 93.4709 57.7738C93.1713 58.2569 92.7655 58.6821 92.3984 59.1363C91.7992 59.8705 91.2196 60.5953 90.6398 61.3394C90.1951 61.919 89.7701 62.5278 89.3449 63.1269C89.0067 63.6102 88.6782 64.1028 88.369 64.6053C88.0984 65.0402 87.9342 65.5717 87.5959 65.9388C86.8423 66.7602 83.6824 68.625 83.6824 68.625C84.243 68.0067 84.8613 67.4365 85.4025 66.7988C86.0113 66.1127 86.6394 65.7069 87.2094 64.7405C87.5282 64.1802 92.4563 57.2617 92.5626 57.2327C94.1473 55.0392 90.8523 54.5271 89.9923 54.9427C89.345 55.1842 85.0353 56.4209 80.6292 62.5569C79.9721 63.4844 79.1894 64.1802 78.4936 65.0015C78.0588 65.504 77.479 65.9002 76.9282 66.2771C76.4838 66.5669 75.9813 66.9244 75.4884 66.9727C66.4248 67.5719 63.1782 70.0455 62.7626 70.3644C62.0186 70.9442 55.1967 75.8142 53.3511 84.0952C53.1869 84.9455 52.9067 87.1292 53.2642 88.2984C53.3898 89.313 53.554 90.3276 53.5926 91.3519L53.6023 96.8596L69.5459 96.85V90.8494C69.5459 88.0761 72.2805 85.9794 72.7828 85.5638C72.7828 85.5638 87.5767 77.0317 89.4609 74.7802C91.3451 72.5288 97.9255 57.9477 98.0415 55.8315C98.2636 51.8505 97.394 43.3859 97.394 43.3859Z" stroke="black" stroke-width="4" stroke-miterlimit="10" stroke-linecap="round" stroke-linejoin="round"/>
<path d="M51.5648 53.6639H51.5167L51.4687 53.6664L47.8717 53.8462H46.1562C46.1529 53.8431 46.1498 53.8396 46.1465 53.836C46.1414 53.8298 46.1371 53.8241 46.134 53.8194L45.0467 49.4708L44.8019 48.4912L43.8564 48.1366C42.3858 47.585 41.021 47.0716 39.6671 46.3946L38.7073 45.9146L37.7948 46.4794L34.0244 48.8137L29.0058 43.795C29.0104 43.7773 29.0162 43.7589 29.0231 43.7402L31.3296 40.0142L31.8944 39.1017L31.4146 38.1419C30.7377 36.7883 30.224 35.4233 29.6725 33.9527L29.3181 33.0071L28.3385 32.7623L23.9642 31.6689L23.9629 24.1008L28.3385 23.0069L29.3181 22.7621L29.6725 21.8166C30.224 20.346 30.7377 18.981 31.4146 17.6273L31.8944 16.6674L31.3296 15.755L28.9956 11.9845L33.9546 7.02531L37.6127 9.28975L38.525 9.85458L39.4848 9.37467C40.9867 8.62369 42.2502 8.00152 43.4654 7.69775L44.5848 7.4179L44.8646 6.29852L45.9581 1.92446L53.3894 1.9231L54.4377 6.11625L54.6937 7.1404L55.6952 7.47423C57.3146 8.01402 58.6213 8.51235 59.7233 9.14206L60.6773 9.68727L61.6315 9.14206L65.4589 6.95504L65.4639 6.95213L70.6587 11.8006C70.6546 11.8157 70.6496 11.8312 70.6437 11.8468L68.3371 15.5728L67.7723 16.4852L68.2521 17.445C68.929 18.7988 69.4427 20.1637 69.9942 21.6342L70.3487 22.5798L71.3283 22.8246L75.7025 23.9183L75.7039 31.4862L71.3283 32.58L70.3487 32.825L69.9942 33.7704C69.4427 35.2412 68.929 36.606 68.2521 37.9598L67.7723 38.9196L68.3371 39.8319L70.6714 43.6025L65.6527 48.6212C65.6348 48.6166 65.6164 48.6108 65.5979 48.6039L61.8719 46.2973L60.9594 45.7325L59.9996 46.2123C58.646 46.8892 57.281 47.4027 55.8104 47.9542L55.7908 47.9616L55.7714 47.9694L54.8585 48.3346L54.62 49.2885L53.5264 53.6625L51.5648 53.6639ZM53.6265 1.92911C53.6265 1.92915 53.6254 1.9289 53.6235 1.92819L53.6265 1.92911Z" stroke="#0075FF" stroke-width="4"/>
<path d="M49.7439 17.0547C43.8686 17.0547 38.9141 21.8283 38.9141 27.8844C38.9141 33.7589 43.8692 38.7144 49.7439 38.7144C55.619 38.7144 60.5737 33.9406 60.5737 27.8844C60.5737 21.8283 55.6189 17.0547 49.7439 17.0547Z" stroke="#0075FF" stroke-width="4"/>
</g>
<defs>
<clipPath id="clip0_611_349">
<rect width="100" height="99.1803" fill="white"/>
</clipPath>
</defs>
</svg>
