<svg width="107" height="100" viewBox="0 0 107 100" fill="none" xmlns="http://www.w3.org/2000/svg">
<g clip-path="url(#clip0_611_25)">
<path d="M68.0081 34.2744L67.987 34.328L67.9686 34.3827C67.231 36.5921 68.7235 39.1989 71.3719 39.1989H97.2468C100.831 39.1989 103.922 41.6978 104.33 44.9499C104.544 46.6599 104.084 48.2508 103.168 49.5134C102.37 50.6119 102.041 51.9631 102.041 53.1976C102.042 54.4316 102.371 55.7861 103.178 56.8861C103.974 57.9719 104.425 59.2874 104.425 60.6995C104.425 62.5776 103.571 64.3234 102.192 65.5412C101.103 66.5027 100.454 67.8923 100.15 69.1714C99.8453 70.4536 99.8041 71.9719 100.31 73.3042C100.578 74.0116 100.724 74.7836 100.724 75.5931C100.724 77.5304 99.8144 79.3272 98.3592 80.5476C97.2691 81.4621 96.6008 82.7831 96.2899 84.0346C95.9791 85.2859 95.9506 86.7685 96.4936 88.0882C96.9642 89.2316 97.1253 90.5457 96.8393 91.9731L96.8372 91.9844C96.2762 94.8646 93.3608 97.0938 90.068 97.0938H66.1768C56.5092 97.0938 47.6283 95.8193 37.9111 93.1608V39.9908C43.9506 35.5593 50.015 28.8748 52.4777 26.097C53.4534 25.1093 54.1317 24.0065 54.6502 22.8495C55.4528 21.188 56.8159 18.2371 58.0835 14.9668C59.3434 11.716 60.5665 8.00557 60.9957 4.89827C61.1613 3.79533 61.5805 3.11708 62.0281 2.72627C62.4613 2.34769 63.0747 2.10235 63.9192 2.12963C65.3874 2.25729 67.5695 3.32574 69.4387 5.54567C71.273 7.72393 72.6823 10.8825 72.6823 14.8988C72.6823 22.4531 69.7434 29.8859 68.0383 34.1978L68.0081 34.2744ZM37.9124 39.7244L37.912 39.7276L37.9124 39.7244Z" stroke="black" stroke-width="4"/>
<path d="M4.71068 37.1833H23.4423C24.8919 37.1833 26.0221 38.2921 26.0221 39.871V93.3982C26.0221 94.7989 24.8451 95.974 23.4423 95.974H4.71068C3.30785 95.974 2.13086 94.7989 2.13086 93.3982V39.7589C2.13086 38.3585 3.30785 37.1833 4.71068 37.1833Z" fill="#0075FF" stroke="black" stroke-width="4"/>
</g>
<defs>
<clipPath id="clip0_611_25">
<rect width="106.557" height="100" fill="white"/>
</clipPath>
</defs>
</svg>
