<svg width="276" height="35" viewBox="0 0 276 35" fill="none" xmlns="http://www.w3.org/2000/svg">
<path d="M4.58103e-05 21.921C4.58103e-05 19.0917 4.58103e-05 16.258 4.58103e-05 13.4512C-0.00168421 11.7666 0.331117 10.0983 0.979292 8.5424C1.62747 6.98645 2.57821 5.57357 3.7768 4.38509C5.63378 2.40805 8.06043 1.05305 10.7226 0.506658C12.4858 0.129165 14.3085 0.121589 16.0748 0.484411C17.8411 0.847234 19.5121 1.5725 20.9815 2.61401C21.1706 2.73956 26.0322 6.43415 26.982 14.0699C27.2331 15.6613 27.1224 17.2886 26.6579 18.8317C26.2771 19.618 25.6488 20.2589 24.8685 20.6566C24.0882 21.0544 23.1988 21.1872 22.3358 21.0349C21.4727 20.8825 20.6833 20.4534 20.0877 19.8128C19.4922 19.1723 19.1232 18.3554 19.0369 17.4865C19.0204 17.0899 19.0354 16.6926 19.0819 16.2984C19.0819 16.0338 19.1494 15.7738 19.1494 15.5137C19.1743 14.6448 19.1517 13.7751 19.0819 12.9087C18.9311 11.7308 18.3962 10.6348 17.5593 9.78916C16.7225 8.94349 15.6301 8.39489 14.4498 8.22764C13.2286 8.03213 11.9766 8.23138 10.8773 8.7962C9.77802 9.36102 8.88927 10.2617 8.34131 11.3663C7.99687 12.0632 7.82258 12.8314 7.83264 13.6081V18.2981C7.83264 22.447 7.83264 26.5945 7.83264 30.7405C7.85469 31.3135 7.74721 31.8842 7.51814 32.4104C7.28908 32.9366 6.94428 33.4048 6.5092 33.7804C6.00922 34.2308 5.39407 34.5348 4.73161 34.659C4.06915 34.7832 3.38512 34.7228 2.75496 34.4844C2.08947 34.2922 1.4894 33.9225 1.01969 33.4151C0.549979 32.9077 0.228513 32.2821 0.0900756 31.6058C0.0262354 31.3006 -0.00395351 30.9894 4.58103e-05 30.6777C4.58103e-05 27.7588 4.58103e-05 24.8488 4.58103e-05 21.921Z" fill="#0075FF"/>
<path d="M29.2597 9.28581C29.0437 6.14719 27.7427 4.24609 25.5235 2.35844L25.6585 2.24187C28.0686 0.715944 30.9165 0.0241086 33.7612 0.273509C38.8164 0.721882 42.4221 3.32245 44.7584 7.7434C45.6642 9.49411 46.1555 11.4282 46.1944 13.3974C46.2214 14.2314 46.2304 15.0698 46.2304 15.9038C46.2304 20.8329 46.2304 25.765 46.2304 30.7001C46.2483 31.3212 46.1167 31.9376 45.8465 32.4977C45.5763 33.0578 45.1754 33.5453 44.6773 33.9194C43.9828 34.4498 43.1273 34.7282 42.2523 34.7086C41.3773 34.689 40.5352 34.3727 39.8653 33.8118C39.4144 33.4691 39.0479 33.0284 38.7936 32.5234C38.5393 32.0184 38.4039 31.4623 38.3978 30.8974V30.5611C38.3978 24.9968 38.3618 19.428 38.3978 13.8637C38.4111 12.4563 37.8974 11.0944 36.9568 10.044C36.0162 8.99353 34.7164 8.32996 33.3111 8.18281C31.9686 8.04792 30.6211 8.38584 29.5028 9.13784L29.2597 9.28581Z" fill="#FFB800"/>
<path d="M27.0585 27.0414C27.0585 27.8408 26.8201 28.6222 26.3735 29.2865C25.9269 29.9508 25.2923 30.468 24.5502 30.7725C23.808 31.0769 22.9918 31.155 22.2051 30.9967C21.4184 30.8385 20.6966 30.451 20.1313 29.8835C19.5659 29.316 19.1826 28.5941 19.0299 27.8092C18.8771 27.0244 18.9618 26.212 19.2733 25.4752C19.5848 24.7384 20.109 24.1104 20.7793 23.6708C21.4497 23.2312 22.2361 22.9998 23.0387 23.006C23.5692 23.006 24.0945 23.1106 24.5843 23.3138C25.0741 23.5169 25.5186 23.8147 25.8923 24.1898C26.266 24.565 26.5614 25.0101 26.7616 25.4995C26.9618 25.9889 27.0627 26.5129 27.0585 27.0414Z" fill="#FFB800"/>
<path d="M70.3313 10.8955V31.7986C70.3326 32.1869 70.2545 32.5713 70.1018 32.9285C69.9552 33.2682 69.739 33.5736 69.4671 33.8253C69.1935 34.0786 68.8783 34.2833 68.5352 34.4306C68.1727 34.5853 67.7818 34.6632 67.3874 34.6592C66.9976 34.6605 66.6116 34.5827 66.253 34.4306C65.9076 34.2877 65.5917 34.0825 65.3212 33.8253C65.0561 33.5706 64.8449 33.2657 64.7 32.9285C64.5473 32.5713 64.4691 32.1869 64.4704 31.7986V3.1386C64.4661 2.75501 64.5406 2.37459 64.6892 2.02069C64.8378 1.66679 65.0575 1.34687 65.3347 1.08057C65.6046 0.809475 65.9259 0.594569 66.28 0.448361C66.819 0.23404 67.4084 0.178417 67.9781 0.288108C68.5479 0.397799 69.0741 0.668188 69.4941 1.06712L81.1979 14.8949L92.8298 1.07608C93.1049 0.82816 93.4199 0.628085 93.7616 0.484231C94.0965 0.330516 94.4598 0.248053 94.8285 0.242109H95.0445C95.428 0.256948 95.8046 0.348436 96.1519 0.511133C96.4839 0.66713 96.788 0.876139 97.0522 1.12989C97.3145 1.38399 97.5214 1.68927 97.6599 2.02663C97.8085 2.37853 97.8835 2.75687 97.8805 3.1386V31.8345C97.8817 32.2227 97.8036 32.6072 97.6509 32.9644C97.5043 33.3041 97.2882 33.6095 97.0162 33.8611C96.7426 34.1144 96.4274 34.3192 96.0844 34.4664C95.7218 34.6212 95.3309 34.6991 94.9365 34.6951C94.551 34.6973 94.1692 34.6194 93.8156 34.4664C93.4726 34.3192 93.1574 34.1144 92.8838 33.8611C92.6119 33.6095 92.3957 33.3041 92.2491 32.9644C92.0964 32.6072 92.0183 32.2227 92.0195 31.8345V10.8686L83.1066 21.4143C82.843 21.6724 82.5389 21.8859 82.2063 22.0465C81.8802 22.2129 81.5193 22.3005 81.1529 22.3021C80.7987 22.2989 80.4492 22.2205 80.1278 22.072C79.8064 21.9236 79.5206 21.7085 79.2893 21.4412H79.2623V21.4143L70.3313 10.8955Z" fill="black"/>
<path d="M102.337 22.1676C102.325 20.4509 102.674 18.7508 103.363 17.1772C104.026 15.6571 104.97 14.2745 106.145 13.1015C107.321 11.9319 108.71 10.9961 110.237 10.344C111.816 9.66578 113.519 9.32221 115.238 9.33513C116.965 9.32379 118.675 9.66722 120.262 10.344C123.339 11.6527 125.784 14.1036 127.077 17.1772C127.737 18.7566 128.076 20.4503 128.076 22.1608C128.076 23.8714 127.737 25.5651 127.077 27.1445C125.785 30.2286 123.333 32.6863 120.244 33.9912C118.662 34.6655 116.959 35.0089 115.238 35C113.525 35.0104 111.828 34.6669 110.255 33.9912C108.728 33.339 107.339 32.4032 106.163 31.2337C104.986 30.0573 104.042 28.6699 103.381 27.1445C102.689 25.5761 102.333 23.8809 102.337 22.1676ZM108.189 22.1676C108.187 23.0926 108.375 24.0083 108.743 24.8578C109.46 26.537 110.8 27.8762 112.483 28.5972C113.353 28.9699 114.292 29.1563 115.238 29.1443C116.18 29.1504 117.114 28.9626 117.98 28.5928C118.806 28.2429 119.556 27.7374 120.19 27.1042C120.825 26.4588 121.329 25.6977 121.675 24.8623C122.212 23.5841 122.357 22.1764 122.093 20.8162C121.829 19.456 121.167 18.2039 120.19 17.2175C119.55 16.5829 118.793 16.0761 117.962 15.7244C117.101 15.357 116.174 15.1693 115.238 15.1729C114.309 15.1698 113.39 15.3575 112.537 15.7244C111.7 16.0772 110.936 16.5837 110.287 17.2175C109.64 17.859 109.126 18.6207 108.774 19.4594C108.398 20.3133 108.202 21.2351 108.198 22.1676H108.189Z" fill="black"/>
<path d="M132.209 3.03998C132.208 2.24457 132.511 1.47855 133.055 0.89676C133.315 0.609604 133.635 0.381731 133.991 0.228684C134.74 -0.0760652 135.579 -0.0760652 136.328 0.228684C136.668 0.38287 136.973 0.602273 137.228 0.874341C137.488 1.15743 137.694 1.4857 137.836 1.84283C137.979 2.22574 138.05 2.63143 138.047 3.03998V11.4335C139.075 10.7706 140.188 10.2502 141.356 9.88664C144.227 9.01502 147.314 9.17368 150.08 10.335C153.159 11.6399 155.609 14.0851 156.913 17.1548C157.582 18.7343 157.926 20.431 157.926 22.1452C157.926 23.8593 157.582 25.5561 156.913 27.1356C156.262 28.6596 155.327 30.0472 154.158 31.2247C152.989 32.3959 151.604 33.3321 150.08 33.9822C148.496 34.648 146.795 34.991 145.076 34.991C143.358 34.991 141.656 34.648 140.073 33.9822C136.996 32.6658 134.55 30.2159 133.244 27.1445C132.567 25.5726 132.222 23.8783 132.231 22.1676L132.209 3.03998ZM138.061 22.1676C138.058 23.0932 138.248 24.0093 138.619 24.8578C138.971 25.6963 139.485 26.458 140.131 27.0997C140.77 27.7382 141.524 28.2496 142.355 28.6062C143.218 28.9703 144.146 29.1578 145.083 29.1578C146.02 29.1578 146.948 28.9703 147.811 28.6062C148.642 28.248 149.398 27.7369 150.039 27.0997C151.017 26.1094 151.681 24.8542 151.947 23.4908C152.214 22.1274 152.072 20.716 151.538 19.4325C151.194 18.5928 150.685 17.8304 150.039 17.1906C149.396 16.5599 148.64 16.0536 147.811 15.6976C146.948 15.3335 146.02 15.1459 145.083 15.1459C144.146 15.1459 143.218 15.3335 142.355 15.6976C141.527 16.0522 140.772 16.5587 140.131 17.1906C139.477 17.8362 138.957 18.6043 138.602 19.4507C138.246 20.2972 138.062 21.2053 138.061 22.1227V22.1676Z" fill="black"/>
<path d="M161.995 3.71254C161.992 3.27792 162.079 2.84736 162.252 2.44813C162.576 1.67663 163.192 1.06309 163.967 0.739831C164.359 0.572073 164.782 0.485565 165.209 0.485565C165.636 0.485565 166.059 0.572073 166.452 0.739831C166.837 0.903373 167.19 1.13588 167.492 1.42584C167.797 1.72364 168.039 2.07949 168.204 2.4723C168.369 2.86511 168.452 3.28686 168.45 3.71254C168.452 4.134 168.365 4.55111 168.194 4.9366C168.028 5.31508 167.789 5.65773 167.492 5.94544C167.19 6.23541 166.837 6.46791 166.452 6.63145C166.059 6.79921 165.636 6.88572 165.209 6.88572C164.782 6.88572 164.359 6.79921 163.967 6.63145C163.589 6.4685 163.245 6.23573 162.954 5.94544C162.658 5.65461 162.42 5.31084 162.252 4.93212C162.081 4.54801 161.994 4.13249 161.995 3.71254ZM168.153 31.7717C168.155 32.16 168.076 32.5444 167.924 32.9016C167.779 33.2481 167.568 33.5633 167.302 33.8298C167.044 34.0901 166.738 34.2999 166.402 34.4485C166.04 34.6033 165.649 34.6812 165.254 34.6772C164.865 34.6784 164.479 34.6006 164.12 34.4485C163.769 34.3022 163.449 34.0924 163.175 33.8298C162.889 33.5697 162.661 33.2537 162.504 32.9016C162.351 32.5444 162.273 32.16 162.274 31.7717V12.5545C162.272 12.1691 162.355 11.7879 162.517 11.438C162.676 11.0927 162.896 10.7784 163.166 10.5099C163.442 10.2344 163.77 10.0165 164.132 9.8687C164.494 9.7209 164.881 9.64622 165.272 9.649C165.662 9.64409 166.049 9.72204 166.407 9.87768C166.745 10.0289 167.05 10.2435 167.307 10.5099C167.848 11.0542 168.152 11.7887 168.153 12.5545V31.7717Z" fill="black"/>
<path d="M183.035 28.8393C183.435 28.8363 183.831 28.9189 184.197 29.0815C184.539 29.2369 184.846 29.4614 185.097 29.7406C185.351 30.0211 185.552 30.3445 185.691 30.6956C185.838 31.0574 185.913 31.4442 185.912 31.8345C185.924 32.2123 185.858 32.5886 185.719 32.9402C185.579 33.2918 185.369 33.6113 185.101 33.8791C184.828 34.1478 184.503 34.358 184.145 34.4968C183.788 34.6356 183.405 34.7 183.022 34.6861C181.856 34.6941 180.7 34.4874 179.61 34.0763C178.569 33.6828 177.612 33.0988 176.787 32.3546C175.969 31.6089 175.316 30.7019 174.87 29.6913C174.391 28.6046 174.134 27.4341 174.113 26.2477V2.93235C174.107 2.54248 174.179 2.15529 174.325 1.79349C174.468 1.44945 174.674 1.13478 174.933 0.865353C175.19 0.602864 175.495 0.392704 175.833 0.246598C176.178 0.0884538 176.552 0.00442659 176.931 -6.97868e-06C177.33 -0.00302531 177.725 0.0747757 178.093 0.228663C178.446 0.37699 178.771 0.586468 179.051 0.847418C179.334 1.11485 179.559 1.43672 179.713 1.79349C179.876 2.15732 179.959 2.5518 179.956 2.95029V26.0415C179.927 26.434 179.99 26.8279 180.14 27.192C180.29 27.5562 180.523 27.8806 180.821 28.1399C181.453 28.6249 182.237 28.8726 183.035 28.8393Z" fill="black"/>
<path d="M189.733 3.71254C189.73 3.27792 189.817 2.84736 189.99 2.44813C190.314 1.67663 190.93 1.06309 191.705 0.739831C192.098 0.572073 192.52 0.485565 192.947 0.485565C193.375 0.485565 193.797 0.572073 194.19 0.739831C194.576 0.903373 194.928 1.13588 195.23 1.42584C195.535 1.72364 195.777 2.07949 195.942 2.4723C196.107 2.86511 196.191 3.28686 196.189 3.71254C196.19 4.134 196.103 4.55111 195.932 4.9366C195.766 5.31508 195.527 5.65773 195.23 5.94544C194.928 6.23541 194.576 6.46791 194.19 6.63145C193.797 6.79921 193.375 6.88572 192.947 6.88572C192.52 6.88572 192.098 6.79921 191.705 6.63145C191.322 6.46999 190.974 6.23714 190.679 5.94544C190.388 5.65346 190.154 5.30976 189.99 4.93212C189.82 4.54801 189.732 4.13249 189.733 3.71254ZM195.891 31.7717C195.893 32.16 195.815 32.5444 195.662 32.9016C195.517 33.2481 195.306 33.5633 195.041 33.8298C194.782 34.0901 194.476 34.2999 194.14 34.4485C193.778 34.6033 193.387 34.6812 192.992 34.6772C192.603 34.6784 192.217 34.6006 191.858 34.4485C191.507 34.3022 191.187 34.0924 190.913 33.8298C190.64 33.5663 190.424 33.2506 190.278 32.9016C190.125 32.5444 190.047 32.16 190.048 31.7717V12.5545C190.046 12.1691 190.129 11.7879 190.292 11.438C190.451 11.0927 190.67 10.7784 190.94 10.5099C191.216 10.2344 191.545 10.0165 191.906 9.8687C192.268 9.7209 192.656 9.64622 193.046 9.649C193.437 9.64409 193.823 9.72204 194.181 9.87768C194.519 10.0289 194.825 10.2435 195.081 10.5099C195.609 11.0599 195.9 11.7937 195.891 12.5545V31.7717Z" fill="black"/>
<path d="M200.24 22.1676C200.228 20.4509 200.577 18.7508 201.266 17.1772C201.929 15.6571 202.873 14.2745 204.048 13.1015C205.224 11.932 206.613 10.9961 208.14 10.344C209.713 9.66822 211.41 9.32471 213.123 9.33514C214.85 9.3238 216.56 9.66723 218.147 10.344C221.231 11.6489 223.682 14.1003 224.98 17.1772C225.64 18.7566 225.979 20.4503 225.979 22.1609C225.979 23.8714 225.64 25.5651 224.98 27.1445C223.688 30.2287 221.236 32.6863 218.147 33.9912C216.56 34.6679 214.85 35.0114 213.123 35C211.41 35.0104 209.713 34.6669 208.14 33.9912C206.613 33.339 205.224 32.4032 204.048 31.2337C202.871 30.0573 201.927 28.6699 201.266 27.1445C200.58 25.5748 200.231 23.8796 200.24 22.1676ZM206.092 22.1676C206.089 23.0926 206.278 24.0083 206.646 24.8578C207.363 26.537 208.703 27.8762 210.386 28.5972C211.25 28.9675 212.183 29.1538 213.123 29.1443C214.065 29.1504 214.999 28.9626 215.865 28.5928C216.699 28.2396 217.455 27.7279 218.093 27.0862C218.728 26.4409 219.232 25.6798 219.578 24.8444C220.117 23.565 220.263 22.1555 219.999 20.7935C219.735 19.4314 219.071 18.1778 218.093 17.1906C217.452 16.556 216.696 16.0492 215.865 15.6976C215.002 15.3335 214.074 15.1459 213.137 15.1459C212.2 15.1459 211.272 15.3335 210.409 15.6976C209.571 16.0503 208.808 16.5568 208.158 17.1906C207.511 17.8321 206.998 18.5938 206.646 19.4325C206.277 20.2971 206.091 21.2282 206.101 22.1676H206.092Z" fill="black"/>
<path d="M253.745 31.8345C253.749 32.2274 253.671 32.6167 253.515 32.9778C253.368 33.3103 253.162 33.6139 252.907 33.8746C252.653 34.1366 252.346 34.3428 252.007 34.4799C251.651 34.6242 251.27 34.6974 250.886 34.6951C250.494 34.6953 250.104 34.6223 249.738 34.4799C249.381 34.344 249.055 34.1382 248.78 33.8746C248.51 33.618 248.29 33.314 248.131 32.9778C247.967 32.6191 247.884 32.2287 247.888 31.8345V21.8447C247.885 21.7365 247.894 21.6282 247.915 21.5219C247.885 20.6713 247.702 19.833 247.375 19.0469C247.065 18.2974 246.616 17.6129 246.052 17.0292C245.492 16.4597 244.827 16.003 244.094 15.6841C243.314 15.3457 242.472 15.1761 241.622 15.1864C240.748 15.1794 239.883 15.3518 239.079 15.6931C238.33 15.998 237.653 16.4562 237.094 17.0382C236.534 17.6463 236.095 18.3535 235.797 19.1231C235.478 19.9421 235.318 20.8139 235.325 21.6923V31.8345C235.329 32.226 235.255 32.6146 235.109 32.9778C234.967 33.3137 234.761 33.6185 234.501 33.8746C234.243 34.1328 233.937 34.3384 233.601 34.4799C233.241 34.6268 232.855 34.7 232.466 34.6951C231.689 34.6966 230.941 34.4032 230.373 33.8746C230.097 33.6209 229.872 33.3164 229.711 32.9778C229.547 32.6191 229.464 32.2287 229.468 31.8345V21.7102C229.455 20.055 229.772 18.4137 230.4 16.8813C230.997 15.4213 231.867 14.0882 232.966 12.9535C234.065 11.8291 235.376 10.9317 236.824 10.3126C239.07 9.33202 241.563 9.05947 243.969 9.53156C246.375 10.0036 248.578 11.1978 250.283 12.9535C252.541 15.3114 253.791 18.4515 253.767 21.7102L253.745 31.8345Z" fill="black"/>
<path d="M264.737 24.1583C263.963 23.8355 263.162 23.4768 262.334 23.0822C261.527 22.6962 260.771 22.2128 260.083 21.643C259.4 21.0796 258.828 20.3956 258.395 19.6253C257.933 18.7612 257.705 17.7924 257.733 16.814C257.715 15.7725 257.936 14.7407 258.378 13.7968C258.82 12.8529 259.473 12.0217 260.285 11.3663C261.126 10.6922 262.086 10.1825 263.117 9.8642C264.283 9.50543 265.498 9.32847 266.718 9.33961C267.504 9.34184 268.29 9.40027 269.068 9.51447C269.855 9.62529 270.628 9.81456 271.377 10.0794C272.076 10.324 272.736 10.6683 273.335 11.1017C273.89 11.4983 274.343 12.0189 274.659 12.6217C274.921 13.1505 275.02 13.7452 274.942 14.33C274.885 14.8324 274.68 15.3068 274.352 15.6931C274.102 15.9764 273.795 16.2053 273.452 16.3656C273.12 16.5268 272.755 16.6096 272.385 16.6077C272.059 16.5994 271.738 16.5262 271.44 16.3925C271.062 16.1594 270.715 15.9531 270.4 15.7738C270.088 15.5992 269.763 15.4492 269.428 15.3254C269.087 15.1977 268.734 15.1031 268.375 15.0429C267.959 14.9766 267.539 14.9451 267.119 14.9488C266.209 14.8917 265.298 15.0452 264.458 15.3971C264.182 15.5218 263.95 15.7249 263.789 15.9811C263.629 16.2372 263.549 16.5348 263.558 16.8364C263.553 16.9931 263.581 17.1492 263.639 17.2949C263.697 17.4407 263.784 17.573 263.896 17.6838C264.159 17.9354 264.463 18.1401 264.796 18.2891C265.262 18.5057 265.743 18.6871 266.236 18.8317L268.037 19.3697C269.072 19.6826 270.087 20.06 271.075 20.4996C271.993 20.9013 272.847 21.4312 273.614 22.0734C274.333 22.6788 274.925 23.4193 275.356 24.2525C275.811 25.1861 276.033 26.2149 276.005 27.2521C276.011 28.3002 275.775 29.3357 275.316 30.2786C274.854 31.2173 274.205 32.052 273.407 32.7312C272.562 33.456 271.59 34.0199 270.54 34.3947C269.36 34.8088 268.117 35.0137 266.867 35C265.984 34.9953 265.103 34.9189 264.233 34.7713C263.305 34.6187 262.398 34.3568 261.532 33.9912C260.665 33.6275 259.852 33.1478 259.115 32.5653C258.366 31.9798 257.752 31.2413 257.314 30.3997C257.016 29.8975 256.848 29.3286 256.828 28.7452C256.818 28.2748 256.934 27.8103 257.166 27.4001C257.389 27.0181 257.717 26.7071 258.111 26.5033C258.527 26.2843 258.991 26.1732 259.462 26.1805C259.926 26.1871 260.384 26.283 260.812 26.463C261.328 26.6806 261.803 26.9838 262.216 27.3597C262.453 27.6483 262.725 27.9059 263.027 28.1264C263.731 28.648 264.535 29.0189 265.39 29.216C265.864 29.3251 266.349 29.3793 266.835 29.3774C267.263 29.38 267.689 29.3303 268.104 29.2294C268.474 29.1415 268.829 29.001 269.158 28.8125C269.444 28.6509 269.692 28.4308 269.887 28.1668C270.067 27.9159 270.162 27.6142 270.157 27.3059C270.145 27.0994 270.085 26.8985 269.982 26.7188C269.879 26.5392 269.735 26.3857 269.563 26.2702C269.117 25.9175 268.632 25.6166 268.118 25.3734C267.533 25.099 266.932 24.8609 266.317 24.6605L264.737 24.1583Z" fill="black"/>
</svg>
