<svg width="50" height="50" viewBox="0 0 50 50" fill="none" xmlns="http://www.w3.org/2000/svg">
<path fill-rule="evenodd" clip-rule="evenodd" d="M32.5455 13.3633C33.3956 14.9033 34.6224 16.2025 36.111 17.1395L24.7777 28.4312L4.70825 8.4451C4.94753 8.3752 5.19512 8.33782 5.44436 8.33398H31.2499C31.2496 10.093 31.6954 11.8234 32.5455 13.3633ZM38.889 18.3475C39.7925 18.6067 40.7269 18.7422 41.6668 18.7503C43.5943 18.7549 45.4848 18.2209 47.1251 17.2087V38.8892C47.1251 39.6259 46.8325 40.3325 46.3115 40.8534C45.7906 41.3743 45.084 41.667 44.3473 41.667H5.45844C4.72173 41.667 4.01519 41.3743 3.49426 40.8534C2.97332 40.3325 2.68066 39.6259 2.68066 38.8892V11.1114C2.68361 10.8768 2.71627 10.6434 2.77789 10.417L22.8751 30.4031C23.3956 30.9205 24.0996 31.2109 24.8334 31.2109C25.5673 31.2109 26.2713 30.9205 26.7918 30.4031L38.889 18.3475ZM5.43066 38.8892H7.36122L17.4862 28.8475L15.5279 26.8892L5.43066 36.9031V38.8892ZM42.3751 38.8892H44.3196L44.3057 36.9031L34.2084 26.8892L32.2501 28.8475L42.3751 38.8892Z" fill="black"/>
<path d="M41.6666 15.2776C45.5019 15.2776 48.6111 12.1684 48.6111 8.33312C48.6111 4.49781 45.5019 1.38867 41.6666 1.38867C37.8313 1.38867 34.7222 4.49781 34.7222 8.33312C34.7222 12.1684 37.8313 15.2776 41.6666 15.2776Z" fill="#FF0000"/>
</svg>
