<svg width="56" height="56" viewBox="0 0 56 56" fill="none" xmlns="http://www.w3.org/2000/svg">
<path d="M45.5 22.75C45.5 38.5 28 50.75 28 50.75C28 50.75 10.5 38.5 10.5 22.75C10.5 18.1087 12.3437 13.6575 15.6256 10.3756C18.9075 7.09374 23.3587 5.25 28 5.25C32.6413 5.25 37.0925 7.09374 40.3744 10.3756C43.6563 13.6575 45.5 18.1087 45.5 22.75Z" fill="#0075FF"/>
<path d="M28 29.75C31.866 29.75 35 26.616 35 22.75C35 18.884 31.866 15.75 28 15.75C24.134 15.75 21 18.884 21 22.75C21 26.616 24.134 29.75 28 29.75Z" fill="white"/>
</svg>
