<svg width="123" height="196" viewBox="0 0 123 196" fill="none" xmlns="http://www.w3.org/2000/svg">
<path d="M112.125 3.16113H9.46199C5.97835 3.16113 3.1543 5.99185 3.1543 9.48371V186.516C3.1543 190.008 5.97835 192.839 9.46199 192.839H112.125C115.609 192.839 118.433 190.008 118.433 186.516V9.48371C118.433 5.99185 115.609 3.16113 112.125 3.16113Z" fill="white" fill-opacity="0.38" stroke="black" stroke-width="2" stroke-linecap="round"/>
<path d="M61.8809 179.757C66.6859 179.757 70.5812 175.853 70.5812 171.036C70.5812 166.22 66.6859 162.315 61.8809 162.315C57.0759 162.315 53.1807 166.22 53.1807 171.036C53.1807 175.853 57.0759 179.757 61.8809 179.757Z" fill="black"/>
<path d="M46.3953 69.896L27.0791 89.258L46.3953 108.62" stroke="#FFB800" stroke-width="4" stroke-miterlimit="10" stroke-linecap="round" stroke-linejoin="round"/>
<path d="M77.874 69.896L97.1904 89.258L77.874 108.62" stroke="#0075FF" stroke-width="4" stroke-miterlimit="10" stroke-linecap="round" stroke-linejoin="round"/>
<path d="M69.2876 60.5728L52.833 117.941" stroke="black" stroke-width="2" stroke-miterlimit="10" stroke-linecap="round" stroke-linejoin="round"/>
</svg>
