<svg width="50" height="50" viewBox="0 0 50 50" fill="none" xmlns="http://www.w3.org/2000/svg">
<path d="M30.8906 27.916C30.8906 25.3835 28.1484 23.7921 25.9664 25.0584C23.7846 26.3245 23.7846 29.5073 25.9664 30.7736C28.1484 32.0397 30.8906 30.4484 30.8906 27.916ZM38.407 21.8334C40.5793 11.4495 35.8001 8.19093 27.6755 15.7073C20.0288 8.53852 14.5834 10.7978 16.9006 21.7899C6.21538 25.0112 6.92329 31.075 16.9875 34.1724C14.6848 44.2956 18.9861 47.9885 27.6755 40.3418C36.1042 47.9016 40.5776 44.3621 38.2766 34.1289C49.2542 30.407 48.2695 25.0196 38.407 21.8334ZM36.9298 21.4423C35.2076 21.0538 33.5412 20.7711 31.8464 20.6168C30.9535 19.3112 29.9134 18.0069 28.7182 16.7935C35.2321 10.5454 39.0712 12.4977 36.9298 21.4423ZM20.1157 29.9144C20.7601 31.2903 21.6074 32.5502 22.2446 33.6075C21.2069 33.5013 20.0891 33.3402 18.8991 33.1295C19.2851 32.0505 19.6907 30.9786 20.1157 29.9144ZM20.0288 26.178C19.5547 25.0401 19.1222 23.9419 18.7688 22.9195C19.9972 22.6648 21.201 22.4336 22.2446 22.3546C21.4679 23.5748 20.7301 24.8505 20.0288 26.178ZM20.9412 28.0896C22.0036 25.9619 23.1275 23.9422 24.3735 22.1374C26.5844 22.0102 28.7718 22.0215 30.934 22.1808C32.1467 23.8706 33.2786 25.8902 34.3664 28.0896C33.5524 29.7718 32.3965 31.7104 31.0644 33.7813C28.8402 33.9496 26.5597 33.9264 24.2432 33.7813C23.0691 31.9826 21.9665 30.088 20.9412 28.0896ZM35.1919 29.9144C35.6137 30.9382 36.0036 31.9816 36.3649 33.0426C35.2738 33.2724 34.1717 33.4464 33.0629 33.564C33.8069 32.4114 34.5126 31.1876 35.1919 29.9144ZM33.0629 22.3547C34.2476 22.5168 35.392 22.7193 36.4952 22.9629C36.1285 24.0547 35.708 25.1277 35.2353 26.178C34.5628 24.8516 33.8407 23.5751 33.0629 22.3547ZM29.7175 20.443C28.3643 20.3899 26.9878 20.3916 25.59 20.443C26.2019 19.6382 26.884 18.7975 27.6321 17.9231C28.361 18.7099 29.0517 19.5569 29.7175 20.443ZM26.5893 16.7934C25.3941 18.0068 24.3541 19.2677 23.4611 20.5733C21.7663 20.7276 20.0565 21.0103 18.3344 21.3988C16.2923 12.3183 20.0755 10.5453 26.5893 16.7934ZM17.3785 32.7385C8.32705 30.0159 8.76151 25.7726 17.2916 23.2671C17.8134 24.8505 18.4451 26.4586 19.1599 28.0028C18.4654 29.5999 17.8505 31.2401 17.3785 32.7385ZM18.5081 34.5633C20.0433 34.9399 21.6701 35.1206 23.3743 35.302C24.3996 36.749 25.4614 38.0943 26.5894 39.2556C19.9564 45.6134 16.2588 43.3034 18.5081 34.5633ZM27.6321 38.1695C26.8461 37.3555 26.1122 36.4333 25.4163 35.4323C26.9676 35.465 28.4659 35.4686 29.8913 35.4323C29.2091 36.4009 28.4538 37.3159 27.6321 38.1695ZM28.7182 39.2556C29.9285 37.9407 30.9953 36.6078 31.9333 35.2585C33.5343 35.1407 35.1564 34.8947 36.7994 34.52C39.0691 43.8229 34.948 45.1965 28.7182 39.2556ZM37.8856 32.6517C37.4202 31.1533 36.8325 29.5999 36.1477 28.0028C36.8447 26.4747 37.4539 24.9081 37.9724 23.3106C46.2999 25.8305 46.966 29.8566 37.8856 32.6517Z" fill="#61DAFB"/>
</svg>
