<svg width="50" height="50" viewBox="0 0 50 50" fill="none" xmlns="http://www.w3.org/2000/svg">
<mask id="path-1-outside-1_261_947" maskUnits="userSpaceOnUse" x="6" y="8" width="39" height="35" fill="black">
<rect fill="white" x="6" y="8" width="39" height="35"/>
<path fill-rule="evenodd" clip-rule="evenodd" d="M36.1483 19.2878C36.547 19.4036 36.9428 19.5287 37.3359 19.6629C41.3206 21.0381 43.8956 23.1911 43.8972 25.4202C43.8972 27.7408 41.1431 30.0114 36.9154 31.4157C36.6915 31.4895 36.4627 31.561 36.229 31.6302C36.3125 31.9663 36.3863 32.2958 36.4504 32.6187C37.2859 36.8455 36.6426 40.3199 34.6633 41.4682C32.7485 42.5797 29.6516 41.4874 26.5155 38.7833C26.1732 38.4887 25.8401 38.1848 25.5162 37.8717C25.26 38.1212 25.0038 38.3582 24.7476 38.5827C21.5084 41.419 18.1855 42.5951 16.2047 41.4506C14.2869 40.3421 13.6873 37.1084 14.456 33.0345C14.54 32.5897 14.6366 32.1498 14.7458 31.7147C14.4096 31.6184 14.0765 31.5141 13.7465 31.4019C9.67801 30.0083 7 27.71 7 25.4179C7 23.1995 9.49507 21.0603 13.3968 19.696C13.8334 19.5438 14.29 19.4 14.7627 19.2655C14.6617 18.8592 14.5708 18.451 14.4898 18.0411C13.6804 13.8957 14.2515 10.5835 16.1732 9.4682C18.1778 8.30445 21.5177 9.55352 24.8498 12.519C25.0599 12.7035 25.2649 12.8921 25.4647 13.0847C25.7645 12.7947 26.0707 12.5129 26.3833 12.2392C29.5624 9.4659 32.7139 8.30599 34.6356 9.41901C36.6426 10.5789 37.2306 14.1024 36.3312 18.4761C36.2754 18.7482 36.2144 19.0188 36.1483 19.2878ZM33.85 10.7872C32.6893 10.1169 30.1435 11.0547 27.4202 13.4306H27.4187C27.1296 13.6833 26.8473 13.9433 26.5716 14.2108C27.6978 15.4394 28.7396 16.7427 29.69 18.1118C31.35 18.2622 32.9981 18.5231 34.6233 18.8927C34.6827 18.6483 34.7381 18.4031 34.7893 18.1571C35.5657 14.3807 35.0853 11.5013 33.85 10.7872ZM18.9403 29.2266C18.5765 28.5968 18.2278 27.9591 17.8942 27.3134C17.4253 28.4279 17.0241 29.5233 16.6982 30.5779C17.8215 30.8188 18.9565 31.0018 20.0987 31.1259C19.697 30.5023 19.3108 29.8692 18.9403 29.2266ZM17.8932 23.596C18.2264 22.9517 18.5739 22.315 18.9357 21.686C19.298 21.0562 19.6752 20.4354 20.0672 19.8236C18.8973 19.9696 17.7751 20.1625 16.722 20.3985C17.0423 21.4339 17.4324 22.5061 17.8932 23.596ZM20.3016 22.4754C19.741 23.4496 19.2178 24.4432 18.732 25.4563H18.7297C19.214 26.4638 19.7387 27.4569 20.3039 28.4356C20.8692 29.4144 21.4703 30.3698 22.1072 31.302C23.1826 31.3719 24.2948 31.408 25.4478 31.408C26.6008 31.408 27.7346 31.3658 28.8299 31.2889C29.4494 30.3542 30.0388 29.4 30.5978 28.4264C31.1615 27.4476 31.6903 26.4499 32.1843 25.4332C31.6837 24.4242 31.1536 23.4352 30.594 22.4662C30.0344 21.4972 29.4418 20.5492 28.8161 19.6222C27.7192 19.5384 26.587 19.4946 25.4501 19.4946C24.3133 19.4946 23.188 19.5384 22.0903 19.6214C21.458 20.5505 20.8617 21.5018 20.3016 22.4754ZM33.0322 27.2565C32.6904 27.9181 32.3337 28.5712 31.9622 29.2158C31.5968 29.8507 31.2189 30.478 30.8284 31.0975C31.9855 30.9617 33.1347 30.7654 34.2712 30.5095C33.9143 29.4046 33.5007 28.3189 33.0322 27.2565ZM31.9553 21.6776C32.3227 22.3104 32.6765 22.951 33.0168 23.5992C33.4636 22.5592 33.8579 21.4973 34.1982 20.4177C33.1398 20.1756 32.0106 19.9773 30.8338 19.8282C31.2227 20.437 31.5966 21.0534 31.9553 21.6776ZM27.637 17.9673C26.9578 17.0555 26.233 16.1787 25.4655 15.34C24.7268 16.1386 23.9927 17.0187 23.2756 17.9673C24.7304 17.8981 26.1842 17.8981 27.637 17.9673ZM23.8075 13.6989C20.9304 11.1416 18.2009 10.1177 16.9664 10.8341C15.8073 11.5067 15.3469 14.1855 16.0425 17.739C16.1178 18.1212 16.2024 18.501 16.2962 18.8781C17.9191 18.5155 19.5639 18.2587 21.2202 18.1095C22.1798 16.7421 23.229 15.44 24.3609 14.2116C24.1764 14.034 23.9912 13.8626 23.8075 13.6989ZM14.2561 29.9076C14.5559 30.0101 14.8595 30.1052 15.167 30.1928C15.6696 28.5768 16.2779 26.9956 16.988 25.4594C16.2863 23.9441 15.6854 22.3842 15.1893 20.7898C14.7624 20.9107 14.3392 21.0442 13.9195 21.1902C10.5789 22.3548 8.57575 24.0719 8.57575 25.4179C8.57575 26.0512 9.03848 26.833 9.95165 27.6162C10.9717 28.4902 12.4575 29.2927 14.2561 29.9076ZM19.5783 39.9847C20.8428 39.5366 22.2771 38.6473 23.7091 37.3928C23.9482 37.183 24.1826 36.9662 24.4117 36.741C23.2716 35.5048 22.2137 34.1953 21.2448 32.8208C19.5728 32.6933 17.9115 32.4522 16.2723 32.0991C16.1714 32.509 16.0817 32.919 16.0033 33.3289C15.343 36.8125 15.8273 39.4098 16.991 40.0823C17.5375 40.3983 18.4423 40.3867 19.5783 39.9847ZM23.2894 32.9453C24.0166 33.9062 24.7622 34.8001 25.5093 35.608C26.2767 34.7553 27.0002 33.864 27.6769 32.9377C26.9436 32.9707 26.1996 32.9869 25.4478 32.9869C24.7155 32.9869 23.9961 32.973 23.2894 32.9453ZM33.8723 40.1008C34.4188 39.7841 34.8608 38.9924 35.0806 37.8056C35.3251 36.4842 35.272 34.7947 34.9023 32.9269C34.8444 32.6348 34.7778 32.3366 34.7025 32.0322C33.0568 32.4041 31.3874 32.6622 29.7062 32.8047C28.7648 34.1844 27.7317 35.4992 26.6139 36.7402C26.9267 37.0377 27.2342 37.3213 27.5416 37.5857C30.2227 39.8986 32.7093 40.7757 33.8723 40.1008ZM35.7986 30.1105C36.0092 30.0475 36.2167 29.9829 36.4181 29.9161C40.07 28.7031 42.3199 26.8476 42.3199 25.4179C42.3199 24.0781 40.2368 22.3348 36.8224 21.1572C36.4696 21.035 36.103 20.9197 35.7255 20.8098C35.2308 22.387 34.6309 23.9293 33.93 25.4263C34.6582 26.9436 35.2825 28.5086 35.7986 30.1105ZM27.287 28.1683C26.7421 28.5302 26.102 28.7222 25.4478 28.7201C25.0144 28.7196 24.5854 28.6337 24.1852 28.4673C23.785 28.3009 23.4216 28.0572 23.1156 27.7503C22.8096 27.4433 22.5672 27.079 22.4021 26.6783C22.237 26.2776 22.1524 25.8483 22.1533 25.4149C22.1533 24.7607 22.3475 24.1213 22.7111 23.5775C23.0748 23.0337 23.5916 22.6101 24.1962 22.3602C24.8008 22.1104 25.4659 22.0456 26.1074 22.174C26.7488 22.3024 27.3377 22.6182 27.7995 23.0816C28.2614 23.5449 28.5753 24.1348 28.7016 24.7767C28.8279 25.4185 28.7609 26.0835 28.5091 26.6872C28.2573 27.291 27.832 27.8064 27.287 28.1683Z"/>
</mask>
<path fill-rule="evenodd" clip-rule="evenodd" d="M36.1483 19.2878C36.547 19.4036 36.9428 19.5287 37.3359 19.6629C41.3206 21.0381 43.8956 23.1911 43.8972 25.4202C43.8972 27.7408 41.1431 30.0114 36.9154 31.4157C36.6915 31.4895 36.4627 31.561 36.229 31.6302C36.3125 31.9663 36.3863 32.2958 36.4504 32.6187C37.2859 36.8455 36.6426 40.3199 34.6633 41.4682C32.7485 42.5797 29.6516 41.4874 26.5155 38.7833C26.1732 38.4887 25.8401 38.1848 25.5162 37.8717C25.26 38.1212 25.0038 38.3582 24.7476 38.5827C21.5084 41.419 18.1855 42.5951 16.2047 41.4506C14.2869 40.3421 13.6873 37.1084 14.456 33.0345C14.54 32.5897 14.6366 32.1498 14.7458 31.7147C14.4096 31.6184 14.0765 31.5141 13.7465 31.4019C9.67801 30.0083 7 27.71 7 25.4179C7 23.1995 9.49507 21.0603 13.3968 19.696C13.8334 19.5438 14.29 19.4 14.7627 19.2655C14.6617 18.8592 14.5708 18.451 14.4898 18.0411C13.6804 13.8957 14.2515 10.5835 16.1732 9.4682C18.1778 8.30445 21.5177 9.55352 24.8498 12.519C25.0599 12.7035 25.2649 12.8921 25.4647 13.0847C25.7645 12.7947 26.0707 12.5129 26.3833 12.2392C29.5624 9.4659 32.7139 8.30599 34.6356 9.41901C36.6426 10.5789 37.2306 14.1024 36.3312 18.4761C36.2754 18.7482 36.2144 19.0188 36.1483 19.2878ZM33.85 10.7872C32.6893 10.1169 30.1435 11.0547 27.4202 13.4306H27.4187C27.1296 13.6833 26.8473 13.9433 26.5716 14.2108C27.6978 15.4394 28.7396 16.7427 29.69 18.1118C31.35 18.2622 32.9981 18.5231 34.6233 18.8927C34.6827 18.6483 34.7381 18.4031 34.7893 18.1571C35.5657 14.3807 35.0853 11.5013 33.85 10.7872ZM18.9403 29.2266C18.5765 28.5968 18.2278 27.9591 17.8942 27.3134C17.4253 28.4279 17.0241 29.5233 16.6982 30.5779C17.8215 30.8188 18.9565 31.0018 20.0987 31.1259C19.697 30.5023 19.3108 29.8692 18.9403 29.2266ZM17.8932 23.596C18.2264 22.9517 18.5739 22.315 18.9357 21.686C19.298 21.0562 19.6752 20.4354 20.0672 19.8236C18.8973 19.9696 17.7751 20.1625 16.722 20.3985C17.0423 21.4339 17.4324 22.5061 17.8932 23.596ZM20.3016 22.4754C19.741 23.4496 19.2178 24.4432 18.732 25.4563H18.7297C19.214 26.4638 19.7387 27.4569 20.3039 28.4356C20.8692 29.4144 21.4703 30.3698 22.1072 31.302C23.1826 31.3719 24.2948 31.408 25.4478 31.408C26.6008 31.408 27.7346 31.3658 28.8299 31.2889C29.4494 30.3542 30.0388 29.4 30.5978 28.4264C31.1615 27.4476 31.6903 26.4499 32.1843 25.4332C31.6837 24.4242 31.1536 23.4352 30.594 22.4662C30.0344 21.4972 29.4418 20.5492 28.8161 19.6222C27.7192 19.5384 26.587 19.4946 25.4501 19.4946C24.3133 19.4946 23.188 19.5384 22.0903 19.6214C21.458 20.5505 20.8617 21.5018 20.3016 22.4754ZM33.0322 27.2565C32.6904 27.9181 32.3337 28.5712 31.9622 29.2158C31.5968 29.8507 31.2189 30.478 30.8284 31.0975C31.9855 30.9617 33.1347 30.7654 34.2712 30.5095C33.9143 29.4046 33.5007 28.3189 33.0322 27.2565ZM31.9553 21.6776C32.3227 22.3104 32.6765 22.951 33.0168 23.5992C33.4636 22.5592 33.8579 21.4973 34.1982 20.4177C33.1398 20.1756 32.0106 19.9773 30.8338 19.8282C31.2227 20.437 31.5966 21.0534 31.9553 21.6776ZM27.637 17.9673C26.9578 17.0555 26.233 16.1787 25.4655 15.34C24.7268 16.1386 23.9927 17.0187 23.2756 17.9673C24.7304 17.8981 26.1842 17.8981 27.637 17.9673ZM23.8075 13.6989C20.9304 11.1416 18.2009 10.1177 16.9664 10.8341C15.8073 11.5067 15.3469 14.1855 16.0425 17.739C16.1178 18.1212 16.2024 18.501 16.2962 18.8781C17.9191 18.5155 19.5639 18.2587 21.2202 18.1095C22.1798 16.7421 23.229 15.44 24.3609 14.2116C24.1764 14.034 23.9912 13.8626 23.8075 13.6989ZM14.2561 29.9076C14.5559 30.0101 14.8595 30.1052 15.167 30.1928C15.6696 28.5768 16.2779 26.9956 16.988 25.4594C16.2863 23.9441 15.6854 22.3842 15.1893 20.7898C14.7624 20.9107 14.3392 21.0442 13.9195 21.1902C10.5789 22.3548 8.57575 24.0719 8.57575 25.4179C8.57575 26.0512 9.03848 26.833 9.95165 27.6162C10.9717 28.4902 12.4575 29.2927 14.2561 29.9076ZM19.5783 39.9847C20.8428 39.5366 22.2771 38.6473 23.7091 37.3928C23.9482 37.183 24.1826 36.9662 24.4117 36.741C23.2716 35.5048 22.2137 34.1953 21.2448 32.8208C19.5728 32.6933 17.9115 32.4522 16.2723 32.0991C16.1714 32.509 16.0817 32.919 16.0033 33.3289C15.343 36.8125 15.8273 39.4098 16.991 40.0823C17.5375 40.3983 18.4423 40.3867 19.5783 39.9847ZM23.2894 32.9453C24.0166 33.9062 24.7622 34.8001 25.5093 35.608C26.2767 34.7553 27.0002 33.864 27.6769 32.9377C26.9436 32.9707 26.1996 32.9869 25.4478 32.9869C24.7155 32.9869 23.9961 32.973 23.2894 32.9453ZM33.8723 40.1008C34.4188 39.7841 34.8608 38.9924 35.0806 37.8056C35.3251 36.4842 35.272 34.7947 34.9023 32.9269C34.8444 32.6348 34.7778 32.3366 34.7025 32.0322C33.0568 32.4041 31.3874 32.6622 29.7062 32.8047C28.7648 34.1844 27.7317 35.4992 26.6139 36.7402C26.9267 37.0377 27.2342 37.3213 27.5416 37.5857C30.2227 39.8986 32.7093 40.7757 33.8723 40.1008ZM35.7986 30.1105C36.0092 30.0475 36.2167 29.9829 36.4181 29.9161C40.07 28.7031 42.3199 26.8476 42.3199 25.4179C42.3199 24.0781 40.2368 22.3348 36.8224 21.1572C36.4696 21.035 36.103 20.9197 35.7255 20.8098C35.2308 22.387 34.6309 23.9293 33.93 25.4263C34.6582 26.9436 35.2825 28.5086 35.7986 30.1105ZM27.287 28.1683C26.7421 28.5302 26.102 28.7222 25.4478 28.7201C25.0144 28.7196 24.5854 28.6337 24.1852 28.4673C23.785 28.3009 23.4216 28.0572 23.1156 27.7503C22.8096 27.4433 22.5672 27.079 22.4021 26.6783C22.237 26.2776 22.1524 25.8483 22.1533 25.4149C22.1533 24.7607 22.3475 24.1213 22.7111 23.5775C23.0748 23.0337 23.5916 22.6101 24.1962 22.3602C24.8008 22.1104 25.4659 22.0456 26.1074 22.174C26.7488 22.3024 27.3377 22.6182 27.7995 23.0816C28.2614 23.5449 28.5753 24.1348 28.7016 24.7767C28.8279 25.4185 28.7609 26.0835 28.5091 26.6872C28.2573 27.291 27.832 27.8064 27.287 28.1683Z" fill="black"/>
<path d="M37.3359 19.6629L37.499 19.1903L37.4975 19.1898L37.3359 19.6629ZM36.1483 19.2878L35.6628 19.1685L35.5483 19.6342L36.0088 19.768L36.1483 19.2878ZM43.8972 25.4202H44.3972V25.4198L43.8972 25.4202ZM36.9154 31.4157L37.0719 31.8906L37.0731 31.8902L36.9154 31.4157ZM36.229 31.6302L36.0871 31.1507L35.6284 31.2865L35.7438 31.7507L36.229 31.6302ZM36.4504 32.6187L36.9409 32.5217L36.9408 32.5214L36.4504 32.6187ZM34.6633 41.4682L34.4123 41.0358L34.4122 41.0358L34.6633 41.4682ZM26.5155 38.7833L26.842 38.4046L26.8417 38.4044L26.5155 38.7833ZM25.5162 37.8717L25.8638 37.5122L25.5149 37.175L25.1674 37.5135L25.5162 37.8717ZM24.7476 38.5827L25.077 38.9589L25.077 38.9588L24.7476 38.5827ZM16.2047 41.4506L15.9545 41.8835L15.9545 41.8835L16.2047 41.4506ZM14.456 33.0345L13.9647 32.9417L13.9647 32.9418L14.456 33.0345ZM14.7458 31.7147L15.2307 31.8364L15.3484 31.3673L14.8835 31.2341L14.7458 31.7147ZM13.7465 31.4019L13.5845 31.8749L13.5855 31.8753L13.7465 31.4019ZM13.3968 19.696L13.2322 19.2238L13.2317 19.224L13.3968 19.696ZM14.7627 19.2655L14.8995 19.7464L15.3645 19.6141L15.2479 19.145L14.7627 19.2655ZM14.4898 18.0411L13.9991 18.1369L13.9993 18.1379L14.4898 18.0411ZM16.1732 9.4682L16.4242 9.90064L16.4242 9.90062L16.1732 9.4682ZM24.8498 12.519L24.5174 12.8925L24.5199 12.8947L24.8498 12.519ZM25.4647 13.0847L25.1177 13.4447L25.4653 13.7799L25.8124 13.4441L25.4647 13.0847ZM26.3833 12.2392L26.0546 11.8624L26.0539 11.863L26.3833 12.2392ZM34.6356 9.41901L34.385 9.85167L34.3854 9.85191L34.6356 9.41901ZM36.3312 18.4761L35.8415 18.3754L35.8415 18.3756L36.3312 18.4761ZM27.4202 13.4306V13.9306H27.6076L27.7489 13.8074L27.4202 13.4306ZM33.85 10.7872L34.1003 10.3543L34.1001 10.3542L33.85 10.7872ZM27.4187 13.4306V12.9306H27.2309L27.0896 13.0542L27.4187 13.4306ZM26.5716 14.2108L26.2234 13.852L25.8746 14.1904L26.203 14.5487L26.5716 14.2108ZM29.69 18.1118L29.2793 18.3969L29.4124 18.5887L29.6449 18.6097L29.69 18.1118ZM34.6233 18.8927L34.5124 19.3803L34.9927 19.4895L35.1091 19.0109L34.6233 18.8927ZM34.7893 18.1571L35.2788 18.2591L35.2791 18.2578L34.7893 18.1571ZM17.8942 27.3134L18.3384 27.0839L17.8478 26.1343L17.4333 27.1195L17.8942 27.3134ZM18.9403 29.2266L19.3735 28.9768L19.3733 28.9765L18.9403 29.2266ZM16.6982 30.5779L16.2205 30.4302L16.0592 30.9522L16.5933 31.0668L16.6982 30.5779ZM20.0987 31.1259L20.0447 31.623L21.0867 31.7363L20.519 30.8551L20.0987 31.1259ZM18.9357 21.686L19.3691 21.9354L18.9357 21.686ZM17.8932 23.596L17.4326 23.7907L17.8477 24.7725L18.3373 23.8257L17.8932 23.596ZM20.0672 19.8236L20.4882 20.0933L21.0636 19.1953L20.0053 19.3274L20.0672 19.8236ZM16.722 20.3985L16.6127 19.9106L16.0843 20.029L16.2443 20.5463L16.722 20.3985ZM18.732 25.4563V25.9563H19.0468L19.1829 25.6725L18.732 25.4563ZM20.3016 22.4754L20.735 22.7248L20.735 22.7248L20.3016 22.4754ZM18.7297 25.4563V24.9563H17.9346L18.2791 25.6729L18.7297 25.4563ZM20.3039 28.4356L19.871 28.6857L20.3039 28.4356ZM22.1072 31.302L21.6944 31.5841L21.8318 31.7851L22.0748 31.8009L22.1072 31.302ZM28.8299 31.2889L28.8649 31.7877L29.1106 31.7704L29.2467 31.5651L28.8299 31.2889ZM30.5978 28.4264L30.1645 28.1769L30.1642 28.1774L30.5978 28.4264ZM32.1843 25.4332L32.6341 25.6518L32.7414 25.4309L32.6322 25.211L32.1843 25.4332ZM30.594 22.4662L31.027 22.2162V22.2162L30.594 22.4662ZM28.8161 19.6222L29.2305 19.3425L29.0952 19.142L28.8542 19.1236L28.8161 19.6222ZM22.0903 19.6214L22.0526 19.1228L21.8125 19.141L21.677 19.3401L22.0903 19.6214ZM31.9622 29.2158L31.529 28.9662L31.5288 28.9664L31.9622 29.2158ZM33.0322 27.2565L33.4897 27.0547L33.0678 26.0982L32.588 27.027L33.0322 27.2565ZM30.8284 31.0975L30.4054 30.8309L29.8475 31.7161L30.8867 31.5941L30.8284 31.0975ZM34.2712 30.5095L34.3811 30.9972L34.9154 30.8769L34.747 30.3557L34.2712 30.5095ZM33.0168 23.5992L32.5741 23.8316L33.0619 24.761L33.4762 23.7966L33.0168 23.5992ZM31.9553 21.6776L31.5218 21.9267L31.5229 21.9286L31.9553 21.6776ZM34.1982 20.4177L34.6751 20.5681L34.838 20.0512L34.3097 19.9303L34.1982 20.4177ZM30.8338 19.8282L30.8967 19.3321L29.8378 19.198L30.4125 20.0974L30.8338 19.8282ZM25.4655 15.34L25.8343 15.0024L25.4674 14.6015L25.0984 15.0005L25.4655 15.34ZM27.637 17.9673L27.6132 18.4667L28.67 18.517L28.0379 17.6686L27.637 17.9673ZM23.2756 17.9673L22.8767 17.6657L22.2328 18.5174L23.2993 18.4667L23.2756 17.9673ZM16.9664 10.8341L17.2174 11.2666L17.2174 11.2666L16.9664 10.8341ZM23.8075 13.6989L24.1402 13.3256L24.1397 13.3252L23.8075 13.6989ZM16.0425 17.739L15.5518 17.835L15.5519 17.8356L16.0425 17.739ZM16.2962 18.8781L15.8109 18.9988L15.9287 19.4726L16.4052 19.3661L16.2962 18.8781ZM21.2202 18.1095L21.2651 18.6074L21.4962 18.5866L21.6295 18.3967L21.2202 18.1095ZM24.3609 14.2116L24.7286 14.5504L25.0602 14.1906L24.7077 13.8514L24.3609 14.2116ZM15.167 30.1928L15.03 30.6736L15.4994 30.8074L15.6444 30.3413L15.167 30.1928ZM14.2561 29.9076L14.4179 29.4345H14.4179L14.2561 29.9076ZM16.988 25.4594L17.4418 25.6692L17.5389 25.4592L17.4417 25.2493L16.988 25.4594ZM15.1893 20.7898L15.6667 20.6412L15.5219 20.1759L15.053 20.3087L15.1893 20.7898ZM13.9195 21.1902L13.7551 20.718L13.7549 20.7181L13.9195 21.1902ZM9.95165 27.6162L9.62612 27.9957L9.62632 27.9959L9.95165 27.6162ZM23.7091 37.3928L24.0386 37.7689L24.039 37.7686L23.7091 37.3928ZM19.5783 39.9847L19.7451 40.4561L19.7454 40.456L19.5783 39.9847ZM24.4117 36.741L24.7622 37.0975L25.1075 36.758L24.7792 36.402L24.4117 36.741ZM21.2448 32.8208L21.6534 32.5327L21.5177 32.3402L21.2828 32.3223L21.2448 32.8208ZM16.2723 32.0991L16.3776 31.6103L15.9029 31.508L15.7868 31.9795L16.2723 32.0991ZM16.0033 33.3289L15.5122 33.235L15.512 33.2358L16.0033 33.3289ZM16.991 40.0823L17.2413 39.6495L17.2412 39.6494L16.991 40.0823ZM25.5093 35.608L25.1422 35.9475L25.5143 36.3498L25.881 35.9425L25.5093 35.608ZM23.2894 32.9453L23.309 32.4457L22.253 32.4044L22.8907 33.2471L23.2894 32.9453ZM27.6769 32.9377L28.0807 33.2326L28.6953 32.3912L27.6544 32.4382L27.6769 32.9377ZM35.0806 37.8056L35.5723 37.8966L35.5723 37.8965L35.0806 37.8056ZM33.8723 40.1008L33.6216 39.6682L33.6214 39.6683L33.8723 40.1008ZM34.9023 32.9269L35.3928 32.8298L35.3928 32.8297L34.9023 32.9269ZM34.7025 32.0322L35.1878 31.9121L35.0701 31.4365L34.5922 31.5445L34.7025 32.0322ZM29.7062 32.8047L29.664 32.3065L29.4271 32.3265L29.2932 32.5229L29.7062 32.8047ZM26.6139 36.7402L26.2424 36.4056L25.9166 36.7672L26.2693 37.1026L26.6139 36.7402ZM27.5416 37.5857L27.8682 37.2071L27.8677 37.2066L27.5416 37.5857ZM36.4181 29.9161L36.5757 30.3906L36.5757 30.3906L36.4181 29.9161ZM35.7986 30.1105L35.3227 30.2638L35.4728 30.7299L35.9419 30.5895L35.7986 30.1105ZM36.8224 21.1572L36.6588 21.6297L36.6594 21.6299L36.8224 21.1572ZM35.7255 20.8098L35.8654 20.3297L35.3951 20.1927L35.2485 20.6601L35.7255 20.8098ZM33.93 25.4263L33.4771 25.2143L33.3766 25.429L33.4792 25.6427L33.93 25.4263ZM25.4478 28.7201L25.4494 28.2201L25.4484 28.2201L25.4478 28.7201ZM23.1156 27.7503L23.4697 27.3973V27.3973L23.1156 27.7503ZM22.1533 25.4149L22.6533 25.4159V25.4149L22.1533 25.4149ZM22.7111 23.5775L23.1268 23.8554L22.7111 23.5775ZM24.1962 22.3602L24.0053 21.8981L24.1962 22.3602ZM26.1074 22.174L26.0092 22.6642L26.1074 22.174ZM27.7995 23.0816L27.4454 23.4345V23.4345L27.7995 23.0816ZM28.7016 24.7767L28.211 24.8732V24.8732L28.7016 24.7767ZM28.5091 26.6872L28.9706 26.8797L28.9706 26.8797L28.5091 26.6872ZM37.4975 19.1898C37.0971 19.053 36.6939 18.9256 36.2878 18.8077L36.0088 19.768C36.4001 19.8816 36.7885 20.0043 37.1743 20.1361L37.4975 19.1898ZM44.3972 25.4198C44.3962 24.1032 43.6369 22.8818 42.4375 21.8433C41.2328 20.8003 39.5304 19.8913 37.499 19.1903L37.1728 20.1356C39.1261 20.8097 40.7036 21.6648 41.7829 22.5993C42.8676 23.5384 43.3965 24.5081 43.3972 25.4205L44.3972 25.4198ZM37.0731 31.8902C39.2269 31.1747 41.0352 30.2295 42.3153 29.1427C43.5885 28.0616 44.3972 26.7872 44.3972 25.4202H43.3972C43.3972 26.3738 42.8287 27.3949 41.668 28.3804C40.5142 29.3601 38.8315 30.2524 36.7578 30.9412L37.0731 31.8902ZM36.371 32.1096C36.6093 32.039 36.843 31.966 37.0719 31.8906L36.7589 30.9408C36.54 31.013 36.316 31.083 36.0871 31.1507L36.371 32.1096ZM36.9408 32.5214C36.8752 32.1903 36.7996 31.8531 36.7143 31.5096L35.7438 31.7507C35.8255 32.0796 35.8975 32.4013 35.96 32.716L36.9408 32.5214ZM34.9142 41.9007C36.0785 41.2252 36.7849 39.9071 37.1029 38.2946C37.4228 36.673 37.3674 34.6793 36.9409 32.5217L35.9599 32.7156C36.3689 34.7849 36.4096 36.6418 36.1218 38.1011C35.8322 39.5696 35.2273 40.5629 34.4123 41.0358L34.9142 41.9007ZM26.189 39.162C27.789 40.5416 29.4029 41.5317 30.8882 42.0306C32.3683 42.5278 33.7855 42.5559 34.9143 41.9007L34.4122 41.0358C33.6263 41.492 32.5376 41.5298 31.2066 41.0827C29.8807 40.6373 28.3781 39.7291 26.842 38.4046L26.189 39.162ZM25.1687 38.2311C25.4995 38.551 25.8397 38.8613 26.1893 39.1623L26.8417 38.4044C26.5066 38.116 26.1807 37.8186 25.8638 37.5122L25.1687 38.2311ZM25.077 38.9588C25.3402 38.7283 25.6029 38.4853 25.8651 38.2299L25.1674 37.5135C24.9171 37.7572 24.6674 37.9882 24.4181 38.2066L25.077 38.9588ZM15.9545 41.8835C17.1201 42.5569 18.6124 42.512 20.1656 41.9827C21.7273 41.4505 23.4236 40.4067 25.077 38.9589L24.4182 38.2065C22.8324 39.5951 21.2476 40.5575 19.843 41.0362C18.4297 41.5178 17.2701 41.4887 16.4548 41.0176L15.9545 41.8835ZM13.9647 32.9418C13.5726 35.0199 13.5227 36.9151 13.8328 38.4534C14.1417 39.9862 14.8242 41.2302 15.9545 41.8835L16.4549 41.0177C15.6674 40.5625 15.0912 39.6355 14.8131 38.2558C14.5361 36.8816 14.5708 35.123 14.9473 33.1272L13.9647 32.9418ZM14.2608 31.5931C14.1492 32.0377 14.0505 32.4873 13.9647 32.9417L14.9473 33.1273C15.0295 32.6921 15.124 32.2618 15.2307 31.8364L14.2608 31.5931ZM13.5855 31.8753C13.9233 31.9901 14.2641 32.0968 14.608 32.1954L14.8835 31.2341C14.5551 31.14 14.2298 31.0381 13.9075 30.9285L13.5855 31.8753ZM6.5 25.4179C6.5 26.7654 7.28398 28.0384 8.51751 29.1224C9.75787 30.2124 11.5075 31.1635 13.5845 31.8749L13.9085 30.9289C11.917 30.2467 10.2934 29.3518 9.17763 28.3713C8.05503 27.3847 7.5 26.3625 7.5 25.4179H6.5ZM13.2317 19.224C11.2409 19.9202 9.57847 20.8238 8.40407 21.8621C7.23372 22.8968 6.5 24.1114 6.5 25.4179H7.5C7.5 24.506 8.01382 23.5419 9.06642 22.6113C10.115 21.6843 11.651 20.8361 13.5618 20.1679L13.2317 19.224ZM14.6258 18.7846C14.1445 18.9216 13.6786 19.0682 13.2322 19.2238L13.5614 20.1681C13.9881 20.0193 14.4354 19.8785 14.8995 19.7464L14.6258 18.7846ZM13.9993 18.1379C14.0818 18.5558 14.1745 18.9719 14.2774 19.3861L15.2479 19.145C15.1489 18.7464 15.0597 18.3462 14.9803 17.9442L13.9993 18.1379ZM15.9222 9.03576C14.7859 9.69524 14.112 10.9656 13.8161 12.5252C13.5189 14.092 13.5865 16.0237 13.9991 18.1369L14.9805 17.9452C14.5837 15.913 14.5322 14.116 14.7986 12.7115C15.0664 11.2999 15.6388 10.3565 16.4242 9.90064L15.9222 9.03576ZM25.1822 12.1455C23.4846 10.6347 21.7623 9.5398 20.1821 8.97437C18.6104 8.41194 17.1039 8.34978 15.9221 9.03578L16.4242 9.90062C17.2472 9.42288 18.4129 9.40338 19.8452 9.91591C21.2692 10.4254 22.8828 11.4378 24.5174 12.8925L25.1822 12.1455ZM25.8118 12.7248C25.6063 12.5267 25.3956 12.3328 25.1797 12.1433L24.5199 12.8947C24.7242 13.0741 24.9235 13.2574 25.1177 13.4447L25.8118 12.7248ZM26.0539 11.863C25.7351 12.1421 25.4228 12.4296 25.1171 12.7254L25.8124 13.4441C26.1062 13.1598 26.4063 12.8836 26.7126 12.6154L26.0539 11.863ZM34.8862 8.98634C33.7492 8.32777 32.3131 8.37723 30.8162 8.89966C29.3125 9.4245 27.6753 10.4486 26.0546 11.8624L26.712 12.616C28.2704 11.2565 29.7986 10.314 31.1458 9.84381C32.4998 9.37121 33.6004 9.39723 34.385 9.85167L34.8862 8.98634ZM36.821 18.5768C37.2791 16.3488 37.3655 14.307 37.0652 12.6531C36.7666 11.0081 36.0685 9.66964 34.8858 8.98611L34.3854 9.85191C35.2097 10.3283 35.809 11.3315 36.0813 12.8317C36.352 14.323 36.2827 16.2298 35.8415 18.3754L36.821 18.5768ZM36.6339 19.4071C36.7015 19.1318 36.7639 18.855 36.821 18.5767L35.8415 18.3756C35.7869 18.6414 35.7273 18.9057 35.6628 19.1685L36.6339 19.4071ZM27.7489 13.8074C29.0806 12.6456 30.3504 11.8523 31.4064 11.431C32.497 10.9958 33.2294 11.0062 33.6 11.2202L34.1001 10.3542C33.31 9.89796 32.1891 10.0421 31.0358 10.5022C29.8479 10.9762 28.4831 11.8398 27.0915 13.0539L27.7489 13.8074ZM27.4187 13.9306H27.4202V12.9306H27.4187V13.9306ZM26.9198 14.5697C27.1892 14.3082 27.4652 14.054 27.7477 13.8071L27.0896 13.0542C26.794 13.3125 26.5053 13.5785 26.2234 13.852L26.9198 14.5697ZM30.1008 17.8266C29.1375 16.4391 28.0816 15.1182 26.9402 13.873L26.203 14.5487C27.314 15.7607 28.3417 17.0463 29.2793 18.3969L30.1008 17.8266ZM34.7342 18.4052C33.0873 18.0306 31.4172 17.7662 29.7352 17.6138L29.6449 18.6097C31.2827 18.7581 32.9088 19.0155 34.5124 19.3803L34.7342 18.4052ZM34.2998 18.0551C34.2497 18.2957 34.1956 18.5355 34.1374 18.7746L35.1091 19.0109C35.1699 18.7611 35.2264 18.5105 35.2788 18.2591L34.2998 18.0551ZM33.5998 11.2201C34.0055 11.4546 34.4057 12.1432 34.5787 13.3924C34.7464 14.6031 34.6796 16.208 34.2996 18.0564L35.2791 18.2578C35.6754 16.3298 35.7565 14.6068 35.5693 13.2552C35.3874 11.942 34.9298 10.8339 34.1003 10.3543L33.5998 11.2201ZM17.45 27.5429C17.7872 28.1955 18.1397 28.8401 18.5074 29.4767L19.3733 28.9765C19.0134 28.3534 18.6684 27.7226 18.3384 27.0839L17.45 27.5429ZM17.1759 30.7255C17.4965 29.688 17.892 28.6081 18.3551 27.5073L17.4333 27.1195C16.9587 28.2478 16.5516 29.3586 16.2205 30.4302L17.1759 30.7255ZM20.1528 30.6289C19.0277 30.5065 17.9096 30.3263 16.803 30.089L16.5933 31.0668C17.7334 31.3113 18.8854 31.497 20.0447 31.623L20.1528 30.6289ZM18.5072 29.4763C18.8818 30.126 19.2722 30.7662 19.6784 31.3967L20.519 30.8551C20.1217 30.2384 19.7399 29.6123 19.3735 28.9768L18.5072 29.4763ZM18.5023 21.4367C18.1368 22.0722 17.7857 22.7154 17.449 23.3663L18.3373 23.8257C18.6671 23.188 19.011 22.5579 19.3691 21.9354L18.5023 21.4367ZM19.6462 19.5538C19.2499 20.1724 18.8686 20.8 18.5023 21.4367L19.3691 21.9354C19.7275 21.3125 20.1005 20.6985 20.4882 20.0933L19.6462 19.5538ZM16.8313 20.8864C17.8674 20.6543 18.9737 20.464 20.1291 20.3197L20.0053 19.3274C18.8209 19.4753 17.6827 19.6708 16.6127 19.9106L16.8313 20.8864ZM18.3537 23.4013C17.8993 22.3264 17.5149 21.2699 17.1997 20.2508L16.2443 20.5463C16.5697 21.598 16.9655 22.6858 17.4326 23.7907L18.3537 23.4013ZM19.1829 25.6725C19.6633 24.6707 20.1806 23.6881 20.735 22.7248L19.8683 22.226C19.3014 23.211 18.7724 24.2157 18.2812 25.2401L19.1829 25.6725ZM18.7297 25.9563H18.732V24.9563H18.7297V25.9563ZM20.7369 28.1856C20.1779 27.2176 19.6591 26.2357 19.1804 25.2397L18.2791 25.6729C18.7689 26.6919 19.2995 27.6961 19.871 28.6857L20.7369 28.1856ZM22.52 31.0199C21.8902 30.0982 21.2958 29.1534 20.7369 28.1856L19.871 28.6857C20.4425 29.6753 21.0503 30.6415 21.6944 31.5841L22.52 31.0199ZM25.4478 30.908C24.3053 30.908 23.2039 30.8722 22.1397 30.803L22.0748 31.8009C23.1613 31.8716 24.2844 31.908 25.4478 31.908V30.908ZM28.7949 30.7901C27.7107 30.8662 26.5887 30.908 25.4478 30.908V31.908C26.6129 31.908 27.7584 31.8653 28.8649 31.7877L28.7949 30.7901ZM30.1642 28.1774C29.6105 29.1418 29.0268 30.0869 28.4131 31.0126L29.2467 31.5651C29.8721 30.6215 30.467 29.6583 31.0314 28.6754L30.1642 28.1774ZM31.7346 25.2147C31.2457 26.2209 30.7224 27.2083 30.1645 28.1769L31.0311 28.6759C31.6006 27.687 32.135 26.679 32.6341 25.6518L31.7346 25.2147ZM30.161 22.7163C30.7153 23.6761 31.2404 24.6558 31.7364 25.6555L32.6322 25.211C32.1269 24.1926 31.5918 23.1944 31.027 22.2162L30.161 22.7163ZM28.4016 19.9019C29.0208 20.8192 29.6072 21.7573 30.161 22.7163L31.027 22.2162C30.4616 21.2371 29.8627 20.2791 29.2305 19.3425L28.4016 19.9019ZM25.4501 19.9946C26.5743 19.9946 27.6938 20.0379 28.778 20.1207L28.8542 19.1236C27.7446 19.0389 26.5996 18.9946 25.4501 18.9946V19.9946ZM22.128 20.12C23.2133 20.0379 24.326 19.9946 25.4501 19.9946V18.9946C24.3005 18.9946 23.1626 19.0389 22.0526 19.1228L22.128 20.12ZM20.735 22.7248C21.2889 21.7621 21.8784 20.8214 22.5036 19.9027L21.677 19.3401C21.0375 20.2795 20.4346 21.2416 19.8682 22.2261L20.735 22.7248ZM32.3954 29.4655C32.7707 28.8142 33.1311 28.1544 33.4764 27.486L32.588 27.027C32.2497 27.6818 31.8967 28.3281 31.529 28.9662L32.3954 29.4655ZM31.2514 31.3641C31.6455 30.7389 32.0268 30.1059 32.3956 29.4652L31.5288 28.9664C31.1668 29.5955 30.7923 30.217 30.4054 30.8309L31.2514 31.3641ZM34.1614 30.0217C33.0419 30.2738 31.9099 30.4671 30.7701 30.6009L30.8867 31.5941C32.0611 31.4562 33.2275 31.257 34.3811 30.9972L34.1614 30.0217ZM32.5747 27.4583C33.0363 28.5049 33.4438 29.5747 33.7955 30.6632L34.747 30.3557C34.3848 29.2346 33.9651 28.1328 33.4897 27.0547L32.5747 27.4583ZM33.4595 23.3668C33.1159 22.7123 32.7587 22.0655 32.3877 21.4265L31.5229 21.9286C31.8867 22.5553 32.2371 23.1897 32.5741 23.8316L33.4595 23.3668ZM33.7214 20.2674C33.3861 21.3311 32.9976 22.3772 32.5574 23.4019L33.4762 23.7966C33.9296 22.7412 34.3298 21.6636 34.6751 20.5681L33.7214 20.2674ZM30.7709 20.3242C31.9327 20.4714 33.0456 20.667 34.0867 20.9052L34.3097 19.9303C33.234 19.6843 32.0885 19.4832 30.8967 19.3321L30.7709 20.3242ZM32.3888 21.4284C32.0262 20.7975 31.6483 20.1743 31.2551 19.559L30.4125 20.0974C30.7972 20.6996 31.167 21.3094 31.5218 21.9267L32.3888 21.4284ZM25.0966 15.6775C25.8528 16.5038 26.5668 17.3677 27.236 18.266L28.0379 17.6686C27.3487 16.7434 26.6132 15.8535 25.8343 15.0024L25.0966 15.6775ZM23.6744 18.2688C24.3824 17.3324 25.106 16.4651 25.8326 15.6795L25.0984 15.0005C24.3477 15.8122 23.6031 16.7051 22.8767 17.6657L23.6744 18.2688ZM27.6607 17.4678C26.1921 17.3979 24.7225 17.3979 23.2518 17.4678L23.2993 18.4667C24.7383 18.3983 26.1763 18.3983 27.6132 18.4667L27.6607 17.4678ZM17.2174 11.2666C17.6223 11.0316 18.4165 11.0282 19.5828 11.5021C20.713 11.9613 22.0671 12.8209 23.4753 14.0726L24.1397 13.3252C22.6708 12.0196 21.2216 11.0886 19.9592 10.5756C18.7328 10.0774 17.5451 9.92022 16.7155 10.4017L17.2174 11.2666ZM16.5332 17.6429C16.193 15.905 16.1409 14.4056 16.3038 13.2777C16.4721 12.1127 16.847 11.4815 17.2174 11.2666L16.7155 10.4016C15.9267 10.8593 15.4919 11.9038 15.3141 13.1347C15.1309 14.4027 15.1964 16.0194 15.5518 17.835L16.5332 17.6429ZM16.7814 18.7575C16.6896 18.3883 16.6068 18.0166 16.5331 17.6423L15.5519 17.8356C15.6288 18.2259 15.7152 18.6136 15.8109 18.9988L16.7814 18.7575ZM21.1753 17.6115C19.4975 17.7627 17.8312 18.0228 16.1871 18.3902L16.4052 19.3661C18.007 19.0081 19.6304 18.7547 21.2651 18.6074L21.1753 17.6115ZM23.9932 13.8728C22.8463 15.1174 21.7832 16.4368 20.8109 17.8222L21.6295 18.3967C22.5763 17.0475 23.6116 15.7626 24.7286 14.5504L23.9932 13.8728ZM23.4748 14.0722C23.6538 14.2317 23.8343 14.3987 24.0142 14.5718L24.7077 13.8514C24.5186 13.6693 24.3286 13.4936 24.1402 13.3256L23.4748 14.0722ZM15.304 29.7119C15.0048 29.6266 14.7094 29.5342 14.4179 29.4345L14.0944 30.3807C14.4024 30.486 14.7143 30.5837 15.03 30.6736L15.304 29.7119ZM16.5341 25.2496C15.8149 26.8057 15.1987 28.4074 14.6896 30.0443L15.6444 30.3413C16.1406 28.7462 16.741 27.1855 17.4418 25.6692L16.5341 25.2496ZM14.7119 20.9383C15.2145 22.5538 15.8233 24.1343 16.5342 25.6695L17.4417 25.2493C16.7492 23.754 16.1563 22.2146 15.6667 20.6412L14.7119 20.9383ZM14.0838 21.6625C14.4942 21.5196 14.9082 21.3891 15.3256 21.2708L15.053 20.3087C14.6167 20.4323 14.1841 20.5688 13.7551 20.718L14.0838 21.6625ZM9.07575 25.4179C9.07575 24.9796 9.42226 24.3426 10.3094 23.6247C11.1713 22.9273 12.452 22.2313 14.0841 21.6624L13.7549 20.7181C12.0464 21.3137 10.6552 22.0586 9.68037 22.8473C8.7308 23.6157 8.07575 24.5102 8.07575 25.4179H9.07575ZM10.2772 27.2367C9.39805 26.4826 9.07575 25.828 9.07575 25.4179H8.07575C8.07575 26.2745 8.67892 27.1833 9.62612 27.9957L10.2772 27.2367ZM14.4179 29.4345C12.6597 28.8334 11.2354 28.0577 10.277 27.2365L9.62632 27.9959C10.7079 28.9227 12.2552 29.7519 14.0944 30.3807L14.4179 29.4345ZM23.3796 37.0167C21.9793 38.2434 20.5989 39.0925 19.4113 39.5134L19.7454 40.456C21.0866 39.9806 22.5749 39.0511 24.0386 37.7689L23.3796 37.0167ZM24.0611 36.3844C23.8393 36.6025 23.6118 36.8129 23.3793 37.017L24.039 37.7686C24.2845 37.553 24.5259 37.3299 24.7622 37.0975L24.0611 36.3844ZM20.8361 33.1089C21.8176 34.5012 22.8893 35.8277 24.0441 37.08L24.7792 36.402C23.654 35.1819 22.6098 33.8893 21.6534 32.5327L20.8361 33.1089ZM16.167 32.5878C17.8284 32.9457 19.5122 33.1901 21.2068 33.3194L21.2828 32.3223C19.6335 32.1965 17.9946 31.9586 16.3776 31.6103L16.167 32.5878ZM16.4944 33.4228C16.5711 33.0216 16.6589 32.6202 16.7578 32.2186L15.7868 31.9795C15.6838 32.3978 15.5923 32.8163 15.5122 33.235L16.4944 33.4228ZM17.2412 39.6494C16.8629 39.4308 16.4849 38.8118 16.3071 37.682C16.1343 36.5846 16.1719 35.1243 16.4946 33.422L15.512 33.2358C15.1744 35.0171 15.124 36.5972 15.3192 37.8375C15.5094 39.0454 15.9554 40.0613 16.7408 40.5152L17.2412 39.6494ZM19.4115 39.5134C18.3169 39.9007 17.5934 39.853 17.2413 39.6495L16.7408 40.5152C17.4817 40.9435 18.5676 40.8728 19.7451 40.4561L19.4115 39.5134ZM25.8764 35.2685C25.1413 34.4737 24.4062 33.5925 23.6881 32.6436L22.8907 33.2471C23.6269 34.2199 24.383 35.1265 25.1422 35.9475L25.8764 35.2685ZM27.2732 32.6427C26.6065 33.5553 25.8937 34.4334 25.1377 35.2735L25.881 35.9425C26.6597 35.0771 27.3939 34.1727 28.0807 33.2326L27.2732 32.6427ZM25.4478 33.4869C26.2067 33.4869 26.9583 33.4706 27.6994 33.4372L27.6544 32.4382C26.929 32.4709 26.1924 32.4869 25.4478 32.4869V33.4869ZM23.2699 33.445C23.9832 33.4729 24.7092 33.4869 25.4478 33.4869V32.4869C24.7218 32.4869 24.0089 32.4731 23.309 32.4457L23.2699 33.445ZM34.589 37.7145C34.3771 38.8585 33.9741 39.4639 33.6216 39.6682L34.123 40.5334C34.8635 40.1043 35.3445 39.1262 35.5723 37.8966L34.589 37.7145ZM34.4118 33.024C34.7734 34.8505 34.8186 36.4734 34.589 37.7146L35.5723 37.8965C35.8315 36.4951 35.7707 34.7389 35.3928 32.8298L34.4118 33.024ZM34.2171 32.1523C34.2907 32.4495 34.3555 32.7401 34.4119 33.0241L35.3928 32.8297C35.3333 32.5295 35.2649 32.2236 35.1878 31.9121L34.2171 32.1523ZM29.7484 33.3029C31.4525 33.1585 33.1446 32.8969 34.8127 32.5199L34.5922 31.5445C32.9689 31.9114 31.3223 32.166 29.664 32.3065L29.7484 33.3029ZM26.9854 37.0749C28.1182 35.8172 29.1652 34.4847 30.1192 33.0865L29.2932 32.5229C28.3644 33.8841 27.3452 35.1812 26.2424 36.4056L26.9854 37.0749ZM27.8677 37.2066C27.5689 36.9497 27.2681 36.6723 26.9584 36.3779L26.2693 37.1026C26.5854 37.4031 26.8994 37.6929 27.2156 37.9648L27.8677 37.2066ZM33.6214 39.6683C33.2436 39.8875 32.5206 39.9067 31.4558 39.497C30.4214 39.0991 29.1783 38.3373 27.8682 37.2071L27.215 37.9643C28.5861 39.1471 29.9268 39.9802 31.0967 40.4303C32.2362 40.8687 33.338 40.9889 34.1233 40.5332L33.6214 39.6683ZM36.2605 29.4415C36.0651 29.5064 35.8626 29.5695 35.6552 29.6315L35.9419 30.5895C36.1558 30.5255 36.3683 30.4594 36.5757 30.3906L36.2605 29.4415ZM41.8199 25.4179C41.8199 25.8884 41.4241 26.5799 40.4311 27.3539C39.4684 28.1042 38.0478 28.8479 36.2605 29.4415L36.5757 30.3906C38.4403 29.7713 39.9706 28.9807 41.0458 28.1426C42.0907 27.3282 42.8199 26.3771 42.8199 25.4179H41.8199ZM36.6594 21.6299C38.3289 22.2057 39.6491 22.9122 40.5411 23.6187C41.4624 24.3483 41.8199 24.9896 41.8199 25.4179H42.8199C42.8199 24.5064 42.1359 23.6061 41.162 22.8348C40.1588 22.0402 38.7303 21.2863 36.9854 20.6845L36.6594 21.6299ZM35.5857 21.2898C35.9566 21.3978 36.3152 21.5106 36.6588 21.6297L36.9861 20.6847C36.6241 20.5593 36.2493 20.4415 35.8654 20.3297L35.5857 21.2898ZM34.3828 25.6383C35.0932 24.1211 35.7012 22.5579 36.2026 20.9594L35.2485 20.6601C34.7604 22.216 34.1686 23.7375 33.4771 25.2143L34.3828 25.6383ZM36.2745 29.9572C35.7515 28.3337 35.1188 26.7477 34.3807 25.21L33.4792 25.6427C34.1977 27.1395 34.8136 28.6835 35.3227 30.2638L36.2745 29.9572ZM25.4462 29.2201C26.1993 29.2226 26.9362 29.0015 27.5636 28.5848L27.0104 27.7518C26.5479 28.0589 26.0047 28.2219 25.4494 28.2201L25.4462 29.2201ZM23.9932 28.929C24.454 29.1206 24.9481 29.2195 25.4472 29.2201L25.4484 28.2201C25.0807 28.2197 24.7167 28.1468 24.3772 28.0056L23.9932 28.929ZM22.7615 28.1032C23.1138 28.4567 23.5324 28.7373 23.9932 28.929L24.3772 28.0056C24.0377 27.8644 23.7293 27.6577 23.4697 27.3973L22.7615 28.1032ZM21.9398 26.8688C22.1299 27.3303 22.4091 27.7497 22.7615 28.1032L23.4697 27.3973C23.2101 27.1369 23.0044 26.8278 22.8644 26.4878L21.9398 26.8688ZM21.6533 25.4138C21.6523 25.9129 21.7496 26.4073 21.9398 26.8688L22.8644 26.4878C22.7243 26.1479 22.6526 25.7836 22.6533 25.4159L21.6533 25.4138ZM22.2955 23.2995C21.8768 23.9256 21.6533 24.6617 21.6533 25.4149L22.6533 25.4149C22.6533 24.8597 22.8181 24.317 23.1268 23.8554L22.2955 23.2995ZM24.0053 21.8981C23.3092 22.1858 22.7142 22.6735 22.2955 23.2995L23.1268 23.8554C23.4354 23.3939 23.8741 23.0344 24.3872 22.8223L24.0053 21.8981ZM26.2055 21.6837C25.467 21.5359 24.7013 21.6105 24.0053 21.8981L24.3872 22.8223C24.9003 22.6103 25.4648 22.5553 26.0092 22.6642L26.2055 21.6837ZM28.1537 22.7286C27.622 22.1952 26.944 21.8315 26.2055 21.6837L26.0092 22.6642C26.5536 22.7732 27.0535 23.0413 27.4454 23.4345L28.1537 22.7286ZM29.1922 24.6801C29.0468 23.9412 28.6853 23.262 28.1537 22.7286L27.4454 23.4345C27.8374 23.8278 28.1038 24.3285 28.211 24.8732L29.1922 24.6801ZM28.9706 26.8797C29.2605 26.1846 29.3376 25.4191 29.1922 24.6801L28.211 24.8732C28.3182 25.418 28.2614 25.9823 28.0476 26.4947L28.9706 26.8797ZM27.5636 28.5848C28.191 28.1682 28.6807 27.5748 28.9706 26.8797L28.0476 26.4947C27.8339 27.0072 27.4729 27.4447 27.0104 27.7518L27.5636 28.5848Z" fill="black" mask="url(#path-1-outside-1_261_947)"/>
</svg>
