<svg width="50" height="50" viewBox="0 0 50 50" fill="none" xmlns="http://www.w3.org/2000/svg">
<rect x="15" y="12" width="22" height="24" fill="white"/>
<path d="M43.0583 27.7332C43.1796 26.8697 43.2416 25.9989 43.2437 25.1269C43.2437 20.0498 41.4812 15.6603 38.0083 12.079C34.4979 8.46443 30.1854 6.6311 25.1917 6.6311C24.6345 6.63029 24.0775 6.65671 23.5229 6.71026C21.9388 5.97915 20.2134 5.60506 18.4687 5.61443C15.1167 5.61443 12.1083 6.88526 9.77292 9.29151C7.47083 11.6561 6.25 14.6769 6.25 18.0248C6.25 19.7582 6.575 21.3978 7.22083 22.9165C7.12407 23.65 7.07535 24.3891 7.075 25.129C7.075 30.2082 8.85208 34.6019 12.35 38.1853C15.8771 41.7936 20.2 43.6228 25.1917 43.6228C25.7208 43.6228 26.3312 43.5811 27.0583 43.4978C28.4958 44.0873 29.9937 44.3853 31.5292 44.3853C34.8375 44.3853 37.8312 43.1061 40.1896 40.6832C41.3324 39.528 42.2354 38.1582 42.8464 36.6525C43.4575 35.1468 43.7646 33.5351 43.75 31.9103C43.75 30.4998 43.5187 29.0998 43.0583 27.7332ZM32.2917 31.9748C31.7 32.8644 30.7729 33.6019 29.5021 34.1936C28.2333 34.6998 26.7729 34.954 25.1271 34.954C23.1396 34.954 21.4687 34.5936 20.1187 33.8728C19.1979 33.3738 18.4138 32.6563 17.8354 31.7832C17.2437 30.8519 16.9438 29.9873 16.9438 29.1832C16.9438 28.6769 17.1354 28.2311 17.5146 27.8519C17.7057 27.6621 17.9337 27.5135 18.1845 27.4153C18.4354 27.3171 18.7037 27.2714 18.9729 27.2811C19.3958 27.2811 19.8187 27.4311 20.2417 27.7248C20.5792 28.0623 20.8312 28.4873 21 28.9936C21.0437 29.0353 21.3187 29.5207 21.825 30.4519C22.0375 30.7457 22.4167 31.0415 22.9646 31.3373C23.475 31.5915 24.1479 31.7186 24.9958 31.7186C26.1375 31.7186 27.0896 31.4665 27.85 30.9603C28.525 30.4936 28.8625 29.904 28.8625 29.1832C28.8625 28.5915 28.6708 28.1457 28.2917 27.8519C27.8786 27.4507 27.381 27.1467 26.8354 26.9623L26.1708 26.8061L25.2187 26.5498C24.9173 26.4577 24.6104 26.3839 24.3 26.329C22.8646 26.0353 21.6396 25.654 20.6208 25.1873C19.7333 24.8498 18.9312 24.2603 18.2125 23.4144C17.6229 22.6103 17.325 21.6582 17.325 20.5603C17.325 19.4603 17.6417 18.4894 18.2771 17.6436C18.9104 16.7978 19.8188 16.1623 21.0021 15.7415C22.1875 15.2748 23.5417 15.0457 25.0625 15.0457C26.2042 15.0457 27.2833 15.1915 28.2958 15.4894C29.2708 15.8269 30.0521 16.229 30.6437 16.6957C31.1917 17.2019 31.6375 17.7082 31.975 18.2144C32.2708 18.8894 32.4208 19.4415 32.4208 19.8623C32.4264 20.1216 32.3784 20.3792 32.2798 20.619C32.1813 20.8588 32.0342 21.0757 31.8479 21.2561C31.662 21.4567 31.4367 21.6168 31.1862 21.7264C30.9356 21.8361 30.6652 21.893 30.3917 21.8936C29.9587 21.9042 29.5347 21.7692 29.1875 21.5103C28.975 21.2998 28.7021 20.9207 28.3625 20.3707C28.091 19.7551 27.6794 19.2114 27.1604 18.7832C26.6542 18.404 25.8708 18.2144 24.8125 18.2144C23.7562 18.2144 22.9542 18.4269 22.4042 18.8498C21.8125 19.2332 21.5167 19.6748 21.5167 20.1811C21.5167 20.5186 21.6208 20.7978 21.8333 21.0061C22.0458 21.304 22.3167 21.5373 22.6583 21.7061C22.8708 21.8311 23.2292 21.9811 23.7375 22.1478L24.5917 22.3686C25.0354 22.479 25.4062 22.5498 25.7021 22.5915C26.2917 22.7186 27.3083 22.9915 28.7458 23.4165C29.5917 23.7103 30.3938 24.0894 31.1542 24.5582C31.875 25.0623 32.4021 25.6353 32.7417 26.2665C33.0792 27.0269 33.2458 27.8728 33.2458 28.8019C33.2465 29.9304 32.9146 31.034 32.2917 31.9748Z" fill="#5BA0D9"/>
</svg>
