<svg width="51" height="50" viewBox="0 0 51 50" fill="none" xmlns="http://www.w3.org/2000/svg">
<path d="M44.497 42.5687C44.5076 42.731 44.4917 42.8971 44.447 43.0609L44.4461 43.0642C44.3357 43.4686 44.2255 43.8719 44.0857 44.3886C43.936 44.9421 43.4838 45.3618 42.9208 45.4699C42.3577 45.5781 41.7822 45.3558 41.4381 44.8973C41.4165 44.8685 41.4078 44.8582 41.3896 44.8367C41.3742 44.8184 41.3518 44.7919 41.3088 44.739C41.2433 44.6584 41.1014 44.4814 40.9911 44.2353C40.385 42.8904 39.571 42.1837 38.5104 41.9761C37.2971 41.7398 36.0951 42.0377 34.8452 42.8078L34.8449 42.808C32.7654 44.0885 30.5068 44.9112 28.0609 45.1342L28.0606 45.1342C21.9642 45.689 16.7008 43.4621 12.0416 39.758L12.9751 38.5838L12.0416 39.758C9.72187 37.9137 7.77508 35.6806 6.14204 33.1586L6.13902 33.1539C6.09416 33.0841 6.04419 33.011 5.98084 32.9192L5.96188 32.8918C5.90607 32.811 5.83919 32.7143 5.77407 32.6154C5.76462 32.601 5.75542 32.5865 5.74647 32.5718C5.63046 32.3817 5.5816 32.2084 5.55956 32.114C5.54094 32.0343 5.53151 31.9638 5.53 31.9525L5.52983 31.9513C5.52907 31.9458 5.52853 31.9418 5.52815 31.9391C5.40893 31.3326 5.67406 30.7146 6.19662 30.3832C6.72197 30.05 7.39846 30.0757 7.89705 30.4477C8.06263 30.5712 8.21447 30.6853 8.36063 30.795C8.55383 30.9401 8.73711 31.0778 8.92912 31.2201L8.9324 31.2225C11.337 33.0156 13.9845 34.1473 16.8428 34.6754C19.6126 35.1868 22.2738 35.0499 24.8157 33.9746C24.8616 33.9551 24.9068 33.9353 24.9516 33.9153C18.7977 28.4209 13.9935 21.7279 9.33724 15.1382C8.89431 14.5113 8.99605 13.6512 9.573 13.145C10.15 12.6388 11.016 12.6498 11.5799 13.1705C12.0442 13.5992 12.5003 14.0253 12.9527 14.4478C14.0156 15.4406 15.0579 16.4141 16.1377 17.3584C16.4644 17.6434 16.7928 17.9264 17.1228 18.2076C15.9983 16.5886 14.9084 14.9391 13.8537 13.2576C13.4406 12.5991 13.5991 11.7341 14.2188 11.2648C14.8385 10.7955 15.714 10.8773 16.236 11.4534C16.3749 11.6067 16.49 11.7381 16.5953 11.8582C16.7641 12.0509 16.9076 12.2147 17.0834 12.3938L44.497 42.5687ZM44.497 42.5687V42.5677V42.5646V42.5614V42.5582V42.5551V42.5519V42.5488V42.5456V42.5424V42.5393V42.5361V42.5329V42.5298V42.5266V42.5234V42.5203V42.5171V42.5139V42.5108V42.5076V42.5044V42.5013V42.4981V42.4949V42.4918V42.4886V42.4854V42.4823V42.4791V42.4759V42.4728V42.4696V42.4664V42.4633V42.4601V42.4569V42.4538V42.4506V42.4474V42.4443V42.4411V42.438V42.4348V42.4316V42.4284V42.4253V42.4221V42.4189V42.4158V42.4126V42.4094V42.4063V42.4031V42.3999V42.3968V42.3936V42.3904V42.3873V42.3841V42.3809V42.3778V42.3746V42.3714V42.3683V42.3651V42.3619V42.3588V42.3556V42.3524V42.3493V42.3461V42.3429V42.3398V42.3366V42.3334V42.3302V42.3271V42.3239V42.3207V42.3176V42.3144V42.3112V42.3081V42.3049V42.3017V42.2986V42.2954V42.2922V42.2891V42.2859V42.2827V42.2795V42.2764V42.2732V42.27V42.2669V42.2637V42.2605V42.2574V42.2542V42.251V42.2479V42.2447V42.2415V42.2383V42.2352V42.232V42.2288V42.2257V42.2225V42.2193V42.2162V42.213V42.2098V42.2066V42.2035V42.2003V42.1971V42.194V42.1908V42.1876V42.1845V42.1813V42.1781V42.1749V42.1718V42.1686V42.1654V42.1623V42.1591V42.1559V42.1528V42.1496V42.1464V42.1432V42.1401V42.1369V42.1337V42.1306V42.1274V42.1242V42.121V42.1179V42.1147V42.1115V42.1084V42.1052V42.102V42.0989V42.0957V42.0925V42.0893V42.0862V42.083V42.0798V42.0767V42.0735V42.0703V42.0671V42.064V42.0608V42.0576V42.0545V42.0513V42.0481V42.0449V42.0418V42.0386V42.0354V42.0323V42.0291V42.0259V42.0227V42.0196V42.0164V42.0132V42.0101V42.0069V42.0037V42.0005V41.9974V41.9942V41.991V41.9879V41.9847V41.9815V41.9783V41.9752V41.972V41.9688V41.9657V41.9625V41.9593V41.9561V41.953V41.9498V41.9466V41.9435V41.9403V41.9371V41.9339V41.9308V41.9276V41.9244V41.9213V41.9181V41.9149V41.9117V41.9086V41.9054V41.9022V41.8991V41.8959V41.8927V41.8895V41.8864V41.8832V41.88V41.8769V41.8737V41.8705V41.8673V41.8642V41.861V41.8578V41.8547V41.8515V41.8483V41.8451V41.842V41.8388V41.8356V41.8325V41.8293V41.8261V41.8229V41.8198V41.8166V41.8134V41.8102V41.8071V41.8039V41.8007V41.7976V41.7944V41.7912V41.788V41.7849V41.7817V41.7785V41.7754V41.7722V41.769V41.7658V41.7627V41.7595V41.7563V41.7532V41.75V41.7468V41.7436V41.7405V41.7373V41.7341V41.731V41.7278V41.7246V41.7214V41.7183V41.7151V41.7119V41.7088V41.7056V41.7024V41.6992V41.6961V41.6929V41.6897V41.6866V41.6834V41.6802V41.677V41.6739V41.6707V41.6675V41.6644V41.6612V41.658V41.6548V41.6517V41.6485V41.6453V41.6422V41.639V41.6358V41.6326V41.6295V41.6263V41.6231V41.62V41.6168V41.6136V41.6105V41.6073V41.6041V41.6009V41.5978V41.5946V41.5914V41.5883V41.5851V41.5819V41.5787V41.5756V41.5724V41.5692V41.5661V41.5629V41.5597V41.5566V41.5534V41.5502V41.547V41.5439V41.5407V41.5375V41.5344V41.5312V41.528V41.5249V41.5217V41.5185V41.5153V41.5122V41.509V41.5058V41.5027V41.4995V41.4963V41.4932V41.49V41.4868V41.4836V41.4805V41.4773V41.4741V41.471V41.4678V41.4646V41.4615V41.4583V41.4551V41.4519V41.4488V41.4456V41.4424V41.4393V41.4361V41.4329V41.4298V41.4266V41.4234V41.4203V41.4171V41.4139V41.4108V41.4076V41.4044V41.4012V41.3981V41.3949V41.3917V41.3886V41.3854V41.3822V41.3791V41.3759V41.3727V41.3696V41.3664V41.3632V41.3601V41.3569V41.3537V41.3506V41.3474V41.3442V41.341V41.3379V41.3347V41.3315V41.3284V41.3252V41.322V41.3189V41.3157V41.3125V41.3094V41.3062V41.303V41.2999V41.2967V41.2935V41.2904V41.2872V41.284V41.2809V41.2777V41.2745V41.2714V41.2682V41.265V41.2619V41.2587V41.2555V41.2524V41.2492V41.246V41.2429V41.2397V41.2365V41.2334V41.2302V41.227V41.2239V41.2207V41.2175V41.2144V41.2112V41.208V41.2049V41.2017V41.1985V41.1954V41.1922V41.1891V41.1859V41.1827V41.1796V41.1764V41.1732V41.1701V41.1669V41.1637V41.1606V41.1574V41.1542V41.1511V41.1479V41.1447V41.1416V41.1384V41.1353V41.1321V41.1289V41.1258V41.1226V41.1194V41.1163V41.1131V41.1099V41.1068V41.1036V41.1005V41.0973V41.0941V41.091V41.0878V41.0846V41.0815V41.0783V41.0751V41.072V41.0688V41.0657V41.0625V41.0593V41.0562V41.053V41.0498V41.0467C44.497 40.7358 44.4016 40.4437 44.2361 40.2013C44.2082 39.8451 44.1615 39.3708 44.0597 38.9788L44.0594 38.9776C43.5316 36.9511 42.7365 35.0067 41.5134 33.2575C41.8518 32.0002 42.0108 30.7254 42.0477 29.4562C42.1321 26.5839 41.5715 23.8634 40.6678 21.283L40.6675 21.2822C39.3036 17.3951 37.1396 14.111 34.3963 11.296C33.0702 9.93504 31.6085 8.80787 30.1526 7.7786C29.6019 7.38921 28.8589 7.41535 28.3369 7.84248C27.8148 8.26961 27.6421 8.99267 27.9147 9.60964C28.0413 9.89621 28.2259 10.1711 28.3057 10.2899C28.318 10.3082 28.3278 10.3228 28.3345 10.3332L44.497 42.5687ZM31.4972 25.3081C31.6123 24.7179 31.7107 24.1532 31.7693 23.5618L31.4972 25.3081ZM31.4972 25.3081C27.6485 22.4706 24.0004 19.3693 20.5923 15.9369L20.5918 15.9364C19.4181 14.7555 18.2477 13.5778 17.0837 12.3941L31.4972 25.3081ZM30.5087 14.7291C31.5756 17.613 32.0664 20.5392 31.7694 23.5608L30.5087 14.7291ZM30.5087 14.7291C29.9256 13.1579 29.2122 11.6942 28.3351 10.3342L30.5087 14.7291Z" stroke="black" stroke-width="3" stroke-linejoin="round"/>
</svg>
