<svg width="84" height="148" viewBox="0 0 84 148" fill="none" xmlns="http://www.w3.org/2000/svg">
<path d="M63.9048 117.071H15.2415C8.18905 117.071 2.4707 111.362 2.4707 104.32V43.6777C2.4707 36.6366 8.18905 30.9272 15.2415 30.9272H63.9048C70.9571 30.9272 76.6756 36.6366 76.6756 43.6777V104.323C76.6756 111.362 70.9574 117.071 63.9048 117.071Z" fill="white" stroke="black" stroke-width="2"/>
<path d="M80.2663 62.9265V62.9299C80.2665 63.124 80.1081 63.2846 79.9095 63.2846C79.7119 63.2846 79.5508 63.124 79.5508 62.9265V50.915C79.5508 50.7199 79.7094 50.5588 79.9095 50.5588C80.1062 50.5588 80.2663 50.7184 80.2663 50.915V62.9265Z" stroke="#FFB800" stroke-width="2"/>
<path d="M80.2663 95.1982V95.2016C80.2665 95.3958 80.1081 95.5566 79.9095 95.5566C79.7119 95.5566 79.5508 95.3958 79.5508 95.1982V83.1867C79.5508 82.9916 79.7094 82.8308 79.9095 82.8308C80.1062 82.8308 80.2663 82.9902 80.2663 83.1867V95.1982Z" stroke="#FFB800" stroke-width="2"/>
<path d="M64.6668 23.215H14.4785L16.9053 8.7529C17.514 5.12456 20.6596 2.46655 24.3444 2.46655H54.8013C58.4857 2.46655 61.6295 5.12414 62.2382 8.75083L64.6668 23.215Z" fill="#0075FF" stroke="black" stroke-width="2"/>
<path d="M14.4785 124.784H64.6668L62.2382 139.248C61.6295 142.875 58.4857 145.533 54.8013 145.533H24.3444C20.6596 145.533 17.514 142.874 16.9053 139.246L14.4785 124.784Z" fill="#0075FF" stroke="black" stroke-width="2"/>
</svg>
