<svg width="1395" height="756" viewBox="0 0 1395 756" fill="none" xmlns="http://www.w3.org/2000/svg">
<path d="M965.419 190.779C940.274 209.126 923.483 249.483 927.909 280.913C930.139 296.731 937.32 307.276 947.105 311.509L936.904 307.097C927.119 302.863 919.938 292.319 917.708 276.501C913.281 245.062 930.073 204.714 955.218 186.367C967.708 177.253 979.914 175.285 989.575 179.468L999.776 183.88C990.115 179.697 977.909 181.665 965.419 190.779Z" fill="url(#paint0_linear_185_445)"/>
<path d="M1018.97 214.484C1014.55 183.045 990.565 172.44 965.419 190.779C940.274 209.126 923.483 249.483 927.909 280.913C932.336 312.352 956.316 322.957 981.462 304.609C1006.61 286.262 1023.4 245.914 1018.97 214.475V214.484Z" fill="url(#paint1_linear_185_445)"/>
<path d="M992.304 194.603C985.156 193.13 976.935 195.608 968.731 201.826C958.979 209.211 950.409 220.966 944.601 234.935C938.785 248.904 936.422 263.418 937.953 275.786C939.259 286.373 943.278 294.303 949.394 298.587C949.477 298.604 949.56 298.622 949.643 298.639C949.66 298.639 949.676 298.639 949.685 298.639C949.693 298.639 949.71 298.639 949.726 298.639C950.392 298.766 951.058 298.852 951.723 298.911C958.962 299.507 965.994 296.058 971.81 291.969C977.476 287.983 982.402 282.932 986.513 277.293C986.513 277.285 986.529 277.268 986.537 277.259C996.14 264.057 1002.5 247.66 1003.93 231.229C1004.33 226.638 1004.28 221.979 1003.68 217.405C1003.4 215.242 1002.99 213.104 1002.46 210.991C1001.62 207.738 1000.52 204.62 998.802 201.741C997.929 200.276 996.922 198.896 995.774 197.644C995.407 197.252 994.867 196.588 994.267 195.983C993.618 195.319 992.903 194.714 992.312 194.586L992.304 194.603Z" fill="url(#paint2_linear_185_445)"/>
<path d="M993.019 194.901C993.444 195.165 993.86 195.557 994.267 195.992C994.867 196.596 995.407 197.252 995.774 197.653C996.922 198.905 997.929 200.293 998.802 201.75C1000.52 204.629 1001.62 207.746 1002.46 211C1003 213.112 1003.4 215.25 1003.68 217.414C1004.28 221.988 1004.33 226.647 1003.93 231.238C1002.5 247.669 996.148 264.065 986.537 277.268C986.529 277.276 986.521 277.293 986.512 277.302C982.41 282.94 977.484 287.991 971.81 291.978C965.993 296.066 958.962 299.516 951.723 298.92C951.183 298.885 950.642 298.817 950.084 298.715C949.959 298.698 949.843 298.673 949.726 298.647C949.718 298.647 949.701 298.647 949.685 298.647C949.668 298.647 949.651 298.647 949.643 298.647C949.585 298.638 949.527 298.621 949.468 298.613C949.443 298.613 949.419 298.604 949.394 298.596C949.443 298.63 949.485 298.655 949.535 298.69C950.384 299.269 951.274 299.78 952.206 300.214C952.339 300.274 952.472 300.333 952.605 300.393C953.587 300.827 954.611 301.185 955.651 301.458C955.792 301.492 955.925 301.526 956.067 301.56C956.375 301.637 956.691 301.705 957.007 301.764C961.084 302.522 965.328 301.969 969.239 300.58C973.149 299.192 976.761 296.995 980.089 294.473C992.47 285.112 1001.26 270.871 1006.41 256.169C1008.66 249.713 1010.22 242.992 1010.91 236.17C1012.07 224.645 1011.61 210.804 1003.79 201.605C1000.63 197.9 996.938 195.796 993.028 194.901H993.019Z" fill="url(#paint3_linear_185_445)"/>
<path d="M962.765 205.174C957.273 210.549 952.672 216.843 948.869 223.564C941.314 236.92 936.696 251.894 936.372 267.396C936.313 270.386 936.421 273.563 936.779 276.74C937.977 287.259 941.971 297.881 951.915 302.284C960.169 305.938 970.27 303.741 980.363 296.101C990.457 288.46 999.326 276.288 1005.34 261.834C1011.36 247.371 1013.8 232.363 1012.22 219.552C1011.77 215.864 1010.97 212.21 1009.67 208.743C1007.57 203.155 1004.06 197.985 998.894 195.004C986.537 187.866 971.835 196.299 962.773 205.183L962.765 205.174ZM993.019 194.902C996.93 195.796 1000.63 197.908 1003.78 201.605C1011.61 210.804 1012.07 224.646 1010.9 236.17C1010.21 242.993 1008.65 249.713 1006.4 256.17C1001.26 270.871 992.462 285.113 980.081 294.474C976.752 296.995 973.141 299.192 969.23 300.581C965.32 301.969 961.068 302.523 956.999 301.765C956.849 301.739 956.699 301.705 956.549 301.671C956.383 301.637 956.225 301.603 956.058 301.56C955.917 301.526 955.776 301.492 955.642 301.458C954.769 301.237 953.928 300.956 953.13 300.623C952.947 300.547 952.772 300.47 952.597 300.393C952.464 300.334 952.331 300.274 952.198 300.215C951.274 299.78 950.375 299.269 949.527 298.69C949.477 298.656 949.435 298.63 949.385 298.596C949.41 298.596 949.435 298.605 949.46 298.613C942.487 293.707 939.009 284.44 937.936 275.794C936.405 263.418 938.768 248.912 944.584 234.943C950.4 220.974 958.971 209.211 968.714 201.835C975.795 196.478 984.873 193.062 993.003 194.919L993.019 194.902Z" fill="url(#paint4_linear_185_445)"/>
<path d="M1007.59 228.325L1007.55 228.308C1007.34 228.223 1007.13 228.129 1006.92 228.035C1006.02 227.644 997.288 223.811 997.022 223.7C996.431 223.436 995.807 223.589 995.191 223.632C994.209 223.7 993.219 223.768 992.229 223.845C991.779 223.879 991.339 223.913 990.881 223.938L992.404 230.037L1007.04 228.265C1007.24 228.24 1007.41 228.265 1007.58 228.334L1007.59 228.325Z" fill="url(#paint5_linear_185_445)"/>
<path d="M967.674 260.42C965.852 259.619 956.94 255.718 956.932 255.718C956.949 255.718 952.023 277.149 951.848 277.873C951.64 278.759 951.432 279.994 952.223 280.65C952.297 280.709 952.381 280.76 952.464 280.794L963.198 285.496C963.114 285.462 963.04 285.411 962.965 285.351C962.89 285.292 962.823 285.224 962.773 285.138C962.599 284.9 962.49 284.585 962.449 284.218C962.407 283.844 962.432 283.401 962.54 282.941L967.674 260.429V260.42Z" fill="url(#paint6_linear_185_445)"/>
<path d="M987.345 211.58L976.603 206.878H976.578C975.854 206.571 975.038 207.219 974.606 207.772C974.015 208.53 965.095 230.301 964.87 230.864L975.604 235.565L984.665 213.641C985.09 212.602 985.805 211.81 986.529 211.571C986.829 211.469 987.103 211.477 987.345 211.58Z" fill="url(#paint7_linear_185_445)"/>
<path d="M960.244 243.7C959.586 244.143 959.029 244.679 958.663 245.48C958.263 246.357 957.989 247.814 958.621 248.649L967.666 260.42L956.924 255.718C956.924 255.718 947.887 243.955 947.879 243.947C947.189 243.044 947.546 241.477 948.029 240.565C948.828 239.041 950.475 238.436 951.898 237.686C953.412 236.894 954.927 236.093 956.433 235.301C958.039 234.458 959.645 233.615 961.251 232.772C962.316 232.209 963.389 231.647 964.454 231.085L964.862 230.872L975.604 235.574C975.005 235.889 974.406 236.204 973.798 236.519C972.392 237.26 970.994 237.993 969.588 238.734C967.982 239.577 966.368 240.429 964.762 241.272C963.547 241.911 962.324 242.55 961.109 243.197C960.801 243.359 960.51 243.521 960.235 243.708L960.244 243.7Z" fill="url(#paint8_linear_185_445)"/>
<path d="M987.345 211.58C987.112 211.477 986.837 211.469 986.529 211.571C985.805 211.81 985.09 212.602 984.665 213.641L975.604 235.565L960.219 243.666C959.487 244.049 958.821 244.952 958.48 246.017C958.288 246.621 958.222 247.201 958.28 247.703C958.322 248.086 958.438 248.41 958.63 248.657L967.674 260.429L962.54 282.941C962.432 283.401 962.407 283.844 962.449 284.219C962.49 284.585 962.599 284.908 962.773 285.138C962.832 285.215 962.898 285.292 962.965 285.351C963.04 285.411 963.115 285.462 963.198 285.496C963.689 285.709 964.321 285.496 964.92 284.908L979.565 270.258L991.78 276.076C992.354 276.357 993.128 276.025 993.785 275.215C994.442 274.415 994.85 273.299 994.85 272.311V251.494L1007.54 232.576C1008.15 231.681 1008.45 230.549 1008.35 229.629C1008.27 228.973 1007.99 228.513 1007.58 228.342C1007.42 228.274 1007.24 228.249 1007.04 228.274L992.404 230.046L990.881 223.947L988.027 212.542C987.902 212.057 987.661 211.733 987.336 211.588L987.345 211.58Z" fill="url(#paint9_linear_185_445)"/>
<g opacity="0.5" filter="url(#filter0_f_185_445)">
<path d="M605.123 294.568C588.96 306.361 578.167 332.301 581.012 352.504C582.446 362.671 587.061 369.449 593.351 372.17L586.794 369.334C580.504 366.613 575.889 359.835 574.455 349.668C571.61 329.46 582.403 303.525 598.566 291.732C606.594 285.874 614.44 284.609 620.649 287.297L627.206 290.133C620.997 287.445 613.151 288.71 605.123 294.568Z" fill="url(#paint10_linear_185_445)"/>
<path d="M639.545 309.805C636.7 289.597 621.286 282.78 605.123 294.568C588.96 306.361 578.167 332.301 581.012 352.504C583.858 372.712 599.272 379.529 615.435 367.735C631.597 355.942 642.39 330.007 639.545 309.799V309.805Z" fill="url(#paint11_linear_185_445)"/>
<path d="M622.403 297.026C617.809 296.079 612.525 297.673 607.251 301.669C600.983 306.416 595.474 313.972 591.741 322.95C588.003 331.929 586.484 341.259 587.468 349.208C588.307 356.014 590.891 361.111 594.822 363.865C594.875 363.876 594.929 363.887 594.982 363.898C594.993 363.898 595.004 363.898 595.009 363.898C595.014 363.898 595.025 363.898 595.036 363.898C595.464 363.98 595.891 364.035 596.319 364.073C600.972 364.456 605.492 362.239 609.23 359.611C612.873 357.049 616.039 353.802 618.681 350.177C618.681 350.172 618.692 350.161 618.697 350.156C624.869 341.669 628.955 331.13 629.875 320.569C630.132 317.618 630.1 314.623 629.715 311.683C629.533 310.292 629.271 308.918 628.928 307.56C628.394 305.469 627.688 303.465 626.581 301.615C626.019 300.673 625.372 299.786 624.634 298.981C624.398 298.729 624.051 298.302 623.666 297.913C623.248 297.486 622.789 297.098 622.409 297.016L622.403 297.026Z" fill="url(#paint12_linear_185_445)"/>
<path d="M622.863 297.218C623.136 297.387 623.404 297.639 623.666 297.919C624.051 298.307 624.398 298.729 624.634 298.986C625.372 299.791 626.019 300.683 626.58 301.62C627.688 303.47 628.394 305.474 628.928 307.565C629.276 308.923 629.533 310.297 629.715 311.688C630.1 314.628 630.132 317.623 629.875 320.574C628.955 331.135 624.874 341.675 618.697 350.161C618.692 350.166 618.686 350.177 618.681 350.183C616.044 353.807 612.878 357.054 609.23 359.616C605.492 362.244 600.972 364.461 596.319 364.078C595.972 364.056 595.624 364.012 595.266 363.947C595.185 363.936 595.111 363.919 595.036 363.903C595.03 363.903 595.02 363.903 595.009 363.903C594.998 363.903 594.988 363.903 594.982 363.903C594.945 363.897 594.907 363.886 594.87 363.881C594.854 363.881 594.838 363.876 594.822 363.87C594.854 363.892 594.881 363.908 594.913 363.93C595.458 364.303 596.031 364.631 596.63 364.91C596.715 364.949 596.801 364.987 596.886 365.025C597.517 365.304 598.175 365.534 598.844 365.71C598.935 365.732 599.02 365.753 599.111 365.775C599.309 365.825 599.512 365.868 599.716 365.907C602.336 366.394 605.064 366.038 607.578 365.146C610.091 364.253 612.413 362.841 614.552 361.22C622.51 355.203 628.158 346.049 631.469 336.599C632.918 332.449 633.918 328.129 634.362 323.744C635.111 316.336 634.812 307.44 629.784 301.527C627.757 299.145 625.382 297.793 622.869 297.218H622.863Z" fill="url(#paint13_linear_185_445)"/>
<path d="M603.417 303.821C599.887 307.275 596.929 311.321 594.485 315.641C589.629 324.226 586.66 333.851 586.452 343.815C586.414 345.737 586.484 347.779 586.714 349.821C587.484 356.583 590.051 363.41 596.442 366.241C601.748 368.589 608.241 367.177 614.728 362.266C621.216 357.355 626.917 349.531 630.784 340.24C634.651 330.944 636.224 321.297 635.207 313.062C634.913 310.692 634.4 308.343 633.566 306.115C632.218 302.523 629.961 299.2 626.639 297.283C618.697 292.695 609.246 298.116 603.422 303.826L603.417 303.821ZM622.863 297.218C625.377 297.793 627.757 299.15 629.779 301.527C634.812 307.439 635.106 316.336 634.357 323.744C633.913 328.129 632.913 332.449 631.464 336.599C628.158 346.049 622.505 355.203 614.547 361.22C612.407 362.841 610.086 364.253 607.572 365.146C605.059 366.038 602.326 366.394 599.71 365.907C599.614 365.89 599.518 365.868 599.421 365.846C599.314 365.825 599.213 365.803 599.106 365.775C599.015 365.753 598.924 365.731 598.838 365.71C598.277 365.567 597.737 365.387 597.223 365.173C597.106 365.124 596.993 365.074 596.881 365.025C596.795 364.987 596.71 364.949 596.624 364.91C596.031 364.631 595.453 364.303 594.907 363.93C594.875 363.908 594.849 363.892 594.816 363.87C594.832 363.87 594.849 363.875 594.865 363.881C590.383 360.727 588.147 354.771 587.457 349.214C586.473 341.258 587.992 331.935 591.73 322.956C595.469 313.977 600.978 306.416 607.241 301.674C611.792 298.231 617.627 296.035 622.853 297.229L622.863 297.218Z" fill="url(#paint14_linear_185_445)"/>
<path d="M632.228 318.701L632.202 318.69C632.068 318.636 631.934 318.575 631.801 318.515C631.223 318.263 625.607 315.8 625.436 315.728C625.056 315.559 624.655 315.657 624.259 315.685C623.628 315.728 622.992 315.772 622.355 315.822C622.067 315.843 621.783 315.865 621.489 315.882L622.468 319.802L631.875 318.663C632.004 318.647 632.116 318.663 632.223 318.707L632.228 318.701Z" fill="url(#paint15_linear_185_445)"/>
<path d="M606.572 339.331C605.401 338.817 599.673 336.309 599.668 336.309C599.678 336.309 596.512 350.084 596.4 350.549C596.266 351.119 596.132 351.913 596.64 352.334C596.688 352.373 596.742 352.405 596.795 352.427L603.695 355.45C603.641 355.428 603.593 355.395 603.545 355.356C603.497 355.318 603.454 355.274 603.422 355.22C603.31 355.066 603.24 354.864 603.213 354.628C603.187 354.387 603.203 354.103 603.272 353.807L606.572 339.337V339.331Z" fill="url(#paint16_linear_185_445)"/>
<path d="M619.216 307.938L612.311 304.916H612.295C611.83 304.718 611.306 305.135 611.027 305.49C610.648 305.978 604.914 319.972 604.77 320.333L611.669 323.355L617.494 309.263C617.766 308.595 618.226 308.086 618.692 307.932C618.884 307.867 619.061 307.872 619.216 307.938Z" fill="url(#paint17_linear_185_445)"/>
<path d="M601.796 328.584C601.374 328.868 601.015 329.213 600.78 329.728C600.523 330.292 600.347 331.228 600.753 331.765L606.567 339.331L599.662 336.309C599.662 336.309 593.854 328.748 593.849 328.742C593.405 328.162 593.635 327.155 593.945 326.569C594.458 325.589 595.517 325.2 596.432 324.718C597.405 324.209 598.379 323.695 599.347 323.185C600.379 322.643 601.411 322.101 602.443 321.559C603.128 321.198 603.818 320.837 604.503 320.475L604.765 320.338L611.669 323.361C611.284 323.563 610.899 323.766 610.509 323.968C609.605 324.445 608.706 324.915 607.802 325.392C606.77 325.934 605.733 326.481 604.7 327.023C603.92 327.434 603.133 327.845 602.352 328.261C602.155 328.365 601.967 328.469 601.791 328.589L601.796 328.584Z" fill="url(#paint18_linear_185_445)"/>
<path d="M619.216 307.938C619.066 307.872 618.89 307.867 618.692 307.932C618.227 308.086 617.767 308.595 617.494 309.263L611.669 323.355L601.78 328.562C601.31 328.808 600.882 329.389 600.662 330.073C600.539 330.462 600.497 330.834 600.534 331.157C600.561 331.404 600.636 331.612 600.759 331.77L606.572 339.337L603.272 353.807C603.203 354.103 603.187 354.387 603.214 354.628C603.24 354.864 603.31 355.072 603.422 355.22C603.46 355.269 603.502 355.318 603.545 355.357C603.593 355.395 603.642 355.428 603.695 355.45C604.011 355.586 604.417 355.45 604.802 355.072L614.215 345.655L622.067 349.394C622.436 349.575 622.933 349.361 623.356 348.841C623.778 348.327 624.04 347.609 624.04 346.974V333.594L632.197 321.434C632.587 320.859 632.78 320.131 632.715 319.539C632.667 319.118 632.485 318.822 632.223 318.713C632.122 318.669 632.004 318.652 631.876 318.669L622.468 319.808L621.489 315.887L619.655 308.557C619.574 308.244 619.419 308.036 619.211 307.943L619.216 307.938Z" fill="url(#paint19_linear_185_445)"/>
</g>
<g opacity="0.5">
<path d="M39.318 532.628C18.8992 547.173 5.26418 579.166 8.85875 604.082C10.6695 616.621 16.5006 624.981 24.4465 628.337L16.1628 624.839C8.21686 621.483 2.38582 613.124 0.575024 600.584C-3.01955 575.661 10.6155 543.675 31.0343 529.131C41.1761 521.906 51.0882 520.346 58.9328 523.661L67.2165 527.159C59.3719 523.843 49.4599 525.403 39.318 532.628Z" fill="url(#paint20_linear_185_445)"/>
<path d="M82.8042 551.42C79.2096 526.497 59.7368 518.09 39.318 532.628C18.8992 547.173 5.26414 579.166 8.85872 604.082C12.4533 629.005 31.9261 637.412 52.3449 622.867C72.7637 608.323 86.3988 576.337 82.8042 551.414V551.42Z" fill="url(#paint21_linear_185_445)"/>
<path d="M61.1489 535.66C55.3449 534.492 48.6693 536.457 42.0072 541.386C34.0883 547.241 27.1289 556.559 22.4127 567.633C17.6897 578.707 15.7708 590.213 17.0141 600.017C18.0749 608.411 21.3384 614.697 26.3046 618.094C26.3721 618.107 26.4397 618.121 26.5073 618.134C26.5208 618.134 26.5343 618.134 26.541 618.134C26.5478 618.134 26.5613 618.134 26.5748 618.134C27.1154 618.235 27.6559 618.303 28.1964 618.35C34.0748 618.823 39.7842 616.088 44.5071 612.847C49.1085 609.687 53.1084 605.683 56.4463 601.213C56.4463 601.206 56.4598 601.192 56.4665 601.186C64.2638 590.719 69.4259 577.721 70.5881 564.696C70.9124 561.056 70.8718 557.362 70.3854 553.736C70.1556 552.021 69.8245 550.326 69.3921 548.652C68.7164 546.072 67.8246 543.601 66.4259 541.319C65.7165 540.157 64.8989 539.063 63.9665 538.071C63.6692 537.76 63.23 537.234 62.7435 536.754C62.2165 536.227 61.6354 535.748 61.1557 535.647L61.1489 535.66Z" fill="url(#paint22_linear_185_445)"/>
<path d="M61.7301 535.896C62.0747 536.106 62.4125 536.416 62.7436 536.761C63.2301 537.24 63.6692 537.76 63.9665 538.078C64.899 539.07 65.7165 540.171 66.426 541.325C67.8246 543.608 68.7165 546.079 69.3922 548.659C69.8314 550.333 70.1557 552.028 70.3854 553.743C70.8719 557.369 70.9125 561.063 70.5881 564.702C69.426 577.728 64.2706 590.726 56.4666 601.192C56.4598 601.199 56.4531 601.212 56.4463 601.219C53.1153 605.689 49.1153 609.693 44.5072 612.854C39.7843 616.095 34.0748 618.829 28.1965 618.357C27.7573 618.33 27.3181 618.276 26.8654 618.195C26.7641 618.181 26.6695 618.161 26.5749 618.141C26.5681 618.141 26.5546 618.141 26.5411 618.141C26.5276 618.141 26.5141 618.141 26.5073 618.141C26.46 618.134 26.4127 618.12 26.3654 618.114C26.3452 618.114 26.3249 618.107 26.3046 618.1C26.3452 618.127 26.3789 618.147 26.4195 618.174C27.1087 618.634 27.8316 619.039 28.5884 619.383C28.6965 619.43 28.8046 619.478 28.9127 619.525C29.71 619.869 30.5411 620.153 31.3857 620.369C31.5005 620.396 31.6086 620.423 31.7235 620.45C31.9735 620.511 32.2303 620.565 32.487 620.612C35.7978 621.213 39.2437 620.774 42.4194 619.673C45.595 618.573 48.5274 616.831 51.2301 614.832C61.2841 607.411 68.4192 596.121 72.6016 584.466C74.4327 579.348 75.6962 574.021 76.257 568.612C77.2029 559.476 76.8246 548.503 70.4733 541.211C67.9125 538.273 64.9125 536.605 61.7368 535.896H61.7301Z" fill="url(#paint23_linear_185_445)"/>
<path d="M37.1626 544.04C32.7032 548.301 28.9667 553.291 25.8789 558.618C19.7438 569.206 15.9938 581.077 15.7303 593.366C15.683 595.736 15.7709 598.255 16.0614 600.774C17.0344 609.113 20.2776 617.533 28.3519 621.024C35.0545 623.921 43.2572 622.179 51.4531 616.122C59.649 610.065 66.8516 600.416 71.7367 588.957C76.6218 577.491 78.6083 565.594 77.3246 555.438C76.9529 552.514 76.3043 549.618 75.2502 546.869C73.5475 542.44 70.6962 538.341 66.5003 535.978C56.4666 530.319 44.5274 537.004 37.1694 544.047L37.1626 544.04ZM61.73 535.897C64.9057 536.606 67.9124 538.28 70.4665 541.211C76.8245 548.503 77.1962 559.476 76.2502 568.612C75.6894 574.021 74.4259 579.348 72.5949 584.467C68.4192 596.121 61.2774 607.411 51.2234 614.832C48.5207 616.831 45.5883 618.573 42.4126 619.674C39.2369 620.774 35.7843 621.213 32.4802 620.612C32.3586 620.592 32.237 620.565 32.1154 620.538C31.9802 620.511 31.8519 620.484 31.7167 620.45C31.6019 620.423 31.487 620.396 31.3789 620.369C30.6694 620.194 29.987 619.971 29.3384 619.707C29.1897 619.647 29.0478 619.586 28.9059 619.525C28.7978 619.478 28.6897 619.431 28.5816 619.383C27.8316 619.039 27.1019 618.634 26.4127 618.175C26.3722 618.148 26.3384 618.127 26.2978 618.1C26.3181 618.1 26.3384 618.107 26.3587 618.114C20.6965 614.224 17.8722 606.878 17.0006 600.024C15.7574 590.213 17.6763 578.714 22.3992 567.64C27.1222 556.566 34.0816 547.241 41.9937 541.393C47.7437 537.146 55.1152 534.438 61.7165 535.91L61.73 535.897Z" fill="url(#paint24_linear_185_445)"/>
<path d="M73.561 562.393L73.5272 562.379C73.3583 562.312 73.1894 562.237 73.0205 562.163C72.2907 561.853 65.1962 558.814 64.98 558.726C64.5003 558.517 63.9935 558.638 63.4935 558.672C62.6962 558.726 61.8922 558.78 61.0881 558.841C60.7233 558.868 60.3651 558.895 59.9935 558.915L61.23 563.75L73.1151 562.346C73.2772 562.325 73.4191 562.346 73.5543 562.4L73.561 562.393Z" fill="url(#paint25_linear_185_445)"/>
<path d="M41.149 587.836C39.6693 587.201 32.4329 584.108 32.4261 584.108C32.4396 584.108 28.4396 601.097 28.2978 601.671C28.1288 602.374 27.9599 603.353 28.6018 603.873C28.6626 603.92 28.7302 603.96 28.7978 603.987L37.5139 607.715C37.4463 607.688 37.3855 607.647 37.3247 607.6C37.2639 607.553 37.2099 607.499 37.1693 607.431C37.0274 607.242 36.9396 606.992 36.9058 606.702C36.872 606.405 36.8923 606.054 36.9801 605.689L41.149 587.842V587.836Z" fill="url(#paint26_linear_185_445)"/>
<path d="M57.1219 549.118L48.399 545.39H48.3788C47.7909 545.147 47.1288 545.66 46.7774 546.099C46.2977 546.7 39.0545 563.959 38.8721 564.405L47.5882 568.132L54.9463 550.752C55.2909 549.928 55.872 549.3 56.4598 549.111C56.703 549.03 56.926 549.037 57.1219 549.118Z" fill="url(#paint27_linear_185_445)"/>
<path d="M35.1153 574.581C34.5815 574.932 34.1288 575.358 33.8315 575.992C33.5072 576.688 33.2842 577.843 33.7978 578.504L41.1423 587.836L32.4194 584.109C32.4194 584.109 25.0816 574.784 25.0748 574.777C24.514 574.061 24.8046 572.819 25.1965 572.096C25.8451 570.888 27.1829 570.408 28.3383 569.814C29.568 569.186 30.7978 568.551 32.0207 567.923C33.3248 567.255 34.6288 566.586 35.9329 565.918C36.7977 565.472 37.6694 565.027 38.5342 564.581L38.8653 564.412L47.5882 568.139C47.1017 568.389 46.6152 568.639 46.122 568.889C44.9801 569.476 43.845 570.057 42.7031 570.645C41.399 571.313 40.0883 571.988 38.7842 572.657C37.7977 573.163 36.8045 573.67 35.818 574.183C35.568 574.311 35.3315 574.439 35.1086 574.588L35.1153 574.581Z" fill="url(#paint28_linear_185_445)"/>
<path d="M57.122 549.118C56.9328 549.037 56.7098 549.03 56.4598 549.111C55.872 549.3 55.2909 549.928 54.9463 550.752L47.5883 568.133L35.0951 574.554C34.5005 574.858 33.9599 575.574 33.6829 576.418C33.5275 576.897 33.4735 577.356 33.5208 577.755C33.5545 578.059 33.6492 578.315 33.8046 578.511L41.1491 587.843L36.9802 605.69C36.8924 606.054 36.8721 606.405 36.9059 606.702C36.9397 606.993 37.0275 607.249 37.1694 607.432C37.2167 607.492 37.2707 607.553 37.3248 607.6C37.3856 607.648 37.4464 607.688 37.514 607.715C37.9126 607.884 38.4261 607.715 38.9126 607.249L50.8045 595.635L60.7233 600.247C61.1895 600.47 61.8179 600.207 62.3517 599.565C62.8855 598.93 63.2165 598.046 63.2165 597.263V580.76L73.5205 565.763C74.0138 565.054 74.257 564.156 74.1759 563.426C74.1151 562.906 73.8854 562.542 73.5543 562.407C73.4259 562.353 73.2773 562.332 73.1151 562.353L61.2301 563.757L59.9936 558.922L57.676 549.881C57.5747 549.496 57.3787 549.24 57.1152 549.125L57.122 549.118Z" fill="url(#paint29_linear_185_445)"/>
</g>
<g opacity="0.5" filter="url(#filter1_f_185_445)">
<path d="M1195.97 679.377C1181.44 689.309 1171.74 711.157 1174.3 728.172C1175.59 736.734 1179.74 742.443 1185.39 744.735L1179.5 742.346C1173.85 740.054 1169.7 734.346 1168.41 725.783C1165.85 708.763 1175.55 686.921 1190.08 676.988C1197.29 672.055 1204.34 670.989 1209.92 673.254L1215.82 675.642C1210.24 673.378 1203.18 674.443 1195.97 679.377Z" fill="url(#paint30_linear_185_445)"/>
<path d="M1226.9 692.21C1224.35 675.19 1210.49 669.45 1195.97 679.377C1181.44 689.31 1171.74 711.157 1174.3 728.172C1176.86 745.191 1190.71 750.932 1205.24 741C1219.76 731.068 1229.46 709.225 1226.9 692.205V692.21Z" fill="url(#paint31_linear_185_445)"/>
<path d="M1211.5 681.447C1207.37 680.65 1202.62 681.992 1197.88 685.358C1192.25 689.355 1187.3 695.719 1183.94 703.281C1180.58 710.843 1179.22 718.7 1180.1 725.396C1180.86 731.127 1183.18 735.42 1186.71 737.74C1186.76 737.749 1186.81 737.758 1186.86 737.767C1186.87 737.767 1186.88 737.767 1186.88 737.767C1186.89 737.767 1186.89 737.767 1186.9 737.767C1187.29 737.836 1187.67 737.883 1188.06 737.915C1192.24 738.238 1196.3 736.37 1199.66 734.157C1202.93 731.999 1205.78 729.264 1208.15 726.212C1208.15 726.207 1208.16 726.198 1208.17 726.193C1213.71 719.046 1217.39 710.17 1218.21 701.275C1218.44 698.79 1218.42 696.267 1218.07 693.791C1217.91 692.62 1217.67 691.463 1217.36 690.319C1216.88 688.558 1216.25 686.87 1215.25 685.312C1214.75 684.518 1214.17 683.771 1213.5 683.094C1213.29 682.882 1212.98 682.522 1212.63 682.194C1212.26 681.835 1211.85 681.507 1211.5 681.438L1211.5 681.447Z" fill="url(#paint32_linear_185_445)"/>
<path d="M1211.91 681.609C1212.16 681.752 1212.4 681.964 1212.63 682.199C1212.98 682.526 1213.29 682.882 1213.5 683.098C1214.17 683.776 1214.75 684.528 1215.25 685.316C1216.25 686.875 1216.88 688.562 1217.36 690.324C1217.68 691.467 1217.91 692.625 1218.07 693.796C1218.42 696.272 1218.44 698.794 1218.21 701.28C1217.39 710.175 1213.72 719.051 1208.17 726.198C1208.16 726.203 1208.16 726.212 1208.15 726.217C1205.78 729.269 1202.94 732.003 1199.66 734.161C1196.3 736.375 1192.24 738.242 1188.06 737.919C1187.75 737.901 1187.43 737.864 1187.11 737.809C1187.04 737.8 1186.97 737.786 1186.9 737.772C1186.9 737.772 1186.89 737.772 1186.88 737.772C1186.87 737.772 1186.86 737.772 1186.86 737.772C1186.82 737.767 1186.79 737.758 1186.76 737.753C1186.74 737.753 1186.73 737.749 1186.71 737.744C1186.74 737.763 1186.77 737.777 1186.79 737.795C1187.28 738.109 1187.8 738.385 1188.34 738.62C1188.41 738.653 1188.49 738.685 1188.57 738.717C1189.13 738.952 1189.73 739.146 1190.33 739.294C1190.41 739.312 1190.49 739.33 1190.57 739.349C1190.74 739.39 1190.93 739.427 1191.11 739.46C1193.47 739.87 1195.92 739.57 1198.18 738.819C1200.43 738.067 1202.52 736.877 1204.44 735.512C1211.6 730.445 1216.67 722.735 1219.65 714.776C1220.95 711.281 1221.85 707.643 1222.25 703.95C1222.92 697.711 1222.65 690.218 1218.13 685.238C1216.31 683.232 1214.18 682.093 1211.92 681.609H1211.91Z" fill="url(#paint33_linear_185_445)"/>
<path d="M1194.44 687.17C1191.26 690.08 1188.61 693.487 1186.41 697.125C1182.05 704.356 1179.38 712.462 1179.19 720.854C1179.16 722.473 1179.22 724.192 1179.43 725.912C1180.12 731.607 1182.42 737.357 1188.17 739.741C1192.94 741.719 1198.77 740.53 1204.6 736.393C1210.43 732.257 1215.56 725.668 1219.03 717.843C1222.51 710.013 1223.92 701.889 1223.01 694.954C1222.74 692.957 1222.28 690.979 1221.53 689.102C1220.32 686.077 1218.29 683.278 1215.31 681.664C1208.17 677.8 1199.68 682.365 1194.44 687.175L1194.44 687.17ZM1211.91 681.609C1214.17 682.093 1216.31 683.237 1218.13 685.238C1222.65 690.218 1222.91 697.711 1222.24 703.95C1221.84 707.643 1220.94 711.281 1219.64 714.777C1216.67 722.735 1211.59 730.445 1204.44 735.513C1202.52 736.878 1200.43 738.067 1198.17 738.819C1195.91 739.57 1193.46 739.87 1191.11 739.46C1191.02 739.446 1190.93 739.427 1190.85 739.409C1190.75 739.391 1190.66 739.372 1190.56 739.349C1190.48 739.331 1190.4 739.312 1190.32 739.294C1189.82 739.174 1189.33 739.022 1188.87 738.842C1188.76 738.8 1188.66 738.759 1188.56 738.717C1188.49 738.685 1188.41 738.653 1188.33 738.621C1187.8 738.385 1187.28 738.109 1186.79 737.795C1186.76 737.777 1186.74 737.763 1186.71 737.744C1186.72 737.744 1186.74 737.749 1186.75 737.754C1182.72 735.098 1180.71 730.081 1180.09 725.401C1179.21 718.701 1180.57 710.848 1183.93 703.286C1187.29 695.724 1192.24 689.356 1197.87 685.362C1201.96 682.462 1207.21 680.613 1211.9 681.618L1211.91 681.609Z" fill="url(#paint34_linear_185_445)"/>
<path d="M1220.33 699.703L1220.3 699.694C1220.18 699.647 1220.06 699.597 1219.94 699.546C1219.43 699.334 1214.38 697.259 1214.22 697.199C1213.88 697.056 1213.52 697.139 1213.17 697.162C1212.6 697.199 1212.03 697.236 1211.46 697.277C1211.2 697.296 1210.94 697.314 1210.68 697.328L1211.56 700.63L1220.01 699.671C1220.13 699.657 1220.23 699.671 1220.32 699.707L1220.33 699.703Z" fill="url(#paint35_linear_185_445)"/>
<path d="M1197.27 717.078C1196.22 716.644 1191.07 714.532 1191.07 714.532C1191.08 714.532 1188.23 726.134 1188.13 726.526C1188.01 727.005 1187.89 727.674 1188.35 728.029C1188.39 728.061 1188.44 728.089 1188.49 728.107L1194.69 730.653C1194.64 730.634 1194.59 730.606 1194.55 730.574C1194.51 730.542 1194.47 730.505 1194.44 730.459C1194.34 730.33 1194.28 730.159 1194.25 729.961C1194.23 729.758 1194.24 729.518 1194.31 729.269L1197.27 717.082V717.078Z" fill="url(#paint36_linear_185_445)"/>
<path d="M1208.63 690.637L1202.43 688.092H1202.42C1202 687.926 1201.53 688.277 1201.28 688.576C1200.93 688.987 1195.78 700.773 1195.65 701.077L1201.85 703.622L1207.09 691.753C1207.33 691.191 1207.75 690.762 1208.16 690.633C1208.34 690.577 1208.5 690.582 1208.63 690.637Z" fill="url(#paint37_linear_185_445)"/>
<path d="M1192.98 708.026C1192.6 708.266 1192.28 708.556 1192.07 708.99C1191.84 709.464 1191.68 710.253 1192.04 710.705L1197.27 717.077L1191.06 714.532C1191.06 714.532 1185.84 708.164 1185.84 708.16C1185.44 707.671 1185.65 706.822 1185.92 706.329C1186.39 705.504 1187.34 705.176 1188.16 704.77C1189.03 704.342 1189.91 703.908 1190.78 703.479C1191.71 703.023 1192.63 702.566 1193.56 702.11C1194.18 701.805 1194.8 701.501 1195.41 701.197L1195.65 701.082L1201.85 703.627C1201.51 703.797 1201.16 703.968 1200.81 704.139C1200 704.54 1199.19 704.936 1198.38 705.338C1197.45 705.794 1196.52 706.255 1195.59 706.712C1194.89 707.058 1194.18 707.403 1193.48 707.754C1193.3 707.841 1193.13 707.929 1192.98 708.03L1192.98 708.026Z" fill="url(#paint38_linear_185_445)"/>
<path d="M1208.63 690.637C1208.5 690.582 1208.34 690.577 1208.16 690.633C1207.75 690.762 1207.33 691.19 1207.09 691.753L1201.85 703.622L1192.97 708.007C1192.54 708.215 1192.16 708.703 1191.96 709.28C1191.85 709.607 1191.81 709.921 1191.85 710.193C1191.87 710.4 1191.94 710.575 1192.05 710.709L1197.27 717.082L1194.31 729.269C1194.24 729.518 1194.23 729.758 1194.25 729.96C1194.28 730.159 1194.34 730.334 1194.44 730.458C1194.47 730.5 1194.51 730.541 1194.55 730.574C1194.59 730.606 1194.64 730.634 1194.69 730.652C1194.97 730.767 1195.33 730.652 1195.68 730.334L1204.14 722.403L1211.2 725.552C1211.53 725.704 1211.97 725.525 1212.35 725.087C1212.73 724.653 1212.97 724.049 1212.97 723.514V712.245L1220.3 702.003C1220.65 701.519 1220.82 700.906 1220.77 700.408C1220.72 700.053 1220.56 699.804 1220.32 699.712C1220.23 699.675 1220.13 699.661 1220.01 699.675L1211.56 700.634L1210.68 697.332L1209.03 691.158C1208.96 690.895 1208.82 690.72 1208.63 690.642L1208.63 690.637Z" fill="url(#paint39_linear_185_445)"/>
</g>
<g style="mix-blend-mode:luminosity" opacity="0.5" filter="url(#filter2_f_185_445)">
<path d="M1335.2 22.3997C1312.25 39.3685 1296.92 76.6935 1300.96 105.763C1303 120.392 1309.55 130.144 1318.48 134.06L1309.17 129.979C1300.24 126.064 1293.68 116.311 1291.65 101.682C1287.61 72.605 1302.93 35.2878 1325.89 18.319C1337.29 9.8898 1348.44 8.07003 1357.26 11.938L1366.57 16.0187C1357.75 12.1507 1346.61 13.9705 1335.2 22.3997Z" fill="url(#paint40_linear_185_445)"/>
<path d="M1384.09 44.3237C1380.05 15.2468 1358.16 5.43891 1335.2 22.3998C1312.25 39.3686 1296.92 76.6936 1300.96 105.763C1305 134.84 1326.89 144.648 1349.85 127.679C1372.8 110.71 1388.13 73.3928 1384.09 44.3159V44.3237Z" fill="url(#paint41_linear_185_445)"/>
<path d="M1359.75 25.9371C1353.22 24.5742 1345.72 26.8667 1338.23 32.6174C1329.32 39.4475 1321.5 50.3189 1316.2 63.2385C1310.89 76.158 1308.73 89.5818 1310.13 101.02C1311.32 110.812 1314.99 118.147 1320.57 122.109C1320.65 122.125 1320.72 122.141 1320.8 122.157C1320.82 122.157 1320.83 122.157 1320.84 122.157C1320.85 122.157 1320.86 122.157 1320.88 122.157C1321.48 122.275 1322.09 122.353 1322.7 122.409C1329.31 122.96 1335.73 119.77 1341.04 115.988C1346.21 112.301 1350.71 107.63 1354.46 102.415C1354.46 102.407 1354.47 102.391 1354.48 102.383C1363.25 90.1727 1369.05 75.0079 1370.36 59.8116C1370.72 55.5655 1370.68 51.2563 1370.13 47.0259C1369.87 45.025 1369.5 43.0477 1369.01 41.094C1368.25 38.0846 1367.25 35.2014 1365.68 32.5387C1364.88 31.1837 1363.96 29.9075 1362.91 28.7494C1362.58 28.3871 1362.09 27.7726 1361.54 27.2133C1360.95 26.5988 1360.29 26.0395 1359.75 25.9213L1359.75 25.9371Z" fill="url(#paint42_linear_185_445)"/>
<path d="M1360.4 26.2124C1360.79 26.4566 1361.17 26.819 1361.54 27.2208C1362.09 27.7801 1362.58 28.3867 1362.91 28.7569C1363.96 29.915 1364.88 31.1991 1365.68 32.5462C1367.25 35.2089 1368.25 38.0921 1369.01 41.1014C1369.51 43.0551 1369.87 45.0325 1370.13 47.0334C1370.68 51.2638 1370.72 55.573 1370.36 59.8191C1369.05 75.0154 1363.26 90.1801 1354.48 102.391C1354.48 102.399 1354.47 102.414 1354.46 102.422C1350.71 107.637 1346.22 112.309 1341.04 115.996C1335.73 119.777 1329.31 122.968 1322.7 122.416C1322.21 122.385 1321.71 122.322 1321.2 122.227C1321.09 122.211 1320.98 122.188 1320.88 122.164C1320.87 122.164 1320.85 122.164 1320.84 122.164C1320.82 122.164 1320.81 122.164 1320.8 122.164C1320.75 122.156 1320.69 122.14 1320.64 122.132C1320.62 122.132 1320.6 122.125 1320.57 122.117C1320.62 122.148 1320.66 122.172 1320.7 122.203C1321.48 122.739 1322.29 123.212 1323.14 123.614C1323.26 123.669 1323.38 123.724 1323.51 123.779C1324.4 124.181 1325.34 124.512 1326.29 124.764C1326.41 124.795 1326.54 124.827 1326.67 124.858C1326.95 124.929 1327.23 124.992 1327.52 125.047C1331.25 125.748 1335.12 125.236 1338.69 123.952C1342.26 122.668 1345.56 120.636 1348.6 118.304C1359.9 109.646 1367.92 96.4745 1372.62 82.8774C1374.68 76.906 1376.1 70.6905 1376.73 64.3803C1377.8 53.7217 1377.37 40.9203 1370.23 32.4122C1367.35 28.9854 1363.98 27.0396 1360.41 26.2124H1360.4Z" fill="url(#paint43_linear_185_445)"/>
<path d="M1332.78 35.7134C1327.77 40.6843 1323.57 46.506 1320.09 52.7216C1313.2 65.074 1308.98 78.9231 1308.68 93.2607C1308.63 96.0258 1308.73 98.9643 1309.06 101.903C1310.15 111.632 1313.8 121.455 1322.87 125.528C1330.41 128.908 1339.63 126.875 1348.85 119.809C1358.06 112.743 1366.16 101.485 1371.65 88.1165C1377.14 74.74 1379.38 60.8594 1377.93 49.0111C1377.51 45.6001 1376.79 42.2205 1375.6 39.0142C1373.69 33.8464 1370.48 29.0646 1365.76 26.3073C1354.48 19.7057 1341.06 27.5048 1332.79 35.7213L1332.78 35.7134ZM1360.4 26.2128C1363.97 27.04 1367.35 28.9937 1370.22 32.4126C1377.37 40.9206 1377.79 53.7221 1376.72 64.3807C1376.09 70.6908 1374.67 76.9064 1372.61 82.8778C1367.92 96.4749 1359.89 109.647 1348.59 118.304C1345.55 120.636 1342.25 122.669 1338.68 123.953C1335.11 125.237 1331.23 125.749 1327.52 125.048C1327.38 125.024 1327.24 124.993 1327.11 124.961C1326.95 124.929 1326.81 124.898 1326.66 124.859C1326.53 124.827 1326.4 124.796 1326.28 124.764C1325.48 124.559 1324.71 124.299 1323.98 123.992C1323.82 123.921 1323.66 123.85 1323.5 123.779C1323.38 123.724 1323.25 123.669 1323.13 123.614C1322.29 123.212 1321.47 122.739 1320.69 122.204C1320.65 122.172 1320.61 122.149 1320.57 122.117C1320.59 122.117 1320.61 122.125 1320.63 122.133C1314.27 117.595 1311.09 109.024 1310.11 101.028C1308.72 89.5818 1310.87 76.1659 1316.18 63.2463C1321.49 50.3267 1329.32 39.4475 1338.21 32.6253C1344.68 27.6702 1352.96 24.5112 1360.38 26.2285L1360.4 26.2128Z" fill="url(#paint44_linear_185_445)"/>
<path d="M1373.7 57.1249L1373.66 57.1092C1373.47 57.0304 1373.28 56.9437 1373.09 56.8571C1372.27 56.4947 1364.3 52.9497 1364.05 52.8473C1363.51 52.6031 1362.95 52.7449 1362.38 52.7843C1361.49 52.8473 1360.58 52.9103 1359.68 52.9812C1359.27 53.0127 1358.87 53.0442 1358.45 53.0679L1359.84 58.7084L1373.2 57.0698C1373.38 57.0462 1373.54 57.0698 1373.69 57.1328L1373.7 57.1249Z" fill="url(#paint45_linear_185_445)"/>
<path d="M1337.26 86.8085C1335.6 86.068 1327.46 82.46 1327.46 82.46C1327.47 82.46 1322.97 102.281 1322.81 102.95C1322.62 103.769 1322.43 104.912 1323.16 105.518C1323.22 105.573 1323.3 105.621 1323.38 105.652L1333.18 110.001C1333.1 109.969 1333.03 109.922 1332.96 109.867C1332.89 109.812 1332.83 109.749 1332.79 109.67C1332.63 109.449 1332.53 109.158 1332.49 108.819C1332.45 108.472 1332.48 108.063 1332.58 107.637L1337.26 86.8164V86.8085Z" fill="url(#paint46_linear_185_445)"/>
<path d="M1355.22 41.6369L1345.41 37.2884H1345.39C1344.73 37.0048 1343.98 37.6035 1343.59 38.1155C1343.05 38.8167 1334.91 58.9523 1334.7 59.4723L1344.5 63.8208L1352.77 43.5433C1353.16 42.5823 1353.81 41.8496 1354.48 41.629C1354.75 41.5345 1355 41.5424 1355.22 41.6369Z" fill="url(#paint47_linear_185_445)"/>
<path d="M1330.48 71.3439C1329.88 71.7536 1329.37 72.2499 1329.04 72.9904C1328.67 73.8018 1328.42 75.1489 1329 75.9209L1337.25 86.8081L1327.45 82.4595C1327.45 82.4595 1319.2 71.5803 1319.19 71.5724C1318.56 70.7374 1318.89 69.2878 1319.33 68.4449C1320.06 67.0348 1321.56 66.4755 1322.86 65.7822C1324.24 65.0496 1325.62 64.3091 1327 63.5764C1328.47 62.7965 1329.93 62.0166 1331.4 61.2367C1332.37 60.7168 1333.35 60.1969 1334.32 59.6769L1334.69 59.48L1344.5 63.8285C1343.95 64.12 1343.41 64.4115 1342.85 64.703C1341.57 65.3883 1340.29 66.0658 1339.01 66.7512C1337.54 67.5311 1336.07 68.3189 1334.6 69.0988C1333.49 69.6896 1332.38 70.2804 1331.27 70.8792C1330.99 71.0288 1330.72 71.1785 1330.47 71.3518L1330.48 71.3439Z" fill="url(#paint48_linear_185_445)"/>
<path d="M1355.22 41.6365C1355.01 41.542 1354.76 41.5341 1354.48 41.6286C1353.81 41.8492 1353.16 42.5818 1352.77 43.5429L1344.5 63.8204L1330.46 71.3122C1329.79 71.6667 1329.18 72.5017 1328.87 73.4864C1328.69 74.0457 1328.63 74.5814 1328.69 75.0462C1328.72 75.4007 1328.83 75.7001 1329 75.9285L1337.26 86.8157L1332.58 107.637C1332.48 108.062 1332.45 108.472 1332.49 108.818C1332.53 109.157 1332.63 109.456 1332.79 109.669C1332.84 109.74 1332.9 109.811 1332.96 109.866C1333.03 109.921 1333.1 109.969 1333.18 110C1333.62 110.197 1334.2 110 1334.75 109.456L1348.12 95.9066L1359.27 101.287C1359.79 101.547 1360.5 101.24 1361.1 100.492C1361.7 99.751 1362.07 98.719 1362.07 97.8052V78.5518L1373.66 61.0553C1374.21 60.2281 1374.48 59.1803 1374.39 58.3295C1374.32 57.7229 1374.07 57.2975 1373.69 57.14C1373.55 57.077 1373.38 57.0533 1373.2 57.077L1359.84 58.7156L1358.45 53.075L1355.84 42.5267C1355.73 42.0776 1355.51 41.7783 1355.21 41.6444L1355.22 41.6365Z" fill="url(#paint49_linear_185_445)"/>
</g>
<defs>
<filter id="filter0_f_185_445" x="564" y="275.95" width="86" height="107.568" filterUnits="userSpaceOnUse" color-interpolation-filters="sRGB">
<feFlood flood-opacity="0" result="BackgroundImageFix"/>
<feBlend mode="normal" in="SourceGraphic" in2="BackgroundImageFix" result="shape"/>
<feGaussianBlur stdDeviation="5" result="effect1_foregroundBlur_185_445"/>
</filter>
<filter id="filter1_f_185_445" x="1158" y="662.119" width="79.3129" height="93.7515" filterUnits="userSpaceOnUse" color-interpolation-filters="sRGB">
<feFlood flood-opacity="0" result="BackgroundImageFix"/>
<feBlend mode="normal" in="SourceGraphic" in2="BackgroundImageFix" result="shape"/>
<feGaussianBlur stdDeviation="5" result="effect1_foregroundBlur_185_445"/>
</filter>
<filter id="filter2_f_185_445" x="1281" y="0" width="113.739" height="146" filterUnits="userSpaceOnUse" color-interpolation-filters="sRGB">
<feFlood flood-opacity="0" result="BackgroundImageFix"/>
<feBlend mode="normal" in="SourceGraphic" in2="BackgroundImageFix" result="shape"/>
<feGaussianBlur stdDeviation="5" result="effect1_foregroundBlur_185_445"/>
</filter>
<linearGradient id="paint0_linear_185_445" x1="916.225" y1="222.646" x2="996.295" y2="256.413" gradientUnits="userSpaceOnUse">
<stop stop-color="#EDB934"/>
<stop offset="0.99" stop-color="#F4E4C4"/>
</linearGradient>
<linearGradient id="paint1_linear_185_445" x1="959.569" y1="195.227" x2="965.95" y2="326.608" gradientUnits="userSpaceOnUse">
<stop stop-color="#EDB934"/>
<stop offset="0.09" stop-color="#EEC357"/>
<stop offset="0.2" stop-color="#F0CD78"/>
<stop offset="0.32" stop-color="#F1D594"/>
<stop offset="0.44" stop-color="#F2DCA9"/>
<stop offset="0.58" stop-color="#F3E0B8"/>
<stop offset="0.74" stop-color="#F3E3C1"/>
<stop offset="0.99" stop-color="#F4E4C4"/>
</linearGradient>
<linearGradient id="paint2_linear_185_445" x1="1001.75" y1="173.643" x2="934.385" y2="326.091" gradientUnits="userSpaceOnUse">
<stop stop-color="#EDB934"/>
<stop offset="0.18" stop-color="#EEC252"/>
<stop offset="0.56" stop-color="#F1D48F"/>
<stop offset="0.84" stop-color="#F3DFB5"/>
<stop offset="0.99" stop-color="#F4E4C4"/>
</linearGradient>
<linearGradient id="paint3_linear_185_445" x1="1011.99" y1="196.915" x2="935.138" y2="370.816" gradientUnits="userSpaceOnUse">
<stop stop-color="#EDB934"/>
<stop offset="0.99" stop-color="#F4E4C4"/>
</linearGradient>
<linearGradient id="paint4_linear_185_445" x1="1005.43" y1="261.854" x2="943.03" y2="235.886" gradientUnits="userSpaceOnUse">
<stop stop-color="#EDB934"/>
<stop offset="0.99" stop-color="#F4E4C4"/>
</linearGradient>
<linearGradient id="paint5_linear_185_445" x1="1000.37" y1="223.687" x2="992.726" y2="240.988" gradientUnits="userSpaceOnUse">
<stop stop-color="#DCDCDC"/>
<stop offset="1" stop-color="#F6F6F6"/>
</linearGradient>
<linearGradient id="paint6_linear_185_445" x1="948.501" y1="298.243" x2="965.082" y2="260.723" gradientUnits="userSpaceOnUse">
<stop stop-color="#DCDCDC"/>
<stop offset="1" stop-color="#F6F6F6"/>
</linearGradient>
<linearGradient id="paint7_linear_185_445" x1="970.489" y1="234.093" x2="986.454" y2="198.84" gradientUnits="userSpaceOnUse">
<stop stop-color="#DCDCDC"/>
<stop offset="1" stop-color="#F6F6F6"/>
</linearGradient>
<linearGradient id="paint8_linear_185_445" x1="955.254" y1="257.002" x2="967.963" y2="227.646" gradientUnits="userSpaceOnUse">
<stop stop-color="#DCDCDC"/>
<stop offset="0.44" stop-color="#F6F6F6"/>
<stop offset="1" stop-color="#DCDCDC"/>
</linearGradient>
<linearGradient id="paint9_linear_185_445" x1="1009.15" y1="236.082" x2="916.006" y2="272.198" gradientUnits="userSpaceOnUse">
<stop stop-color="#FEFEFF"/>
<stop offset="1" stop-color="#CFCFCF"/>
</linearGradient>
<linearGradient id="paint10_linear_185_445" x1="573.502" y1="315.051" x2="624.969" y2="336.756" gradientUnits="userSpaceOnUse">
<stop stop-color="#EDB934"/>
<stop offset="0.99" stop-color="#F4E4C4"/>
</linearGradient>
<linearGradient id="paint11_linear_185_445" x1="601.363" y1="297.427" x2="605.464" y2="381.876" gradientUnits="userSpaceOnUse">
<stop stop-color="#EDB934"/>
<stop offset="0.09" stop-color="#EEC357"/>
<stop offset="0.2" stop-color="#F0CD78"/>
<stop offset="0.32" stop-color="#F1D594"/>
<stop offset="0.44" stop-color="#F2DCA9"/>
<stop offset="0.58" stop-color="#F3E0B8"/>
<stop offset="0.74" stop-color="#F3E3C1"/>
<stop offset="0.99" stop-color="#F4E4C4"/>
</linearGradient>
<linearGradient id="paint12_linear_185_445" x1="628.478" y1="283.554" x2="585.175" y2="381.543" gradientUnits="userSpaceOnUse">
<stop stop-color="#EDB934"/>
<stop offset="0.18" stop-color="#EEC252"/>
<stop offset="0.56" stop-color="#F1D48F"/>
<stop offset="0.84" stop-color="#F3DFB5"/>
<stop offset="0.99" stop-color="#F4E4C4"/>
</linearGradient>
<linearGradient id="paint13_linear_185_445" x1="635.056" y1="298.512" x2="585.658" y2="410.291" gradientUnits="userSpaceOnUse">
<stop stop-color="#EDB934"/>
<stop offset="0.99" stop-color="#F4E4C4"/>
</linearGradient>
<linearGradient id="paint14_linear_185_445" x1="630.84" y1="340.253" x2="590.731" y2="323.562" gradientUnits="userSpaceOnUse">
<stop stop-color="#EDB934"/>
<stop offset="0.99" stop-color="#F4E4C4"/>
</linearGradient>
<linearGradient id="paint15_linear_185_445" x1="627.589" y1="315.72" x2="622.675" y2="326.841" gradientUnits="userSpaceOnUse">
<stop stop-color="#DCDCDC"/>
<stop offset="1" stop-color="#F6F6F6"/>
</linearGradient>
<linearGradient id="paint16_linear_185_445" x1="594.248" y1="363.643" x2="604.906" y2="339.526" gradientUnits="userSpaceOnUse">
<stop stop-color="#DCDCDC"/>
<stop offset="1" stop-color="#F6F6F6"/>
</linearGradient>
<linearGradient id="paint17_linear_185_445" x1="608.381" y1="322.409" x2="618.644" y2="299.749" gradientUnits="userSpaceOnUse">
<stop stop-color="#DCDCDC"/>
<stop offset="1" stop-color="#F6F6F6"/>
</linearGradient>
<linearGradient id="paint18_linear_185_445" x1="598.589" y1="337.134" x2="606.758" y2="318.265" gradientUnits="userSpaceOnUse">
<stop stop-color="#DCDCDC"/>
<stop offset="0.44" stop-color="#F6F6F6"/>
<stop offset="1" stop-color="#DCDCDC"/>
</linearGradient>
<linearGradient id="paint19_linear_185_445" x1="633.23" y1="323.687" x2="573.361" y2="346.902" gradientUnits="userSpaceOnUse">
<stop stop-color="#FEFEFF"/>
<stop offset="1" stop-color="#CFCFCF"/>
</linearGradient>
<linearGradient id="paint20_linear_185_445" x1="-0.629121" y1="557.891" x2="63.9099" y2="585.77" gradientUnits="userSpaceOnUse">
<stop stop-color="#EDB934"/>
<stop offset="0.99" stop-color="#F4E4C4"/>
</linearGradient>
<linearGradient id="paint21_linear_185_445" x1="34.5676" y1="536.154" x2="39.5062" y2="640.318" gradientUnits="userSpaceOnUse">
<stop stop-color="#EDB934"/>
<stop offset="0.09" stop-color="#EEC357"/>
<stop offset="0.2" stop-color="#F0CD78"/>
<stop offset="0.32" stop-color="#F1D594"/>
<stop offset="0.44" stop-color="#F2DCA9"/>
<stop offset="0.58" stop-color="#F3E0B8"/>
<stop offset="0.74" stop-color="#F3E3C1"/>
<stop offset="0.99" stop-color="#F4E4C4"/>
</linearGradient>
<linearGradient id="paint22_linear_185_445" x1="68.8236" y1="519.044" x2="16.2816" y2="640.83" gradientUnits="userSpaceOnUse">
<stop stop-color="#EDB934"/>
<stop offset="0.18" stop-color="#EEC252"/>
<stop offset="0.56" stop-color="#F1D48F"/>
<stop offset="0.84" stop-color="#F3DFB5"/>
<stop offset="0.99" stop-color="#F4E4C4"/>
</linearGradient>
<linearGradient id="paint23_linear_185_445" x1="77.1332" y1="537.493" x2="17.1971" y2="676.418" gradientUnits="userSpaceOnUse">
<stop stop-color="#EDB934"/>
<stop offset="0.99" stop-color="#F4E4C4"/>
</linearGradient>
<linearGradient id="paint24_linear_185_445" x1="71.8069" y1="588.973" x2="21.5025" y2="567.529" gradientUnits="userSpaceOnUse">
<stop stop-color="#EDB934"/>
<stop offset="0.99" stop-color="#F4E4C4"/>
</linearGradient>
<linearGradient id="paint25_linear_185_445" x1="67.7002" y1="558.716" x2="61.7373" y2="572.537" gradientUnits="userSpaceOnUse">
<stop stop-color="#DCDCDC"/>
<stop offset="1" stop-color="#F6F6F6"/>
</linearGradient>
<linearGradient id="paint26_linear_185_445" x1="25.58" y1="617.82" x2="38.5115" y2="587.846" gradientUnits="userSpaceOnUse">
<stop stop-color="#DCDCDC"/>
<stop offset="1" stop-color="#F6F6F6"/>
</linearGradient>
<linearGradient id="paint27_linear_185_445" x1="43.4347" y1="566.965" x2="55.89" y2="538.793" gradientUnits="userSpaceOnUse">
<stop stop-color="#DCDCDC"/>
<stop offset="1" stop-color="#F6F6F6"/>
</linearGradient>
<linearGradient id="paint28_linear_185_445" x1="31.0634" y1="585.126" x2="40.9723" y2="561.681" gradientUnits="userSpaceOnUse">
<stop stop-color="#DCDCDC"/>
<stop offset="0.44" stop-color="#F6F6F6"/>
<stop offset="1" stop-color="#DCDCDC"/>
</linearGradient>
<linearGradient id="paint29_linear_185_445" x1="74.826" y1="568.542" x2="-0.323809" y2="598.391" gradientUnits="userSpaceOnUse">
<stop stop-color="#FEFEFF"/>
<stop offset="1" stop-color="#CFCFCF"/>
</linearGradient>
<linearGradient id="paint30_linear_185_445" x1="1167.55" y1="696.628" x2="1212.86" y2="717.015" gradientUnits="userSpaceOnUse">
<stop stop-color="#EDB934"/>
<stop offset="0.99" stop-color="#F4E4C4"/>
</linearGradient>
<linearGradient id="paint31_linear_185_445" x1="1192.59" y1="681.785" x2="1195.83" y2="752.929" gradientUnits="userSpaceOnUse">
<stop stop-color="#EDB934"/>
<stop offset="0.09" stop-color="#EEC357"/>
<stop offset="0.2" stop-color="#F0CD78"/>
<stop offset="0.32" stop-color="#F1D594"/>
<stop offset="0.44" stop-color="#F2DCA9"/>
<stop offset="0.58" stop-color="#F3E0B8"/>
<stop offset="0.74" stop-color="#F3E3C1"/>
<stop offset="0.99" stop-color="#F4E4C4"/>
</linearGradient>
<linearGradient id="paint32_linear_185_445" x1="1216.96" y1="670.1" x2="1182.09" y2="754.303" gradientUnits="userSpaceOnUse">
<stop stop-color="#EDB934"/>
<stop offset="0.18" stop-color="#EEC252"/>
<stop offset="0.56" stop-color="#F1D48F"/>
<stop offset="0.84" stop-color="#F3DFB5"/>
<stop offset="0.99" stop-color="#F4E4C4"/>
</linearGradient>
<linearGradient id="paint33_linear_185_445" x1="1222.87" y1="682.699" x2="1183.09" y2="778.751" gradientUnits="userSpaceOnUse">
<stop stop-color="#EDB934"/>
<stop offset="0.99" stop-color="#F4E4C4"/>
</linearGradient>
<linearGradient id="paint34_linear_185_445" x1="1219.08" y1="717.854" x2="1183.76" y2="702.169" gradientUnits="userSpaceOnUse">
<stop stop-color="#EDB934"/>
<stop offset="0.99" stop-color="#F4E4C4"/>
</linearGradient>
<linearGradient id="paint35_linear_185_445" x1="1216.16" y1="697.192" x2="1212.2" y2="706.748" gradientUnits="userSpaceOnUse">
<stop stop-color="#DCDCDC"/>
<stop offset="1" stop-color="#F6F6F6"/>
</linearGradient>
<linearGradient id="paint36_linear_185_445" x1="1186.2" y1="737.553" x2="1194.78" y2="716.83" gradientUnits="userSpaceOnUse">
<stop stop-color="#DCDCDC"/>
<stop offset="1" stop-color="#F6F6F6"/>
</linearGradient>
<linearGradient id="paint37_linear_185_445" x1="1198.9" y1="702.825" x2="1207.17" y2="683.337" gradientUnits="userSpaceOnUse">
<stop stop-color="#DCDCDC"/>
<stop offset="1" stop-color="#F6F6F6"/>
</linearGradient>
<linearGradient id="paint38_linear_185_445" x1="1190.1" y1="715.227" x2="1196.67" y2="699.024" gradientUnits="userSpaceOnUse">
<stop stop-color="#DCDCDC"/>
<stop offset="0.44" stop-color="#F6F6F6"/>
<stop offset="1" stop-color="#DCDCDC"/>
</linearGradient>
<linearGradient id="paint39_linear_185_445" x1="1221.23" y1="703.902" x2="1168.38" y2="725.767" gradientUnits="userSpaceOnUse">
<stop stop-color="#FEFEFF"/>
<stop offset="1" stop-color="#CFCFCF"/>
</linearGradient>
<linearGradient id="paint40_linear_185_445" x1="1290.29" y1="51.8727" x2="1363.67" y2="82.4198" gradientUnits="userSpaceOnUse">
<stop stop-color="#EDB934"/>
<stop offset="0.99" stop-color="#F4E4C4"/>
</linearGradient>
<linearGradient id="paint41_linear_185_445" x1="1329.86" y1="26.5135" x2="1335.84" y2="148.017" gradientUnits="userSpaceOnUse">
<stop stop-color="#EDB934"/>
<stop offset="0.09" stop-color="#EEC357"/>
<stop offset="0.2" stop-color="#F0CD78"/>
<stop offset="0.32" stop-color="#F1D594"/>
<stop offset="0.44" stop-color="#F2DCA9"/>
<stop offset="0.58" stop-color="#F3E0B8"/>
<stop offset="0.74" stop-color="#F3E3C1"/>
<stop offset="0.99" stop-color="#F4E4C4"/>
</linearGradient>
<linearGradient id="paint42_linear_185_445" x1="1368.37" y1="6.55116" x2="1305.52" y2="146.942" gradientUnits="userSpaceOnUse">
<stop stop-color="#EDB934"/>
<stop offset="0.18" stop-color="#EEC252"/>
<stop offset="0.56" stop-color="#F1D48F"/>
<stop offset="0.84" stop-color="#F3DFB5"/>
<stop offset="0.99" stop-color="#F4E4C4"/>
</linearGradient>
<linearGradient id="paint43_linear_185_445" x1="1377.72" y1="28.0745" x2="1306.02" y2="188.222" gradientUnits="userSpaceOnUse">
<stop stop-color="#EDB934"/>
<stop offset="0.99" stop-color="#F4E4C4"/>
</linearGradient>
<linearGradient id="paint44_linear_185_445" x1="1371.73" y1="88.1349" x2="1314.55" y2="64.6457" gradientUnits="userSpaceOnUse">
<stop stop-color="#EDB934"/>
<stop offset="0.99" stop-color="#F4E4C4"/>
</linearGradient>
<linearGradient id="paint45_linear_185_445" x1="1367.11" y1="52.8351" x2="1359.98" y2="68.7676" gradientUnits="userSpaceOnUse">
<stop stop-color="#DCDCDC"/>
<stop offset="1" stop-color="#F6F6F6"/>
</linearGradient>
<linearGradient id="paint46_linear_185_445" x1="1319.76" y1="121.79" x2="1335.23" y2="87.2378" gradientUnits="userSpaceOnUse">
<stop stop-color="#DCDCDC"/>
<stop offset="1" stop-color="#F6F6F6"/>
</linearGradient>
<linearGradient id="paint47_linear_185_445" x1="1339.83" y1="62.4587" x2="1354.72" y2="29.9999" gradientUnits="userSpaceOnUse">
<stop stop-color="#DCDCDC"/>
<stop offset="1" stop-color="#F6F6F6"/>
</linearGradient>
<linearGradient id="paint48_linear_185_445" x1="1325.92" y1="83.6465" x2="1337.78" y2="56.6091" gradientUnits="userSpaceOnUse">
<stop stop-color="#DCDCDC"/>
<stop offset="0.44" stop-color="#F6F6F6"/>
<stop offset="1" stop-color="#DCDCDC"/>
</linearGradient>
<linearGradient id="paint49_linear_185_445" x1="1375.12" y1="64.298" x2="1289.81" y2="96.9534" gradientUnits="userSpaceOnUse">
<stop stop-color="#FEFEFF"/>
<stop offset="1" stop-color="#CFCFCF"/>
</linearGradient>
</defs>
</svg>
