<svg width="288" height="252" viewBox="0 0 288 252" fill="none" xmlns="http://www.w3.org/2000/svg">
<g clip-path="url(#clip0_236_1054)">
<path d="M37.8444 130.066C90.288 151.563 93.8084 156.535 95.8275 200.875C98.0019 248.892 129.634 260.858 162.612 246.043C218.834 220.869 158.056 157.986 230.897 127.787C284.583 105.514 294.937 73.295 284.169 43.5626C273.556 14.141 241.044 -17.3007 194.554 11.1367C168.824 26.8835 161.731 62.4691 136.467 47.7583C110.427 32.5295 94.0673 -3.98846 39.501 16.99C-14.5993 37.813 -11.1306 109.968 37.8444 130.066Z" fill="#E1F3F9"/>
<path d="M67.0948 151.304C66.8359 157.934 61.2447 163.062 54.6181 162.751C47.9914 162.492 42.8661 156.898 43.125 150.268C43.4356 143.638 49.0268 138.51 55.6017 138.82C62.2283 139.079 67.3536 144.674 67.043 151.304H67.0948Z" fill="#C1E3FB"/>
<path d="M96.7594 144.104C92.9801 140.737 91.0128 135.039 91.7376 130.17C92.2035 127.166 100.746 121.882 100.746 121.882L88.0619 108.052C88.0619 108.052 82.1083 116.132 79.0538 116.34C74.3945 116.702 69.1138 114.268 66.2665 110.383C64.4545 107.896 66.7842 98.1584 66.7842 98.1584L48.0432 97.3296C48.0432 97.3296 49.4928 107.223 47.5255 109.554C44.7817 112.714 39.8117 114.371 35.7736 113.543C32.7709 112.921 27.9044 104.167 27.9044 104.167L13.5122 116.236C13.5122 116.236 21.2778 122.555 21.3813 125.612C21.4849 130.74 18.7928 136.386 14.4958 139.442C12.0108 141.203 2.27797 138.768 2.27797 138.768L1.24255 157.52C1.24255 157.52 11.1307 156.173 13.4087 158.193C17.1879 161.56 19.207 167.258 18.4304 172.127C17.9645 175.131 9.42231 180.414 9.42231 180.414L22.1061 194.193C22.1061 194.193 28.0597 186.112 31.1142 185.905C35.7736 185.594 41.0542 187.977 43.9015 191.862C45.7135 194.348 43.3838 204.086 43.3838 204.086L62.1248 204.915C62.1248 204.915 60.6235 195.022 62.6425 192.691C65.3864 189.531 70.3563 187.873 74.3944 188.702C77.3971 189.324 82.2636 198.078 82.2636 198.078L96.604 186.009C96.604 186.009 88.8384 179.689 88.7349 176.633C88.6314 171.505 91.3234 165.859 95.6204 162.803C98.1054 161.042 107.838 163.476 107.838 163.476L108.874 144.725C108.874 144.725 98.9855 146.072 96.7076 144.052L96.7594 144.104ZM53.7897 181.813C36.6537 181.088 23.3486 166.584 24.0734 149.387C24.7982 132.242 39.294 118.93 56.4818 119.655C73.6179 120.38 86.9229 134.884 86.1981 152.081C85.4734 169.226 70.9776 182.538 53.7897 181.813Z" fill="#C1E3FB"/>
<path d="M64.092 205.589H252.796L258.594 106.705H58.3455L64.092 205.589Z" fill="#2786CC"/>
<path d="M152.62 120.017C152.62 132.397 139.936 142.446 124.249 142.446L59.9503 143.016L57.4136 97.5366H124.249C139.936 97.5366 152.62 107.586 152.62 119.965V120.017Z" fill="#2786CC"/>
<path d="M254.09 117.272H62.7977V195.384H254.09V117.272Z" fill="#D7D4FF"/>
<path d="M256.627 199.787H76.3617V121.675L261.649 120.328L256.627 199.787Z" fill="#D7D4FF"/>
<path d="M254.297 112.714H66.6805V190.826H254.297V112.714Z" fill="white"/>
<path d="M80.5892 89.0113L59.6733 164.268L240.431 214.56L261.347 139.303L80.5892 89.0113Z" fill="#C1E3FB"/>
<path d="M252.951 121.675H74.032V199.787H252.951V121.675Z" fill="white"/>
<path d="M236.695 29.1108H80.2444C76.2987 29.1108 73.1001 32.3112 73.1001 36.259V134.417C73.1001 138.365 76.2987 141.566 80.2444 141.566H236.695C240.641 141.566 243.84 138.365 243.84 134.417V36.259C243.84 32.3112 240.641 29.1108 236.695 29.1108Z" fill="white"/>
<path d="M80.1927 29.1108H236.695C240.63 29.1108 243.84 32.3224 243.84 36.259V49.5195H73.1001V36.259C73.1001 32.3224 76.2581 29.1108 80.1927 29.1108Z" fill="#C1E3FB"/>
<path d="M226.548 39.367C226.548 41.3354 228.153 42.8893 230.069 42.8893C231.984 42.8893 233.589 41.2836 233.589 39.367C233.589 37.4505 231.984 35.8447 230.069 35.8447C228.153 35.8447 226.548 37.3987 226.548 39.367Z" fill="white"/>
<path d="M217.592 39.367C217.592 41.3354 219.197 42.8893 221.164 42.8893C223.131 42.8893 224.685 41.2836 224.685 39.367C224.685 37.4505 223.08 35.8447 221.164 35.8447C219.249 35.8447 217.592 37.3987 217.592 39.367Z" fill="white"/>
<path d="M208.998 39.367C208.998 41.3354 210.603 42.8893 212.518 42.8893C214.434 42.8893 216.039 41.2836 216.039 39.367C216.039 37.4505 214.434 35.8447 212.518 35.8447C210.603 35.8447 208.998 37.3987 208.998 39.367Z" fill="white"/>
<path d="M260.562 133.537L261.649 115.304H191.914C177.47 115.304 165.459 123.177 162.87 133.537H51.7706L57.776 232.472H254.608L258.957 160.783L260.613 133.589H260.562V133.537Z" fill="#6BB4F7"/>
<path d="M219.715 59.5684H96.0863C90.3679 59.5684 85.7322 64.2066 85.7322 69.9281V75.2633C85.7322 80.9848 90.3679 85.623 96.0863 85.623H219.715C225.433 85.623 230.069 80.9848 230.069 75.2633V69.9281C230.069 64.2066 225.433 59.5684 219.715 59.5684Z" fill="#E1F3F9"/>
<path d="M222.873 107.327H89.4597C87.4406 107.327 85.7322 105.669 85.7322 103.597C85.7322 101.577 87.3888 99.8677 89.4597 99.8677H222.873C224.892 99.8677 226.548 101.525 226.548 103.597C226.548 105.617 224.892 107.327 222.873 107.327Z" fill="#E1F3F9"/>
<path d="M45.5581 67.5972V85.2605L64.6615 76.4029L45.5581 67.5972Z" fill="#39BFB1"/>
<path d="M270.45 59.7756L252.848 59.2058L261.028 78.6303L270.45 59.7756Z" fill="#FFA60E"/>
<path d="M125.285 101.059H92.6177V102.82H125.285V101.059Z" fill="#5079BA"/>
<path d="M101.004 94.636L94.6885 88.472V82.8259H96.3969V87.695L102.247 93.341L101.004 94.636Z" fill="#5079BA"/>
<path d="M115.397 94.636L114.206 93.341L120.004 87.695V82.8259H121.765V88.472L115.397 94.636Z" fill="#5079BA"/>
<path d="M96.6041 118.101H94.8439V112.455L101.212 106.291L102.402 107.586L96.6041 113.18V118.101Z" fill="#5079BA"/>
<path d="M121.92 118.101H120.16V113.232L114.361 107.586L115.604 106.343L121.92 112.507V118.101Z" fill="#5079BA"/>
<path d="M117.571 101.266C117.571 108.57 113.481 114.423 108.356 114.423C103.231 114.423 99.1407 108.518 99.1407 101.266C99.1407 94.0144 103.231 88.1094 108.356 88.1094C113.481 88.1094 117.571 94.0144 117.571 101.266Z" fill="#6489D0"/>
<path d="M99.1925 101.266C99.1925 108.518 103.282 114.371 108.304 114.423V88.0576C103.282 88.0576 99.1925 93.9627 99.1925 101.214V101.266Z" fill="#5079BA"/>
<path d="M108.356 88.1094C105.405 88.1094 102.765 90.1295 101.056 93.2892C102.92 96.0346 105.457 97.7439 108.201 97.7439C110.944 97.7439 113.637 95.931 115.5 93.0302C113.792 90.0259 111.255 88.1094 108.356 88.1094Z" fill="#3E649B"/>
<path d="M228.878 79.2H196.211V80.9611H228.878V79.2Z" fill="#5079BA"/>
<path d="M204.598 72.7251L198.23 66.561V60.9668H199.99V65.8359L205.788 71.4819L204.598 72.7251Z" fill="#5079BA"/>
<path d="M218.99 72.7251L217.747 71.4819L223.597 65.8359V60.9668H225.306V66.561L218.99 72.7251Z" fill="#5079BA"/>
<path d="M200.145 96.1899H198.385V90.5957L204.753 84.4316L205.995 85.6748L200.145 91.3208V96.1899Z" fill="#5079BA"/>
<path d="M225.513 96.2417H223.753V91.3726L217.954 85.7266L219.145 84.4834L225.513 90.6474V96.2417Z" fill="#5079BA"/>
<path d="M221.112 79.4071C221.112 86.7107 217.022 92.5639 211.897 92.5639C206.772 92.5639 202.682 86.6589 202.682 79.4071C202.682 72.1553 206.772 66.2502 211.897 66.2502C217.022 66.2502 221.112 72.1553 221.112 79.4071Z" fill="#6489D0"/>
<path d="M202.734 79.4071C202.734 86.6589 206.824 92.5122 211.845 92.564V66.1985C206.824 66.1985 202.734 72.1035 202.734 79.3553V79.4071Z" fill="#5079BA"/>
<path d="M211.949 66.1985C208.998 66.1985 206.358 68.2186 204.649 71.3783C206.513 74.1237 209.05 75.833 211.794 75.833C214.537 75.833 217.23 74.0201 219.093 71.1193C217.385 68.115 214.848 66.1985 211.949 66.1985Z" fill="#3E649B"/>
<path d="M200.559 149.439C200.559 149.439 211.638 150.164 215.832 146.435C219.973 142.757 217.592 138.613 217.592 138.613C217.592 138.613 205.944 144.622 199.731 143.689C193.519 142.757 200.611 149.491 200.611 149.491L200.559 149.439Z" fill="#CC8B6E"/>
<path d="M221.992 135.194C224.995 134.158 228.412 134.262 230.017 136.748C230.949 138.147 230.224 140.944 228.774 142.239C226.082 144.674 221.423 147.678 214.434 148.248C211.845 148.455 207.031 143.275 210.189 140.892C214.33 137.733 217.747 136.697 221.941 135.246L221.992 135.194Z" fill="#ED3748"/>
<path d="M242.028 188.754L215.573 169.433L216.091 165.445L241.251 163.476L242.028 188.754Z" fill="#AF75E1"/>
<path d="M216.35 233.974C216.35 233.974 215.314 235.217 214.123 236.875C212.933 238.532 212.053 240.294 213.709 241.071C215.366 241.848 217.385 239.931 218.058 238.74C218.731 237.6 219.456 237.704 220.336 236.927C221.268 236.15 220.75 233.301 220.75 233.301L216.298 233.974H216.35Z" fill="#FEB801"/>
<path d="M231.674 179.223C229.24 182.435 221.112 234.078 221.112 234.078C218.679 236.202 215.003 234.078 215.003 234.078C212.363 207.764 215.625 168.656 215.625 168.656C215.625 168.656 234.107 182.435 231.674 179.275V179.223Z" fill="#AF75E1"/>
<path d="M220.025 169.381C217.022 190.722 214.382 213.307 216.505 234.803C216.505 235.321 217.333 235.321 217.281 234.803C215.107 213.358 217.747 190.878 220.75 169.589C220.802 169.071 220.077 168.863 220.025 169.381Z" fill="#9361C9"/>
<path d="M240.682 234.803C240.682 234.803 241.717 236.046 242.908 237.704C244.099 239.361 244.979 241.122 243.322 241.899C241.665 242.676 239.646 240.76 238.973 239.568C238.3 238.429 237.575 238.533 236.695 237.756C235.764 236.979 236.281 234.13 236.281 234.13L240.733 234.803H240.682Z" fill="#FEB801"/>
<path d="M225.358 180.052C227.791 183.263 235.919 234.907 235.919 234.907C238.352 237.03 242.028 234.907 242.028 234.907C244.668 208.593 241.821 167.102 241.821 167.102C241.821 167.102 222.924 183.315 225.409 180.104L225.358 180.052Z" fill="#AF75E1"/>
<path d="M236.229 170.417C239.232 191.707 241.872 214.187 239.698 235.632C239.698 236.15 240.423 236.15 240.475 235.632C242.649 214.084 239.957 191.551 236.954 170.21C236.902 169.692 236.178 169.899 236.229 170.417Z" fill="#9361C9"/>
<path d="M219.093 139.027C220.802 133.278 229.137 132.967 235.919 134.055C240.475 134.78 243.063 137.888 243.063 143.534C243.063 147.212 243.374 162.751 241.148 167.154C241.148 167.154 233.537 173.007 215.884 165.963C215.884 165.963 215.366 151.355 219.042 139.079L219.093 139.027Z" fill="#FF4650"/>
<path d="M232.088 136.334C232.088 136.334 231.932 155.551 229.913 167.465L227.739 167.62C227.739 167.62 230.742 153.375 230.224 136.334H232.088Z" fill="#FDFEFD"/>
<path d="M242.131 168.449C242.131 168.449 225.616 171.764 215.314 166.636L216.039 163.891C216.039 163.891 227.843 168.345 241.924 165.289L242.183 168.449H242.131Z" fill="#9361C9"/>
<path d="M233.9 166.273H232.398L232.088 170.262H234.469L233.9 166.273Z" fill="#242236"/>
<path d="M223.649 165.134L222.562 164.823L220.75 169.019L222.924 169.692L223.649 165.134Z" fill="#242236"/>
<path d="M231.57 139.804C231.57 139.804 231.777 139.338 231.57 139.131C231.363 138.924 231.104 138.924 230.897 139.131C230.69 139.286 230.69 139.597 230.897 139.804C231.052 140.012 231.363 140.012 231.57 139.804Z" fill="#D94951"/>
<path d="M231.57 144.363C231.57 144.363 231.777 143.897 231.57 143.689C231.363 143.482 231.104 143.482 230.897 143.689C230.69 143.897 230.69 144.156 230.897 144.363C231.052 144.57 231.363 144.57 231.57 144.363Z" fill="#D94951"/>
<path d="M231.363 148.403C231.363 148.403 230.897 148.196 230.69 148.403C230.483 148.558 230.483 148.869 230.69 149.076C230.845 149.283 231.156 149.283 231.363 149.076C231.57 148.921 231.57 148.61 231.363 148.403Z" fill="#D94951"/>
<path d="M230.172 153.945C230.172 153.945 229.965 154.412 230.172 154.619C230.328 154.826 230.638 154.826 230.845 154.619C231.052 154.463 231.052 154.153 230.845 153.945C230.69 153.738 230.379 153.738 230.172 153.945Z" fill="#D94951"/>
<path d="M229.706 160.265C229.706 160.265 229.499 160.731 229.706 160.938C229.862 161.145 230.172 161.145 230.379 160.938C230.586 160.783 230.586 160.472 230.379 160.265C230.172 160.058 229.913 160.058 229.706 160.265Z" fill="#D94951"/>
<path d="M235.556 126.596C235.556 126.596 228.723 128.046 229.085 128.616C229.447 129.186 228.826 130.325 228.774 131.413C228.774 132.604 227.946 133.847 226.911 135.039C226.186 135.868 227.48 136.904 228.671 137.111C233.693 138.043 236.902 136.178 235.815 134.573C233.434 130.895 235.556 126.648 235.556 126.648V126.596Z" fill="#CC8B6E"/>
<path d="M228.774 131.413C228.774 130.325 229.447 129.186 229.085 128.616C228.723 128.046 236.074 126.492 236.074 126.492C236.074 126.492 234.935 127.632 234.78 129.393C232.605 131.309 230.224 132.294 228.36 133.019C228.567 132.553 228.774 131.879 228.774 131.465V131.413Z" fill="#C1775D"/>
<path d="M228.671 118.722C225.979 120.743 223.649 127.787 226.496 131.154C228.05 133.019 233.693 131.05 236.333 127.01C236.695 126.492 237.524 123.488 236.126 120.276C235.505 118.826 231.466 116.599 228.671 118.722Z" fill="#CC8B6E"/>
<path d="M227.325 120.069C227.946 120.328 228.671 119.396 229.396 119.81C229.965 120.121 230.069 120.743 230.845 120.794C231.932 120.898 235.09 118.722 233.848 125.042C233.796 125.353 234.055 125.715 234.21 125.974C234.469 126.544 233.693 127.062 234.055 127.528C234.055 127.58 234.262 127.528 234.366 127.684C234.469 127.839 234.417 128.202 234.469 128.357C234.469 128.875 234.573 129.393 234.624 129.911C235.297 129.911 235.815 129.238 236.229 128.72C237.006 127.735 237.886 126.855 238.455 125.767C239.025 124.679 239.232 123.229 238.507 122.245C238.248 121.882 237.834 121.571 237.627 121.157C237.368 120.639 237.42 120.069 237.42 119.499C237.42 118.619 237.213 117.738 236.695 117.065C236.022 116.184 234.935 115.822 233.9 115.563C232.812 115.304 231.674 115.096 230.535 115.2C229.396 115.304 228.308 115.77 227.532 116.599C226.755 117.427 226.445 118.722 226.859 119.758C226.911 119.862 226.962 120.017 227.066 120.069C227.066 120.069 227.169 120.173 227.221 120.173L227.325 120.069Z" fill="#242236"/>
<path d="M233.227 126.596C233.227 126.596 235.194 124.886 236.229 125.353C237.316 125.871 235.815 128.771 233.589 128.357C231.363 127.942 232.605 127.01 233.227 126.544V126.596Z" fill="#CC8B6E"/>
<path d="M232.139 125.404C232.139 125.404 232.088 125.404 232.036 125.404C231.932 125.404 231.881 125.456 231.777 125.456C231.415 125.456 231.259 125.249 231.156 124.938C231.104 124.731 230.793 124.835 230.845 125.042C231.052 125.715 231.673 125.922 232.295 125.612C232.502 125.508 232.295 125.249 232.088 125.353L232.139 125.404Z" fill="#1E100C"/>
<path d="M228.774 124.161C228.774 124.161 228.567 124.317 228.464 124.368C228.101 124.524 227.894 124.317 227.791 124.006C227.739 123.799 227.428 123.902 227.48 124.109C227.635 124.472 227.894 124.835 228.36 124.731C228.619 124.731 228.826 124.524 229.033 124.368C229.188 124.213 228.93 124.006 228.774 124.161Z" fill="#1E100C"/>
<path d="M228.205 122.556C228.723 122.452 229.137 122.711 229.344 123.229C229.447 123.488 229.81 123.281 229.706 123.073C229.447 122.4 228.878 122.038 228.153 122.193C227.894 122.193 227.998 122.607 228.205 122.556Z" fill="#1E100C"/>
<path d="M231.311 123.851C231.777 123.592 232.295 123.747 232.605 124.161C232.761 124.369 233.071 124.161 232.916 123.902C232.502 123.333 231.829 123.125 231.156 123.488C230.949 123.592 231.104 123.954 231.311 123.851Z" fill="#1E100C"/>
<path d="M229.965 123.902C230.017 124.265 230.017 124.627 229.913 124.99C229.706 125.456 229.137 125.612 228.774 126.026C228.308 126.544 228.671 126.907 229.344 127.217C229.499 127.269 229.603 127.062 229.447 127.01C227.946 126.389 229.862 125.819 230.12 125.197C230.328 124.835 230.328 124.368 230.224 123.902C230.224 123.747 229.913 123.799 229.965 123.902Z" fill="#C1775D"/>
<path d="M230.535 127.943C230.535 127.943 230.535 129.289 229.396 129.186C228.308 129.082 228.308 127.891 228.308 127.891L230.535 127.994V127.943Z" fill="#FAFFFF"/>
<path d="M232.657 127.839C232.502 128.201 232.036 128.357 231.673 128.201C231.311 128.046 231.156 127.58 231.311 127.217C231.466 126.855 231.932 126.699 232.295 126.855C232.657 127.01 232.812 127.476 232.657 127.839Z" fill="#C1775D"/>
<path d="M226.548 125.301C226.911 125.094 227.377 125.197 227.584 125.56C227.791 125.922 227.687 126.389 227.325 126.596C226.962 126.803 226.496 126.699 226.289 126.337C226.082 125.974 226.186 125.508 226.548 125.301Z" fill="#C1775D"/>
<path d="M139.936 109.295C129.478 124.99 133.775 146.176 149.462 156.639C165.148 167.102 186.322 162.803 196.78 147.108C207.238 131.413 202.941 110.227 187.254 99.7641C171.568 89.3007 150.394 93.6 139.936 109.295ZM189.48 142.291C181.715 153.997 165.925 157.157 154.276 149.387C142.576 141.617 139.418 125.819 147.184 114.164C154.949 102.458 170.74 99.2979 182.388 107.068C194.088 114.837 197.246 130.636 189.48 142.291Z" fill="#FFA60E"/>
<path d="M203.303 143.378L195.848 154.619C194.243 157.053 190.878 157.727 188.445 156.121C186.012 154.515 185.339 151.148 186.944 148.714L194.399 137.473C196.004 135.039 199.369 134.365 201.802 135.971C204.235 137.577 204.908 140.944 203.303 143.378Z" fill="#FFA60E"/>
<path d="M244.099 178.601C242.701 180.725 239.75 181.295 237.627 179.896L193.674 150.63C191.551 149.232 190.982 146.279 192.38 144.155C193.778 142.032 196.728 141.462 198.851 142.86L242.804 172.127C244.927 173.525 245.496 176.478 244.099 178.601Z" fill="#FFA60E"/>
<path d="M245.807 147.626C246.169 148.455 253.262 157.364 251.709 161.197C250.88 163.217 244.15 160.472 244.15 160.472C244.15 160.472 246.584 157.882 240.423 152.443C235.349 147.989 245.807 147.626 245.807 147.626Z" fill="#CC8B6E"/>
<path d="M251.139 162.026C248.033 165.859 234.987 173.059 234.987 173.059L234.832 169.381L247.101 157.623C247.101 157.623 254.246 158.141 251.139 162.026Z" fill="#CC8B6E"/>
<path d="M234.107 169.537C233.744 169.537 233.382 169.33 233.071 169.226C232.398 168.967 231.674 168.967 231.001 168.967C230.638 168.967 229.81 168.501 229.499 168.915C228.982 169.537 230.535 169.951 230.845 170.158C231.104 170.366 231.363 170.676 231.259 171.039C231.208 171.246 231.001 171.402 230.794 171.505C230.224 171.92 229.551 172.179 228.93 172.541C228.619 172.697 228.309 172.904 227.998 173.111C227.739 173.266 227.377 173.37 227.221 173.525C227.066 173.681 227.066 173.991 227.221 174.095C227.428 174.199 227.532 174.095 227.739 173.991C228.101 173.836 228.516 173.732 228.878 173.577C228.982 173.577 229.344 173.37 229.396 173.422C229.81 173.681 228.826 174.199 228.671 174.302C228.309 174.509 227.894 174.768 227.739 175.183C227.739 175.235 227.739 175.286 227.739 175.338C227.739 175.442 227.894 175.442 227.998 175.39C228.516 175.235 229.033 174.924 229.551 174.768C229.655 174.768 229.758 174.768 229.81 174.768C230.069 175.027 229.499 175.494 229.344 175.701C229.24 175.804 229.137 175.96 229.189 176.115C229.189 176.219 229.344 176.271 229.447 176.271C229.551 176.271 229.655 176.271 229.706 176.167C229.965 176.063 230.276 175.96 230.483 175.804C230.586 175.753 230.949 175.494 231.052 175.597C231.052 175.597 231.052 175.649 231.052 175.701C231.052 175.856 230.949 175.96 230.845 176.063C230.742 176.167 230.69 176.322 230.794 176.426C230.897 176.581 231.104 176.581 231.259 176.53C231.829 176.322 232.347 175.96 232.864 175.597C233.382 175.235 233.9 174.82 234.417 174.406C235.039 173.888 235.608 173.318 236.178 172.748C236.592 172.282 237.265 171.92 237.627 171.402C237.886 171.039 237.886 170.521 237.731 170.055C237.575 169.64 237.317 169.278 237.11 168.863C237.006 168.604 236.902 168.397 236.592 168.397C236.281 168.397 234.676 169.537 234.521 169.589C234.417 169.589 234.314 169.589 234.159 169.589L234.107 169.537Z" fill="#CC8B6E"/>
<path d="M236.178 143.793C234.987 140.529 235.039 137.059 237.782 135.868C239.336 135.194 242.494 136.437 243.891 138.147C246.687 141.358 250.104 146.642 250.829 153.945C251.088 156.639 245.445 160.576 242.701 156.898C239.077 152.081 237.834 148.403 236.178 143.793Z" fill="#FF4650"/>
</g>
<defs>
<clipPath id="clip0_236_1054">
<rect width="288" height="252" fill="white"/>
</clipPath>
</defs>
</svg>
