<svg width="300" height="219" viewBox="0 0 300 219" fill="none" xmlns="http://www.w3.org/2000/svg">
<g clip-path="url(#clip0_236_1208)">
<path d="M204.497 205.027C158.432 181.85 150.819 191.487 112.368 211.58C70.7357 233.36 32.9104 200.016 27.9474 171.731C13.8292 91.0215 57.3402 18.1176 109.525 2.84292C139.592 -5.97494 197.992 3.99937 202.281 56.7138C204.256 80.7099 193.8 102.586 219.627 111.597C246.37 120.944 287.183 99.3094 298.603 144.411C309.926 189.078 247.478 226.662 204.449 204.979L204.497 205.027Z" fill="#E1F3F9"/>
<path d="M271.378 4.14392H189.753V97.382H271.378V4.14392Z" fill="white"/>
<path d="M271.378 4.14392H189.753V11.709H271.378V4.14392Z" fill="#C1E3FB"/>
<path d="M264.825 8.19145C264.825 9.15515 265.548 9.92611 266.367 9.92611C267.186 9.92611 267.909 9.15515 267.909 8.19145C267.909 7.22775 267.234 6.45679 266.367 6.45679C265.5 6.45679 264.825 7.22775 264.825 8.19145Z" fill="#F5F9FC"/>
<path d="M260.103 8.19145C260.103 9.15515 260.777 9.92611 261.645 9.92611C262.512 9.92611 263.187 9.15515 263.187 8.19145C263.187 7.22775 262.512 6.45679 261.645 6.45679C260.777 6.45679 260.103 7.22775 260.103 8.19145Z" fill="#F5F9FC"/>
<path d="M255.429 8.19145C255.429 9.15515 256.103 9.92611 256.971 9.92611C257.838 9.92611 258.561 9.15515 258.561 8.19145C258.561 7.22775 257.838 6.45679 256.971 6.45679C256.103 6.45679 255.429 7.22775 255.429 8.19145Z" fill="#F5F9FC"/>
<path d="M263.283 37.5844H199.149V42.5474H263.283V37.5844Z" fill="#C1E3FB"/>
<path d="M263.283 21.5387H199.149V35.8015H263.283V21.5387Z" fill="#C1E3FB"/>
<path d="M263.283 44.6675H199.149V49.6305H263.283V44.6675Z" fill="#C1E3FB"/>
<path d="M263.283 51.7025H199.149V56.6656H263.283V51.7025Z" fill="#C1E3FB"/>
<path d="M263.283 59.3158H199.149V73.1449H263.283V59.3158Z" fill="#C1E3FB"/>
<path d="M263.283 77.337H199.149V91.1661H263.283V77.337Z" fill="#C1E3FB"/>
<path d="M23.3697 30.7903H169.178C172.84 30.7903 175.827 33.7778 175.827 37.4398V128.895C175.827 132.557 172.84 135.545 169.178 135.545H23.3697C19.7077 135.545 16.7202 132.557 16.7202 128.895V37.4398C16.7202 33.7778 19.7077 30.7903 23.3697 30.7903Z" fill="#E1F3F9"/>
<path d="M23.3697 30.7903H169.178C172.84 30.7903 175.827 33.7778 175.827 37.4398V49.7752H16.7202V37.4398C16.7202 33.7778 19.7077 30.7903 23.3697 30.7903Z" fill="#B7D9F7"/>
<path d="M159.733 40.3791C159.733 42.2101 161.227 43.6557 163.058 43.6557C164.889 43.6557 166.335 42.1619 166.335 40.3791C166.335 38.5962 164.841 37.0543 163.058 37.0543C161.275 37.0543 159.733 38.5481 159.733 40.3791Z" fill="white"/>
<path d="M151.397 40.3791C151.397 42.2101 152.891 43.6557 154.722 43.6557C156.553 43.6557 157.999 42.1619 157.999 40.3791C157.999 38.5962 156.505 37.0543 154.722 37.0543C152.939 37.0543 151.397 38.5481 151.397 40.3791Z" fill="white"/>
<path d="M143.35 40.3791C143.35 42.2101 144.844 43.6557 146.675 43.6557C148.506 43.6557 149.952 42.1619 149.952 40.3791C149.952 38.5962 148.458 37.0543 146.675 37.0543C144.892 37.0543 143.35 38.5481 143.35 40.3791Z" fill="white"/>
<path d="M29.8265 30.7903H175.634C179.296 30.7903 182.284 33.7778 182.284 37.4398V128.895C182.284 132.557 179.296 135.545 175.634 135.545H29.7783C26.1163 135.545 23.1288 132.557 23.1288 128.895V37.4398C23.1288 33.7778 26.1163 30.7903 29.7783 30.7903H29.8265Z" fill="white"/>
<path d="M29.7784 30.7903H175.586C179.248 30.7903 182.236 33.7778 182.236 37.4398V49.7752H23.177V37.4398C23.177 33.7778 26.1645 30.7903 29.8265 30.7903H29.7784Z" fill="#C1E3FB"/>
<path d="M166.142 40.3791C166.142 42.2101 167.636 43.6557 169.467 43.6557C171.298 43.6557 172.743 42.1619 172.743 40.3791C172.743 38.5962 171.25 37.0543 169.467 37.0543C167.684 37.0543 166.142 38.5481 166.142 40.3791Z" fill="white"/>
<path d="M157.806 40.3791C157.806 42.2101 159.3 43.6557 161.131 43.6557C162.962 43.6557 164.407 42.1619 164.407 40.3791C164.407 38.5962 162.914 37.0543 161.131 37.0543C159.348 37.0543 157.806 38.5481 157.806 40.3791Z" fill="white"/>
<path d="M149.807 40.3791C149.807 42.2101 151.301 43.6557 153.132 43.6557C154.963 43.6557 156.409 42.1619 156.409 40.3791C156.409 38.5962 154.915 37.0543 153.132 37.0543C151.349 37.0543 149.807 38.5481 149.807 40.3791Z" fill="white"/>
<path d="M160.215 56.7137H43.8484C38.5261 56.7137 34.2114 61.0284 34.2114 66.3508V86.2512C34.2114 91.5735 38.5261 95.8882 43.8484 95.8882H160.215C165.538 95.8882 169.852 91.5735 169.852 86.2512V66.3508C169.852 61.0284 165.538 56.7137 160.215 56.7137Z" fill="#E1F3F9"/>
<path d="M168.744 100.466H34.2114V104.224H168.744V100.466Z" fill="#A9D1EA"/>
<path d="M168.744 109.235H34.2114V112.994H168.744V109.235Z" fill="#A9D1EA"/>
<path d="M260.151 119.595H250.659V217.314H260.151V119.595Z" fill="#412121"/>
<path d="M266.801 115.596H61.8214V126.438H266.801V115.596Z" fill="#2786CC"/>
<path d="M150.289 119.595H64.2788V217.314H150.289V119.595Z" fill="#2786CC"/>
<path d="M35.0305 64.6643H11.3235C5.0697 64.6643 0 69.734 0 75.9878V106.393C0 112.646 5.0697 117.716 11.3235 117.716H35.0305C41.2843 117.716 46.354 112.646 46.354 106.393V75.9878C46.354 69.734 41.2843 64.6643 35.0305 64.6643Z" fill="#FFA60E"/>
<path d="M7.62818 69.9984L4.28198 73.1221L4.70943 73.58L8.05562 70.4563L7.62818 69.9984Z" fill="#FBFFFC"/>
<path d="M4.71248 70.0211L4.28137 70.4756L7.60238 73.626L8.03349 73.1715L4.71248 70.0211Z" fill="#FBFFFC"/>
<path d="M36.2351 91.0697L35.2714 91.2142C34.9823 91.2142 34.6932 91.3588 34.4523 91.5515C34.115 91.7924 33.9222 92.1779 33.8259 92.6598C33.7777 92.9007 33.7295 93.2862 33.7295 93.8162V98.6347C33.7295 100.032 33.344 100.996 32.5731 101.526C31.8985 102.008 30.8866 102.249 29.441 102.249C29.2965 102.249 29.0074 102.249 28.5255 102.249V101.719C30.1156 101.574 30.9348 100.899 31.0793 99.8393C31.0793 99.6948 31.0793 99.3575 31.0793 98.8274V94.2981C31.0793 93.1898 31.2721 92.3707 31.7057 91.8888C32.0912 91.407 32.7658 91.0697 33.7295 90.8769C32.7658 90.6842 32.1394 90.3469 31.7057 89.865C31.2721 89.3832 31.0793 88.564 31.0793 87.4558V82.9264C31.0793 82.3963 31.0793 82.0591 31.0793 81.9145C30.9348 80.8062 30.1156 80.1798 28.5255 80.0353V79.5052H29.441C30.8866 79.5052 31.9467 79.7462 32.5731 80.1798C33.344 80.7099 33.7295 81.7218 33.7295 83.0709V87.8894C33.7295 88.7568 33.8259 89.3832 34.0668 89.7205C34.1632 89.9132 34.3077 90.0578 34.4523 90.1541C34.6932 90.3469 34.9823 90.4433 35.2714 90.4914L36.2351 90.636V91.166V91.0697Z" fill="white"/>
<path d="M10.8417 90.5397L11.8054 90.3951C12.0945 90.3951 12.3836 90.2505 12.6245 90.0578C12.7691 89.9614 12.9136 89.8169 13.01 89.6241C13.2027 89.2868 13.3473 88.6604 13.3473 87.7931V82.9746C13.3473 81.5772 13.7328 80.6135 14.5037 80.0835C15.1783 79.6017 16.1902 79.3607 17.6839 79.3607H18.5995V79.8908C17.0094 80.0353 16.1902 80.7099 16.0457 81.77C16.0457 81.9145 16.0457 82.2518 16.0457 82.7819V87.3113C16.0457 88.4195 15.8529 89.2387 15.4193 89.7205C15.0338 90.2024 14.3592 90.5396 13.3955 90.7324C14.3592 90.9251 14.9856 91.2624 15.4193 91.7443C15.8529 92.2261 16.0457 93.0453 16.0457 94.1535V98.6829C16.0457 99.213 16.0457 99.5503 16.0457 99.6948C16.1902 100.803 17.0094 101.429 18.5995 101.574V102.104C18.1176 102.104 17.8285 102.104 17.6839 102.104C16.2384 102.104 15.1783 101.863 14.5037 101.381C13.7328 100.851 13.3473 99.8394 13.3473 98.4902V93.6717C13.3473 93.1416 13.3473 92.7562 13.2509 92.5152C13.1546 91.9852 12.9136 91.6479 12.6245 91.407C12.3836 91.2142 12.0945 91.1179 11.8054 91.0697L10.8417 90.9251V90.3951V90.5397Z" fill="white"/>
<path d="M186.428 115.692H136.123L128.75 79.1199H176.502L186.428 115.692Z" fill="#39BFB1"/>
<path d="M157.469 110.44C157.469 110.44 152.458 112.705 149.663 109.91L149.566 107.308L157.517 110.44H157.469Z" fill="#1D1B3A"/>
<path d="M156.264 113.187C153.662 113.428 151.446 113.235 149.518 112.657C149.518 112.994 149.47 113.331 149.422 113.62H163.781C163.636 112.994 163.492 112.416 163.347 111.838C162.239 112.223 160.071 112.849 156.264 113.187Z" fill="#FBC6B4"/>
<path d="M153.325 83.071C152.072 83.312 150.964 84.2275 150.626 85.6249C151.012 84.2275 152.12 83.312 153.325 83.071Z" fill="#1D1B3A"/>
<path d="M154.626 83.1193C154.626 83.1193 154.915 83.2156 155.011 83.2638C154.867 83.2156 154.77 83.1674 154.626 83.1193Z" fill="#1D1B3A"/>
<path d="M151.446 89.2869C151.446 89.2869 151.012 88.805 150.771 88.2268C151.012 88.8532 151.349 89.1905 151.446 89.2869Z" fill="#1D1B3A"/>
<path d="M153.469 83.0711C153.469 83.0711 153.855 83.0229 154.048 83.0711C153.855 83.0711 153.662 83.0711 153.469 83.0711Z" fill="#1D1B3A"/>
<path d="M173.803 82.2037L133.183 82.011L139.496 113.62H149.181H150.386C150.386 113.62 156.553 113.717 156.36 113.62H181.899L173.803 82.2037Z" fill="#C8EEFB"/>
<path d="M209.846 115.692H136.123L135.159 111.5H209.846V115.692Z" fill="#39BFB1"/>
<path d="M161.564 119.595H75.5541V217.314H161.564V119.595Z" fill="#409BED"/>
<path d="M161.564 146.772H75.5541V148.892H161.564V146.772Z" fill="#2786CC"/>
<path d="M161.564 169.563H75.5541V171.683H161.564V169.563Z" fill="#2786CC"/>
<path d="M161.564 192.355H75.5541V194.475H161.564V192.355Z" fill="#2786CC"/>
<path d="M267.668 119.595H258.175V217.314H267.668V119.595Z" fill="#936563"/>
<path d="M274.317 115.596H69.3383V126.438H274.317V115.596Z" fill="#2786CC"/>
<path d="M128.75 136.556H107.983V139.688H128.75V136.556Z" fill="#2786CC"/>
<path d="M128.75 161.516H107.983V164.648H128.75V161.516Z" fill="#2786CC"/>
<path d="M128.75 183.344H107.983V186.476H128.75V183.344Z" fill="#2786CC"/>
<path d="M128.75 208.256H107.983V211.388H128.75V208.256Z" fill="#2786CC"/>
<path d="M90.877 3.27661V20.2859L109.284 11.7572L90.877 3.27661Z" fill="#39BFB1"/>
<path d="M34.7414 165.949L17.7803 165.419L25.6826 184.067L34.7414 165.949Z" fill="#FFA60E"/>
<path d="M224.494 199.727C224.494 199.727 224.494 206.28 223.819 207.196C221.892 209.99 210.665 209.508 207.147 207.099C206.666 206.762 206.184 205.75 207.437 204.594C208.689 203.437 215.098 202.425 214.905 199.679C214.761 196.932 224.494 199.679 224.494 199.679V199.727Z" fill="#FFA60E"/>
<path d="M261.645 155.397C257.983 163.877 244.105 152.506 237.311 163.636C226.807 180.838 231.818 202.473 228.783 208.497C228.108 209.798 226.711 210.472 225.361 210.231C221.555 209.508 214.086 207.581 208.689 202.763C207.485 201.703 203.871 199.438 204.738 198.04C204.738 198.04 215.917 158.047 220.302 145.23C226.036 128.413 274.269 126.245 261.645 155.445V155.397Z" fill="#AF75E1"/>
<path d="M194.571 203.582C194.571 203.582 193.463 210.038 192.692 210.858C190.331 213.315 179.345 210.954 176.261 208.015C175.827 207.581 175.538 206.521 176.984 205.605C178.381 204.69 184.886 204.738 185.175 201.992C185.464 199.293 194.619 203.582 194.619 203.582H194.571Z" fill="#FFA60E"/>
<path d="M256.682 140.411C256.682 140.411 258.127 151.012 245.695 159.155C237.986 164.215 221.699 160.263 213.171 170.141C199.968 185.368 201.365 207.533 197.366 212.978C196.499 214.134 195.005 214.616 193.704 214.134C190.09 212.833 183.007 209.653 178.477 204.015C177.465 202.763 174.285 199.92 175.345 198.715C175.345 198.715 192.981 161.082 199.39 149.181C207.822 133.569 249.791 133.183 249.791 133.183L256.633 140.459L256.682 140.411Z" fill="#AF75E1"/>
<path d="M272.776 127.835C272.776 127.835 269.354 109.139 263.09 104.513C256.826 99.8875 252.008 104.031 252.008 104.031C252.008 104.031 263.428 118.342 264.054 126.727C264.68 135.111 272.824 127.835 272.824 127.835H272.776Z" fill="#FBB99D"/>
<path d="M258.561 126.052C258.561 126.052 256.826 125.811 256.585 125.763C254.417 125.474 252.201 125.522 250.08 124.703C249.117 124.317 248.201 123.787 247.527 122.968C247.141 122.486 246.852 121.956 246.563 121.426C246.466 121.234 246.322 120.944 246.081 120.944C245.888 120.944 245.744 121.137 245.647 121.33C245.503 121.86 245.792 122.342 245.888 122.872C245.936 123.209 246.033 123.787 245.84 124.076C245.647 124.366 245.165 124.366 244.828 124.366C243.864 124.366 242.901 124.028 241.985 123.691C241.263 123.45 240.443 122.968 240.01 123.884C239.865 124.221 239.576 124.366 239.335 124.655C239.191 124.751 239.094 124.944 239.094 125.088C239.094 125.185 239.094 125.233 239.094 125.329C239.094 125.522 239.094 125.667 239.094 125.859C239.094 125.956 239.046 126.1 239.094 126.197C239.094 126.341 239.239 126.486 239.335 126.534C239.672 126.727 240.01 126.919 240.347 127.112C240.781 127.305 241.118 127.546 241.552 127.739C241.889 127.883 242.274 127.931 242.612 128.076C244.154 128.702 247.671 129.473 247.816 129.473C249.02 129.714 252.152 129.907 253.261 129.859C254.369 129.762 258.561 126.052 258.561 126.052Z" fill="#FBB99D"/>
<path d="M269.981 132.075C263.958 133.521 247.767 129.473 247.767 129.473L250.996 125.859L270.752 124.221C270.752 124.221 276.052 130.581 269.981 132.027V132.075Z" fill="#FBB99D"/>
<path d="M269.403 109.91C269.403 109.91 271.426 111.452 270.125 112.512C268.824 113.572 267.861 112.512 267.861 112.512C267.861 112.512 268.535 114.15 266.752 114.68C265.548 115.066 265.066 113.813 265.066 113.813C265.066 113.813 265.837 115.259 264.15 116.03C262.994 116.56 262.368 115.114 262.368 115.114C262.368 115.114 263.331 116.656 261.838 117.331C260.344 117.957 260.103 115.837 260.103 115.837C260.103 115.837 260.488 117.861 259.091 118.294C257.694 118.728 257.935 115.885 257.935 115.885L269.354 109.91H269.403Z" fill="#FCFDFC"/>
<path d="M269.643 110.151C269.643 110.151 261.645 93.1899 254.224 96.7074C245.84 100.659 257.983 117.09 257.983 117.09C257.983 117.09 266.801 114.825 269.595 110.103L269.643 110.151Z" fill="#ED3748"/>
<path d="M272.342 114.584C272.342 114.584 274.269 116.222 272.92 117.186C271.571 118.15 270.655 117.041 270.655 117.041C270.655 117.041 271.185 118.68 269.451 119.162C268.198 119.499 267.812 118.198 267.812 118.198C267.812 118.198 268.487 119.692 266.752 120.366C265.596 120.8 265.018 119.306 265.018 119.306C265.018 119.306 265.885 120.896 264.343 121.474C262.801 122.053 262.705 119.884 262.705 119.884C262.705 119.884 262.994 121.908 261.548 122.294C260.103 122.679 260.536 119.836 260.536 119.836L272.294 114.584H272.342Z" fill="#FCFDFC"/>
<path d="M272.535 114.825C272.535 114.825 265.596 97.4301 257.983 100.466C249.357 103.887 260.488 121.041 260.488 121.041C260.488 121.041 269.402 119.354 272.535 114.777V114.825Z" fill="#ED3748"/>
<path d="M237.263 75.7468C235.818 79.0234 233.312 92.3706 240.202 92.9489C243.142 93.1898 248.49 87.8894 249.406 82.5891C249.791 80.4207 247.912 77.096 244.346 75.3613C242.756 74.5422 238.95 71.9402 237.263 75.7468Z" fill="#FBB99D"/>
<path d="M237.359 87.6003C237.359 87.6003 241.214 92.4188 237.167 96.1773C233.119 99.9357 247.526 98.3938 247.526 98.3938L246.177 84.3719L237.359 87.5522V87.6003Z" fill="#FBB99D"/>
<path d="M235.095 95.7918C243.045 94.0572 250.466 95.4545 255.718 97.671C265.596 101.911 256.103 117.668 255.092 120.222C249.791 133.473 259.235 133.713 257.597 136.701C254.61 142.049 238.709 142.772 230.084 139.496C226.711 138.243 223.868 136.267 224.735 134.774C230.999 124.173 227.192 117.234 227.626 110.151C228.108 102.875 228.59 97.1892 235.143 95.7436L235.095 95.7918Z" fill="#FF4650"/>
<path d="M215.965 125.956C215.965 125.956 232.155 115.933 234.131 108.416C236.155 100.899 230.517 97.912 230.517 97.912C230.517 97.912 221.362 113.717 213.797 117.379C206.232 121.041 215.965 125.956 215.965 125.956Z" fill="#FBB99D"/>
<path d="M208.256 113.283C208.015 113.283 207.099 111.982 206.907 111.789C205.461 110.151 203.726 108.705 202.666 106.778C202.184 105.863 201.847 104.851 201.847 103.791C201.847 103.164 201.992 102.586 202.136 101.96C202.184 101.719 202.233 101.429 202.04 101.285C201.895 101.14 201.654 101.189 201.462 101.285C201.028 101.574 200.883 102.152 200.642 102.634C200.498 102.923 200.161 103.405 199.823 103.501C199.486 103.55 199.101 103.261 198.908 103.068C198.185 102.393 197.655 101.574 197.173 100.707C196.788 100.032 196.45 99.1648 195.535 99.5503C195.198 99.6948 194.908 99.6467 194.523 99.6948C194.33 99.6948 194.186 99.743 194.041 99.8876C193.993 99.9358 193.945 100.032 193.897 100.08C193.8 100.225 193.704 100.369 193.559 100.466C193.463 100.562 193.367 100.61 193.27 100.707C193.174 100.851 193.174 100.996 193.27 101.14C193.367 101.526 193.511 101.863 193.656 102.2C193.848 102.634 193.945 103.068 194.186 103.453C194.378 103.791 194.571 104.08 194.764 104.369C195.535 105.814 197.703 108.705 197.8 108.802C198.571 109.766 200.787 111.934 201.703 112.608C202.618 113.283 208.208 113.187 208.208 113.187L208.256 113.283Z" fill="#FBB99D"/>
<path d="M213.026 125.329C207.485 122.486 197.848 108.898 197.848 108.898L202.666 108.272L218.712 119.884C218.712 119.884 218.567 128.172 213.026 125.329Z" fill="#FBB99D"/>
<path d="M231.433 116.271C231.433 116.271 230.758 118.728 229.313 117.861C227.867 117.041 228.493 115.74 228.493 115.74C228.493 115.74 227.241 116.945 226.084 115.5C225.265 114.488 226.277 113.572 226.277 113.572C226.277 113.572 225.217 114.825 223.868 113.572C222.952 112.705 224.109 111.597 224.109 111.597C224.109 111.597 223 113.09 221.892 111.934C220.736 110.777 222.615 109.766 222.615 109.766C222.615 109.766 220.88 110.874 219.965 109.766C219.049 108.609 221.796 107.838 221.796 107.838L231.529 116.319L231.433 116.271Z" fill="#FCFDFC"/>
<path d="M231.336 116.608C231.336 116.608 244.202 102.971 238.227 97.382C231.481 91.0215 220.591 108.32 220.591 108.32C220.591 108.32 225.891 115.692 231.336 116.608Z" fill="#ED3748"/>
<path d="M246.033 67.5554C239.287 67.4108 235.191 75.2168 237.263 76.9515C245.165 83.4564 230.855 83.2637 236.299 93.768C240.636 102.104 234.565 99.6948 233.746 109.38C232.926 119.065 249.213 130.003 265.259 118.439C273.113 112.801 269.403 103.116 262.657 94.2981C258.705 89.1905 261.018 81.0472 260.006 77.4333C258.561 72.3257 255.911 67.7481 246.033 67.5072V67.5554Z" fill="#242236"/>
<path d="M244.395 148.073C244.395 148.073 233.794 112.705 247.864 101.622C256.971 94.4426 288.243 90.4914 274.414 148.073C274.414 148.073 264.391 148.024 244.395 148.073Z" fill="#6489D0"/>
<path d="M270.029 159.348C270.029 161.95 267.909 164.118 265.259 164.118H211.725C209.075 164.118 206.955 161.998 206.955 159.348C206.955 156.698 209.075 154.578 211.725 154.578H265.259C267.909 154.578 270.029 156.698 270.029 159.348Z" fill="#6489D0"/>
<path d="M232.348 166.961C224.253 166.961 216.881 166.72 216.303 166.672L216.399 163.299C216.64 163.299 242.467 164.214 250.755 162.673C262.512 160.456 263.09 128.172 262.319 115.933L265.692 115.74C265.981 120.559 268.102 162.865 251.381 165.997C247.334 166.768 239.528 166.961 232.348 166.961Z" fill="#3E649B"/>
<path d="M240.202 161.372H234.998V214.568H240.202V161.372Z" fill="#6489D0"/>
<path d="M255.525 211.195H221.507C217.796 211.195 214.761 214.231 214.761 217.941H262.271C262.271 214.182 259.236 211.195 255.525 211.195Z" fill="#6489D0"/>
</g>
<defs>
<clipPath id="clip0_236_1208">
<rect width="300" height="218.567" fill="white"/>
</clipPath>
</defs>
</svg>
