<svg width="300" height="250" viewBox="0 0 300 250" fill="none" xmlns="http://www.w3.org/2000/svg">
<g clip-path="url(#clip0_236_1139)">
<path d="M189.182 67.0415C137.191 68.8175 132.085 66.0204 110.241 30.1465C86.4881 -8.70214 55.6312 -6.79301 35.8739 17.6705C2.21991 59.405 79.7839 88.6636 35.0303 140.743C2.04231 179.103 8.48008 209.56 30.6793 230.117C52.6565 250.451 93.1478 264.348 117.523 223.546C131.02 200.992 120.497 168.936 147.491 171.733C175.418 174.619 205.254 198.683 239.529 161.033C273.494 123.738 237.753 65.3988 189.182 67.0415Z" fill="#E1F3F9"/>
<path d="M78.0968 77.7416L78.3188 67.752L66.3756 64.7773C65.4876 64.5553 64.7773 63.8893 64.4665 63.0457C64.2889 62.5573 64.1113 62.1134 63.8893 61.625C63.5341 60.7814 63.5785 59.8046 64.0669 59.0499L70.9043 48.9714L64.0669 41.6901L53.5889 47.8615C52.6565 48.3942 51.5465 48.3942 50.5698 47.9503C49.9038 47.6395 49.2822 47.3731 48.5719 47.1067C47.5507 46.7071 46.7515 45.9079 46.5295 44.8424L43.8656 32.9436H33.876L31.1677 44.8868C30.9013 45.9967 30.1465 46.9735 29.081 47.3731C28.637 47.5507 28.193 47.7283 27.749 47.9503C26.7278 48.4386 25.5291 48.3055 24.5523 47.7283L14.3407 41.6901L7.50333 48.9714L13.8079 58.2507C14.5627 59.4051 14.7403 60.8258 14.2075 62.1134C14.1631 62.2465 14.1187 62.3353 14.0743 62.4685C13.5415 63.7117 12.4316 64.6441 11.0996 64.9105L0.221992 67.086L0 77.0756L11.6324 79.9615C12.6979 80.2279 13.5415 81.0271 13.9411 82.0926C13.9411 82.0926 13.9411 82.0926 13.9411 82.137C14.3851 83.2026 14.2963 84.4013 13.6303 85.3337L7.19254 94.835L14.0299 102.116L23.6643 96.4333C24.5967 95.9005 25.7511 95.9005 26.6834 96.4333C27.2606 96.7441 27.8378 97.0105 28.415 97.2325C29.3473 97.6321 30.0577 98.3868 30.2797 99.408L32.8104 110.552H42.8001L45.1088 100.385C45.3308 99.3192 46.1743 98.52 47.1955 98.1649C48.0835 97.8985 48.9714 97.5433 49.8594 97.1881C50.7474 96.7885 51.7685 96.8329 52.6121 97.3213L62.513 103.182L69.3503 95.9005L63.5785 87.4204C62.9569 86.4881 62.9125 85.2893 63.4009 84.2682C63.7561 83.5578 64.0669 82.8474 64.3333 82.137C64.7329 81.1159 65.5764 80.3611 66.642 80.1391L78.0524 77.8304L78.0968 77.7416ZM42.6669 90.04C30.0133 92.4375 19.1357 81.5599 21.5332 68.9063C22.8652 61.847 28.5926 56.1196 35.6519 54.7876C48.3055 52.3901 59.1831 63.2677 56.7856 75.9213C55.4536 82.9806 49.7262 88.708 42.6669 90.04Z" fill="#C7E3EA"/>
<path d="M13.9855 212.491C13.9855 212.491 24.7299 186.163 17.0489 154.684C13.8967 141.675 8.03607 124.316 20.2456 104.469C34.2311 81.7375 45.8191 53.9885 53.8996 53.6777C61.9801 53.3669 53.8996 90.9723 51.5909 97.1437C49.3266 103.315 39.6033 199.748 39.6033 199.748L13.9411 212.491H13.9855Z" fill="#FBB99D"/>
<path d="M50.1701 78.0081C50.1701 78.0081 34.2311 96.9218 33.8759 110.197C33.5208 123.428 21.8884 139.233 28.6369 158.147C35.3855 177.061 51.8129 92.2155 51.8129 92.2155L50.2145 78.0081H50.1701Z" fill="#DC8162"/>
<path d="M123.96 48.8383H66.3312C54.0709 48.8383 44.132 58.7772 44.132 71.0375V196.108C44.132 208.368 54.0709 218.307 66.3312 218.307H123.96C136.221 218.307 146.159 208.368 146.159 196.108V71.0375C146.159 58.7772 136.221 48.8383 123.96 48.8383Z" fill="#2786CC"/>
<path d="M129.865 48.8383H72.2362C59.9759 48.8383 50.037 58.7772 50.037 71.0375V196.108C50.037 208.368 59.9759 218.307 72.2362 218.307H129.865C142.126 218.307 152.065 208.368 152.065 196.108V71.0375C152.065 58.7772 142.126 48.8383 129.865 48.8383Z" fill="#409BED"/>
<path d="M120.897 59.0055H81.2491C68.9888 59.0055 59.0499 68.9444 59.0499 81.2047V180.702C59.0499 192.962 68.9888 202.901 81.2491 202.901H120.897C133.157 202.901 143.096 192.962 143.096 180.702V81.2047C143.096 68.9444 133.157 59.0055 120.897 59.0055Z" fill="#AACEF2"/>
<path d="M116.146 59.0055H81.2491C68.9888 59.0055 59.0499 68.9444 59.0499 81.2047V180.702C59.0499 192.962 68.9888 202.901 81.2491 202.901H116.146C128.407 202.901 138.345 192.962 138.345 180.702V81.2047C138.345 68.9444 128.407 59.0055 116.146 59.0055Z" fill="#D2EBFF"/>
<path d="M128.089 55.2316H75.6993C74.8113 55.2316 74.101 54.5212 74.101 53.6333C74.101 52.7453 74.8113 52.0349 75.6993 52.0349H128.089C128.977 52.0349 129.688 52.7453 129.688 53.6333C129.688 54.5212 128.977 55.2316 128.089 55.2316Z" fill="#2786CC"/>
<path d="M127.246 211.514H74.8557C73.9677 211.514 73.2573 210.804 73.2573 209.916C73.2573 209.028 73.9677 208.317 74.8557 208.317H127.246C128.134 208.317 128.844 209.028 128.844 209.916C128.844 210.804 128.134 211.514 127.246 211.514Z" fill="#2786CC"/>
<path d="M29.9689 173.376C29.9689 173.376 25.2626 144.739 33.3432 131.774C41.4237 118.81 36.8506 94.2134 47.1955 87.7312C57.5403 81.2491 59.9822 91.7715 58.7834 99.408C57.5847 107.045 55.4092 128.178 61.0922 144.828C71.1706 174.353 66.7752 192.6 54.7432 207.252C54.7432 207.252 42.7112 226.565 48.3942 238.686H3.32983L29.9689 173.376Z" fill="#FBB99D"/>
<path d="M267.767 161.077C267.767 161.077 276.424 155.75 277.712 150.599C279 145.494 275.181 143.496 275.181 143.496C275.181 143.496 266.213 154.729 262.927 159.435C258.798 165.384 267.811 161.033 267.811 161.033L267.767 161.077Z" fill="#FFBE9E"/>
<path d="M279.799 138.345C285.97 143.185 275.403 156.416 275.403 156.416L267.9 152.509C267.9 152.509 273.805 133.639 279.843 138.345H279.799Z" fill="#ED3748"/>
<path d="M296.759 188.96L269.454 169.691L269.987 165.739L295.96 163.786L296.759 188.96Z" fill="#AF75E1"/>
<path d="M273.139 141.853C274.915 136.214 283.351 135.948 290.232 136.969C294.894 137.679 297.869 139.189 298.357 144.961C298.668 148.646 297.647 164.851 295.383 169.114C295.383 169.114 287.48 173.553 269.853 168.092C269.853 168.092 269.321 153.84 273.095 141.808L273.139 141.853Z" fill="#FF4650"/>
<path d="M296.492 170.179C296.492 170.179 279.71 173.42 269.232 168.448L269.942 165.784C269.942 165.784 281.885 170.135 296.226 167.16L296.492 170.224V170.179Z" fill="#9361C9"/>
<path d="M288.146 167.471H286.68L286.325 171.911H288.767L288.146 167.471Z" fill="#AF75E1"/>
<path d="M277.756 166.938L276.691 166.583L274.826 170.712L277.046 171.378L277.756 166.938Z" fill="#AF75E1"/>
<path d="M289.522 129.51C289.522 129.51 282.418 131.02 282.818 131.597C283.217 132.174 282.507 133.328 282.507 134.483C282.507 135.726 281.663 137.013 280.598 138.257C279.843 139.145 281.175 140.166 282.418 140.388C287.613 141.365 290.898 139.411 289.788 137.724C287.302 133.95 289.522 129.51 289.522 129.51Z" fill="#FFBE9E"/>
<path d="M282.507 134.483C282.507 133.373 283.217 132.174 282.818 131.597C282.418 131.02 290.055 129.377 290.055 129.377C290.055 129.377 288.9 130.576 288.678 132.352C286.547 135.238 283.528 136.126 281.619 136.88C282.107 136.214 282.463 134.927 282.507 134.483Z" fill="#FF9C81"/>
<path d="M282.374 121.341C279.577 123.428 277.224 130.753 280.109 134.216C281.708 136.125 287.568 134.083 290.277 129.954C290.632 129.421 291.52 126.313 290.055 122.984C289.389 121.474 285.26 119.165 282.374 121.385V121.341Z" fill="#FFBE9E"/>
<path d="M279.177 127.068C279.177 127.512 279.799 122.673 282.551 122.318C283.661 122.184 283.395 123.339 284.683 123.428C285.793 123.516 289.078 121.296 287.79 127.867C287.746 128.178 288.012 128.533 288.19 128.844C288.368 129.199 287.79 129.999 287.835 130.398C287.835 130.798 288.989 129.599 288.945 129.999C288.945 130.576 287.924 132.174 288.723 132.396C289.122 132.485 289.611 131.863 289.877 131.641C290.721 131.02 291.609 130.62 292.319 129.821C293.074 128.977 293.518 127.823 293.695 126.713C293.873 125.603 293.873 124.404 293.429 123.339C292.941 122.229 292.008 121.385 290.854 120.986C290.188 120.764 289.433 120.719 288.812 120.453C288.234 120.186 287.657 120.098 287.08 119.831C286.636 119.609 286.458 119.343 286.192 118.943C285.57 118.144 284.505 117.611 283.484 117.656C282.463 117.7 281.441 118.366 281.086 119.343C280.864 119.876 280.82 120.586 280.287 120.852C280.109 120.941 279.888 120.941 279.71 121.074C279.532 121.163 279.444 121.341 279.355 121.563C278.866 122.495 278.866 123.65 279.133 124.671C279.222 125.07 279.399 125.514 279.355 125.914C279.355 126.313 279.222 126.669 279.266 127.068H279.177Z" fill="#1E1240"/>
<path d="M287.124 129.51C287.124 129.51 289.122 127.734 290.232 128.267C291.342 128.8 289.788 131.819 287.48 131.375C285.171 130.975 286.458 129.998 287.08 129.51H287.124Z" fill="#FFBE9E"/>
<path d="M270.209 233.935C270.209 233.935 269.143 235.178 267.944 236.821C266.701 238.464 265.769 240.195 267.5 240.995C269.232 241.794 271.319 239.84 271.985 238.686C272.651 237.531 273.45 237.665 274.382 236.91C275.314 236.111 274.826 233.314 274.826 233.314L270.209 233.98V233.935Z" fill="#E79E30"/>
<path d="M286.059 179.458C283.528 182.655 275.137 234.024 275.137 234.024C272.606 236.155 268.832 234.024 268.832 234.024C266.08 207.829 269.498 168.892 269.498 168.892C269.498 168.892 288.59 182.611 286.059 179.414V179.458Z" fill="#AF75E1"/>
<path d="M274.027 169.646C270.919 190.869 268.166 213.334 270.431 234.734C270.475 235.223 271.274 235.223 271.23 234.734C269.01 213.379 271.718 191.002 274.826 169.824C274.915 169.336 274.16 169.114 274.071 169.602L274.027 169.646Z" fill="#9361C9"/>
<path d="M271.896 169.735C271.896 171.866 271.896 177.816 268.832 177.816C268.344 177.816 268.344 178.615 268.832 178.615C272.562 178.615 272.739 172.355 272.695 169.735C272.695 169.247 271.896 169.247 271.896 169.735Z" fill="#9361C9"/>
<path d="M295.338 234.779C295.338 234.779 296.404 236.022 297.602 237.665C298.846 239.307 299.778 241.039 298.046 241.838C296.315 242.637 294.228 240.684 293.562 239.529C292.896 238.375 292.097 238.508 291.165 237.753C290.232 236.954 290.721 234.157 290.721 234.157L295.338 234.823V234.779Z" fill="#E79E30"/>
<path d="M279.532 180.302C282.063 183.499 290.454 234.868 290.454 234.868C292.985 236.999 296.759 234.868 296.759 234.868C299.512 208.672 296.537 170.179 296.537 170.179C296.537 170.179 277.046 183.499 279.532 180.302Z" fill="#AF75E1"/>
<path d="M290.809 170.712C293.917 191.89 296.626 214.267 294.406 235.622C294.361 236.111 295.116 236.111 295.205 235.622C297.425 214.178 294.717 191.757 291.609 170.534C291.52 170.046 290.765 170.268 290.854 170.756L290.809 170.712Z" fill="#9361C9"/>
<path d="M292.896 170.579C292.896 173.198 293.029 179.458 296.759 179.458C297.247 179.458 297.247 178.659 296.759 178.659C293.695 178.659 293.651 172.71 293.695 170.579C293.695 170.09 292.941 170.09 292.896 170.579Z" fill="#9361C9"/>
<path d="M284.993 128.711C284.993 128.711 284.949 128.711 284.905 128.711C284.816 128.711 284.727 128.755 284.638 128.755C284.283 128.755 284.15 128.533 284.061 128.267C284.017 128.089 283.706 128.178 283.75 128.356C283.928 129.022 284.549 129.199 285.171 128.889C285.349 128.8 285.171 128.533 284.993 128.622V128.711Z" fill="#201714"/>
<path d="M281.752 127.512C281.752 127.512 281.575 127.646 281.441 127.69C281.086 127.823 280.909 127.646 280.775 127.335C280.687 127.157 280.42 127.246 280.465 127.424C280.598 127.779 280.864 128.089 281.308 128.045C281.53 128.045 281.752 127.867 281.93 127.69C282.063 127.557 281.841 127.379 281.708 127.512H281.752Z" fill="#201714"/>
<path d="M281.175 125.958C281.708 125.87 282.107 126.136 282.285 126.58C282.374 126.802 282.729 126.669 282.64 126.447C282.418 125.825 281.841 125.47 281.131 125.603C280.909 125.648 280.953 126.003 281.175 125.958Z" fill="#4D2F20"/>
<path d="M284.194 127.201C284.638 126.979 285.127 127.113 285.437 127.512C285.571 127.69 285.881 127.468 285.704 127.29C285.304 126.757 284.638 126.535 284.017 126.891C283.795 126.979 283.972 127.335 284.194 127.246V127.201Z" fill="#4D2F20"/>
<path d="M282.907 127.246C282.951 127.601 282.995 127.956 282.862 128.267C282.685 128.711 282.107 128.889 281.752 129.244C281.264 129.732 281.663 130.132 282.285 130.354C282.418 130.398 282.551 130.221 282.374 130.176C280.953 129.599 282.729 129.022 283.04 128.445C283.217 128.089 283.217 127.601 283.173 127.201C283.173 127.068 282.907 127.068 282.907 127.201V127.246Z" fill="#7C4930"/>
<path d="M283.439 131.197C283.439 131.197 283.439 132.485 282.329 132.396C281.264 132.307 281.264 131.109 281.264 131.109L283.439 131.197Z" fill="#FAFFFF"/>
<path d="M285.482 131.064C285.304 131.419 284.86 131.597 284.505 131.419C284.15 131.242 283.972 130.798 284.15 130.443C284.327 130.087 284.771 129.91 285.127 130.087C285.482 130.265 285.659 130.709 285.482 131.064Z" fill="#FF9C81"/>
<path d="M279.621 128.622C279.976 128.4 280.42 128.489 280.642 128.844C280.864 129.199 280.775 129.643 280.42 129.865C280.065 130.087 279.621 129.999 279.399 129.643C279.177 129.288 279.266 128.844 279.621 128.622Z" fill="#FF9C81"/>
<path d="M273.894 150.999H259.287L268.433 165.207H282.241L273.894 150.999Z" fill="#FFA60E"/>
<path d="M295.738 163.653C295.738 163.653 300.266 154.551 298.668 149.534C297.07 144.517 292.763 144.828 292.763 144.828C292.763 144.828 293.607 157.126 290.632 161.965C287.613 166.805 295.738 163.608 295.738 163.608V163.653Z" fill="#FFBE9E"/>
<path d="M294.006 137.99C301.82 138.834 299.734 155.661 299.734 155.661L291.298 156.282C291.298 156.282 286.37 137.147 294.006 137.99Z" fill="#ED3748"/>
<path d="M294.095 164.674C290.01 165.784 278.911 164.674 278.911 164.674L280.82 162.01L294.495 159.213C294.495 159.213 298.224 163.519 294.095 164.674Z" fill="#FFBE9E"/>
<path d="M281.175 161.61C280.909 161.388 280.775 160.944 280.598 160.633C280.198 160.056 279.666 159.612 279.133 159.213C278.822 158.991 278.467 158.147 277.978 158.236C277.179 158.458 278.2 159.701 278.289 160.056C278.378 160.367 278.378 160.767 278.067 160.989C277.89 161.122 277.668 161.122 277.446 161.122C276.735 161.122 276.069 160.944 275.359 160.811C275.004 160.767 274.649 160.722 274.293 160.678C274.027 160.678 273.672 160.5 273.405 160.545C273.183 160.545 273.006 160.811 273.095 161.033C273.183 161.211 273.361 161.211 273.539 161.255C273.938 161.344 274.293 161.477 274.693 161.61C274.782 161.61 275.181 161.699 275.226 161.788C275.403 162.232 274.338 162.054 274.16 162.054C273.716 162.01 273.272 161.965 272.873 162.187C272.828 162.187 272.784 162.276 272.739 162.321C272.739 162.409 272.828 162.498 272.917 162.498C273.45 162.72 273.983 162.72 274.515 162.942C274.604 162.942 274.693 163.031 274.693 163.12C274.693 163.475 273.983 163.519 273.761 163.564C273.627 163.564 273.45 163.608 273.405 163.786C273.405 163.874 273.405 163.963 273.539 164.052C273.627 164.096 273.716 164.141 273.805 164.141C274.071 164.185 274.382 164.274 274.649 164.318C274.782 164.318 275.181 164.318 275.226 164.496V164.585C275.137 164.674 275.004 164.718 274.871 164.762C274.737 164.762 274.604 164.896 274.604 165.029C274.604 165.206 274.782 165.295 274.915 165.384C275.492 165.606 276.158 165.562 276.735 165.606C277.357 165.606 278.023 165.606 278.644 165.606C279.488 165.562 280.332 165.473 281.175 165.295C281.93 165.162 282.729 164.984 283.262 164.363C283.395 164.185 283.528 164.008 283.617 163.786C283.75 163.519 283.883 163.253 283.928 162.987C283.972 162.72 283.928 162.409 283.75 162.143C283.75 162.143 283.706 162.099 283.661 162.054C283.617 162.054 283.573 162.054 283.528 162.054C283.129 162.054 282.773 162.143 282.374 162.099C281.974 162.099 281.575 161.965 281.219 161.699L281.175 161.61Z" fill="#FFBE9E"/>
<path d="M263.726 158.902C264.082 158.724 264.526 157.925 265.014 158.103C265.769 158.414 264.614 159.523 264.437 159.834C264.304 160.145 264.259 160.545 264.526 160.767C264.703 160.9 264.925 160.944 265.147 160.989C265.858 161.033 266.568 160.989 267.234 160.989C267.589 160.989 267.944 160.989 268.344 160.989C268.61 160.989 268.965 160.9 269.232 160.989C269.454 161.033 269.587 161.299 269.498 161.521C269.409 161.699 269.187 161.655 269.01 161.655C268.61 161.699 268.211 161.788 267.811 161.832C267.722 161.832 267.323 161.832 267.278 161.965C267.056 162.365 268.122 162.365 268.3 162.365C268.743 162.365 269.187 162.365 269.543 162.676C269.587 162.676 269.631 162.765 269.631 162.809C269.631 162.898 269.543 162.942 269.454 162.987C268.921 163.12 268.344 163.075 267.811 163.209C267.722 163.209 267.634 163.253 267.589 163.342C267.5 163.697 268.211 163.83 268.433 163.875C268.566 163.875 268.743 163.963 268.788 164.141C268.788 164.23 268.743 164.319 268.655 164.363C268.566 164.407 268.477 164.407 268.388 164.407C268.122 164.407 267.811 164.452 267.5 164.407C267.367 164.407 266.968 164.319 266.879 164.54V164.629C266.968 164.762 267.101 164.807 267.234 164.851C267.367 164.896 267.5 165.029 267.5 165.162C267.5 165.34 267.278 165.428 267.145 165.473C266.568 165.606 265.902 165.473 265.325 165.428C264.703 165.34 263.948 165.118 263.371 164.807C260.175 162.987 263.194 159.168 263.815 158.813L263.726 158.902Z" fill="#FFBE9E"/>
<path d="M78.674 81.7819H215.554C219.017 81.7819 221.77 84.579 221.77 87.9976V173.82C221.77 177.283 218.973 180.036 215.554 180.036H78.674C75.2553 180.036 72.4583 177.238 72.4583 173.82V87.9976C72.4583 84.5346 75.2553 81.7819 78.674 81.7819Z" fill="#E1F3F9"/>
<path d="M78.674 81.7819H215.554C219.017 81.7819 221.77 84.579 221.77 87.9976V99.5856H72.4583V87.9976C72.4583 84.5346 75.2553 81.7819 78.674 81.7819Z" fill="#B7D9F7"/>
<path d="M206.675 90.7503C206.675 92.4375 208.051 93.8582 209.782 93.8582C211.514 93.8582 212.89 92.4819 212.89 90.7503C212.89 89.0188 211.514 87.6425 209.782 87.6425C208.051 87.6425 206.675 89.0188 206.675 90.7503Z" fill="white"/>
<path d="M198.86 90.7503C198.86 92.4375 200.237 93.8582 201.968 93.8582C203.7 93.8582 205.076 92.4819 205.076 90.7503C205.076 89.0188 203.7 87.6425 201.968 87.6425C200.237 87.6425 198.86 89.0188 198.86 90.7503Z" fill="white"/>
<path d="M191.313 90.7503C191.313 92.4375 192.689 93.8582 194.421 93.8582C196.152 93.8582 197.529 92.4819 197.529 90.7503C197.529 89.0188 196.152 87.6425 194.421 87.6425C192.689 87.6425 191.313 89.0188 191.313 90.7503Z" fill="white"/>
<path d="M84.7122 81.7819H221.593C225.056 81.7819 227.808 84.579 227.808 87.9976V173.82C227.808 177.283 225.011 180.036 221.593 180.036H84.7122C81.2936 180.036 78.4965 177.238 78.4965 173.82V87.9976C78.4965 84.5346 81.2936 81.7819 84.7122 81.7819Z" fill="white"/>
<path d="M84.7122 81.7819H221.593C225.056 81.7819 227.808 84.579 227.808 87.9976V99.5856H78.4965V87.9976C78.4965 84.5346 81.2936 81.7819 84.7122 81.7819Z" fill="#C1E3FB"/>
<path d="M212.713 90.7503C212.713 92.4375 214.089 93.8582 215.821 93.8582C217.552 93.8582 218.929 92.4819 218.929 90.7503C218.929 89.0188 217.552 87.6425 215.821 87.6425C214.089 87.6425 212.713 89.0188 212.713 90.7503Z" fill="white"/>
<path d="M204.854 90.7503C204.854 92.4375 206.231 93.8582 207.962 93.8582C209.694 93.8582 211.07 92.4819 211.07 90.7503C211.07 89.0188 209.694 87.6425 207.962 87.6425C206.231 87.6425 204.854 89.0188 204.854 90.7503Z" fill="white"/>
<path d="M197.351 90.7503C197.351 92.4375 198.727 93.8582 200.459 93.8582C202.19 93.8582 203.567 92.4819 203.567 90.7503C203.567 89.0188 202.19 87.6425 200.459 87.6425C198.727 87.6425 197.351 89.0188 197.351 90.7503Z" fill="white"/>
<g clip-path="url(#clip1_236_1139)">
<path d="M209.622 108H96.3783C91.1988 108 87 112.906 87 118.959V141.589C87 147.641 91.1988 152.548 96.3783 152.548H209.622C214.801 152.548 219 147.641 219 141.589V118.959C219 112.906 214.801 108 209.622 108Z" fill="#E1F3F9"/>
<path d="M217.921 157.753H87V162.027H217.921V157.753Z" fill="#A9D1EA"/>
<path d="M217.921 167.726H87V172H217.921V167.726Z" fill="#A9D1EA"/>
</g>
<path d="M162.232 40.5802V56.2084L179.148 48.3943L162.232 40.5802Z" fill="#FF4650"/>
<path d="M180.391 194.82L164.718 194.332L172.044 211.47L180.391 194.82Z" fill="#FFA60E"/>
<path d="M220.482 153.086H235.889C244.724 153.086 251.916 160.278 251.916 169.114V191.402C251.916 200.237 244.724 207.429 235.889 207.429H220.482C211.647 207.429 204.455 200.237 204.455 191.402V169.114C204.455 160.278 211.647 153.086 220.482 153.086Z" fill="#39BFB1"/>
<path d="M241.572 180.08L240.595 180.213C240.284 180.213 240.018 180.391 239.751 180.568C239.396 180.835 239.174 181.19 239.085 181.723C239.041 181.989 238.997 182.389 238.997 182.921V187.85C238.997 189.27 238.597 190.247 237.798 190.824C237.132 191.313 236.066 191.535 234.557 191.535C234.424 191.535 234.113 191.535 233.624 191.535V191.002C235.223 190.824 236.111 190.203 236.244 189.048C236.244 188.915 236.244 188.56 236.244 187.983V183.365C236.244 182.211 236.466 181.412 236.91 180.879C237.309 180.391 238.02 180.08 238.997 179.858C238.02 179.636 237.354 179.325 236.91 178.837C236.466 178.348 236.244 177.505 236.244 176.35V171.733C236.244 171.156 236.244 170.845 236.244 170.667C236.111 169.557 235.223 168.892 233.624 168.714V168.181H234.557C236.022 168.181 237.132 168.403 237.798 168.892C238.597 169.469 238.997 170.445 238.997 171.866V176.794C238.997 177.682 239.085 178.304 239.307 178.659C239.441 178.837 239.574 179.014 239.707 179.103C239.973 179.281 240.24 179.414 240.551 179.458L241.527 179.592V180.124L241.572 180.08Z" fill="white"/>
<path d="M215.554 179.592L216.531 179.458C216.842 179.458 217.108 179.281 217.374 179.103C217.552 178.97 217.685 178.837 217.774 178.659C217.996 178.304 218.085 177.682 218.085 176.794V171.866C218.085 170.445 218.484 169.469 219.284 168.892C219.95 168.403 221.015 168.181 222.525 168.181H223.457V168.714C221.859 168.892 220.971 169.513 220.838 170.667C220.838 170.801 220.838 171.156 220.838 171.733V176.35C220.838 177.505 220.616 178.304 220.172 178.837C219.772 179.325 219.062 179.636 218.085 179.858C219.062 180.08 219.728 180.391 220.172 180.879C220.616 181.367 220.838 182.211 220.838 183.365V187.983C220.838 188.56 220.838 188.871 220.838 189.048C220.971 190.158 221.859 190.824 223.457 191.002V191.535C222.969 191.535 222.658 191.535 222.525 191.535C221.06 191.535 219.95 191.313 219.284 190.824C218.484 190.247 218.085 189.27 218.085 187.85V182.921C218.085 182.389 218.085 181.989 217.996 181.723C217.907 181.19 217.685 180.835 217.33 180.568C217.064 180.391 216.797 180.258 216.487 180.213L215.51 180.08V179.547L215.554 179.592Z" fill="white"/>
</g>
<defs>
<clipPath id="clip0_236_1139">
<rect width="300" height="249.874" fill="white"/>
</clipPath>
<clipPath id="clip1_236_1139">
<rect width="132" height="64" fill="white" transform="translate(87 108)"/>
</clipPath>
</defs>
</svg>
