<svg width="275" height="233" viewBox="0 0 275 233" fill="none" xmlns="http://www.w3.org/2000/svg">
<g clip-path="url(#clip0_236_1451)">
<path d="M160.042 206.662C116.776 178.032 109.382 187.528 70.5996 205.135C28.526 224.222 3.05293 206.567 0.286183 176.314C-5.34271 114.425 77.6119 141.672 68.8346 76.0132C62.3471 27.6282 84.9581 6.25095 115.44 1.19295C145.588 -3.81733 187.9 6.15552 185.658 52.0115C184.418 77.397 222.15 87.5607 246.669 99.5377C283.543 117.575 278.201 164.576 263.27 185.905C238.178 221.741 200.446 233.479 159.994 206.71L160.042 206.662Z" fill="#E7F4FA"/>
<path d="M11.9628 17H143.001C146.293 17 148.964 19.6722 148.964 22.9646V105.181C148.964 108.473 146.293 111.146 143.001 111.146H11.9628C8.67134 111.146 6 108.473 6 105.181V22.9646C6 19.6722 8.67134 17 11.9628 17Z" fill="white"/>
<path d="M11.9628 17H143.001C146.293 17 148.964 19.6722 148.964 22.9646V34.035H6V22.9646C6 19.6722 8.67134 17 11.9628 17Z" fill="#C1E3FB"/>
<path d="M134.463 25.5891C134.463 27.2114 135.798 28.5475 137.42 28.5475C139.042 28.5475 140.378 27.2114 140.378 25.5891C140.378 23.9667 139.042 22.6306 137.42 22.6306C135.798 22.6306 134.463 23.9667 134.463 25.5891Z" fill="white"/>
<path d="M126.974 25.5891C126.974 27.2114 128.309 28.5475 129.931 28.5475C131.553 28.5475 132.889 27.2114 132.889 25.5891C132.889 23.9667 131.553 22.6306 129.931 22.6306C128.309 22.6306 126.974 23.9667 126.974 25.5891Z" fill="white"/>
<path d="M119.77 25.5891C119.77 27.2114 121.106 28.5475 122.728 28.5475C124.35 28.5475 125.685 27.2114 125.685 25.5891C125.685 23.9667 124.35 22.6306 122.728 22.6306C121.106 22.6306 119.77 23.9667 119.77 25.5891Z" fill="white"/>
<path d="M127.928 42.481H26.1305C20.8614 42.481 16.59 46.7537 16.59 52.0244V54.7919C16.59 60.0626 20.8614 64.3353 26.1305 64.3353H127.928C133.197 64.3353 137.468 60.0626 137.468 54.7919V52.0244C137.468 46.7537 133.197 42.481 127.928 42.481Z" fill="#E1F3F9"/>
<path d="M131.41 82.4676H19.6906C17.9733 82.4676 16.59 81.0838 16.59 79.366C16.59 77.6482 17.9733 76.2644 19.6906 76.2644H131.41C133.127 76.2644 134.51 77.6482 134.51 79.366C134.51 81.0838 133.127 82.4676 131.41 82.4676Z" fill="#E1F3F9"/>
<path d="M37.0648 161.617V179.32L56.1935 170.445L37.0648 161.617Z" fill="#39BFB1"/>
<path d="M270.568 107.506L252.871 106.981L261.123 126.402L270.568 107.506Z" fill="#FFA60E"/>
<g clip-path="url(#clip1_236_1451)">
<path d="M181.291 189.111C182.175 194.343 183.078 199.556 184.018 204.778C184.493 207.421 184.977 210.056 185.461 212.7C186.113 216.203 186.876 219.613 187.071 223.181C187.108 223.854 187.453 223.901 188.03 223.872C189.063 223.826 190.096 223.723 191.12 223.555C191.26 223.536 191.409 223.508 191.53 223.415C191.8 223.209 191.809 222.789 191.781 222.434C191.418 217.389 191.26 212.298 191.381 207.244C191.409 205.871 191.362 204.469 191.474 203.105C191.641 196.108 191.8 189.065 190.72 182.152C190.524 180.881 189.901 179.938 189.584 178.77C189.277 177.668 189.659 176.509 188.626 175.678C188.281 175.398 187.853 175.267 187.425 175.183C185.936 174.902 184.363 175.257 183.069 176.089C181.291 177.229 179.681 179.424 180.063 181.731C180.463 184.188 180.872 186.645 181.291 189.102V189.111Z" fill="#F7967C"/>
<path d="M184.381 220.136C184.177 219.65 184.298 218.744 184.26 218.314C184.139 217.202 183.944 216.1 183.795 214.998C183.469 212.625 183.162 210.252 182.846 207.879C181.868 200.705 180.9 193.521 179.923 186.337C179.588 183.843 179.243 181.32 179.42 178.807C179.662 175.36 182.529 173.062 185.954 173.184C189.333 173.305 191.66 175.248 191.939 178.602C193 191.223 193.642 203.872 194.247 216.511C194.294 217.567 194.35 218.613 194.396 219.669C194.396 219.837 194.396 220.014 194.294 220.136H184.391H184.381Z" fill="#9361C9"/>
<path d="M186.745 222.658C186.541 222.835 186.345 223.022 186.131 223.2C185.628 223.63 185.107 224.003 184.642 224.489C184.484 224.648 184.325 224.844 184.344 225.068C184.372 225.423 184.828 225.582 185.2 225.619C185.601 225.657 186.001 225.647 186.401 225.638C188.16 225.601 189.863 225.414 191.604 225.227C191.781 225.208 191.967 225.19 192.116 225.096C192.498 224.863 192.47 224.33 192.377 223.91C192.218 223.2 191.976 222.49 191.511 221.92C191.046 221.35 190.32 220.939 189.556 220.986C188.961 221.023 188.43 221.341 187.946 221.668C187.509 221.967 187.127 222.312 186.745 222.658Z" fill="#F7967C"/>
<path d="M179.42 227.058H187.462C188.123 226.974 188.775 226.88 189.435 226.796C189.715 226.759 190.031 226.731 190.245 226.918C190.301 226.965 190.348 227.021 190.394 227.067H192.805C192.87 226.909 192.861 226.666 192.87 226.441C192.87 226.32 192.879 226.199 192.916 226.105C192.954 225.984 193.01 225.872 193.037 225.75C193.065 225.629 193.056 225.498 193.047 225.376C193 224.881 192.777 223.723 192.228 223.433C192.107 223.368 191.958 223.34 191.8 223.387C190.171 223.788 188.542 224.181 186.913 224.582C187.192 224.227 187.434 223.798 187.425 223.34C187.425 222.976 187.285 222.723 187.081 222.593C186.829 222.424 186.476 222.443 186.122 222.667C185.256 223.218 184.493 223.928 183.59 224.414C182.408 225.059 181.031 225.292 179.858 225.956C179.653 226.077 179.485 226.245 179.392 226.451C179.318 226.638 179.309 226.862 179.411 227.077L179.42 227.058Z" fill="black"/>
<path d="M179.42 227.058H187.462C188.123 226.974 188.775 226.88 189.435 226.796C189.715 226.759 190.031 226.731 190.245 226.918C190.301 226.965 190.348 227.021 190.394 227.067H192.805C192.87 226.908 192.861 226.666 192.87 226.441H179.402C179.327 226.628 179.318 226.852 179.42 227.067V227.058Z" fill="black"/>
<path d="M183.786 223.835C183.99 223.76 184.26 223.788 184.437 223.928C185.005 224.358 185.48 224.872 185.88 225.442C186.001 225.619 185.666 225.731 185.545 225.75C185.349 225.778 185.079 225.75 184.958 225.573C184.586 225.04 184.13 224.573 183.609 224.181C183.432 224.05 183.646 223.882 183.776 223.835H183.786Z" fill="black"/>
<path d="M202.187 189.401C204.616 194.109 207.064 198.808 209.531 203.488C210.787 205.861 212.044 208.225 213.31 210.588C214.985 213.727 216.754 216.745 218.019 220.089C218.261 220.715 218.606 220.649 219.146 220.453C220.123 220.098 221.072 219.678 221.994 219.211C222.124 219.145 222.254 219.071 222.338 218.959C222.534 218.678 222.413 218.277 222.282 217.95C220.412 213.251 218.718 208.449 217.293 203.601C216.912 202.283 216.437 200.957 216.13 199.63C214.166 192.913 212.184 186.159 209.065 179.9C208.488 178.751 207.613 178.041 206.953 177.032C206.329 176.07 206.338 174.856 205.11 174.379C204.7 174.22 204.244 174.22 203.816 174.276C202.308 174.473 200.921 175.285 199.944 176.472C198.594 178.097 197.729 180.685 198.79 182.768C199.916 184.992 201.052 187.206 202.196 189.42L202.187 189.401Z" fill="#F7967C"/>
<path d="M214.538 218.006C214.194 217.604 214.036 216.698 213.868 216.306C213.421 215.287 212.891 214.297 212.416 213.288C211.392 211.13 210.378 208.963 209.354 206.805C206.254 200.266 203.146 193.717 200.046 187.178C198.967 184.898 197.878 182.6 197.282 180.152C196.472 176.789 198.501 173.735 201.796 172.8C205.054 171.885 207.855 173.025 209.14 176.136C213.971 187.832 218.42 199.686 222.831 211.551C223.194 212.541 223.567 213.522 223.93 214.512C223.986 214.661 224.041 214.839 223.967 214.988L214.529 218.015L214.538 218.006Z" fill="#9361C9"/>
<path d="M217.312 219.052C217.182 219.286 217.051 219.529 216.912 219.762C216.577 220.332 216.214 220.864 215.934 221.481C215.841 221.687 215.748 221.92 215.841 222.126C215.981 222.453 216.465 222.453 216.828 222.369C217.219 222.275 217.591 222.126 217.973 221.985C219.62 221.369 221.165 220.622 222.748 219.865C222.906 219.79 223.083 219.706 223.194 219.566C223.474 219.22 223.278 218.725 223.046 218.361C222.664 217.744 222.199 217.156 221.575 216.773C220.951 216.39 220.123 216.24 219.425 216.539C218.876 216.773 218.475 217.249 218.131 217.716C217.824 218.146 217.573 218.594 217.321 219.052H217.312Z" fill="#F7967C"/>
<path d="M211.858 225.648L219.453 222.976C220.049 222.677 220.635 222.369 221.231 222.07C221.482 221.948 221.77 221.817 222.031 221.911C222.106 221.939 222.161 221.967 222.217 221.995L224.488 221.191C224.498 221.014 224.405 220.79 224.339 220.584C224.302 220.472 224.274 220.351 224.274 220.248C224.274 220.126 224.284 219.996 224.274 219.874C224.256 219.753 224.209 219.631 224.163 219.519C223.958 219.061 223.362 218.053 222.748 217.959C222.608 217.94 222.469 217.959 222.329 218.053C220.923 218.968 219.518 219.884 218.113 220.808C218.261 220.379 218.345 219.893 218.187 219.463C218.066 219.127 217.852 218.931 217.61 218.875C217.321 218.8 216.986 218.94 216.735 219.258C216.093 220.061 215.618 220.986 214.929 221.752C214.026 222.752 212.807 223.424 211.923 224.442C211.765 224.62 211.662 224.844 211.653 225.068C211.644 225.274 211.709 225.479 211.876 225.648H211.858Z" fill="black"/>
<path d="M211.858 225.648L219.453 222.976C220.048 222.677 220.635 222.369 221.231 222.07C221.482 221.948 221.77 221.817 222.031 221.911C222.105 221.939 222.161 221.967 222.217 221.995L224.488 221.191C224.498 221.014 224.404 220.79 224.339 220.584L211.634 225.059C211.625 225.264 211.69 225.47 211.858 225.638V225.648Z" fill="black"/>
<path d="M214.911 221.154C215.078 221.023 215.348 220.958 215.553 221.023C216.232 221.247 216.847 221.565 217.414 221.976C217.591 222.098 217.303 222.322 217.2 222.378C217.023 222.471 216.763 222.527 216.595 222.406C216.065 222.032 215.488 221.743 214.855 221.537C214.641 221.472 214.79 221.247 214.901 221.154H214.911Z" fill="black"/>
<path d="M233.023 167.859L233.135 168.419C233.358 169.531 233.479 170.913 232.558 171.558C231.851 172.053 230.901 171.848 230.045 171.829C228.37 171.782 226.778 172.52 225.14 172.875C221.826 173.595 218.401 172.754 215.115 171.913C212.295 171.194 209.391 170.437 207.036 168.718C205.445 167.56 204.114 165.85 203.62 163.916C202.969 161.338 204.17 160.002 206.264 158.61C208.851 156.891 212.035 156.125 215.097 155.91C218.857 155.639 222.645 155.696 226.396 156.088C230.036 156.471 231.004 157.741 231.73 161.375C232.158 163.533 232.595 165.701 233.023 167.859Z" fill="#2951C1"/>
<path d="M178.639 98.4299C182.222 100.504 186.336 102.12 188.197 97.2155C189.165 94.6558 189.398 90.0316 186.727 88.3407C185.926 87.8362 184.968 87.7055 184.037 87.5466C176.684 86.3042 169.731 82.7543 164.407 77.5135C163.662 76.7755 162.918 75.9908 161.95 75.5891C159.781 74.6829 156.98 76.4485 156.84 78.7933C156.747 80.3347 157.612 81.7734 158.562 82.9972C161.773 87.1543 166.176 90.1904 170.494 93.1518C173.166 94.9828 175.837 96.8138 178.639 98.4299Z" fill="#F7967C"/>
<path d="M175.046 85.2111C175.111 85.0803 175.167 84.9495 175.232 84.8188C175.25 84.772 175.278 84.7253 175.325 84.6973C175.371 84.6786 175.427 84.688 175.474 84.6973C175.818 84.7814 176.153 84.9215 176.479 85.0616C178.769 86.0519 181.133 87.0608 183.627 87.1449C184 87.1542 184.372 87.1449 184.735 87.2383C185.126 87.3317 185.48 87.5466 185.805 87.7801C186.113 88.0043 186.41 88.1538 186.727 88.35C189.398 90.0409 189.175 94.6651 188.197 97.2248C186.336 102.129 182.231 100.513 178.638 98.4392C176.656 97.2902 174.729 96.0383 172.821 94.7492C172.737 94.6931 172.858 93.843 172.858 93.7122C172.877 93.3666 172.896 93.0209 172.924 92.6753C173.035 91.2833 173.231 89.9007 173.612 88.5648C173.947 87.3784 174.506 86.3228 175.036 85.2298L175.046 85.2111Z" fill="#FF4650"/>
<path d="M146.713 56.0646C146.815 55.9898 146.927 55.9431 147.039 55.8871C147.467 55.7002 147.923 55.5508 148.388 55.5695C149.515 55.5975 150.12 56.3355 150.687 57.223C153.945 62.2863 157.212 67.3495 160.47 72.4128C161.177 73.5058 161.885 74.6082 162.341 75.8226C163.197 78.102 162.853 81.8855 159.744 82.0537C159.26 82.0817 158.776 81.9789 158.32 81.8014C156.942 81.2783 155.984 80.0825 155.276 78.8214C154.476 77.3921 153.843 75.8693 153.228 74.356C151.451 70.0213 149.989 65.6026 148.658 61.1092C148.454 60.4085 148.24 59.6892 147.802 59.1007C147.225 58.3346 145.764 57.4005 146.546 56.2514C146.592 56.1767 146.657 56.1206 146.722 56.0739L146.713 56.0646Z" fill="#F7967C"/>
<path d="M143.334 58.4561C142.013 58.0357 140.821 57.2136 139.974 56.1113C139.863 55.9618 139.695 55.6909 139.788 55.4947C139.863 55.3452 140.133 55.2331 140.254 55.3826C140.095 55.1771 140.002 54.9249 139.974 54.6726C139.974 54.5512 139.974 54.4204 140.058 54.327C140.142 54.2242 140.291 54.1962 140.421 54.2242C140.551 54.2522 140.663 54.3176 140.775 54.3924C141.017 54.5418 141.259 54.6913 141.501 54.8408C141.482 54.4671 141.501 53.9533 141.994 54.0094C142.218 54.0374 142.413 54.1868 142.581 54.3457C142.748 54.5045 142.906 54.6726 143.111 54.766C143.027 54.6353 143.092 54.4484 143.223 54.3643C143.353 54.2803 143.53 54.2989 143.67 54.3643C143.809 54.4297 143.93 54.5232 144.06 54.6259C144.6 55.0463 145.261 55.4387 145.941 55.5601C146.834 55.7189 147.653 55.4013 148.528 55.4293C149.18 55.4573 149.822 55.8123 150.157 56.3822C150.483 56.952 150.473 57.7087 150.092 58.2506C149.571 58.9792 148.724 58.8765 147.932 58.783C147.104 58.6896 146.276 58.8111 145.447 58.8017C144.768 58.8017 144.042 58.6709 143.39 58.4748C143.372 58.4748 143.353 58.4654 143.334 58.4561Z" fill="#F7967C"/>
<path d="M143.269 55.0089C143.874 55.7936 144.805 56.2046 145.736 56.4475C145.764 56.4475 145.782 56.4756 145.764 56.5036C145.745 56.5316 145.689 56.5223 145.661 56.5223C144.712 56.27 143.753 55.8496 143.139 55.0556C143.093 54.9995 143.232 54.9809 143.26 55.0182L143.269 55.0089Z" fill="#DB6357"/>
<path d="M141.65 55.0088C142.301 55.8683 143.204 56.5316 144.209 56.9052C144.293 56.9426 144.191 56.9893 144.135 56.9706C143.093 56.5876 142.18 55.9057 141.51 55.0275C141.482 54.9902 141.613 54.9621 141.65 55.0088Z" fill="#DB6357"/>
<path d="M140.533 55.5319C141.222 56.4194 142.143 57.1013 143.195 57.4937C143.288 57.5217 143.176 57.5778 143.12 57.5591C142.05 57.1667 141.11 56.4754 140.412 55.5693C140.365 55.5132 140.505 55.4852 140.533 55.5319Z" fill="#DB6357"/>
<path d="M179.346 180.61C179.42 181.068 179.569 181.507 179.886 181.853C182.092 184.347 190.45 186.038 191.39 181.47C193.838 169.475 195.281 156.891 195.578 144.607C195.644 141.907 195.541 138.918 193.717 136.946C192.46 135.592 190.59 134.966 188.765 134.686C184.465 134.004 181.812 134.639 181.347 139.319C180.035 152.585 179.672 165.925 179.299 179.246C179.29 179.695 179.281 180.171 179.355 180.629L179.346 180.61Z" fill="#9361C9"/>
<path d="M209.484 172.707C209.708 168.494 209.438 164.328 209.633 160.086C209.847 155.64 210.061 151.183 209.884 146.727C209.791 144.392 209.559 142.038 208.87 139.796C208.097 137.292 207.213 136.358 205.203 134.863C203.89 133.892 202.503 133.154 200.847 132.976C198.724 132.752 196.481 133.509 195.029 135.078C192.842 137.432 192.721 141.001 192.889 144.224C193.428 154.079 194.48 163.944 196.081 173.697C196.435 175.855 196.909 178.368 197.961 180.405C198.92 182.255 200.363 183.712 202.624 184.132C205.007 184.571 208.665 184.441 209.279 181.47C209.521 180.302 209.14 179.069 209.186 177.883C209.261 176.154 209.391 174.426 209.484 172.707Z" fill="#9361C9"/>
<path d="M181.319 144.018C181.682 144.523 182.296 144.233 182.79 144.42C183.534 144.709 184.372 144.551 185.182 144.523C186.727 144.476 188.235 144.915 189.743 145.27C192.684 145.971 195.709 146.354 198.743 146.41C201.303 146.456 204.123 146.643 206.636 146.223C207.52 146.073 208.479 145.802 208.972 145.083C209.27 144.663 209.363 144.14 209.428 143.635C209.587 142.402 209.642 141.141 209.605 139.88C209.475 135.909 208.33 132.032 206.738 128.352C206.115 126.894 205.417 125.474 204.691 124.083C203.9 122.569 203.071 121.691 201.424 121.046C200.418 120.654 199.367 120.458 198.306 120.308C197.477 120.187 196.742 119.897 195.904 119.776C193.112 119.365 190.264 119.542 187.453 119.832C185.014 120.075 183.925 121.131 183.348 123.382C183.181 124.017 183.106 124.662 183.032 125.316C182.92 126.287 182.799 127.249 182.687 128.221C182.278 131.649 181.878 135.078 181.468 138.506C181.291 139.973 181.124 141.449 181.096 142.934C181.096 143.317 181.096 143.719 181.328 144.027L181.319 144.018Z" fill="#9361C9"/>
<path d="M179.821 103.942C179.923 105.913 180.295 107.865 180.612 109.818C181.505 115.404 181.477 121.047 182.613 126.577C182.725 127.1 182.855 127.661 183.227 128.044C183.972 128.791 185.21 128.501 186.252 128.343C188.291 128.053 190.357 128.539 192.405 128.744C196.1 128.744 199.767 128.623 203.471 128.511C203.9 128.501 204.374 128.464 204.653 128.137C204.886 127.857 204.895 127.446 204.877 127.081C204.672 123.251 203.844 119.44 204.207 115.6C204.756 109.668 206.245 103.876 207.176 97.9908C207.53 95.7861 207.26 93.4039 205.407 91.8999C204.421 91.1058 203.229 90.6294 202.047 90.1623C201.089 89.7793 200.121 89.5084 199.153 89.2842C198.268 89.0787 197.384 88.9012 196.472 88.705C195.699 88.5368 194.918 88.3687 194.136 88.2659C191.213 87.8736 188.272 87.5746 185.321 87.2944C184.903 87.257 184.493 87.2196 184.074 87.1729C183.525 87.1169 182.976 87.0702 182.445 87.1823C181.905 87.3037 181.394 87.612 181.152 88.1071C180.826 88.8077 180.975 89.7513 180.77 90.4893C180.5 91.4702 180.556 92.5912 180.565 93.6001C180.63 97.122 179.625 100.41 179.811 103.932L179.821 103.942Z" fill="#FF4650"/>
<path d="M185.349 87.6867C185.387 87.9202 185.433 88.1538 185.48 88.3873C185.787 89.9848 186.178 91.5729 186.643 93.133C186.904 94.0018 187.164 94.8799 187.499 95.73C187.676 96.1784 187.9 97.0846 188.365 97.2994C188.812 97.505 189.64 97.0379 190.04 96.851C191.958 95.9262 193.754 94.7585 195.392 93.3852C196.211 92.7032 196.984 91.9652 197.71 91.1899C198.175 90.6854 198.873 89.9941 199.153 89.3028C198.268 89.0973 197.384 88.9198 196.472 88.7236C195.7 88.5555 194.918 88.3873 194.136 88.2845C191.213 87.8922 188.272 87.5932 185.321 87.313C185.303 87.4344 185.321 87.5746 185.34 87.7053L185.349 87.6867Z" fill="#F7967C"/>
<path d="M143.977 54.5417C144.209 54.7286 144.451 54.8967 144.712 55.0555C146.331 54.85 148.295 56.5035 147.15 58.2691C146.034 59.3341 144.991 60.726 145.028 62.3328C144.824 62.9588 145.475 63.4726 145.708 62.7439C145.605 61.0717 146.573 59.7919 147.728 58.6708C149.431 56.3914 146.294 53.4768 143.986 54.5324L143.977 54.5417Z" fill="#AF75E1"/>
<path d="M159.306 71.7121C159.586 71.7121 159.8 71.4412 159.725 71.1703C159.241 69.3019 157.947 67.7792 156.188 67.0038L145.708 62.3703C145.205 62.1367 144.842 62.9401 145.363 63.1643L155.844 67.7979C157.361 68.4705 158.478 69.7784 158.897 71.3945C158.943 71.5907 159.12 71.7215 159.316 71.7215L159.306 71.7121Z" fill="#AF75E1"/>
<path d="M130.89 71.1425C130.806 71.4227 131.011 71.6936 131.29 71.6936H131.327C131.514 71.675 131.653 71.5535 131.709 71.3667C131.932 70.5166 132.361 69.7412 132.919 69.1153C133.245 68.7509 133.608 68.4427 134.008 68.1811C134.231 68.041 134.492 67.9008 134.753 67.7794L134.79 67.7607L138.811 65.9951L145.242 63.1739C145.745 62.9496 145.401 62.1369 144.879 62.3798L138.308 65.2664L134.809 66.8078L134.408 66.9947C134.343 67.0134 134.306 67.032 134.25 67.0788C134.231 67.0974 134.213 67.0974 134.185 67.1161C133.785 67.303 133.394 67.5458 133.049 67.8261C133.012 67.8448 132.966 67.8635 132.947 67.9102C132.547 68.2371 132.174 68.6202 131.877 69.0499C131.597 69.4142 131.374 69.7972 131.188 70.227C131.067 70.5352 130.946 70.8342 130.862 71.1612L130.89 71.1425Z" fill="#AF75E1"/>
<path d="M142.767 82.9877C142.767 82.9877 142.794 83.0064 142.813 83.0064C143.139 83.1465 143.53 83.0811 143.846 82.9036C144.153 82.7261 144.405 82.4645 144.628 82.1843C145.093 81.6144 145.503 80.9979 145.894 80.3719C148.221 76.7193 150.25 72.8798 151.963 68.9095C152.232 68.2836 152.493 67.6483 152.577 66.9757C152.623 66.6394 152.614 66.2937 152.558 65.9574C152.54 65.8453 152.419 65.2101 152.307 65.2101C152.009 65.2007 151.73 65.3689 151.469 65.5184C151.06 65.7613 150.632 65.9668 150.194 66.1536C146.341 67.8071 141.761 67.7324 137.973 65.9574C137.796 65.8734 137.619 65.7893 137.424 65.7799C137.228 65.7706 137.014 65.8547 136.949 66.0322C136.81 66.3872 136.754 66.9664 136.838 67.3307C136.949 67.8071 137.107 68.2742 137.219 68.7413C137.312 69.1337 137.275 69.5167 137.396 69.8904C137.731 70.8713 138.085 71.8428 138.438 72.8144C139.146 74.7575 139.881 76.7006 140.626 78.6344C141.026 79.6806 141.426 80.7269 141.836 81.7639C142.022 82.2403 142.264 82.7168 142.757 82.9596L142.767 82.9877Z" fill="#171716"/>
<path d="M153.647 78.3075C153.787 79.3631 154.476 80.4 154.764 81.437C155.025 82.3712 155.248 83.324 155.453 84.2769C155.732 85.5381 155.984 86.7899 156.226 88.051C156.71 90.5266 157.194 93.0022 157.882 95.4405C158.404 97.2715 158.915 99.0931 159.465 100.924C159.79 102.064 159.93 103.4 160.721 104.353C160.842 104.474 160.945 104.577 161.066 104.661C161.326 104.885 161.633 104.988 161.996 105.109C162.583 105.268 163.579 105.175 164.016 105.642C164.547 106.193 164.723 107.566 164.965 108.286C165.031 108.491 165.086 108.669 165.152 108.874C165.757 110.658 166.39 112.471 166.995 114.274C167.274 115.105 168.651 114.619 169.303 114.479C170.215 114.274 172.458 113.582 172.542 112.489C172.579 111.779 172.058 110.742 171.835 110.07C171.732 109.762 171.63 109.463 171.527 109.154C171.509 109.089 171.49 109.052 171.462 108.996C171.323 108.594 171.183 108.183 171.062 107.781C170.839 107.09 170.68 106.361 170.41 105.67C170.41 105.651 170.392 105.604 170.392 105.586H170.373C170.355 105.464 170.271 105.343 170.215 105.221C170.057 104.876 169.908 104.511 170.029 104.166C170.15 103.764 170.68 103.615 170.997 103.334C171.546 102.83 171.425 101.952 171.22 101.242C170.839 99.9432 170.41 98.6821 169.964 97.4022C169.517 96.1037 169.052 94.7865 168.605 93.488C167.711 90.8443 166.864 88.2098 166.073 85.5661C165.347 83.1466 164.835 80.2225 164.109 77.3826C163.765 76.0467 163.383 74.7389 162.899 73.5057C162.108 71.4786 161.056 69.6289 159.558 68.2463C158.85 67.5737 158.143 67.3121 157.519 67.3308C157.361 67.3308 157.194 67.3494 157.035 67.3962C156.43 67.583 155.863 68.0034 155.416 68.5732C154.764 69.386 154.327 70.4603 154.178 71.4599C153.871 73.5524 153.331 76.2522 153.647 78.3261V78.3075Z" fill="#F95F2D"/>
<path d="M120 113.713C120.14 114.787 122.383 115.376 123.314 115.544C123.984 115.647 125.38 116.077 125.622 115.217C126.152 113.386 126.674 111.564 127.204 109.733C127.269 109.547 127.307 109.35 127.362 109.164C127.586 108.435 127.688 107.034 128.191 106.464C128.619 105.978 129.606 106.034 130.173 105.838C130.536 105.716 130.843 105.595 131.085 105.371C131.206 105.268 131.309 105.165 131.411 105.025C132.184 104.054 132.24 102.708 132.528 101.55C132.994 99.7003 133.394 97.8319 133.841 95.9916C134.464 93.3478 134.827 90.6761 135.237 87.9949C135.423 86.6964 135.618 85.3979 135.86 84.1181C135.981 83.3707 136.14 82.614 136.307 81.8667C136.549 80.811 137.173 79.7554 137.275 78.6998C137.498 76.6072 136.828 73.9261 136.428 71.8615C136.186 70.6004 135.441 69.1991 134.446 68.4517C134.306 68.349 134.166 68.2649 134.017 68.1902C133.692 68.0033 133.329 67.9286 132.966 67.9099H132.9C132.333 67.9099 131.746 68.1528 131.141 68.6853L131.123 68.704C131.058 68.7694 130.983 68.8441 130.899 68.9095C129.317 70.535 128.312 72.6462 127.623 74.9817C127.539 75.2059 127.465 75.4488 127.4 75.6917C127.213 76.3456 127.037 77.0276 126.897 77.7002C126.897 77.7376 126.878 77.7843 126.878 77.8216C126.208 80.8297 125.845 83.9499 125.203 86.5096C124.533 89.2094 123.807 91.8905 123.034 94.5529C122.653 95.8701 122.262 97.2154 121.862 98.5512C121.48 99.8311 121.117 101.111 120.791 102.428C120.633 103.138 120.549 104.016 121.117 104.502C121.461 104.782 121.983 104.885 122.131 105.296C122.318 105.801 121.945 106.352 121.806 106.819C121.582 107.51 121.443 108.239 121.257 108.949C121.052 109.724 120.81 110.49 120.586 111.284C120.4 111.957 119.916 113.012 120 113.741V113.713Z" fill="#F95F2D"/>
<path d="M123.611 166.934C123.695 167.242 124.458 167.504 125.389 167.728C126.804 168.073 128.628 168.279 129.094 168.335C129.336 168.354 129.578 168.4 129.82 168.438C131.151 168.625 132.249 168.84 133.599 169.269C136.856 170.269 140.254 170.689 143.614 171.072C145.317 171.278 146.834 171.539 148.547 171.352C150.287 171.194 152.009 170.82 153.722 170.521C156.356 170.054 158.981 169.503 161.494 168.615C161.94 168.428 162.359 168.307 162.787 168.186C163.802 167.877 164.77 167.681 165.961 167.476C166.148 167.438 166.529 167.373 166.995 167.289C168.577 166.98 171.239 166.42 171.388 165.803C171.872 163.73 171.388 161.581 170.922 159.507C169.061 151.426 167.32 143.327 165.766 135.181C164.9 130.575 164.063 125.942 163.337 121.317C163.132 120.038 162.936 118.776 162.732 117.497C162.108 113.237 161.54 108.949 161.056 104.642C160.833 102.615 160.609 100.578 160.433 98.5513C159.865 92.423 159.483 86.2667 159.344 80.1198C159.26 77.037 159.139 73.9261 159.278 70.862C159.297 70.3575 159.297 69.9465 159.297 69.6195C159.418 69.3112 159.502 69.031 159.455 68.8255C159.372 68.1996 158.338 67.6857 157.51 67.3027C157.426 67.2654 157.324 67.2187 157.249 67.1813C157.212 67.1626 157.166 67.1439 157.11 67.0972C157.007 67.0318 156.905 66.9758 156.784 66.9104C155.872 66.4059 154.96 65.9201 154.075 65.3876C153.889 65.2662 153.731 65.1634 153.591 65.042C153.573 65.0233 153.526 65.0046 153.508 64.9766C153.145 64.715 152.735 64.5095 152.316 64.3694L151.87 65.0607L147.355 72.2726C146.425 73.7299 144.284 73.7953 143.288 72.3754L138.839 65.9575L138.56 65.5278L138.336 65.2195L137.889 64.5936C137.629 64.6777 137.387 64.7991 137.163 64.9579C136.372 65.5278 135.609 66.1163 134.799 66.6675C134.613 66.7889 134.455 66.9104 134.269 67.0318C134.25 67.0505 134.231 67.0505 134.204 67.0692C134.017 67.1906 133.822 67.3121 133.617 67.4522C133.459 67.555 133.291 67.639 133.152 67.7325C133.133 67.7511 133.087 67.7511 133.068 67.7698C133.003 67.7885 132.966 67.8352 132.91 67.8539C132.389 68.1155 131.793 68.4424 131.411 68.8068L131.393 68.8255C131.188 69.031 131.048 69.2272 131.03 69.4514C131.011 69.6569 131.095 69.8998 131.216 70.1613C131.234 70.18 131.234 70.2267 131.253 70.2454C131.253 70.5724 131.272 70.9741 131.318 71.4879C131.318 71.5533 131.337 71.5907 131.337 71.6467C131.616 74.6548 131.644 77.7189 131.7 80.7177C131.821 86.8926 131.718 93.0396 131.439 99.1959C131.355 101.242 131.234 103.278 131.095 105.324C130.425 115.6 129.252 125.848 127.8 136.04C127.493 138.133 127.195 140.225 126.869 142.318C126.664 143.598 126.469 144.896 126.264 146.176C125.473 150.987 124.645 155.78 123.779 160.572C123.416 162.665 123.034 164.832 123.621 166.887L123.611 166.934Z" fill="#F95F2D"/>
<path d="M159.185 78.4476C159.185 78.3168 159.567 78.3074 159.567 78.4476C159.567 81.792 159.632 85.1364 159.781 88.4714C159.93 91.7971 160.144 95.1135 160.433 98.4298C160.637 100.756 160.824 102.466 160.991 103.998C161 104.119 160.628 104.138 160.61 103.998C160.237 100.672 159.93 97.3462 159.707 94.0111C159.483 90.6948 159.325 87.3691 159.251 84.0434C159.204 82.175 159.185 80.3066 159.185 78.4476Z" fill="#171716"/>
<path d="M131.57 95.3751C131.709 92.2269 131.793 89.088 131.812 85.9398C131.821 84.1555 131.812 82.3712 131.793 80.5963C131.793 80.4655 132.165 80.4561 132.175 80.5963C132.221 83.7631 132.212 86.9207 132.137 90.0876C132.072 92.7781 131.979 95.4592 131.858 98.1403C131.793 99.4855 131.728 100.831 131.653 102.167C131.616 102.839 131.57 103.503 131.532 104.175C131.532 104.371 131.523 105.221 131.048 104.941C130.788 104.782 131.104 103.045 131.132 102.699C131.197 101.868 131.253 101.046 131.309 100.214C131.411 98.6074 131.504 97.0006 131.579 95.3938L131.57 95.3751Z" fill="#171716"/>
<path d="M143.567 118.515C143.846 118.3 144.265 118.272 144.6 118.356C144.619 118.356 144.647 118.375 144.675 118.384C145.68 118.319 146.629 118.888 146.927 119.879C147.225 120.878 146.769 121.719 145.792 122.093C144.758 122.485 143.372 122.289 142.785 121.28C142.189 120.252 142.692 119.187 143.576 118.515H143.567Z" fill="white"/>
<path d="M151.497 106.249C151.776 106.034 152.195 106.006 152.53 106.09C152.549 106.09 152.577 106.109 152.605 106.118C153.61 106.053 154.559 106.623 154.857 107.613C155.155 108.612 154.699 109.453 153.722 109.827C152.689 110.219 151.302 110.023 150.715 109.014C150.12 107.986 150.622 106.922 151.507 106.249H151.497Z" fill="white"/>
<path d="M134.622 106.193C134.902 105.978 135.32 105.95 135.655 106.034C135.674 106.034 135.702 106.053 135.73 106.062C136.735 105.997 137.685 106.567 137.982 107.557C138.28 108.556 137.368 109.855 136.381 110.238C135.348 110.63 134.418 109.976 133.84 108.968C133.245 107.94 133.747 106.875 134.632 106.202L134.622 106.193Z" fill="white"/>
<path d="M168.056 108.622C168.381 109.173 168.968 109.491 169.591 109.575C170.075 109.659 171.006 109.659 171.388 109.294C171.425 109.257 171.472 109.21 171.509 109.154C171.49 109.089 171.472 109.052 171.444 108.995C171.304 108.594 171.164 108.183 171.043 107.781C170.82 107.09 170.662 106.361 170.392 105.67C170.392 105.651 170.373 105.604 170.373 105.586H170.355C170.234 105.586 170.113 105.586 169.973 105.604C169.61 105.623 169.145 105.623 168.837 105.847C167.944 106.539 167.441 107.594 168.046 108.631L168.056 108.622Z" fill="white"/>
<path d="M144.582 142.056C144.861 141.841 145.28 141.813 145.615 141.897C145.633 141.897 145.661 141.916 145.689 141.925C146.694 141.86 147.644 142.43 147.942 143.42C148.239 144.42 147.783 145.261 146.806 145.634C145.773 146.027 144.386 145.83 143.8 144.821C143.204 143.794 143.707 142.729 144.591 142.056H144.582Z" fill="white"/>
<path d="M152.512 129.79C152.791 129.576 153.21 129.548 153.545 129.632C153.563 129.632 153.591 129.65 153.619 129.66C154.625 129.594 155.574 130.164 155.872 131.154C156.17 132.154 155.714 132.995 154.736 133.368C153.703 133.761 152.316 133.565 151.73 132.556C151.134 131.528 151.637 130.463 152.521 129.79H152.512Z" fill="white"/>
<path d="M135.181 130.192C135.46 129.977 135.879 129.949 136.214 130.033C136.233 130.033 136.261 130.052 136.288 130.061C137.294 129.996 138.243 130.566 138.541 131.556C138.839 132.556 138.383 133.397 137.405 133.77C136.372 134.163 134.985 133.966 134.399 132.957C133.924 132.126 132.966 131.892 135.19 130.192H135.181Z" fill="white"/>
<path d="M145.391 165.794C145.671 165.579 146.089 165.551 146.425 165.635C146.443 165.635 146.471 165.654 146.499 165.663C147.504 165.598 148.454 166.168 148.751 167.158C149.049 168.158 148.593 168.998 147.616 169.372C146.583 169.764 145.196 169.568 144.61 168.559C144.014 167.532 144.516 166.467 145.401 165.794H145.391Z" fill="white"/>
<path d="M162.75 141.636C163.029 141.421 163.448 141.393 163.783 141.477C163.802 141.477 163.83 141.496 163.858 141.505C164.863 141.44 165.812 142.01 166.11 143C166.408 143.999 165.952 144.84 164.975 145.214C163.942 145.606 162.555 145.41 161.968 144.401C161.373 143.373 161.875 142.308 162.76 141.636H162.75Z" fill="white"/>
<path d="M162.769 168.139C162.769 168.139 162.787 168.167 162.787 168.176C163.811 167.877 164.779 167.672 165.971 167.466C166.148 167.438 166.52 167.373 166.995 167.289C166.995 167.111 166.967 166.924 166.911 166.738C166.622 165.747 165.664 165.177 164.658 165.243C164.63 165.234 164.612 165.224 164.584 165.215C164.249 165.121 163.83 165.159 163.551 165.374C162.666 166.046 162.164 167.111 162.76 168.139H162.769Z" fill="white"/>
<path d="M160.647 120.421C161.168 121.327 162.35 121.579 163.337 121.336C163.132 120.066 162.936 118.795 162.75 117.515C162.685 117.515 162.62 117.515 162.545 117.515C162.517 117.506 162.499 117.497 162.471 117.487C162.136 117.394 161.717 117.431 161.438 117.646C160.554 118.319 160.051 119.384 160.647 120.411V120.421Z" fill="white"/>
<path d="M126.245 146.223C126.757 146.316 126.85 146.718 127.334 146.54C128.321 146.167 129.224 144.859 128.935 143.869C128.665 142.934 127.8 142.374 126.86 142.365C126.664 143.654 126.459 144.943 126.245 146.223Z" fill="white"/>
<path d="M125.38 167.728C126.804 168.055 128.628 168.27 129.084 168.326C129.336 168.354 129.587 168.391 129.82 168.419C129.857 168.167 129.829 167.887 129.745 167.597C129.457 166.607 128.498 166.037 127.493 166.102C127.465 166.093 127.446 166.084 127.418 166.074C127.083 165.981 126.664 166.018 126.385 166.233C125.873 166.625 125.491 167.149 125.37 167.718L125.38 167.728Z" fill="white"/>
<path d="M154.28 153.771C154.559 153.556 154.978 153.528 155.313 153.612C155.332 153.612 155.36 153.631 155.388 153.64C156.393 153.575 157.342 154.145 157.64 155.135C157.938 156.135 157.482 156.975 156.505 157.349C155.472 157.741 154.075 157.545 153.498 156.536C152.903 155.509 153.405 154.444 154.289 153.771H154.28Z" fill="white"/>
<path d="M134.297 154.687C134.576 154.472 134.995 154.444 135.33 154.528C135.348 154.528 135.376 154.547 135.404 154.556C136.409 154.49 137.359 155.06 137.657 156.051C137.954 157.05 137.498 157.891 136.521 158.265C135.488 158.657 134.101 158.461 133.515 157.452C132.919 156.424 133.422 155.359 134.306 154.687H134.297Z" fill="white"/>
<path d="M143.818 95.1508C144.758 94.5996 145.968 94.4408 146.713 95.3937C147.02 95.786 147.169 96.2811 147.188 96.7763C147.197 97.0285 147.188 97.2807 147.104 97.5143C146.545 99.1491 143.79 99.2332 142.971 97.8039C142.301 96.6361 142.897 95.6833 143.828 95.1414L143.818 95.1508Z" fill="white"/>
<path d="M125.631 94.5809C125.91 94.3661 126.329 94.338 126.664 94.4221C126.683 94.4221 126.711 94.4408 126.739 94.4501C127.744 94.3848 128.693 94.9546 128.991 95.9448C129.289 96.9444 128.833 97.7852 127.856 98.1589C126.822 98.5512 125.436 98.3551 124.849 97.3461C124.254 96.3185 124.756 95.2535 125.64 94.5809H125.631Z" fill="white"/>
<path d="M162.648 93.7216C162.927 93.5067 163.346 93.4787 163.681 93.5627C163.7 93.5627 163.728 93.5814 163.755 93.5908C164.761 93.5254 165.71 94.0952 166.008 95.0855C166.306 96.0851 165.85 96.9258 164.872 97.2995C163.839 97.6919 162.452 97.4957 161.866 96.4868C161.27 95.4591 161.773 94.3942 162.657 93.7216H162.648Z" fill="white"/>
<path d="M153.694 84.8842C153.973 84.6693 154.392 84.6413 154.727 84.7253C154.746 84.7253 154.774 84.744 154.801 84.7534C155.807 84.688 156.756 85.2578 157.054 86.2481C157.352 87.2476 156.896 88.0884 155.918 88.4621C154.885 88.8545 153.498 88.6583 152.912 87.6493C152.316 86.6217 152.819 85.5568 153.703 84.8842H153.694Z" fill="white"/>
<path d="M152.819 67.4335C152.847 67.4989 152.875 67.5549 152.912 67.6203C153.228 68.1808 153.824 68.4984 154.448 68.5919C155.043 68.6853 155.406 68.5171 155.909 68.2275C156.067 68.1341 157.38 67.284 157.119 67.1345C157.017 67.0785 156.905 67.0131 156.793 66.9477C155.89 66.4432 154.978 65.9388 154.085 65.4156C153.899 65.3035 153.74 65.1914 153.601 65.0793C153.573 65.0606 153.545 65.0326 153.508 65.0139C153.322 65.1821 153.163 65.3596 153.033 65.5557C152.661 66.1069 152.53 66.7702 152.828 67.4241L152.819 67.4335Z" fill="white"/>
<path d="M131.151 68.6666C131.188 68.7507 131.29 68.8254 131.393 68.8721C131.532 68.9749 131.718 69.0123 131.895 69.031C131.96 69.0683 132.035 69.0683 132.1 69.0964C132.361 69.1337 132.649 69.1617 132.928 69.115C133.17 69.0964 133.431 69.031 133.654 68.9562C133.98 68.8348 134.241 68.6479 134.445 68.4518C134.604 68.2649 134.753 68.022 134.808 67.7605C134.929 67.4335 134.948 67.0879 134.827 66.8076C134.827 66.7702 134.827 66.7422 134.808 66.7235C134.808 66.7235 134.808 66.7048 134.79 66.7048C134.604 66.8263 134.445 66.9477 134.259 67.0692C134.241 67.0879 134.222 67.0879 134.194 67.1065C133.794 67.2934 133.403 67.5363 133.059 67.8165C132.993 67.8352 132.956 67.8819 132.9 67.9006C132.333 67.9006 131.746 68.1435 131.141 68.676L131.151 68.6666Z" fill="white"/>
<path d="M133.701 84.6785C133.98 84.4636 134.855 83.9685 135.19 84.0619C135.209 84.0619 135.237 84.0806 135.265 84.0899C136.27 84.0245 137.219 84.5944 137.517 85.5846C137.815 86.5842 137.359 87.425 136.381 87.7986C135.348 88.191 133.961 87.9948 133.375 86.9859C132.779 85.9583 132.826 85.3604 133.71 84.6785H133.701Z" fill="white"/>
<path d="M144.256 74.0475C144.535 73.8326 144.954 73.8046 145.289 73.8887C145.308 73.8887 145.335 73.9074 145.363 73.9167C146.369 73.8513 147.318 74.4212 147.616 75.4114C147.914 76.411 147.458 77.2517 146.48 77.6254C145.447 78.0178 143.595 78.2794 143.018 77.2704C142.422 76.2428 143.381 74.7201 144.265 74.0475H144.256Z" fill="white"/>
<path d="M161.401 76.8408C161.847 77.6162 163.234 77.448 164.109 77.3733C163.765 76.0467 163.383 74.7295 162.89 73.4871C162.806 73.5151 162.722 73.5618 162.648 73.6178C161.764 74.2905 160.805 75.8132 161.401 76.8408Z" fill="white"/>
<path d="M126.906 77.6814C127.474 77.1956 127.874 75.9718 127.772 75.3646C127.753 75.2245 127.688 75.0843 127.632 74.9629C127.548 75.1871 127.474 75.43 127.409 75.6729C127.223 76.3268 127.046 77.0088 126.906 77.6814Z" fill="white"/>
<path d="M129.857 73.2534L127.325 79.4751L131.579 81.222L134.111 75.0004C134.501 74.0475 133.999 72.9732 133.04 72.6369C133.31 71.7214 134.902 69.0309 134.455 68.3396C133.561 68.5078 132.752 71.4318 132.175 72.2819C131.262 71.9082 130.229 72.3473 129.857 73.2534ZM132.798 72.5341L132.407 72.3753C133.04 71.1235 133.533 69.7969 134.287 68.6199C134.176 69.4513 133.72 70.2267 133.45 71.0114C133.245 71.5252 133.022 72.0296 132.798 72.5341Z" fill="#FF4650"/>
<path d="M201.117 98.8969C203.202 104.848 205.845 110.565 207.595 116.628C208.339 119.655 210.443 124.307 214.278 122.812C218.01 120.981 213.459 110.173 212.807 106.837C211.485 102.456 210.434 97.8693 207.893 94.0111C206.673 91.9091 203.472 90.0595 201.563 92.2828C200.298 94.2259 200.53 96.7202 201.107 98.8875L201.117 98.8969Z" fill="#F7967C"/>
<path d="M201.573 92.2921C203.481 90.0781 206.683 91.9184 207.902 94.0203C210.443 97.8785 211.495 102.475 212.816 106.847C212.882 107.183 212.993 107.603 213.124 108.089C212.649 108.183 212.165 108.276 211.681 108.36C209.484 108.734 207.269 108.986 205.044 109.201C203.732 105.772 202.327 102.381 201.117 98.9061C200.54 96.7295 200.307 94.2352 201.573 92.3014V92.2921Z" fill="#FF4650"/>
<path d="M190.366 120.542C190.096 119.599 191.167 119.421 191.902 119.337C198.371 119.001 204.626 116.861 211.076 116.749C217.47 117.59 216.977 124.419 210.508 124.428C205.771 124.475 201.042 123.774 196.37 123.074C194.555 122.784 190.971 122.7 190.366 120.542Z" fill="#F7967C"/>
<path d="M190.469 117.338C190.068 117.104 186.922 115.581 187.797 117.011C188.086 117.45 189.752 118.197 189.156 118.86C187.565 119.645 185.796 118.832 184.186 118.459C183.73 118.281 183.413 118.674 183.795 119.019C183.237 118.87 182.334 118.748 182.492 119.627C182.78 121.121 184.521 121.467 185.684 122.055C187.63 122.709 193.633 123.597 193.866 120.626C193.754 119.982 193.112 119.655 192.665 119.272C192.014 118.524 191.381 117.768 190.459 117.338H190.469Z" fill="#F7967C"/>
<path d="M184.056 119.337C185.173 119.879 186.997 119.954 187.872 120.215C186.541 120.14 185.238 119.86 183.99 119.402C183.907 119.374 184.009 119.318 184.065 119.337H184.056Z" fill="#DB6357"/>
<path d="M182.883 119.813C184.121 120.608 185.573 120.935 186.997 121.243C187.09 121.261 187.025 121.336 186.96 121.318C185.833 121.075 184.698 120.822 183.655 120.346C183.525 120.281 182.501 119.823 182.892 119.813H182.883Z" fill="#DB6357"/>
<path d="M223.111 129.912L229.933 133.172L232.167 128.473L225.345 125.213C224.302 124.709 223.064 125.213 222.627 126.278C221.64 125.923 218.671 123.924 217.898 124.41C218.001 125.409 221.268 126.549 222.171 127.24C221.696 128.24 222.115 129.445 223.12 129.921L223.111 129.912ZM222.496 126.54L222.292 126.969C220.933 126.175 219.471 125.531 218.196 124.606C219.118 124.793 219.955 125.344 220.83 125.708C221.389 125.979 221.947 126.259 222.496 126.54Z" fill="#FF4650"/>
<path d="M212.528 117.515C213.794 118.15 214.864 119.122 215.851 120.14C222.422 126.941 225.922 136.087 228.844 145.092C230.203 149.287 231.478 153.5 232.66 157.751C233.163 159.544 233.647 161.347 233.824 163.197C233.898 163.982 233.908 164.832 233.461 165.486C233.117 165.981 232.567 166.28 232.009 166.495C228.984 167.653 225.428 166.756 222.506 168.148C221.203 168.765 220.132 169.792 218.857 170.446C215.041 172.399 210.434 170.708 206.171 171.044C203.611 171.25 201.117 172.203 198.557 172.072C198.203 172.053 197.831 172.006 197.561 171.773C197.254 171.502 197.161 171.072 197.096 170.661C196.686 168.204 196.379 165.738 196.165 163.262C195.783 158.862 195.718 154.444 195.337 150.044C194.918 145.148 194.229 140.403 193.326 135.573C192.377 130.519 191.53 125.362 192.098 120.215C192.367 117.73 194.024 117.179 196.239 116.805C198.929 116.348 201.778 115.768 204.486 116.273C207.176 116.768 209.987 116.273 212.519 117.525L212.528 117.515Z" fill="#3A60E5"/>
<path d="M205.007 116.497C206.04 117.375 207.083 118.244 208.042 119.215C208.982 120.168 209.81 121.215 210.508 122.364C211.216 123.531 211.802 124.764 212.379 125.998C212.965 127.277 213.533 128.567 214.082 129.865C215.162 132.453 216.149 135.078 217.042 137.731C217.926 140.375 218.727 143.046 219.425 145.746C220.123 148.465 220.728 151.202 221.24 153.958C221.305 154.294 221.361 154.64 221.426 154.976C221.445 155.097 221.072 155.116 221.044 154.976C220.57 152.23 219.993 149.492 219.313 146.783C218.643 144.074 217.861 141.384 216.996 138.731C216.13 136.087 215.171 133.48 214.129 130.902C213.598 129.613 213.049 128.324 212.481 127.053C211.914 125.801 211.346 124.55 210.694 123.344C210.043 122.149 209.298 121.018 208.386 120.009C207.483 119.01 206.478 118.113 205.454 117.235C205.203 117.02 204.942 116.805 204.691 116.59C204.561 116.478 204.924 116.413 205.017 116.488L205.007 116.497Z" fill="#2951C1"/>
<path d="M204.132 134.704C205.203 138.553 206.134 142.449 206.925 146.372C207.725 150.305 208.377 154.266 208.889 158.255C209.177 160.488 209.419 162.739 209.624 164.981C209.633 165.112 209.252 165.121 209.242 164.981C208.889 161.011 208.395 157.041 207.762 153.108C207.129 149.166 206.357 145.251 205.445 141.365C204.924 139.151 204.365 136.956 203.76 134.77C203.723 134.62 204.095 134.602 204.132 134.714V134.704Z" fill="#2951C1"/>
<path d="M170.662 186.505C170.662 186.309 170.68 186.122 170.69 185.926C170.755 184.468 170.82 183.011 170.895 181.554C170.978 179.798 171.062 178.032 171.146 176.257C171.174 175.659 171.202 175.061 171.23 174.463C171.518 168.045 171.751 161.581 171.788 155.2L171.76 159.778C171.807 158.087 171.844 156.387 171.89 154.696C171.928 153.239 171.965 151.772 172.002 150.315C172.095 146.709 172.188 143.093 172.291 139.487C172.309 138.88 172.328 138.264 172.337 137.647C172.402 135.199 172.477 132.752 172.542 130.314C172.57 129.473 172.458 128.408 172.868 127.745C172.989 127.548 173.147 127.39 173.37 127.287C173.761 127.1 174.72 127.287 175.157 127.287H202.047C202.103 127.287 202.187 128.277 202.299 130.033C202.476 132.967 202.708 138.049 202.969 144.27C202.997 144.99 203.025 145.737 203.062 146.484C203.202 149.819 203.341 153.416 203.49 157.153C203.518 157.788 203.537 158.433 203.565 159.077C203.788 164.692 204.011 170.558 204.225 176.21C204.281 177.649 204.337 179.069 204.384 180.47C204.458 182.525 204.542 184.543 204.616 186.486H170.662V186.505Z" fill="white"/>
<path d="M182.594 179.966C184.558 181.797 185.75 184.123 186.857 186.514H184.167C183.339 184.739 182.436 183.002 181.142 181.507C179.439 179.527 177.121 178.471 174.711 177.621C173.51 177.191 172.309 176.771 171.146 176.285C171.174 175.687 171.202 175.089 171.23 174.491C172.477 175.173 173.799 175.697 175.176 176.182C177.81 177.107 180.528 178.051 182.594 179.984V179.966Z" fill="#F7984B"/>
<path d="M170.662 186.505C170.662 186.309 170.68 186.122 170.69 185.926C171.22 186.103 171.751 186.299 172.263 186.505H170.662Z" fill="#F7984B"/>
<path d="M180.388 166.336C183.516 169.073 187.807 170.007 191.241 172.296C193.14 173.557 194.536 175.257 195.56 177.275C196.677 179.461 197.57 181.741 198.808 183.871C199.33 184.777 199.897 185.646 200.493 186.505H197.682C197.561 186.318 197.431 186.141 197.31 185.954C195.997 183.945 194.918 181.834 193.95 179.657C193.01 177.555 192.014 175.463 190.217 173.931C188.7 172.632 186.867 171.764 185.052 170.941C183.144 170.073 181.217 169.232 179.467 168.064C177.68 166.868 176.265 165.271 175.269 163.375C174.236 161.431 173.603 159.32 172.877 157.256C172.579 156.396 172.254 155.546 171.891 154.715C171.928 153.257 171.965 151.791 172.002 150.333C173.101 151.66 173.957 153.154 174.627 154.761C176.265 158.704 177.01 163.403 180.388 166.364V166.336Z" fill="#F7984B"/>
<path d="M200.996 175.323C200.391 174.024 200.056 172.632 199.553 171.297C198.641 168.877 197.04 166.784 194.908 165.29C192.721 163.758 190.096 162.973 187.89 161.46C185.573 159.862 184.084 157.424 182.743 155.023C181.301 152.445 180.063 149.773 178.927 147.045C178.434 145.849 177.922 144.644 177.233 143.542C176.544 142.43 175.66 141.505 174.58 140.767C173.864 140.272 173.082 139.871 172.291 139.497C172.309 138.89 172.328 138.273 172.337 137.656C173.352 138.161 174.376 138.637 175.372 139.179C176.535 139.814 177.661 140.562 178.555 141.543C179.458 142.542 180.137 143.682 180.714 144.896C181.291 146.12 181.766 147.381 182.306 148.615C182.92 150.016 183.581 151.398 184.279 152.753C185.536 155.182 186.848 157.807 188.858 159.722C190.794 161.562 193.391 162.394 195.69 163.683C198.017 164.981 199.981 166.831 201.284 169.157C201.964 170.372 202.364 171.68 202.801 172.987C203.174 174.118 203.63 175.201 204.225 176.229C204.281 177.668 204.337 179.088 204.384 180.489C203.909 179.826 203.416 179.181 202.95 178.527C202.215 177.509 201.526 176.463 200.996 175.332V175.323Z" fill="#F7984B"/>
<path d="M192.321 149.399C190.878 146.821 189.64 144.149 188.505 141.421C188.002 140.225 187.499 139.02 186.811 137.918C186.122 136.806 185.238 135.881 184.158 135.143C183.116 134.424 181.933 133.91 180.789 133.368C179.588 132.799 178.424 132.201 177.308 131.481C175.679 130.435 174.189 129.174 172.877 127.745C172.998 127.548 173.156 127.39 173.38 127.287C173.771 127.1 174.729 127.287 175.167 127.287H175.381C176.284 128.258 177.27 129.146 178.331 129.94C180.379 131.463 182.734 132.35 184.958 133.565C186.122 134.2 187.248 134.947 188.142 135.928C189.045 136.928 189.724 138.067 190.301 139.282C190.878 140.506 191.353 141.767 191.893 143C192.507 144.401 193.168 145.784 193.866 147.138C195.122 149.567 196.435 152.192 198.445 154.107C199.897 155.49 201.712 156.303 203.499 157.162C203.527 157.797 203.546 158.442 203.574 159.087C201.591 157.91 199.376 157.153 197.468 155.836C195.15 154.238 193.661 151.8 192.321 149.399Z" fill="#F7984B"/>
<path d="M197.84 140.702C196.789 138.301 196.221 135.704 194.983 133.387C193.866 131.304 192.135 129.688 190.078 128.511C189.268 128.044 188.43 127.642 187.583 127.287H191.427C193.447 128.361 195.262 129.725 196.64 131.603C198.259 133.807 198.939 136.489 199.869 139.011C200.567 140.907 201.48 142.869 202.978 144.28C203.006 144.999 203.034 145.746 203.071 146.494C202.848 146.4 202.634 146.298 202.42 146.185C200.242 145.008 198.808 142.916 197.85 140.702H197.84Z" fill="#F7984B"/>
<path d="M202.047 127.287C202.103 127.287 202.187 128.277 202.299 130.033C201.619 129.062 200.865 128.146 200.046 127.287H202.057H202.047Z" fill="#F7984B"/>
<path d="M174.832 127.203H200.661C201.005 127.203 201.293 126.923 201.293 126.568C201.293 126.222 201.014 125.932 200.661 125.932H174.832C174.487 125.932 174.199 126.213 174.199 126.568C174.199 126.913 174.478 127.203 174.832 127.203Z" fill="#9361C9"/>
<path d="M192.916 128.053H197.598C197.663 128.053 197.719 127.997 197.719 127.932C197.654 127.866 197.868 124.849 197.598 124.952H192.916C192.851 124.952 192.795 125.008 192.795 125.073C192.861 125.138 192.646 128.156 192.916 128.053Z" fill="#AF75E1"/>
<path d="M177.894 128.053H182.576C182.641 128.053 182.697 127.997 182.697 127.932C182.631 127.866 182.846 124.849 182.576 124.952H177.894C177.829 124.952 177.773 125.008 177.773 125.073C177.838 125.138 177.624 128.156 177.894 128.053Z" fill="#AF75E1"/>
<path d="M189.147 120.206C190.217 122.018 186.82 123.251 186.857 125.932C186.708 127.231 187.732 127.025 187.62 125.867C187.593 125.204 188.114 123.653 189.566 122.438C191.483 119.879 187.304 116.675 185.191 118.739C185.498 118.823 185.805 118.907 186.113 118.973C187.146 118.524 188.663 119.113 189.138 120.196L189.147 120.206Z" fill="#9361C9"/>
<path d="M179.858 98.2057C180.398 96.3373 180.23 94.3662 180.556 92.4698C180.584 92.3297 180.956 92.3484 180.938 92.4698C180.602 94.3849 180.77 96.3747 180.221 98.2524C180.184 98.3739 179.811 98.3458 179.849 98.1964L179.858 98.2057Z" fill="#F7984B"/>
<path d="M183.851 76.9154C184.046 77.3919 184.279 77.859 184.512 78.3167C185.899 80.9978 191.66 87.2475 194.88 83.6509C195.513 82.9409 195.793 81.9787 195.932 81.0352C196.602 76.4764 194.238 72.478 191.046 69.4139C189.743 68.1714 188.002 68.4517 186.448 68.9468C184.661 69.5167 183.479 71.0394 183.19 72.8891C182.976 74.2904 183.302 75.6449 183.832 76.9154H183.851Z" fill="#4C4554"/>
<path d="M191.316 91.984C190.934 91.9186 190.562 91.8532 190.189 91.8065C189.808 91.7598 189.408 91.7224 189.063 91.5449C188.058 91.0031 188.551 88.9012 188.486 87.9483C188.468 87.6868 188.449 87.4158 188.44 87.1449C188.384 86.2855 188.328 85.4167 188.272 84.5572C188.272 84.4078 188.253 84.2489 188.244 84.0995C188.244 84.0995 188.244 84.0995 188.244 84.0901C188.244 83.9687 188.244 83.8566 188.244 83.7538C188.356 82.7169 189.37 82.4179 190.264 82.0349C191.055 81.6986 191.93 81.5678 192.777 81.6239C193.335 81.6612 193.81 81.8387 194.369 81.7827C195.299 81.6893 195.653 84.2303 195.755 84.8375C196.072 86.7619 196.696 88.4528 197.459 90.2464C197.552 90.4613 197.645 90.6855 197.636 90.919C197.617 91.3114 197.319 91.6384 196.965 91.7972C196.333 92.0681 195.299 92.283 194.62 92.3297C193.512 92.4137 192.405 92.1802 191.325 91.984H191.316Z" fill="#F7967C"/>
<path d="M188.253 83.7446C188.97 83.6885 189.64 83.8473 190.087 84.6414C190.664 85.7717 189.854 86.5284 188.83 86.9862C188.84 87.827 188.849 88.6677 188.868 89.5085C188.868 89.6393 188.486 89.6486 188.486 89.5085C188.477 88.7144 188.467 87.9297 188.458 87.1357C188.458 87.1357 188.458 87.1357 188.449 87.1357C188.393 86.2762 188.337 85.4074 188.281 84.548C188.281 84.3985 188.263 84.2397 188.253 84.0902C188.253 84.0902 188.253 84.0902 188.253 84.0809C188.253 83.9594 188.253 83.8473 188.253 83.7446Z" fill="#DB6357"/>
<path d="M185.824 71.6001C184.344 73.646 185.964 76.6634 183.888 77.7751C183.358 78.2048 182.557 78.6532 182.492 79.3912C182.501 79.7462 182.79 80.0265 183.06 80.26C183.59 80.7365 183.618 81.6426 183.6 82.3059C183.544 83.7632 183.358 85.2299 184.912 85.9772C186.438 86.7059 188.374 86.2949 189.836 85.6409C190.478 85.3607 191.074 84.987 191.613 84.5386C192.097 84.1369 192.693 83.6138 192.972 83.0346C193.317 82.3339 194.052 82.4087 194.704 82.6515C198.147 83.6978 199.488 80.0078 199.599 77.2426C199.572 75.1594 199.646 72.964 198.11 71.3572C194.964 67.4617 188.495 66.9665 185.833 71.5908L185.824 71.6001Z" fill="#F7967C"/>
<path d="M199.897 80.8485C200.204 80.4187 200.484 79.9703 200.726 79.5032C201.666 77.6162 201.852 75.3554 201.219 73.3469C199.72 68.5639 194.843 66.7983 190.273 67.8352C189.398 68.0314 188.495 68.2463 187.807 68.8255C185.908 70.4042 187.844 73.0293 188.812 74.5427C189.705 75.9346 190.701 77.2799 191.52 78.7185C192.228 79.9423 192.963 81.1941 193.605 82.4459C194.182 83.5763 194.825 84.5665 195.83 85.3606C196.007 85.5007 196.211 85.6408 196.435 85.6222C196.565 85.6128 196.686 85.5381 196.798 85.4633C197.412 85.0336 197.794 84.3517 198.138 83.6884C198.408 83.1746 198.613 82.586 198.911 82.0909C199.181 81.6425 199.599 81.2969 199.897 80.8578V80.8485Z" fill="#4C4554"/>
<path d="M188.458 76.4672C188.44 75.7199 187.518 75.0846 186.867 74.8885C186.466 74.6643 185.303 74.9539 186.075 75.4303C186.95 75.5798 187.844 75.7105 188.458 76.4672Z" fill="#2B272E"/>
<path d="M185.982 77.1493C186.075 76.9157 186.317 76.7663 186.559 76.8877C186.894 77.0372 186.792 77.6164 186.671 77.8779C186.634 78.2143 186.234 78.2983 186.029 78.0741C185.824 77.8406 185.861 77.4295 185.992 77.1586L185.982 77.1493Z" fill="#2B272E"/>
<path d="M184.642 82.2965C184.642 82.2965 184.633 82.2871 184.623 82.2778C184.502 82.1283 184.409 81.82 184.558 81.6612C184.67 81.5398 184.856 81.5491 185.014 81.5304C185.266 81.5024 185.508 81.3997 185.74 81.2875C185.889 81.2128 186.047 81.1287 186.215 81.1007C186.383 81.0727 186.569 81.1101 186.68 81.2502C186.941 81.5865 186.541 82.1096 186.262 82.3058C185.954 82.5113 185.573 82.5767 185.21 82.5394C185.024 82.5207 184.791 82.4553 184.651 82.3058L184.642 82.2965Z" fill="white"/>
<path d="M190.329 81.3623C190.003 80.5962 189.985 79.5313 190.143 78.9988C190.292 78.5037 190.58 78.0366 191.008 77.7563C192.209 76.9622 193.531 78.13 193.512 79.4005C193.512 80.4001 193.01 81.3809 192.218 81.9788C192.06 82.1003 191.893 82.203 191.707 82.2404C191.027 82.3992 190.59 81.9695 190.329 81.3623Z" fill="#F7967C"/>
<path d="M203.797 88.677C204.281 89.5645 204.588 90.508 204.495 91.4702C204.356 92.9836 203.155 94.3288 203.323 95.8329C203.453 96.9632 204.328 97.8694 204.635 98.9717C205.017 100.364 204.402 101.877 203.406 102.923C202.922 103.428 202.345 103.867 202.029 104.483C201.657 105.184 201.675 106.025 201.433 106.782C200.968 108.239 199.46 109.285 197.943 109.21C196.63 109.145 195.467 108.36 194.192 108.061C193.345 107.865 192.414 107.865 191.688 107.389C190.72 106.763 190.385 105.446 190.608 104.315C190.804 103.334 191.251 102.41 191.009 101.401C190.794 100.494 190.413 99.7284 190.376 98.7662C190.292 96.8138 190.981 94.8146 192.33 93.3946C193.149 92.5258 194.248 91.7692 194.49 90.6014C194.583 90.1343 194.536 89.6579 194.545 89.1815C194.592 87.3411 195.588 85.6783 196.565 84.1182C196.938 83.5203 197.31 82.9224 197.682 82.3152C197.887 81.9882 198.12 81.6332 198.473 81.5024C198.436 81.5118 201.247 85.1738 201.489 85.4727C202.224 86.4069 203.174 87.4999 203.816 88.6863L203.797 88.677Z" fill="#4C4554"/>
<path d="M188.384 70.3575C188.747 72.7397 190.189 74.9163 192.237 76.1681C192.423 76.2802 192.07 76.3737 191.967 76.3083C189.864 75.0191 188.384 72.8144 188.002 70.3575C187.984 70.236 188.365 70.2174 188.384 70.3575Z" fill="#2B272E"/>
<path d="M189.919 70.6565C190.357 72.31 191.502 73.7394 193.028 74.5054C193.103 74.5428 193.093 74.6082 193.028 74.6455C192.954 74.6922 192.833 74.6829 192.758 74.6455C191.195 73.8608 189.994 72.4128 189.547 70.7126C189.51 70.5631 189.882 70.5444 189.919 70.6565Z" fill="#2B272E"/>
<path d="M196.388 69.2553C196.463 69.2085 196.584 69.2179 196.658 69.2553C198.641 70.1427 199.869 72.2166 199.693 74.3839C199.683 74.5241 199.302 74.5147 199.311 74.3839C199.488 72.2727 198.315 70.2548 196.398 69.3954C196.323 69.358 196.342 69.2926 196.398 69.2553H196.388Z" fill="#2B272E"/>
<path d="M195.402 84.6134C195.951 83.3522 197.058 82.39 198.362 81.9976C198.436 81.979 198.566 81.9696 198.622 82.035C198.678 82.1004 198.622 82.1471 198.557 82.1658C197.319 82.5395 196.286 83.483 195.774 84.6694C195.718 84.7909 195.346 84.7535 195.402 84.6134Z" fill="#2B272E"/>
<path d="M196.491 84.8748C197.133 84.1555 197.971 83.6323 198.883 83.3614C198.957 83.3427 199.088 83.3334 199.143 83.3988C199.199 83.4642 199.143 83.5109 199.078 83.5296C198.203 83.7911 197.431 84.2956 196.817 84.9776C196.733 85.071 196.37 85.0149 196.491 84.8748Z" fill="#2B272E"/>
<path d="M201.945 87.7801C201.871 87.6587 202.243 87.612 202.317 87.7241C202.885 88.677 203.378 89.7326 203.406 90.8536C203.434 91.8065 203.109 92.7874 202.373 93.4226C202.28 93.5067 201.917 93.4413 202.038 93.3199C202.755 92.694 203.053 91.7224 203.015 90.7976C202.969 89.7046 202.485 88.6956 201.936 87.7801H201.945Z" fill="#2B272E"/>
<path d="M200.158 93.7216C201.107 93.0396 201.573 91.7971 201.312 90.6481C201.284 90.536 201.666 90.508 201.694 90.6481C201.964 91.8252 201.47 93.1144 200.493 93.8243C200.419 93.8804 200.316 93.8897 200.232 93.8617C200.186 93.843 200.093 93.7776 200.167 93.7309L200.158 93.7216Z" fill="#2B272E"/>
<path d="M199.944 102.746C199.972 102.671 200.121 102.671 200.177 102.68C200.986 102.783 201.74 102.213 202.15 101.559C202.615 100.803 202.727 99.8966 202.745 99.0184C202.745 98.8783 203.127 98.8783 203.127 99.0184C203.108 99.99 202.969 101.046 202.364 101.84C201.824 102.54 200.977 102.979 200.083 102.867C200.018 102.867 199.925 102.821 199.953 102.746H199.944Z" fill="#2B272E"/>
<path d="M198.175 101.7C198.836 101.401 199.432 100.99 199.953 100.485C200.018 100.429 200.139 100.429 200.214 100.448C200.27 100.466 200.344 100.522 200.279 100.578C199.739 101.092 199.116 101.522 198.436 101.83C198.352 101.868 198.241 101.877 198.166 101.83C198.101 101.793 198.092 101.728 198.166 101.69L198.175 101.7Z" fill="#2B272E"/>
<path d="M191.511 95.3939C191.586 95.2818 191.958 95.3378 191.883 95.4499C191.362 96.2066 191.13 97.1221 191.241 98.0376C191.26 98.1684 190.878 98.1777 190.86 98.0376C190.748 97.1128 190.981 96.1599 191.511 95.4032V95.3939Z" fill="#2B272E"/>
</g>
<path d="M60.8149 218.462C60.8004 218.418 60.7859 218.382 60.7641 218.346C60.387 217.632 59.4875 217.986 58.8275 218.079C58.1456 218.173 57.471 218.281 56.7965 218.404C56.2742 218.505 55.7737 218.483 55.8753 219.147C56.1437 220.899 56.5353 222.63 56.811 224.375C56.9488 225.248 57.0358 226.128 57.1084 227.007C57.1591 227.642 57.3768 227.945 58.0586 227.837C58.8492 227.707 59.5238 227.577 60.2637 227.245C60.931 226.95 61.9972 226.769 62.0915 225.882C62.1423 225.428 61.8812 225.003 61.7869 224.563C61.6636 223.957 61.5475 223.351 61.4387 222.738C61.2211 221.498 61.047 220.243 60.9092 218.988C60.8875 218.808 60.8729 218.628 60.8077 218.455L60.8149 218.462Z" fill="#F7967C"/>
<path d="M68.7865 227.692C68.7865 227.692 68.7647 227.729 68.7575 227.743L56.8762 229.733C56.8545 229.654 56.8254 229.575 56.8109 229.495C56.7674 229.315 56.7311 229.135 56.7021 228.947C56.6078 228.248 56.6659 227.541 56.9342 226.863C56.9923 226.719 57.0721 226.56 57.2316 226.503C57.4057 226.438 57.5943 226.517 57.7611 226.575C58.4067 226.805 59.2989 226.834 59.9154 226.495C60.3216 226.272 60.6408 225.94 60.8874 225.572C60.9962 225.414 61.0978 225.241 61.2501 225.118C61.4169 224.981 61.6273 224.93 61.8449 224.938C62.4542 224.967 63.0562 225.349 63.6292 225.536C64.282 225.753 64.9566 225.918 65.6385 226.034C66.2187 226.135 66.799 226.2 67.3648 226.351C67.713 226.445 68.3078 226.64 68.6342 226.95C68.8445 227.144 68.9461 227.39 68.801 227.685L68.7865 227.692Z" fill="#FFC158"/>
<path d="M68.7865 227.692C68.7865 227.692 68.7648 227.729 68.7575 227.743L56.8763 229.733C56.8545 229.654 56.8255 229.575 56.811 229.495C56.7675 229.315 56.7312 229.135 56.7022 228.947L68.627 226.95C68.8373 227.144 68.9389 227.39 68.7938 227.685L68.7865 227.692Z" fill="#9361C9"/>
<path d="M65.8126 226.438C65.7328 226.322 65.5587 226.315 65.4281 226.286C64.7028 226.142 63.9847 225.94 63.2956 225.688C62.9039 225.551 62.5195 225.392 62.1423 225.219C62.0843 225.19 62.0045 225.197 61.9464 225.219C61.9102 225.233 61.8522 225.298 61.9102 225.32C62.621 225.644 63.3609 225.918 64.1298 226.135C64.5069 226.243 64.8841 226.33 65.2686 226.409C65.3483 226.423 65.4644 226.423 65.5297 226.474C65.6022 226.531 65.5587 226.64 65.5297 226.712C65.4789 226.827 65.167 227.267 65.2831 227.39C65.4644 227.57 65.6457 227.137 65.6675 227.043C65.6893 226.964 65.7183 226.885 65.7545 226.806C65.8053 226.69 65.8924 226.546 65.8126 226.423V226.438Z" fill="#F7984B"/>
<path d="M58.9216 228.392C58.6315 227.664 58.1093 226.993 57.3041 226.712C57.2461 226.69 57.1518 226.712 57.1083 226.748C57.0647 226.784 57.072 226.827 57.1228 226.849C57.8771 227.116 58.3704 227.772 58.646 228.443C58.6823 228.536 58.9579 228.479 58.9216 228.392Z" fill="#F7984B"/>
<path d="M63.1142 225.132C63.1142 225.132 63.0417 225.132 63.0054 225.147C62.9764 225.154 62.9474 225.168 62.9256 225.19C62.8023 225.363 62.679 225.529 62.5557 225.702C62.5194 225.753 62.5702 225.781 62.621 225.789C62.6572 225.789 62.6935 225.789 62.7298 225.774C62.7588 225.767 62.7878 225.753 62.8096 225.731C62.9329 225.558 63.0562 225.392 63.1795 225.219C63.2158 225.168 63.165 225.14 63.1142 225.132Z" fill="#9361C9"/>
<path d="M63.7961 225.378C63.738 225.378 63.651 225.385 63.6075 225.435C63.4842 225.587 63.3754 225.745 63.2811 225.904C63.2666 225.926 63.2593 225.94 63.2811 225.962C63.2956 225.983 63.3318 225.991 63.3536 225.991C63.3899 225.991 63.4261 225.991 63.4624 225.976C63.4914 225.969 63.5277 225.954 63.5422 225.933C63.6437 225.767 63.7525 225.608 63.8686 225.457C63.9049 225.406 63.8468 225.378 63.8033 225.37L63.7961 225.378Z" fill="#9361C9"/>
<path d="M64.5939 225.608C64.5939 225.608 64.5432 225.58 64.5214 225.58C64.4851 225.58 64.4489 225.58 64.4126 225.587C64.3836 225.594 64.3473 225.608 64.3328 225.63C64.2458 225.774 64.166 225.919 64.0789 226.063C64.0644 226.084 64.0572 226.099 64.0789 226.12C64.0934 226.142 64.1297 226.149 64.1515 226.149C64.1877 226.149 64.224 226.149 64.2603 226.142C64.2893 226.135 64.3256 226.12 64.3401 226.099C64.4271 225.955 64.5069 225.81 64.5939 225.666C64.6084 225.644 64.6157 225.63 64.5939 225.608Z" fill="#9361C9"/>
<path d="M65.3628 225.731C65.2975 225.731 65.2177 225.738 65.1742 225.789C65.0364 225.947 64.9276 226.128 64.8478 226.315C64.8405 226.337 64.8478 226.358 64.8696 226.366C64.8913 226.38 64.9276 226.387 64.9566 226.387C65.0146 226.387 65.0944 226.366 65.1162 226.308C65.1379 226.265 65.1524 226.221 65.1815 226.178C65.196 226.156 65.2032 226.135 65.2177 226.113C65.2177 226.113 65.2177 226.113 65.2177 226.106L65.225 226.092C65.225 226.084 65.2395 226.07 65.2467 226.063C65.2975 225.976 65.3555 225.897 65.4208 225.825C65.4643 225.781 65.3991 225.738 65.3555 225.738L65.3628 225.731Z" fill="#9361C9"/>
<path d="M41.7308 169.214C41.2666 165.652 40.7371 162.096 39.9465 158.584C39.7506 157.726 39.562 156.861 39.3807 156.003C39.1268 154.82 38.8802 153.637 38.6408 152.455C38.3797 151.149 38.4232 149.923 38.4885 148.604C38.5248 147.911 38.3144 146.693 38.8367 146.13L51.7987 143.765C51.9583 143.793 52.0961 143.844 52.2049 143.938C52.6836 144.327 52.6619 145.719 52.7707 146.325C53.1188 148.265 53.438 150.212 53.7281 152.166C55.1353 161.678 55.7664 171.226 56.8907 180.774C57.5435 186.277 58.2906 191.772 59.0667 197.26C59.4512 200.007 59.8429 202.748 60.2345 205.495C60.6407 208.373 61.4024 211.265 61.9681 214.128C62.5774 217.214 63.1867 220.308 63.796 223.394C60.9381 224.022 58.0803 224.656 55.2296 225.284C55.041 225.327 54.8379 225.37 54.6493 225.298C54.2939 225.169 54.4245 224.671 54.3519 224.375C53.8369 222.248 53.3582 220.12 52.8722 217.993C51.3853 211.553 50.0216 205.084 48.5636 198.637C47.1129 192.226 45.5752 185.837 43.7546 179.527C43.2903 177.911 42.6448 176.267 42.4054 174.616C42.1443 172.82 41.9774 171.01 41.7381 169.214H41.7308Z" fill="#9361C9"/>
<path d="M26.6218 216.868C26.6218 216.825 26.6363 216.781 26.6363 216.738C26.6653 215.93 25.7006 215.801 25.0841 215.555C24.4458 215.303 23.8002 215.065 23.1546 214.849C22.6469 214.683 22.2262 214.423 21.9868 215.051C21.3558 216.702 20.8408 218.404 20.217 220.063C19.9051 220.892 19.5496 221.693 19.1797 222.5C18.9113 223.077 18.9476 223.452 19.5932 223.69C20.3475 223.964 20.9931 224.18 21.8055 224.26C22.5308 224.332 23.5463 224.693 24.0686 223.971C24.337 223.604 24.3225 223.099 24.4603 222.673C24.6489 222.082 24.852 221.498 25.0623 220.914C25.4903 219.724 25.9545 218.548 26.455 217.387C26.5275 217.221 26.6001 217.048 26.6291 216.875L26.6218 216.868Z" fill="#F7967C"/>
<path d="M29.0009 228.803C29.0009 228.803 28.9646 228.825 28.9501 228.832L17.6129 224.757C17.6346 224.678 17.6492 224.599 17.6709 224.519C17.7217 224.339 17.7797 224.166 17.845 223.993C18.1061 223.337 18.5123 222.752 19.0781 222.291C19.2014 222.19 19.3537 222.096 19.5133 222.118C19.6946 222.147 19.818 222.305 19.9413 222.442C20.391 222.962 21.1526 223.423 21.8562 223.423C22.3204 223.423 22.7629 223.293 23.1546 223.091C23.3287 223.005 23.4955 222.904 23.6913 222.875C23.9017 222.839 24.112 222.897 24.3006 223.012C24.8156 223.337 25.1493 223.964 25.5555 224.404C26.0197 224.909 26.5275 225.385 27.0642 225.817C27.5212 226.185 27.9927 226.531 28.4061 226.935C28.66 227.188 29.0807 227.649 29.2113 228.075C29.2983 228.349 29.262 228.615 28.9937 228.803H29.0009Z" fill="#FFC158"/>
<path d="M29.001 228.803C29.001 228.803 28.9647 228.825 28.9502 228.832L17.613 224.757C17.6347 224.678 17.6492 224.599 17.671 224.519C17.7218 224.339 17.7798 224.166 17.8451 223.993L29.2186 228.082C29.3056 228.356 29.2694 228.623 29.001 228.81V228.803Z" fill="#9361C9"/>
<path d="M27.0353 226.257C27.0281 226.12 26.8757 226.026 26.7742 225.94C26.2157 225.457 25.6934 224.93 25.2147 224.375C24.9463 224.058 24.6852 223.74 24.4458 223.401C24.4095 223.351 24.337 223.315 24.2717 223.315C24.2282 223.315 24.1484 223.337 24.1919 223.387C24.6489 224.022 25.1639 224.62 25.7224 225.183C25.9981 225.457 26.2809 225.724 26.5783 225.976C26.6364 226.026 26.7379 226.084 26.7742 226.163C26.8105 226.25 26.7162 226.322 26.6509 226.365C26.5493 226.445 26.0561 226.676 26.1069 226.834C26.1794 227.079 26.5493 226.791 26.6146 226.726C26.6726 226.668 26.7379 226.611 26.8104 226.56C26.912 226.488 27.0643 226.401 27.0498 226.257H27.0353Z" fill="#F7984B"/>
<path d="M20.0646 224.591C20.1662 223.82 20.0501 222.976 19.4843 222.334C19.4408 222.291 19.3538 222.255 19.2957 222.269C19.2377 222.277 19.2232 222.32 19.2595 222.363C19.789 222.962 19.8905 223.777 19.7962 224.498C19.7817 224.599 20.0501 224.685 20.0646 224.591Z" fill="#F7984B"/>
<path d="M25.3307 223.798C25.3307 223.798 25.2654 223.762 25.2291 223.755C25.2001 223.755 25.1639 223.748 25.1348 223.755C24.9462 223.841 24.7504 223.928 24.5618 224.015C24.5038 224.043 24.5328 224.094 24.5763 224.123C24.6053 224.144 24.6416 224.159 24.6779 224.166C24.7069 224.166 24.7431 224.173 24.7722 224.166C24.968 224.079 25.1566 223.993 25.3452 223.906C25.4032 223.878 25.3742 223.827 25.3307 223.798Z" fill="#9361C9"/>
<path d="M25.8021 224.346C25.7514 224.31 25.6716 224.281 25.6135 224.303C25.4322 224.375 25.2581 224.462 25.0913 224.555C25.0695 224.57 25.055 224.577 25.0623 224.606C25.0623 224.627 25.0913 224.656 25.1058 224.671C25.1348 224.692 25.1711 224.707 25.2073 224.714C25.2364 224.714 25.2726 224.728 25.3016 224.714C25.4685 224.62 25.6426 224.534 25.8239 224.462C25.8819 224.44 25.8457 224.382 25.8094 224.353L25.8021 224.346Z" fill="#9361C9"/>
<path d="M26.3824 224.945C26.3824 224.945 26.3534 224.894 26.3389 224.88C26.3099 224.858 26.2736 224.844 26.2374 224.837C26.2084 224.837 26.1721 224.822 26.1431 224.837C25.998 224.923 25.8529 225.003 25.7079 225.089C25.6861 225.104 25.6716 225.111 25.6789 225.14C25.6789 225.161 25.7079 225.19 25.7224 225.205C25.7514 225.226 25.7877 225.241 25.8239 225.248C25.8529 225.248 25.8892 225.262 25.911 225.248C26.056 225.161 26.2011 225.082 26.3462 224.995C26.3679 224.981 26.3824 224.974 26.3752 224.952L26.3824 224.945Z" fill="#9361C9"/>
<path d="M26.9918 225.421C26.941 225.385 26.8612 225.356 26.8032 225.378C26.6074 225.45 26.4188 225.551 26.2592 225.673C26.2447 225.688 26.2447 225.709 26.2592 225.731C26.2737 225.753 26.3027 225.781 26.3245 225.789C26.3753 225.817 26.455 225.839 26.5058 225.803C26.5421 225.774 26.5856 225.745 26.6219 225.717C26.6436 225.702 26.6654 225.688 26.6799 225.68C26.6799 225.68 26.6799 225.68 26.6872 225.68L26.7017 225.673C26.7089 225.673 26.7234 225.659 26.7307 225.659C26.8177 225.608 26.9048 225.572 26.9991 225.536C27.0571 225.515 27.0208 225.457 26.9846 225.428L26.9918 225.421Z" fill="#9361C9"/>
<path d="M32.3013 153.637C32.2578 155.108 32.2143 156.58 32.1708 158.058C31.9967 163.618 31.7718 169.171 31.5252 174.724C31.4019 177.5 31.2713 180.277 31.1408 183.053C31.0755 184.445 31.0102 185.83 30.9449 187.221C30.9159 187.791 30.9449 188.361 30.8796 188.931C30.8289 189.342 30.6693 189.825 31.0972 190.092C31.4019 190.279 31.7138 190.452 32.033 190.604C33.1427 191.137 34.3323 191.491 35.5219 191.815C37.3063 192.306 39.2067 192.753 40.9838 192.241C41.3827 192.125 41.7672 191.959 42.1008 191.714C42.2024 191.635 42.3039 191.548 42.391 191.462C43.1744 190.676 43.508 189.544 43.6458 188.483C43.8272 187.113 44.0013 185.743 44.1681 184.373C44.5017 181.661 44.7919 178.943 45.053 176.217C45.3649 172.885 45.3939 169.625 45.7203 166.301C46.0685 162.731 46.3369 159.154 46.482 155.57C46.482 155.462 46.4892 155.354 46.4965 155.245C46.511 154.979 46.5182 154.719 46.5255 154.452C46.54 154.128 46.5545 153.803 46.569 153.479C46.5835 153.089 46.598 152.693 46.6125 152.303C46.6415 151.51 46.6198 150.666 46.5327 149.822C46.4239 148.77 46.2063 147.709 45.8654 146.721C45.8291 146.613 45.7929 146.505 45.7494 146.404C45.4447 145.596 45.0458 144.846 44.5453 144.19L34.2888 144.233C33.15 145.798 32.5117 147.89 32.4319 150.01C32.3811 151.221 32.3449 152.426 32.3086 153.637H32.3013Z" fill="#9361C9"/>
<path d="M43.5153 188.476C43.508 187.971 43.4427 187.459 43.3122 186.962L43.2541 187.301C42.536 185.88 40.8822 185.281 39.2574 184.95C38.329 184.762 37.3643 184.647 36.4213 184.762C35.1737 184.906 33.9986 185.433 32.9034 186.053C32.3521 186.363 31.7501 186.731 31.4309 187.286C31.4019 187.337 31.3729 187.394 31.3439 187.452C30.9884 188.245 30.6983 189.096 30.3719 189.911C29.7046 191.563 29.03 193.214 28.3627 194.873C28.2974 195.039 28.2248 195.205 28.1596 195.37C26.484 199.524 24.8592 203.7 23.2344 207.875C21.907 211.712 20.3693 215.512 18.9331 219.32C21.3848 220.337 23.8872 221.238 26.426 222.003C26.6799 222.082 26.9482 222.161 27.2166 222.111C27.8984 221.995 28.3699 220.539 28.6528 220.012C30.5532 216.464 32.3666 212.873 34.0857 209.231C35.7758 205.654 37.6834 202.2 39.5403 198.702C40.4543 196.979 41.4335 195.327 42.2241 193.539C42.9205 191.974 43.5443 190.221 43.5153 188.476Z" fill="#9361C9"/>
<path d="M44.0448 181.027C42.5216 177.024 40.8533 173.08 39.0254 169.207C38.5104 168.118 37.9881 167.036 37.4514 165.955C37.4006 165.854 37.0669 165.882 37.1249 165.998C39.0326 169.834 40.7952 173.736 42.3983 177.702C42.848 178.82 43.2904 179.938 43.7184 181.063C43.7547 181.164 44.0883 181.142 44.0448 181.019V181.027Z" fill="#17254C"/>
<path d="M29.2185 102.183C29.2185 102.183 29.2692 102.212 29.2983 102.226C31.4308 103.409 33.7302 104.288 36.1093 104.829C36.1673 104.844 36.2326 104.851 36.2834 104.822C36.3269 104.793 36.3414 104.736 36.3559 104.685C36.588 103.697 36.5663 102.695 36.7911 101.692C36.8782 101.296 36.987 100.899 37.1321 100.517C37.2481 100.214 37.3859 99.9183 37.502 99.6154C37.6688 99.1827 37.8066 98.7428 37.7776 98.274C37.7413 97.6539 37.4149 97.0986 37.0668 96.601C36.7549 96.1611 36.4865 95.6851 36.1456 95.274C35.442 94.4231 34.4555 93.8173 33.4328 93.399C32.9395 93.1971 31.8878 92.9736 31.4235 93.3774C30.9593 93.7813 30.894 94.863 30.7997 95.4255C30.4443 97.4591 29.8785 99.4495 29.1169 101.368C28.9573 101.779 28.8485 101.952 29.2257 102.19L29.2185 102.183Z" fill="#F7967C"/>
<path d="M35.4202 100.697C35.7974 101.094 36.3197 101.39 36.7911 101.7C36.8782 101.303 36.987 100.906 37.1321 100.524C37.2481 100.221 37.3859 99.9256 37.502 99.6227C37.5092 99.5145 37.5165 99.4136 37.531 99.3126C37.5745 98.8006 37.6035 98.2814 37.56 97.7694C37.473 97.7405 37.3932 97.7189 37.3134 97.69C36.472 97.4088 35.3259 96.8607 34.5788 97.654C33.7519 98.5338 34.7964 100.027 35.4275 100.697H35.4202Z" fill="#DB6357"/>
<path d="M40.5195 88.1852C40.5195 88.1852 40.5412 88.2356 40.5557 88.2573C40.6428 88.452 40.6428 88.7404 40.7008 88.9568C40.7733 89.2236 40.8241 89.4977 40.8459 89.7717C40.8749 90.2765 40.563 90.7525 40.592 91.2573C40.6065 91.488 40.7443 91.6755 40.8531 91.8702C40.9764 92.1082 41.1142 92.339 41.2521 92.5626C41.5422 93.0241 41.8686 93.464 42.224 93.8751C42.4707 94.1635 42.7535 94.4736 42.7535 94.8486C42.7535 95.4616 42.1152 95.6635 41.651 95.8654C41.1505 96.089 41.0707 96.7669 41.0345 97.2284C40.9837 97.863 41.0345 98.4832 40.9619 99.1178C40.8676 99.9039 40.563 100.582 39.6998 100.712C38.4885 100.892 37.2264 100.697 36.1021 100.228C35.2171 99.8606 34.4193 99.3342 33.7084 98.7068C33.0991 98.1659 32.2069 97.7549 31.8007 97.0265C31.38 96.2693 30.6329 96.4279 29.9003 96.0674C29.6102 95.9231 29.3998 95.6924 29.1387 95.5193C28.9066 95.3606 28.7833 95.1876 28.6672 94.9207C28.3843 94.2861 28.0652 93.5722 27.9419 92.8799C27.8113 92.1515 27.7315 91.4303 27.746 90.6876C27.7678 89.6202 28.3408 88.5313 28.7978 87.5794C29.0734 87.0097 29.3708 86.4255 29.8568 86.0073C31.1552 84.8823 32.954 84.1251 34.7166 84.1467C35.5435 84.1539 36.3124 84.3198 37.1103 84.4784C37.8502 84.6227 38.474 85.1202 38.9745 85.6683C39.649 86.3967 40.106 87.2981 40.5267 88.1924L40.5195 88.1852Z" fill="#F7967C"/>
<path d="M31.0173 97.6107C31.1116 97.5241 31.2059 97.4376 31.3075 97.3583C31.7572 96.9905 32.1562 96.5939 32.4681 96.0963C32.6929 95.7429 32.9758 95.3751 33.1716 95.0073C33.4255 94.5241 33.3965 94.0193 33.8535 93.6371C34.0783 93.4496 34.3612 93.327 34.6006 93.1612C35.1373 92.7862 35.0503 92.2669 35.1011 91.6828C35.1519 91.0842 35.2316 90.4785 35.5218 89.9448C36.1021 88.8631 37.2191 88.3655 38.3507 88.077C38.9527 87.9256 39.5765 87.7741 40.106 87.4424C40.9764 86.9088 39.8086 85.6323 39.3879 85.1852C38.7278 84.4857 37.9009 83.9448 36.987 83.6203C36.2109 83.3463 35.4202 83.4544 34.6078 83.5626C33.6431 83.6924 32.6929 83.952 31.779 84.2838C31.1407 84.5145 30.5096 84.7886 29.9511 85.178C29.2257 85.6756 28.6454 86.3607 28.2247 87.1323C27.7823 87.94 27.3906 88.69 27.1802 89.5987C27.0062 90.3559 26.8393 91.1564 27.0352 91.9136C27.1077 92.1876 27.231 92.4544 27.3471 92.714C27.7605 93.6083 28.1957 94.4953 28.5439 95.404C28.7252 95.8799 28.9791 96.3198 29.1459 96.803C29.3128 97.2862 29.4651 97.7765 29.6392 98.2597C29.6682 98.3246 29.6972 98.404 29.7552 98.44C29.8568 98.4977 29.9801 98.44 30.0744 98.3895C30.4371 98.1804 30.7127 97.8919 31.0028 97.6251L31.0173 97.6107Z" fill="#0C1733"/>
<path d="M40.3599 90.4641C40.3454 90.4136 40.3237 90.3703 40.3019 90.3343C40.0843 90.017 39.5403 90.1468 39.2284 90.2117C38.8149 90.291 38.445 90.5146 38.1186 90.7598C37.7994 90.9977 37.473 91.2934 37.4295 91.69C37.4295 91.7117 37.4295 91.7405 37.444 91.755C37.5238 91.8559 38.0098 91.4809 38.0896 91.4304C38.2056 91.3583 38.3289 91.3078 38.4523 91.2574C38.9092 91.0771 39.3952 90.9328 39.8812 90.9328C39.99 90.9328 40.0988 90.9328 40.2004 90.8968C40.3744 90.8175 40.418 90.63 40.3744 90.4641H40.3599Z" fill="#0C1733"/>
<path d="M38.9455 92.4329C38.96 92.2886 38.989 92.1588 39.076 92.0867C39.1341 92.0362 39.2138 92.0074 39.2936 92.0002C39.5257 91.9713 39.6781 92.1083 39.7216 92.3031C39.7506 92.4257 39.7433 92.5555 39.7216 92.6781C39.6998 92.8079 39.6636 92.9377 39.6055 93.0603C39.5765 93.1252 39.5257 93.1757 39.4605 93.2045C39.1703 93.3415 39.0035 93.154 38.9672 92.916C38.9527 92.8079 38.931 92.6132 38.9455 92.4401V92.4329Z" fill="#0C1733"/>
<path d="M40.0698 97.0626C40.0626 97.0049 40.0408 96.9544 39.9973 96.9111C39.9247 96.839 39.8232 96.8101 39.7289 96.7669C39.5258 96.6659 39.3807 96.4712 39.2139 96.3126C39.1341 96.2404 39.0471 96.1683 38.9455 96.1323C38.7787 96.0674 38.5683 96.1034 38.5393 96.3126C38.4958 96.601 38.5683 96.9111 38.7352 97.1491C38.902 97.3943 39.1631 97.5674 39.446 97.6395C39.5621 97.6683 39.6926 97.6755 39.7942 97.6251C39.9465 97.5529 40.0916 97.2717 40.0626 97.0626H40.0698Z" fill="white"/>
<path d="M38.4595 90.0528C38.7278 89.9951 38.9962 89.9302 39.2718 89.8726C41.1287 89.4471 43.0147 89 44.683 88.0985C45.1109 87.8677 45.5316 87.6009 45.8435 87.2331C45.9451 87.1177 46.0321 86.9879 46.0539 86.8365C46.1264 86.4038 45.7928 86.5192 45.5244 86.5697C45.1254 86.6418 44.7265 86.7067 44.3203 86.7788C43.5006 86.923 42.6737 87.0673 41.8541 87.2043C41.1795 87.3197 40.4977 87.4423 39.8304 87.6153C38.9745 87.8389 38.1548 88.149 37.3424 88.5024C36.3197 88.9423 35.2752 89.4759 34.6514 90.399C34.325 90.8822 35.0068 90.6514 35.2389 90.6298C35.8627 90.5793 36.4502 90.5072 37.0595 90.3701C37.5238 90.2692 37.9807 90.1682 38.4449 90.0601L38.4595 90.0528Z" fill="#1F2F6D"/>
<path d="M40.8677 87.3775C40.8677 87.4136 40.8314 87.4424 40.8096 87.4713C40.5703 87.7165 40.3527 87.9184 40.077 88.1131C39.6926 88.3799 39.3444 88.7044 38.96 88.9568C38.503 89.2525 38.046 89.5482 37.5818 89.8294C37.4803 89.8943 37.3715 89.9592 37.2699 90.0169C37.1829 90.0674 37.0958 90.1251 37.0088 90.1756C35.6234 91.0338 34.2379 91.8847 32.8525 92.7429C32.352 93.053 31.8515 93.3631 31.3728 93.702C31.2858 93.7597 31.1987 93.8246 31.1189 93.8823C30.5459 94.2934 29.9801 94.7116 29.3491 95.0217C29.1895 95.1011 29.0299 95.166 28.8631 95.2309C28.7615 95.2669 28.5802 95.3679 28.4787 95.3679C28.2538 95.3679 28.1668 95.0217 28.0725 94.8631C28.0072 94.7477 27.8839 94.5458 27.9637 94.416C28.0217 94.315 28.2248 94.2068 28.3191 94.1275C28.8849 93.6588 28.8268 93.0097 28.116 92.7213C27.9491 92.6491 27.7678 92.6059 27.5865 92.577C27.4414 92.5554 27.2311 92.6059 27.0932 92.5554C26.8031 92.44 26.7668 91.827 26.7088 91.5746C26.5855 91.0338 26.513 90.4496 26.513 89.8655C26.513 89.0434 26.658 88.2213 27.0207 87.5217C27.5067 86.5842 28.261 85.6972 29.1242 85.041C29.262 84.9328 29.3999 84.839 29.5449 84.7453C29.6175 84.702 29.6827 84.6588 29.7553 84.6155C30.4444 84.2044 31.1842 83.9088 31.9458 83.678C32.0619 83.6419 32.1707 83.6131 32.294 83.577C33.0701 83.3679 33.868 83.2165 34.6659 83.0866C34.9778 83.0362 35.2897 82.9857 35.6016 83.0145C36.0586 83.0506 36.6098 83.1515 37.0451 83.2958C37.5746 83.4689 38.0896 83.9592 38.503 84.3126C39.1123 84.839 39.6708 85.4304 40.1568 86.0722C40.4542 86.4616 40.7008 86.8294 40.8677 87.2838C40.8822 87.3198 40.8894 87.3487 40.8822 87.3847L40.8677 87.3775Z" fill="#3A60E5"/>
<path d="M29.9873 90.4927C30.4153 91.5745 30.8868 92.649 31.38 93.7019C31.293 93.7596 31.2059 93.8245 31.1261 93.8822C30.8723 93.3269 30.6184 92.7716 30.3718 92.2091C29.4143 90.0096 28.261 87.399 29.1387 85.0264C29.2765 84.9182 29.4143 84.8245 29.5594 84.7307C29.3128 85.286 29.1822 85.8846 29.1532 86.4975C29.0806 87.8749 29.5013 89.2235 29.9946 90.4855L29.9873 90.4927Z" fill="#1F2F6D"/>
<path d="M37.2771 90.0168C37.1901 90.0673 37.103 90.125 37.016 90.1755C36.7911 89.7933 36.559 89.4111 36.3341 89.0288C35.6233 87.8389 34.9632 86.5986 34.1073 85.5024C33.7229 85.012 33.2877 84.5505 32.7872 84.1755C32.5551 84.0024 32.3084 83.8438 32.0546 83.7139C32.0256 83.6995 31.9893 83.6779 31.953 83.6635C32.0691 83.6274 32.1779 83.5986 32.2939 83.5625C32.5188 83.6779 32.7291 83.8077 32.9322 83.9519C34.042 84.7452 34.8109 85.8918 35.5072 87.0457C36.102 88.0264 36.6896 89.0216 37.2771 90.0096V90.0168Z" fill="#1F2F6D"/>
<path d="M30.894 85.7548C30.894 85.7548 30.8795 85.7259 30.8722 85.7187C30.865 85.7115 30.8577 85.7043 30.8432 85.6971C30.8432 85.6971 30.8432 85.6971 30.8432 85.6899C30.836 85.6754 30.8215 85.6682 30.8069 85.6682C30.7924 85.6682 30.7779 85.6538 30.7562 85.6538C30.7272 85.6538 30.7054 85.6538 30.6764 85.661C30.6401 85.661 30.6111 85.6682 30.5821 85.6827C30.5676 85.6827 30.5458 85.6971 30.5313 85.7115C30.5023 85.7331 30.495 85.7403 30.4733 85.7692C30.466 85.7836 30.4588 85.798 30.4515 85.8053C30.4515 85.8053 30.4515 85.8197 30.4515 85.8269C30.4515 85.8413 30.4515 85.8557 30.4515 85.8629C30.4515 85.8774 30.4588 85.8918 30.4733 85.899C30.4733 85.899 30.4805 85.9134 30.4878 85.9134C30.495 85.9206 30.5096 85.9351 30.5241 85.9423C30.5386 85.9423 30.5458 85.9567 30.5603 85.9567C30.5603 85.9567 30.5748 85.9567 30.5821 85.9567C30.5821 85.9567 30.5966 85.9567 30.6038 85.9567C30.6184 85.9567 30.6329 85.9567 30.6474 85.9567C30.6546 85.9567 30.6691 85.9639 30.6764 85.9639C30.7054 85.9639 30.7272 85.9639 30.7562 85.9567C30.7852 85.9567 30.8069 85.9423 30.8287 85.9278C30.8505 85.9134 30.865 85.899 30.8795 85.8846C30.894 85.8629 30.9012 85.8413 30.9012 85.8197C30.9012 85.798 30.9012 85.7764 30.894 85.7548Z" fill="#1F2F6D"/>
<path d="M35.1809 83.4472C35.1809 83.4472 35.1737 83.4328 35.1664 83.4256C35.1592 83.4184 35.1446 83.4112 35.1374 83.404C35.1229 83.404 35.1084 83.3895 35.0939 83.3895C35.0939 83.3895 35.0866 83.3895 35.0794 83.3895C35.0649 83.3895 35.0431 83.3895 35.0286 83.3823C34.9706 83.3823 34.9053 83.3895 34.8472 83.4112C34.84 83.4112 34.8327 83.4112 34.8255 83.4256C34.8255 83.4256 34.811 83.4256 34.811 83.4328C34.7965 83.44 34.782 83.4544 34.7747 83.4617C34.7602 83.4761 34.7602 83.4761 34.753 83.4977C34.753 83.4977 34.753 83.5049 34.753 83.5121C34.753 83.5266 34.753 83.541 34.753 83.5554C34.753 83.5698 34.7675 83.5842 34.7747 83.5987C34.782 83.6131 34.7965 83.6275 34.811 83.6347C34.8255 83.6492 34.8473 83.6564 34.8618 83.6564C34.8835 83.6708 34.9125 83.678 34.9343 83.678C34.9633 83.678 34.9923 83.678 35.0213 83.6708C35.0286 83.6708 35.0358 83.6708 35.0431 83.6636C35.0503 83.6636 35.0576 83.6636 35.0649 83.6564C35.1011 83.6419 35.1374 83.6131 35.1664 83.5842C35.1664 83.577 35.1809 83.5626 35.1809 83.5482C35.1809 83.5482 35.1809 83.541 35.1809 83.5338C35.1809 83.5193 35.1809 83.5049 35.1809 83.4833C35.1809 83.4689 35.1664 83.4544 35.1591 83.44L35.1809 83.4472Z" fill="#1F2F6D"/>
<path d="M27.5211 87.5001C27.5211 87.5001 27.5066 87.4713 27.4994 87.4568C27.4994 87.4568 27.4994 87.4496 27.4921 87.4424C27.4776 87.428 27.4631 87.4208 27.4414 87.4136C27.4268 87.4136 27.4196 87.4136 27.4051 87.4136C27.3833 87.4136 27.3616 87.4136 27.3471 87.4136C27.318 87.4136 27.2963 87.428 27.2673 87.4424C27.2528 87.4424 27.2455 87.4568 27.2383 87.4641C27.2237 87.4713 27.2165 87.4857 27.202 87.5001C27.1802 87.5362 27.1657 87.5794 27.1657 87.6227C27.1657 87.666 27.1657 87.7092 27.173 87.7453C27.173 87.7742 27.2092 87.7886 27.231 87.7958C27.2455 87.7958 27.2673 87.7958 27.2818 87.7958C27.2963 87.7958 27.3108 87.7958 27.3325 87.7958C27.3616 87.7958 27.3906 87.7886 27.4123 87.7742C27.4268 87.7742 27.4486 87.7597 27.4631 87.7453C27.4776 87.7381 27.4849 87.7237 27.4994 87.7092C27.5284 87.666 27.5356 87.6155 27.5356 87.565C27.5356 87.5506 27.5356 87.529 27.5211 87.5145C27.5211 87.5145 27.5211 87.5145 27.5211 87.5001Z" fill="#1F2F6D"/>
<path d="M35.9207 94.3366C35.9207 94.3366 35.9207 94.3078 35.9207 94.2934C35.957 93.1179 34.7021 91.1131 33.3167 91.9352C32.8307 92.2237 32.5551 92.7934 32.5479 93.3559C32.5406 94.452 33.6286 96.1107 34.8835 95.9737C35.6451 95.8943 35.8917 94.9785 35.9207 94.3366Z" fill="#F7967C"/>
<path d="M57.471 154.416C56.6658 150.666 55.6141 146.974 54.468 143.318C54.0836 142.106 53.6991 140.894 53.3074 139.683C53.1044 139.056 52.9013 138.421 52.6982 137.794C50.9138 132.277 49.318 126.63 47.1782 121.193C45.4446 116.786 43.5877 112.164 40.6863 108.378C38.445 105.457 35.2752 103.863 32.0474 102.277C29.9584 101.245 27.6228 100.193 25.3669 100.806C23.7131 101.26 22.4002 102.58 21.6313 104.108C20.5796 106.193 19.5423 109.813 21.1454 111.796C22.7992 113.844 22.3785 116.31 22.6614 118.791C23.6551 127.51 24.9172 136.2 26.2301 144.875C27.1078 150.666 27.7896 156.522 28.6673 162.342C28.7906 163.149 28.9864 164.072 29.7118 164.462C30.0672 164.649 30.4806 164.671 30.8796 164.685C38.8584 164.967 46.8663 164.534 54.7727 163.402C56.3322 163.178 59.1973 163.128 59.161 161.152C59.132 159.457 58.0585 157.337 57.7248 155.642C57.6451 155.238 57.558 154.834 57.471 154.423V154.416Z" fill="#CF3840"/>
<path d="M67.2889 107.253L41.595 112.492L40.435 106.869L66.1289 101.63L67.2889 107.253Z" fill="#3A60E5"/>
<path d="M74.6268 115.067L81.1787 146.829L45.4517 154.114L38.8997 122.352L74.6268 115.067Z" fill="#FFC158"/>
<path d="M73.9649 122.434L68.4012 123.569L67.3811 118.623L72.9448 117.489L73.9649 122.434Z" fill="#F7984B"/>
<path d="M75.591 129.929L67.1066 131.658L66.0873 126.712L74.5717 124.984L75.591 129.929Z" fill="#F7984B"/>
<path d="M71.7125 115.587L43.425 121.355L41.5962 112.489L69.8836 106.721L71.7125 115.587Z" fill="white"/>
<path d="M69.5771 115.394C68.9895 115.185 68.3947 114.969 67.8072 114.76C67.2922 114.572 66.7772 114.37 66.3492 114.017C66.3855 113.995 66.4073 113.974 66.3928 113.937C66.4145 113.93 66.4363 113.916 66.4508 113.901C67.9885 111.976 68.8299 109.639 69.6423 107.346C69.6859 107.224 69.3522 107.195 69.3159 107.303C68.5035 109.596 67.6621 111.933 66.1244 113.858C66.1171 113.873 66.1099 113.88 66.1244 113.894C63.9266 114.579 61.649 114.947 59.4004 115.401C57.1518 115.856 54.9612 116.512 52.7271 117.031C51.465 117.32 50.1884 117.558 48.8973 117.659C48.8828 117.659 48.861 117.659 48.8393 117.673C46.6197 116.173 44.4581 114.601 42.3546 112.942C42.2966 112.892 42.195 112.885 42.1225 112.913C42.079 112.928 41.9992 112.978 42.0645 113.029C44.197 114.709 46.3948 116.303 48.6434 117.824C48.6579 117.832 48.6797 117.846 48.6942 117.853C48.6434 117.853 48.5926 117.868 48.5709 117.889C47.8745 118.625 47.2797 119.447 46.7938 120.334C46.7357 120.442 47.0621 120.478 47.1202 120.377C47.5916 119.505 48.1792 118.697 48.861 117.969C48.9045 117.918 48.8683 117.882 48.8102 117.861C48.832 117.861 48.8538 117.861 48.8755 117.846C48.89 117.846 48.9118 117.832 48.9263 117.817C48.9481 117.817 48.9698 117.817 48.9843 117.817C51.2764 117.637 53.5033 117.046 55.7156 116.461C56.8399 116.166 57.9642 115.877 59.103 115.639C60.2418 115.401 61.3806 115.192 62.5194 114.961C63.709 114.724 64.8913 114.457 66.0518 114.103C66.4798 114.464 66.9948 114.673 67.5171 114.868C68.1409 115.099 68.7719 115.315 69.3957 115.538C69.5118 115.582 69.7729 115.466 69.5625 115.394H69.5771Z" fill="#3A60E5"/>
<path d="M80.1174 151.28L86.3542 177.188L53.4813 185.01L47.2444 159.102L80.1174 151.28Z" fill="#FFC158"/>
<path d="M60.9526 159.695C61.0905 160.272 60.735 160.849 60.1548 160.986C59.5745 161.123 58.9942 160.769 58.8564 160.192C58.7186 159.615 59.074 159.039 59.6543 158.902C60.2345 158.765 60.8148 159.118 60.9526 159.695Z" fill="#FFC158"/>
<path d="M70.6433 157.387C70.7811 157.964 70.4257 158.541 69.8454 158.678C69.2651 158.815 68.6849 158.462 68.547 157.885C68.4092 157.308 68.7647 156.731 69.3449 156.594C69.9252 156.457 70.5055 156.81 70.6433 157.387Z" fill="#FFC158"/>
<path d="M79.5869 151.409L85.7016 176.793L53.8805 184.365L47.7657 158.981L46.7212 159.233L53.0826 185.656L87 177.587L80.6387 151.156L79.5869 151.409Z" fill="#3A60E5"/>
<path d="M59.8936 160.027C59.7341 160.027 59.589 159.911 59.56 159.745C59.2553 157.82 58.9072 155.642 59.2046 153.471C59.6108 150.522 60.9454 148.791 62.9691 148.589C63.4479 148.539 63.9629 148.611 64.4634 148.784C65.8996 149.289 66.7119 150.471 67.372 151.676C68.344 153.45 69.1564 155.31 69.7802 157.207C69.8382 157.38 69.7439 157.575 69.5626 157.632C69.3885 157.69 69.1926 157.596 69.1346 157.416C68.5253 155.555 67.7274 153.731 66.7772 152C66.1824 150.911 65.4643 149.851 64.2385 149.418C63.8396 149.274 63.4261 149.224 63.0417 149.26C60.8874 149.476 60.133 151.719 59.8791 153.565C59.5962 155.642 59.9299 157.769 60.2346 159.644C60.2636 159.825 60.1403 159.998 59.9517 160.027C59.9372 160.027 59.9154 160.027 59.9009 160.027H59.8936Z" fill="#1F2F6D"/>
<path d="M81.4226 173.406L56.1471 179.421L55.7706 177.857L81.0461 171.842L81.4226 173.406Z" fill="#3A60E5"/>
<path d="M65.8052 150.558C65.769 150.507 65.6964 150.486 65.6384 150.464C65.1959 150.298 64.8333 149.938 64.5504 149.577C64.3545 149.317 64.1877 149.065 64.0861 148.755C64.1587 148.712 64.2602 148.74 64.34 148.777C64.8985 149.036 65.399 149.462 66.0083 149.548C66.3638 149.599 66.7845 149.39 66.5523 148.986C66.4726 148.849 66.3492 148.755 66.2259 148.661C65.6674 148.243 65.225 147.68 64.6737 147.24C64.0716 146.75 63.4116 146.31 62.708 145.986C61.4096 145.38 59.8211 145.178 58.7983 146.375C57.4564 147.94 58.4139 149.058 59.3206 150.543C59.9154 151.51 60.5464 152.541 61.5547 153.118C61.736 153.219 61.9391 153.32 62.1495 153.291C62.3598 153.262 62.5557 153.067 62.4976 152.865C62.795 152.894 63.4116 153.024 63.6292 152.757C63.7235 152.635 63.7597 152.469 63.738 152.317C63.8976 152.274 64.0716 152.346 64.2312 152.303C64.3545 152.274 64.4488 152.188 64.5359 152.101C64.5939 152.036 64.6592 151.971 64.6882 151.885C64.7172 151.798 64.6374 151.683 64.7027 151.611C64.739 151.575 64.8042 151.575 64.855 151.567C65.1669 151.553 66.1389 151.005 65.798 150.558H65.8052Z" fill="#FF4650"/>
<path d="M64.6229 151.452C63.9991 151.272 63.5277 150.781 63.1142 150.32C63.0852 150.284 62.9546 150.32 62.9909 150.356C63.4334 150.846 63.9193 151.337 64.5722 151.524C64.6229 151.539 64.7172 151.481 64.6302 151.452H64.6229Z" fill="#FF4650"/>
<path d="M63.6365 152.13C63.0852 151.885 62.5775 151.539 62.1495 151.106C62.1205 151.07 61.9899 151.106 62.0407 151.156C62.4687 151.596 62.9837 151.942 63.5494 152.195C63.593 152.216 63.709 152.166 63.6365 152.13Z" fill="#FF4650"/>
<path d="M62.4541 152.765C61.9682 152.548 61.5982 152.152 61.2428 151.777C61.221 151.755 61.1848 151.755 61.1558 151.762C61.1413 151.762 61.0905 151.791 61.1122 151.813C61.4822 152.209 61.8593 152.606 62.3598 152.829C62.3889 152.844 62.4324 152.837 62.4541 152.815C62.4759 152.801 62.4759 152.779 62.4541 152.765Z" fill="#FF4650"/>
<path d="M44.6685 130.12C44.8861 130.084 45.1037 130.063 45.314 130.063C46.4093 130.048 47.5118 130.466 48.3097 131.216C49.347 132.183 50.2899 133.228 51.2111 134.303C53.5975 137.101 55.9912 139.899 58.3776 142.697C59.2843 143.757 60.3723 144.796 61.163 145.942C61.7142 146.743 61.1122 147.962 60.4594 148.603C60.22 148.841 59.9299 149.043 59.5962 149.101C59.1247 149.18 58.6605 148.95 58.2398 148.719C56.0057 147.478 53.9457 145.957 51.893 144.435C50.0143 143.043 48.1356 141.652 46.3078 140.195C45.4083 139.481 44.5234 138.753 43.6602 137.995C42.9566 137.382 42.0499 136.798 41.7526 135.875C41.6075 135.414 41.6075 134.916 41.622 134.433C41.651 133.474 41.6873 132.003 42.3618 131.26C42.9059 130.654 43.8198 130.265 44.6685 130.128V130.12Z" fill="#FF4650"/>
<path d="M57.0647 137.678C56.644 137.281 56.2088 136.899 55.8099 136.546C50.4568 131.728 45.9741 126.125 42.2821 120.024C40.3671 116.858 38.4087 113.721 36.443 110.599C35.5145 109.127 34.7239 107.764 33.3748 106.661C32.3012 105.789 30.9883 105.161 29.5739 105.305C26.9844 105.558 25.4902 108.082 25.4031 110.476C25.3886 110.801 25.4031 111.125 25.4249 111.45C25.4902 112.365 25.686 113.281 25.9399 114.168C27.7243 120.435 31.2132 125.26 34.9415 130.423C37.5238 134 40.3962 137.361 43.5224 140.483C46.4021 143.353 49.5864 146.75 53.6193 147.911C54.0618 148.041 54.5332 148.142 54.9902 148.07C55.2876 148.019 55.5705 147.897 55.8752 147.889C56.4482 147.868 56.9487 148.228 57.4202 148.553C57.5652 148.654 57.7321 148.755 57.9134 148.755C58.1745 148.755 58.3776 148.531 58.5517 148.329C59.277 147.457 60.0024 146.584 60.735 145.704C61.4023 144.897 60.5899 144.551 60.0387 143.981C59.8646 143.801 59.6687 143.613 59.6252 143.368C59.6035 143.224 59.6252 143.079 59.6542 142.935C60.0097 140.822 58.5807 139.12 57.072 137.692L57.0647 137.678Z" fill="#FF4650"/>
<path d="M40.1423 108.089C39.5983 107.642 38.9527 107.368 38.2927 107.144C37.5383 106.885 36.7767 106.654 36.0151 106.438C34.5063 105.998 32.9468 105.652 31.3656 105.673C29.9439 105.688 28.4859 105.998 27.2746 106.755C26.2228 107.404 25.4104 108.342 24.6053 109.265C23.6986 110.303 22.7629 111.37 21.5008 111.969C21.4355 111.998 21.45 112.056 21.5008 112.092C21.566 112.135 21.6749 112.12 21.7401 112.092C23.9307 111.06 25.0622 108.774 26.9046 107.31C27.9999 106.438 29.3418 105.991 30.7272 105.875C32.236 105.753 33.7447 106.019 35.2027 106.409C36.0441 106.632 36.871 106.892 37.6979 107.159C38.4595 107.404 39.2284 107.671 39.8522 108.183C39.932 108.248 40.2584 108.19 40.1423 108.096V108.089Z" fill="#FF4650"/>
<path d="M33.9551 103.95C32.0547 102.983 30.031 102.269 27.942 101.822C27.3472 101.692 26.7524 101.592 26.1503 101.512C26.0996 101.512 25.9617 101.512 25.94 101.57C25.9182 101.642 26.0053 101.671 26.056 101.678C28.1305 101.959 30.1615 102.515 32.091 103.322C32.6422 103.553 33.179 103.805 33.7085 104.072C33.7738 104.108 33.8826 104.116 33.9479 104.072C34.0059 104.036 34.0131 103.986 33.9479 103.95H33.9551Z" fill="#FF4650"/>
<path d="M41.4479 138.68C39.5983 136.661 37.8139 134.584 36.1021 132.442C34.3975 130.308 32.7582 128.108 31.1987 125.865C30.321 124.603 29.4724 123.32 28.6455 122.029C28.5802 121.935 28.2538 121.971 28.319 122.072C29.7988 124.387 31.351 126.652 32.983 128.858C34.6078 131.058 36.3052 133.2 38.075 135.284C39.076 136.466 40.106 137.628 41.1505 138.767C41.223 138.846 41.5495 138.796 41.4406 138.68H41.4479Z" fill="#FF4650"/>
<path d="M41.9847 119.548L37.9808 113.245C37.9155 113.152 37.5891 113.188 37.6544 113.289C38.989 115.387 40.3236 117.493 41.6583 119.591C41.7236 119.692 42.05 119.649 41.9847 119.548Z" fill="#FF4650"/>
<path d="M58.9797 143.837C58.3051 145.142 57.4057 146.325 56.3249 147.327C56.2161 147.428 56.5353 147.486 56.6151 147.414C57.7103 146.397 58.6243 145.2 59.3061 143.88C59.3641 143.772 59.0377 143.736 58.9797 143.837Z" fill="#FF4650"/>
<path d="M45.9233 161.079C45.9016 161.014 45.7638 161.014 45.713 161.022C41.4407 161.375 37.1538 161.527 32.867 161.469C31.6629 161.454 30.4588 161.418 29.2548 161.375C29.204 161.375 29.0879 161.389 29.0879 161.462C29.0879 161.534 29.2112 161.548 29.2548 161.548C33.5561 161.721 37.8574 161.685 42.1515 161.447C43.3701 161.375 44.5814 161.296 45.8 161.195C45.8581 161.195 45.9378 161.159 45.9161 161.087L45.9233 161.079Z" fill="#FF4650"/>
</g>
<defs>
<clipPath id="clip0_236_1451">
<rect width="275" height="233" fill="white"/>
</clipPath>
<clipPath id="clip1_236_1451">
<rect width="121" height="178" fill="white" transform="translate(120 54)"/>
</clipPath>
</defs>
</svg>
