<svg width="300" height="239" viewBox="0 0 300 239" fill="none" xmlns="http://www.w3.org/2000/svg">
<g clip-path="url(#clip0_236_1394)">
<path d="M195.812 223.673C145.558 198.388 137.252 208.901 95.304 230.822C49.8861 254.582 8.62099 218.206 3.20658 187.349C-12.1956 99.2991 35.2725 19.7652 92.2551 3.10142C125.057 -6.51835 188.768 4.36303 193.447 61.8714C195.602 88.0497 184.195 111.915 212.371 121.745C241.545 131.943 286.07 108.341 298.528 157.543C310.881 206.273 242.755 247.275 195.812 223.62V223.673Z" fill="#E1F3F9"/>
<path d="M136.411 36.1135H42.8421C37.0357 36.1135 32.3287 40.8205 32.3287 46.6269V217.89C32.3287 223.697 37.0357 228.404 42.8421 228.404H136.411C142.218 228.404 146.925 223.697 146.925 217.89V46.6269C146.925 40.8205 142.218 36.1135 136.411 36.1135Z" fill="#2786CC"/>
<path d="M144.612 36.1135H51.0426C45.2362 36.1135 40.5292 40.8205 40.5292 46.6269V217.89C40.5292 223.697 45.2362 228.404 51.0426 228.404H144.612C150.418 228.404 155.125 223.697 155.125 217.89V46.6269C155.125 40.8205 150.418 36.1135 144.612 36.1135Z" fill="#6BB4F7"/>
<path d="M136.411 45.155H60.7674C54.961 45.155 50.254 49.862 50.254 55.6684V197.599C50.254 203.406 54.961 208.113 60.7674 208.113H136.411C142.218 208.113 146.925 203.406 146.925 197.599V55.6684C146.925 49.862 142.218 45.155 136.411 45.155Z" fill="#AACEF2"/>
<path d="M131.996 45.155H60.7674C54.961 45.155 50.254 49.862 50.254 55.6684V197.599C50.254 203.406 54.961 208.113 60.7674 208.113H131.996C137.802 208.113 142.509 203.406 142.509 197.599V55.6684C142.509 49.862 137.802 45.155 131.996 45.155Z" fill="#D2EBFF"/>
<path d="M129.525 220.203H70.4924C68.7052 220.203 67.2333 218.731 67.2333 216.944C67.2333 215.157 68.7052 213.685 70.4924 213.685H129.525C131.312 213.685 132.784 215.157 132.784 216.944C132.784 218.731 131.312 220.203 129.525 220.203Z" fill="#2786CC"/>
<path d="M165.534 146.872H75.1709C69.3645 146.872 64.6575 151.579 64.6575 157.386V171.947C64.6575 177.753 69.3645 182.46 75.1709 182.46H165.534C171.34 182.46 176.047 177.753 176.047 171.947V157.386C176.047 151.579 171.34 146.872 165.534 146.872Z" fill="white"/>
<path d="M151.393 104.503H75.1709C69.3645 104.503 64.6575 109.21 64.6575 115.017V125.057C64.6575 130.863 69.3645 135.57 75.1709 135.57H151.393C157.199 135.57 161.906 130.863 161.906 125.057V115.017C161.906 109.21 157.199 104.503 151.393 104.503Z" fill="white"/>
<path d="M151.656 121.22H73.4362C72.2797 121.22 71.3335 120.273 71.3335 119.064C71.3335 117.908 72.2797 116.962 73.4362 116.962H151.656C152.812 116.962 153.759 117.908 153.759 119.064C153.759 120.221 152.812 121.22 151.656 121.22Z" fill="#E1F3F9"/>
<path d="M116.015 113.965H73.2259C72.1746 113.965 71.3335 113.124 71.3335 112.073C71.3335 111.021 72.1746 110.18 73.2259 110.18H116.015C117.067 110.18 117.908 111.021 117.908 112.073C117.908 113.124 117.067 113.965 116.015 113.965Z" fill="#E1F3F9"/>
<path d="M152.392 164.114H74.172C73.0155 164.114 72.0693 163.168 72.0693 162.012C72.0693 160.855 73.0155 159.909 74.172 159.909H152.392C153.548 159.909 154.494 160.855 154.494 162.012C154.494 163.168 153.548 164.114 152.392 164.114Z" fill="#E1F3F9"/>
<path d="M116.751 156.913H73.9617C72.9104 156.913 72.0693 156.071 72.0693 155.02C72.0693 153.969 72.9104 153.128 73.9617 153.128H116.751C117.803 153.128 118.644 153.969 118.644 155.02C118.644 156.071 117.803 156.913 116.751 156.913Z" fill="#E1F3F9"/>
<path d="M152.392 178.15H74.172C73.0155 178.15 72.0693 177.203 72.0693 176.047C72.0693 174.891 73.0155 173.944 74.172 173.944H152.392C153.548 173.944 154.494 174.891 154.494 176.047C154.494 177.203 153.548 178.15 152.392 178.15Z" fill="#E1F3F9"/>
<path d="M116.751 170.895H73.9617C72.9104 170.895 72.0693 170.054 72.0693 169.003C72.0693 167.952 72.9104 167.111 73.9617 167.111H116.751C117.803 167.111 118.644 167.952 118.644 169.003C118.644 170.054 117.803 170.895 116.751 170.895Z" fill="#E1F3F9"/>
<path d="M116.015 128.001H73.2259C72.1746 128.001 71.3335 127.16 71.3335 126.108C71.3335 125.057 72.1746 124.216 73.2259 124.216H116.015C117.067 124.216 117.908 125.057 117.908 126.108C117.908 127.16 117.067 128.001 116.015 128.001Z" fill="#E1F3F9"/>
<path d="M230.664 190.661V209.217L250.745 199.912L230.664 190.661Z" fill="#39BFB1"/>
<path d="M174.207 57.6135H78.5877C72.7814 57.6135 68.0743 62.3205 68.0743 68.1269V80.7956C68.0743 86.602 72.7814 91.309 78.5877 91.309H174.207C180.014 91.309 184.721 86.602 184.721 80.7956V68.1269C184.721 62.3205 180.014 57.6135 174.207 57.6135Z" fill="white"/>
<path d="M73.1207 91.309C73.1207 91.309 96.5131 63.7639 108.393 65.078C120.116 66.3922 139.881 91.309 139.881 91.309H73.1207Z" fill="#C1E3FB"/>
<path d="M110.917 91.309C110.917 91.309 134.309 63.7639 146.189 65.078C157.911 66.3922 177.677 91.309 177.677 91.309H110.917Z" fill="#A9D1EA"/>
<path d="M124.636 69.809C127.162 69.809 129.21 67.7615 129.21 65.2357C129.21 62.7099 127.162 60.6624 124.636 60.6624C122.111 60.6624 120.063 62.7099 120.063 65.2357C120.063 67.7615 122.111 69.809 124.636 69.809Z" fill="#A9D1EA"/>
<path d="M18.5036 169.108L0 168.53L8.62099 188.873L18.5036 169.108Z" fill="#FFA60E"/>
<path d="M187.244 42.1062H170.633C165.639 42.1062 161.591 46.1542 161.591 51.1477V72.8053C161.591 77.7988 165.639 81.8469 170.633 81.8469H187.244C192.237 81.8469 196.285 77.7988 196.285 72.8053V51.1477C196.285 46.1542 192.237 42.1062 187.244 42.1062Z" fill="#39BFB1"/>
<path d="M167.261 46.1923L164.761 48.5212L165.083 48.8674L167.583 46.5384L167.261 46.1923Z" fill="#FBFFFC"/>
<path d="M165.098 46.154L164.773 46.4971L167.25 48.8499L167.576 48.5069L165.098 46.154Z" fill="#FBFFFC"/>
<path d="M49.6232 76.3799H25.0744C19.268 76.3799 14.561 81.0869 14.561 86.8933V99.0363C14.561 104.843 19.268 109.55 25.0744 109.55H49.6232C55.4296 109.55 60.1366 104.843 60.1366 99.0363V86.8933C60.1366 81.0869 55.4296 76.3799 49.6232 76.3799Z" fill="#FFA60E"/>
<path d="M178.202 119.432C178.202 119.432 188.978 127.528 196.233 126.739C203.487 125.951 204.433 120.326 204.433 120.326C204.433 120.326 187.612 118.328 182.04 113.282C176.467 108.183 178.202 119.485 178.202 119.485V119.432Z" fill="#7C4930"/>
<path d="M209.848 126.687C205.117 136.149 185.772 126.792 185.772 126.792L188.873 115.963C188.873 115.963 214.473 117.435 209.848 126.687Z" fill="#EA3F51"/>
<path d="M176.205 109.813C176.205 109.813 175.206 108.603 175.048 108.446C173.787 106.974 172.262 105.66 171.368 103.872C170.948 103.031 170.685 102.138 170.79 101.192C170.79 100.666 171.001 100.088 171.158 99.562C171.211 99.3517 171.263 99.0889 171.158 98.9837C171.001 98.8786 170.79 98.9312 170.633 98.9837C170.212 99.2466 170.054 99.7722 169.791 100.14C169.634 100.403 169.318 100.824 168.95 100.876C168.635 100.929 168.32 100.666 168.109 100.456C167.479 99.8248 167.058 99.0889 166.637 98.3004C166.322 97.6696 166.059 96.881 165.166 97.249C164.85 97.3541 164.535 97.3542 164.219 97.3542C164.062 97.3542 163.904 97.3541 163.746 97.5118C163.694 97.5644 163.641 97.617 163.641 97.6696C163.536 97.8273 163.431 97.9324 163.273 98.0375C163.168 98.0901 163.063 98.1427 163.01 98.2478C162.905 98.3529 162.905 98.5106 162.958 98.6158C163.063 98.9312 163.115 99.2466 163.273 99.562C163.431 99.9299 163.536 100.35 163.694 100.666C163.851 100.981 164.062 101.192 164.167 101.507C164.798 102.821 166.637 105.449 166.743 105.555C167.426 106.396 169.371 108.446 170.159 109.024C170.948 109.655 176.257 109.655 176.257 109.655L176.205 109.813Z" fill="#7C4930"/>
<path d="M179.989 120.641C174.996 118.013 166.743 105.712 166.743 105.712L171.263 105.239L185.614 115.91C185.614 115.91 184.983 123.27 179.989 120.641Z" fill="#7C4930"/>
<path d="M236.394 219.783C237.13 219.047 239.811 222.569 239.6 224.461C239.285 227.09 232.451 230.822 229.14 230.296C227.405 230.033 227.615 228.141 228.193 227.195C228.824 226.091 234.186 224.198 231.61 221.412C230.138 219.888 233.45 222.674 236.446 219.783H236.394Z" fill="#FFA60E"/>
<path d="M211.793 147.24L193.289 157.806C193.289 157.806 198.756 174.417 201.437 181.514C201.437 181.514 201.489 181.672 201.595 181.934C201.7 182.197 201.805 182.513 201.91 182.776C203.277 186.35 205.695 193.342 207.061 195.549C209.427 199.334 230.927 224.146 230.927 224.146C230.927 224.146 235.553 224.461 238.023 219.625C238.023 219.625 229.245 193.289 220.046 186.245C220.046 186.245 215.998 156.545 211.898 147.293L211.793 147.24Z" fill="#AF75E1"/>
<path d="M187.822 228.824C188.873 228.614 189.241 232.977 188.032 234.502C186.35 236.552 178.623 236.079 176.047 233.871C174.733 232.714 175.942 231.242 176.888 230.717C178.045 230.086 183.564 231.4 182.828 227.668C182.408 225.565 183.722 229.718 187.769 228.877L187.822 228.824Z" fill="#FFA60E"/>
<path d="M204.959 153.811L184.458 153.391C184.458 153.391 180.252 170.37 178.675 177.782C178.675 177.782 178.675 177.939 178.57 178.255C178.518 178.57 178.465 178.833 178.413 179.096C177.677 182.828 175.942 190.03 175.942 192.606C175.942 197.074 180.831 229.508 180.831 229.508C180.831 229.508 184.563 232.241 189.241 229.508C189.241 229.508 195.865 202.593 191.817 191.659C191.817 191.659 203.487 163.851 204.906 153.864L204.959 153.811Z" fill="#AF75E1"/>
<path d="M211.319 118.065C209.48 110.075 199.019 112.493 191.922 113.965C187.086 114.964 184.405 117.96 184.615 129.998C184.721 135.255 182.776 148.134 185.088 154.232C185.088 154.232 195.076 160.382 213.317 152.655C213.317 152.655 215.157 135.097 211.267 118.065H211.319Z" fill="#FF4650"/>
<path d="M203.96 114.07C203.96 115.122 201.752 116.015 199.019 116.015C196.285 116.015 194.078 115.122 194.078 114.07C194.078 113.019 196.285 112.125 199.019 112.125C201.752 112.125 203.96 113.019 203.96 114.07Z" fill="#7C4930"/>
<path d="M194.919 108.341C194.919 108.341 196.811 110.549 194.078 113.86C194.078 113.86 200.491 117.698 203.908 113.86C203.908 113.86 202.068 111.022 202.856 106.921L194.866 108.341H194.919Z" fill="#7C4930"/>
<path d="M192.08 92.2551C192.08 92.2551 190.555 96.3028 190.398 100.613C190.135 106.921 191.922 110.548 199.597 108.446C207.114 106.396 195.76 91.1512 192.08 92.2551Z" fill="#7C4930"/>
<path d="M195.286 109.024C195.286 109.024 197.652 109.024 199.019 108.604C199.019 108.604 199.807 108.866 200.175 109.077C200.175 109.077 197.442 109.865 195.286 109.077V109.024Z" fill="#56301B"/>
<path d="M195.287 101.56C196.969 102.453 196.706 108.498 200.175 109.077C203.855 109.707 206.063 107.394 207.64 98.7209C208.744 92.6757 206.536 89.7319 200.859 88.5755C195.655 87.4716 191.554 89.6268 190.976 92.7808C190.818 93.727 191.029 93.8847 192.711 94.7258C194.393 95.6194 191.502 99.6145 195.287 101.612V101.56Z" fill="#1E1240"/>
<path d="M196.075 104.346C196.075 104.346 198.966 101.349 197.705 100.035C195.97 98.1428 194.078 102.506 194.078 102.506L196.075 104.346Z" fill="#7C4930"/>
<path d="M183.88 155.809C183.88 155.809 202.541 159.646 214.211 153.759L213.422 150.604C213.422 150.604 200.123 155.703 184.195 152.182L183.88 155.809Z" fill="#9361C9"/>
<path d="M193.079 152.76H194.761L195.129 158.016H192.395L193.079 152.76Z" fill="#AF75E1"/>
<path d="M204.696 152.182L205.853 151.761L207.955 156.597L205.485 157.386L204.696 152.182Z" fill="#AF75E1"/>
<path d="M190.398 158.279C189.346 161.118 186.35 168.215 182.197 166.532C181.619 166.322 181.882 165.376 182.46 165.639C185.877 167.006 188.611 160.435 189.504 158.017C189.714 157.438 190.608 157.701 190.398 158.279Z" fill="#9361C9"/>
<path d="M201.279 163.694C201.752 167.321 200.491 171.106 198.546 174.102C198.283 174.522 198.914 174.89 199.176 174.47C201.174 171.368 202.488 167.426 202.015 163.694C201.963 163.221 201.227 163.221 201.279 163.694Z" fill="#9361C9"/>
<path d="M175.626 140.985C175.626 140.985 187.349 134.887 189.504 128.316C191.659 121.745 186.876 118.854 186.876 118.854C186.876 118.854 178.36 132.469 171.474 135.307C164.587 138.146 175.626 140.985 175.626 140.985Z" fill="#7C4930"/>
<path d="M194.813 116.646C201.595 124.321 185.351 137.305 185.351 137.305L176.678 130.524C176.678 130.524 188.242 109.182 194.866 116.646H194.813Z" fill="#ED3748"/>
<path d="M167.899 130.419C167.899 130.419 166.848 129.262 166.69 129.104C165.376 127.685 163.851 126.424 162.853 124.689C162.38 123.9 162.117 122.954 162.117 122.061C162.117 121.535 162.222 120.957 162.327 120.431C162.327 120.221 162.432 119.958 162.274 119.853C162.117 119.748 161.906 119.8 161.749 119.853C161.381 120.116 161.276 120.641 161.013 121.062C160.855 121.325 160.592 121.745 160.277 121.85C159.961 121.903 159.646 121.64 159.436 121.482C158.805 120.904 158.332 120.168 157.911 119.432C157.543 118.854 157.281 118.065 156.439 118.433C156.124 118.591 155.861 118.539 155.546 118.539C155.388 118.539 155.23 118.539 155.125 118.696C155.125 118.749 155.073 118.801 155.02 118.906C154.968 119.064 154.862 119.169 154.705 119.274C154.6 119.327 154.547 119.38 154.495 119.485C154.442 119.59 154.442 119.748 154.495 119.853C154.6 120.168 154.705 120.483 154.862 120.799C155.02 121.167 155.125 121.535 155.336 121.903C155.493 122.218 155.704 122.428 155.861 122.744C156.545 124.058 158.49 126.581 158.595 126.634C159.278 127.475 161.276 129.367 162.064 129.998C162.853 130.576 167.847 130.419 167.847 130.419H167.899Z" fill="#7C4930"/>
<path d="M172.262 141.037C167.321 138.619 158.647 126.686 158.647 126.686L162.905 126.108L177.256 136.201C177.256 136.201 177.256 143.508 172.315 141.09L172.262 141.037Z" fill="#7C4930"/>
</g>
<defs>
<clipPath id="clip0_236_1394">
<rect width="300" height="238.444" fill="white"/>
</clipPath>
</defs>
</svg>
